G04 #@! TF.GenerationSoftware,KiCad,Pcbnew,8.0.1*
G04 #@! TF.CreationDate,2024-10-15T00:39:43+09:00*
G04 #@! TF.ProjectId,AltBoard2025,416c7442-6f61-4726-9432-3032352e6b69,rev?*
G04 #@! TF.SameCoordinates,Original*
G04 #@! TF.FileFunction,Soldermask,Top*
G04 #@! TF.FilePolarity,Negative*
%FSLAX46Y46*%
G04 Gerber Fmt 4.6, Leading zero omitted, Abs format (unit mm)*
G04 Created by KiCad (PCBNEW 8.0.1) date 2024-10-15 00:39:43*
%MOMM*%
%LPD*%
G01*
G04 APERTURE LIST*
G04 Aperture macros list*
%AMRoundRect*
0 Rectangle with rounded corners*
0 $1 Rounding radius*
0 $2 $3 $4 $5 $6 $7 $8 $9 X,Y pos of 4 corners*
0 Add a 4 corners polygon primitive as box body*
4,1,4,$2,$3,$4,$5,$6,$7,$8,$9,$2,$3,0*
0 Add four circle primitives for the rounded corners*
1,1,$1+$1,$2,$3*
1,1,$1+$1,$4,$5*
1,1,$1+$1,$6,$7*
1,1,$1+$1,$8,$9*
0 Add four rect primitives between the rounded corners*
20,1,$1+$1,$2,$3,$4,$5,0*
20,1,$1+$1,$4,$5,$6,$7,0*
20,1,$1+$1,$6,$7,$8,$9,0*
20,1,$1+$1,$8,$9,$2,$3,0*%
G04 Aperture macros list end*
%ADD10C,1.520000*%
%ADD11R,1.520000X1.520000*%
%ADD12C,2.300000*%
%ADD13R,1.700000X1.700000*%
%ADD14O,1.700000X1.700000*%
%ADD15RoundRect,0.225000X0.225000X0.250000X-0.225000X0.250000X-0.225000X-0.250000X0.225000X-0.250000X0*%
%ADD16RoundRect,0.218750X-0.218750X-0.256250X0.218750X-0.256250X0.218750X0.256250X-0.218750X0.256250X0*%
%ADD17RoundRect,0.225000X-0.225000X-0.250000X0.225000X-0.250000X0.225000X0.250000X-0.225000X0.250000X0*%
%ADD18R,1.500000X2.300000*%
%ADD19O,1.500000X2.300000*%
%ADD20R,1.050000X0.650000*%
%ADD21RoundRect,0.200000X0.200000X0.275000X-0.200000X0.275000X-0.200000X-0.275000X0.200000X-0.275000X0*%
%ADD22RoundRect,0.200000X-0.200000X-0.275000X0.200000X-0.275000X0.200000X0.275000X-0.200000X0.275000X0*%
%ADD23C,1.524000*%
%ADD24C,0.700000*%
%ADD25C,0.600000*%
%ADD26C,0.500000*%
G04 APERTURE END LIST*
D10*
X124600000Y-27700000D03*
X127140000Y-28720000D03*
X124600000Y-29740000D03*
X127140000Y-30760000D03*
X124600000Y-31780000D03*
D11*
X127140000Y-32800000D03*
D12*
X122300000Y-36250000D03*
X122300000Y-24250000D03*
D13*
X144400000Y-27360000D03*
D14*
X144400000Y-29900000D03*
X144400000Y-32440000D03*
X144400000Y-34980000D03*
D15*
X133600000Y-30900000D03*
X132050000Y-30900000D03*
D16*
X138800000Y-27900000D03*
X140375000Y-27900000D03*
D17*
X136150000Y-40600000D03*
X137700000Y-40600000D03*
D18*
X140547000Y-47492500D03*
D19*
X138007000Y-47492500D03*
X135467000Y-47492500D03*
D20*
X138175000Y-38975000D03*
X134025000Y-38975000D03*
X138175000Y-36825000D03*
X134025000Y-36825000D03*
D15*
X137650000Y-44300000D03*
X136100000Y-44300000D03*
D16*
X138812500Y-26200000D03*
X140387500Y-26200000D03*
D17*
X132050000Y-29300000D03*
X133600000Y-29300000D03*
D12*
X122300000Y-39900000D03*
X122300000Y-51900000D03*
D11*
X127140000Y-48450000D03*
D10*
X124600000Y-47430000D03*
X127140000Y-46410000D03*
X124600000Y-45390000D03*
X127140000Y-44370000D03*
X124600000Y-43350000D03*
D21*
X137200000Y-29620000D03*
X135550000Y-29620000D03*
X135550000Y-26210000D03*
X137200000Y-26210000D03*
D22*
X141450000Y-40900000D03*
X143100000Y-40900000D03*
D16*
X138812500Y-29600000D03*
X140387500Y-29600000D03*
D21*
X137187500Y-27900000D03*
X135537500Y-27900000D03*
D22*
X141475000Y-39200000D03*
X143125000Y-39200000D03*
D17*
X136100000Y-42400000D03*
X137650000Y-42400000D03*
D23*
X137420000Y-21100000D03*
X134880000Y-21100000D03*
X132340000Y-21100000D03*
X129800000Y-21100000D03*
X127260000Y-21100000D03*
X124720000Y-21100000D03*
X122180000Y-21100000D03*
X119640000Y-21100000D03*
X117100000Y-21100000D03*
D24*
X127500000Y-24200000D03*
D25*
X125700000Y-28700000D03*
D24*
X138000000Y-25200000D03*
D25*
X118000000Y-29400000D03*
X132400000Y-32400000D03*
D24*
X125800000Y-35700000D03*
D25*
X128400000Y-37200000D03*
D24*
X120400000Y-51500000D03*
D25*
X131900000Y-44600000D03*
D24*
X123900000Y-48800000D03*
X123500000Y-46400000D03*
X136400000Y-36400000D03*
X128500000Y-53200000D03*
X135895014Y-34302493D03*
X118500000Y-43400000D03*
X142404947Y-41742746D03*
X120100000Y-23300000D03*
X136500000Y-37800000D03*
D25*
X140100000Y-45000000D03*
D24*
X145300000Y-22500000D03*
X126000000Y-45300000D03*
X143600000Y-51600000D03*
X131651460Y-38778216D03*
X125200000Y-51200000D03*
X118500000Y-25900000D03*
X135200000Y-50500000D03*
X123500000Y-20100000D03*
D25*
X131100000Y-49100000D03*
D24*
X145300000Y-36900000D03*
X118100000Y-32000000D03*
X133900000Y-28100000D03*
X123100000Y-32600000D03*
X129100000Y-40900000D03*
X122900000Y-28700000D03*
X143200000Y-46100000D03*
X121300000Y-30300000D03*
D25*
X135000000Y-45400000D03*
D24*
X128800000Y-28000000D03*
X125600000Y-41500000D03*
X143900000Y-25200000D03*
X137700000Y-30800000D03*
X135600000Y-30800000D03*
X132100000Y-40400000D03*
X139200000Y-20500000D03*
D25*
X135500000Y-25200000D03*
D24*
X128500000Y-20100000D03*
X135100000Y-52600000D03*
X141200000Y-22600000D03*
X117200000Y-50000000D03*
X143900000Y-43800000D03*
D25*
X135400000Y-39700000D03*
D24*
X129900000Y-35600000D03*
X138930331Y-39869669D03*
X139100000Y-30800000D03*
X138800000Y-35200000D03*
X138350000Y-43600000D03*
X139469425Y-42485354D03*
X137980025Y-33880025D03*
X136700000Y-33900000D03*
D25*
X142700000Y-26400000D03*
D24*
X129800000Y-44300000D03*
X122500000Y-42700000D03*
D25*
X140400000Y-33200000D03*
X140600000Y-31600000D03*
X129700000Y-33600000D03*
X142400000Y-30000000D03*
X142300000Y-33900000D03*
D24*
X144500000Y-39900000D03*
X131200000Y-24700000D03*
X130200000Y-29000000D03*
D25*
X142200000Y-29200000D03*
D26*
X143231672Y-31400000D03*
D24*
X130100000Y-22800000D03*
X132900000Y-22600000D03*
M02*
