G04 #@! TF.GenerationSoftware,KiCad,Pcbnew,8.0.1*
G04 #@! TF.CreationDate,2024-10-15T00:39:43+09:00*
G04 #@! TF.ProjectId,AltBoard2025,416c7442-6f61-4726-9432-3032352e6b69,rev?*
G04 #@! TF.SameCoordinates,Original*
G04 #@! TF.FileFunction,Copper,L2,Bot*
G04 #@! TF.FilePolarity,Positive*
%FSLAX46Y46*%
G04 Gerber Fmt 4.6, Leading zero omitted, Abs format (unit mm)*
G04 Created by KiCad (PCBNEW 8.0.1) date 2024-10-15 00:39:43*
%MOMM*%
%LPD*%
G01*
G04 APERTURE LIST*
G04 Aperture macros list*
%AMRoundRect*
0 Rectangle with rounded corners*
0 $1 Rounding radius*
0 $2 $3 $4 $5 $6 $7 $8 $9 X,Y pos of 4 corners*
0 Add a 4 corners polygon primitive as box body*
4,1,4,$2,$3,$4,$5,$6,$7,$8,$9,$2,$3,0*
0 Add four circle primitives for the rounded corners*
1,1,$1+$1,$2,$3*
1,1,$1+$1,$4,$5*
1,1,$1+$1,$6,$7*
1,1,$1+$1,$8,$9*
0 Add four rect primitives between the rounded corners*
20,1,$1+$1,$2,$3,$4,$5,0*
20,1,$1+$1,$4,$5,$6,$7,0*
20,1,$1+$1,$6,$7,$8,$9,0*
20,1,$1+$1,$8,$9,$2,$3,0*%
%AMFreePoly0*
4,1,19,0.500000,-0.750000,0.000000,-0.750000,0.000000,-0.744911,-0.071157,-0.744911,-0.207708,-0.704816,-0.327430,-0.627875,-0.420627,-0.520320,-0.479746,-0.390866,-0.500000,-0.250000,-0.500000,0.250000,-0.479746,0.390866,-0.420627,0.520320,-0.327430,0.627875,-0.207708,0.704816,-0.071157,0.744911,0.000000,0.744911,0.000000,0.750000,0.500000,0.750000,0.500000,-0.750000,0.500000,-0.750000,
$1*%
%AMFreePoly1*
4,1,19,0.000000,0.744911,0.071157,0.744911,0.207708,0.704816,0.327430,0.627875,0.420627,0.520320,0.479746,0.390866,0.500000,0.250000,0.500000,-0.250000,0.479746,-0.390866,0.420627,-0.520320,0.327430,-0.627875,0.207708,-0.704816,0.071157,-0.744911,0.000000,-0.744911,0.000000,-0.750000,-0.500000,-0.750000,-0.500000,0.750000,0.000000,0.750000,0.000000,0.744911,0.000000,0.744911,
$1*%
G04 Aperture macros list end*
G04 #@! TA.AperFunction,ComponentPad*
%ADD10C,1.520000*%
G04 #@! TD*
G04 #@! TA.AperFunction,ComponentPad*
%ADD11R,1.520000X1.520000*%
G04 #@! TD*
G04 #@! TA.AperFunction,ComponentPad*
%ADD12R,1.700000X1.700000*%
G04 #@! TD*
G04 #@! TA.AperFunction,ComponentPad*
%ADD13O,1.700000X1.700000*%
G04 #@! TD*
G04 #@! TA.AperFunction,ComponentPad*
%ADD14R,1.500000X2.300000*%
G04 #@! TD*
G04 #@! TA.AperFunction,ComponentPad*
%ADD15O,1.500000X2.300000*%
G04 #@! TD*
G04 #@! TA.AperFunction,SMDPad,CuDef*
%ADD16RoundRect,0.200000X0.275000X-0.200000X0.275000X0.200000X-0.275000X0.200000X-0.275000X-0.200000X0*%
G04 #@! TD*
G04 #@! TA.AperFunction,SMDPad,CuDef*
%ADD17RoundRect,0.225000X0.225000X0.375000X-0.225000X0.375000X-0.225000X-0.375000X0.225000X-0.375000X0*%
G04 #@! TD*
G04 #@! TA.AperFunction,SMDPad,CuDef*
%ADD18R,0.550000X1.600000*%
G04 #@! TD*
G04 #@! TA.AperFunction,SMDPad,CuDef*
%ADD19R,1.600000X0.550000*%
G04 #@! TD*
G04 #@! TA.AperFunction,SMDPad,CuDef*
%ADD20R,1.900000X0.400000*%
G04 #@! TD*
G04 #@! TA.AperFunction,ComponentPad*
%ADD21C,1.524000*%
G04 #@! TD*
G04 #@! TA.AperFunction,SMDPad,CuDef*
%ADD22FreePoly0,270.000000*%
G04 #@! TD*
G04 #@! TA.AperFunction,SMDPad,CuDef*
%ADD23FreePoly1,270.000000*%
G04 #@! TD*
G04 #@! TA.AperFunction,SMDPad,CuDef*
%ADD24R,1.750000X0.450000*%
G04 #@! TD*
G04 #@! TA.AperFunction,SMDPad,CuDef*
%ADD25RoundRect,0.225000X-0.225000X-0.250000X0.225000X-0.250000X0.225000X0.250000X-0.225000X0.250000X0*%
G04 #@! TD*
G04 #@! TA.AperFunction,ViaPad*
%ADD26C,0.700000*%
G04 #@! TD*
G04 #@! TA.AperFunction,ViaPad*
%ADD27C,0.600000*%
G04 #@! TD*
G04 #@! TA.AperFunction,ViaPad*
%ADD28C,0.500000*%
G04 #@! TD*
G04 #@! TA.AperFunction,Conductor*
%ADD29C,0.400000*%
G04 #@! TD*
G04 #@! TA.AperFunction,Conductor*
%ADD30C,0.700000*%
G04 #@! TD*
G04 #@! TA.AperFunction,Conductor*
%ADD31C,0.300000*%
G04 #@! TD*
G04 #@! TA.AperFunction,Conductor*
%ADD32C,0.200000*%
G04 #@! TD*
G04 APERTURE END LIST*
D10*
X124600000Y-27700000D03*
X127140000Y-28720000D03*
X124600000Y-29740000D03*
X127140000Y-30760000D03*
X124600000Y-31780000D03*
D11*
X127140000Y-32800000D03*
D12*
X144400000Y-27360000D03*
D13*
X144400000Y-29900000D03*
X144400000Y-32440000D03*
X144400000Y-34980000D03*
D14*
X140547000Y-47492500D03*
D15*
X138007000Y-47492500D03*
X135467000Y-47492500D03*
D11*
X127140000Y-48450000D03*
D10*
X124600000Y-47430000D03*
X127140000Y-46410000D03*
X124600000Y-45390000D03*
X127140000Y-44370000D03*
X124600000Y-43350000D03*
D16*
X119200000Y-40950000D03*
X119200000Y-39300000D03*
D17*
X136700000Y-50400000D03*
X133400000Y-50400000D03*
D18*
X133900000Y-23750000D03*
X134700000Y-23750000D03*
X135500000Y-23750000D03*
X136300000Y-23750000D03*
X137100000Y-23750000D03*
X137900000Y-23750000D03*
X138700000Y-23750000D03*
X139500000Y-23750000D03*
D19*
X140950000Y-25200000D03*
X140950000Y-26000000D03*
X140950000Y-26800000D03*
X140950000Y-27600000D03*
X140950000Y-28400000D03*
X140950000Y-29200000D03*
X140950000Y-30000000D03*
X140950000Y-30800000D03*
D18*
X139500000Y-32250000D03*
X138700000Y-32250000D03*
X137900000Y-32250000D03*
X137100000Y-32250000D03*
X136300000Y-32250000D03*
X135500000Y-32250000D03*
X134700000Y-32250000D03*
X133900000Y-32250000D03*
D19*
X132450000Y-30800000D03*
X132450000Y-30000000D03*
X132450000Y-29200000D03*
X132450000Y-28400000D03*
X132450000Y-27600000D03*
X132450000Y-26800000D03*
X132450000Y-26000000D03*
X132450000Y-25200000D03*
D20*
X143400000Y-23700000D03*
X143400000Y-22500000D03*
X143400000Y-21300000D03*
D17*
X136700000Y-52700000D03*
X133400000Y-52700000D03*
D21*
X137420000Y-21100000D03*
X134880000Y-21100000D03*
X132340000Y-21100000D03*
X129800000Y-21100000D03*
X127260000Y-21100000D03*
X124720000Y-21100000D03*
X122180000Y-21100000D03*
X119640000Y-21100000D03*
X117100000Y-21100000D03*
D22*
X119100000Y-36300000D03*
D23*
X119100000Y-37600000D03*
D24*
X133900000Y-43125000D03*
X133900000Y-42475000D03*
X133900000Y-41825000D03*
X133900000Y-41175000D03*
X133900000Y-40525000D03*
X133900000Y-39875000D03*
X133900000Y-39225000D03*
X133900000Y-38575000D03*
X133900000Y-37925000D03*
X133900000Y-37275000D03*
X133900000Y-36625000D03*
X133900000Y-35975000D03*
X133900000Y-35325000D03*
X133900000Y-34675000D03*
X141100000Y-34675000D03*
X141100000Y-35325000D03*
X141100000Y-35975000D03*
X141100000Y-36625000D03*
X141100000Y-37275000D03*
X141100000Y-37925000D03*
X141100000Y-38575000D03*
X141100000Y-39225000D03*
X141100000Y-39875000D03*
X141100000Y-40525000D03*
X141100000Y-41175000D03*
X141100000Y-41825000D03*
X141100000Y-42475000D03*
X141100000Y-43125000D03*
D25*
X139850000Y-51900000D03*
X141400000Y-51900000D03*
D20*
X130500000Y-37200000D03*
X130500000Y-38400000D03*
X130500000Y-39600000D03*
D26*
X127500000Y-24200000D03*
D27*
X125700000Y-28700000D03*
D26*
X138000000Y-25200000D03*
D27*
X118000000Y-29400000D03*
X132400000Y-32400000D03*
D26*
X125800000Y-35700000D03*
D27*
X128400000Y-37200000D03*
D26*
X120400000Y-51500000D03*
D27*
X131900000Y-44600000D03*
D26*
X123900000Y-48800000D03*
X123500000Y-46400000D03*
X136400000Y-36400000D03*
X128500000Y-53200000D03*
X135895014Y-34302493D03*
X118500000Y-43400000D03*
X142404947Y-41742746D03*
X120100000Y-23300000D03*
X136500000Y-37800000D03*
D27*
X140100000Y-45000000D03*
D26*
X145300000Y-22500000D03*
X126000000Y-45300000D03*
X143600000Y-51600000D03*
X131651460Y-38778216D03*
X125200000Y-51200000D03*
X118500000Y-25900000D03*
X135200000Y-50500000D03*
X123500000Y-20100000D03*
D27*
X131100000Y-49100000D03*
D26*
X145300000Y-36900000D03*
X118100000Y-32000000D03*
X133900000Y-28100000D03*
X123100000Y-32600000D03*
X129100000Y-40900000D03*
X122900000Y-28700000D03*
X143200000Y-46100000D03*
X121300000Y-30300000D03*
D27*
X135000000Y-45400000D03*
D26*
X128800000Y-28000000D03*
X125600000Y-41500000D03*
X143900000Y-25200000D03*
X137700000Y-30800000D03*
X135600000Y-30800000D03*
X132100000Y-40400000D03*
X139200000Y-20500000D03*
D27*
X135500000Y-25200000D03*
D26*
X128500000Y-20100000D03*
X135100000Y-52600000D03*
X141200000Y-22600000D03*
X117200000Y-50000000D03*
X143900000Y-43800000D03*
D27*
X135400000Y-39700000D03*
D26*
X129900000Y-35600000D03*
X138930331Y-39869669D03*
X139100000Y-30800000D03*
X138800000Y-35200000D03*
X138350000Y-43600000D03*
X139469425Y-42485354D03*
X137980025Y-33880025D03*
X136700000Y-33900000D03*
D27*
X142700000Y-26400000D03*
D26*
X129800000Y-44300000D03*
X122500000Y-42700000D03*
D27*
X140400000Y-33200000D03*
X140600000Y-31600000D03*
X129700000Y-33600000D03*
X142400000Y-30000000D03*
X142300000Y-33900000D03*
D26*
X144500000Y-39900000D03*
X131200000Y-24700000D03*
X130200000Y-29000000D03*
D27*
X142200000Y-29200000D03*
D28*
X143231672Y-31400000D03*
D26*
X130100000Y-22800000D03*
X132900000Y-22600000D03*
D29*
X131273244Y-38400000D02*
X130500000Y-38400000D01*
X131651460Y-38778216D02*
X131273244Y-38400000D01*
X130748528Y-35600000D02*
X132423528Y-37275000D01*
X132423528Y-37275000D02*
X133900000Y-37275000D01*
X129900000Y-35600000D02*
X130748528Y-35600000D01*
D30*
X139050000Y-52700000D02*
X139850000Y-51900000D01*
X142100000Y-50200000D02*
X140900000Y-50200000D01*
X136700000Y-50200000D02*
X138700000Y-50200000D01*
X140900000Y-50200000D02*
X139850000Y-51250000D01*
X143200000Y-49100000D02*
X142100000Y-50200000D01*
X143200000Y-48400000D02*
X143200000Y-49100000D01*
X140547000Y-48353000D02*
X140547000Y-47492500D01*
X140245478Y-47492500D02*
X140547000Y-47492500D01*
X140547000Y-47492500D02*
X142292500Y-47492500D01*
X142292500Y-47492500D02*
X143200000Y-48400000D01*
X136700000Y-52700000D02*
X139050000Y-52700000D01*
X139850000Y-51250000D02*
X139850000Y-51900000D01*
X138700000Y-50200000D02*
X140547000Y-48353000D01*
D29*
X132225000Y-40525000D02*
X133900000Y-40525000D01*
X135895014Y-33644325D02*
X135895014Y-34302493D01*
X130500000Y-38400000D02*
X129200000Y-38400000D01*
X128500000Y-39400000D02*
X128400000Y-39500000D01*
X136300000Y-32250000D02*
X136300000Y-31050000D01*
X128500000Y-39100000D02*
X128500000Y-39400000D01*
X129200000Y-38400000D02*
X128500000Y-39100000D01*
X142322693Y-41825000D02*
X142404947Y-41742746D01*
X135975000Y-37275000D02*
X136500000Y-37800000D01*
X136050000Y-30800000D02*
X135600000Y-30800000D01*
X128400000Y-40200000D02*
X129100000Y-40900000D01*
X136300000Y-33239339D02*
X135895014Y-33644325D01*
X141100000Y-41825000D02*
X142322693Y-41825000D01*
X139825000Y-41825000D02*
X136500000Y-38500000D01*
X128400000Y-39500000D02*
X128400000Y-40200000D01*
X136300000Y-31050000D02*
X136050000Y-30800000D01*
X141100000Y-41825000D02*
X139825000Y-41825000D01*
X133900000Y-37275000D02*
X135975000Y-37275000D01*
X132100000Y-40400000D02*
X132225000Y-40525000D01*
X136300000Y-32250000D02*
X136300000Y-33239339D01*
X136500000Y-38500000D02*
X136500000Y-37800000D01*
X139825000Y-37275000D02*
X138800000Y-36250000D01*
D31*
X137420000Y-21100000D02*
X136300000Y-22220000D01*
D29*
X139100000Y-30800000D02*
X138700000Y-31200000D01*
X138700000Y-31200000D02*
X138700000Y-32250000D01*
X138700000Y-33160050D02*
X138700000Y-32250000D01*
D30*
X133400000Y-50400000D02*
X132600000Y-49600000D01*
D29*
X133900000Y-43125000D02*
X133900000Y-47059500D01*
X137980025Y-33880025D02*
X138700000Y-33160050D01*
D31*
X136300000Y-22220000D02*
X136300000Y-23750000D01*
D30*
X132600000Y-48300000D02*
X133407500Y-47492500D01*
D29*
X138930331Y-38141852D02*
X138930331Y-39869669D01*
X139475000Y-42475000D02*
X138350000Y-43600000D01*
D30*
X132600000Y-49600000D02*
X132600000Y-48300000D01*
X133407500Y-47492500D02*
X135467000Y-47492500D01*
D29*
X138800000Y-36250000D02*
X138800000Y-35200000D01*
X139825000Y-37275000D02*
X139797183Y-37275000D01*
X139797183Y-37275000D02*
X138930331Y-38141852D01*
X141100000Y-37275000D02*
X139797182Y-37275000D01*
X135900000Y-47059500D02*
X135467000Y-47492500D01*
X141100000Y-42475000D02*
X139475000Y-42475000D01*
X141100000Y-37275000D02*
X139825000Y-37275000D01*
D31*
X137100000Y-33500000D02*
X137100000Y-32250000D01*
X136700000Y-33900000D02*
X137100000Y-33500000D01*
D30*
X133400000Y-52700000D02*
X131000000Y-52700000D01*
X129200000Y-46430000D02*
X127140000Y-44370000D01*
X131000000Y-52700000D02*
X129200000Y-50900000D01*
X129200000Y-50900000D02*
X129200000Y-46430000D01*
D31*
X135800000Y-35200000D02*
X135275000Y-34675000D01*
X139500000Y-33350000D02*
X137650000Y-35200000D01*
X135275000Y-34675000D02*
X133900000Y-34675000D01*
X139500000Y-32250000D02*
X144210000Y-32250000D01*
X139500000Y-32250000D02*
X139500000Y-33350000D01*
X137650000Y-35200000D02*
X135800000Y-35200000D01*
X144210000Y-32250000D02*
X144400000Y-32440000D01*
X142700000Y-26400000D02*
X142700000Y-26100000D01*
X142600000Y-26000000D02*
X140950000Y-26000000D01*
X142700000Y-26100000D02*
X142600000Y-26000000D01*
D29*
X124600000Y-45000000D02*
X126400000Y-43200000D01*
X124600000Y-45390000D02*
X124600000Y-45000000D01*
X124600000Y-29740000D02*
X119240000Y-35100000D01*
X117945000Y-39695000D02*
X119200000Y-40950000D01*
X122890000Y-45390000D02*
X124600000Y-45390000D01*
X119240000Y-35100000D02*
X118600000Y-35100000D01*
X118600000Y-35100000D02*
X117945000Y-35755000D01*
X129800000Y-43200000D02*
X131825000Y-41175000D01*
X126400000Y-43200000D02*
X129800000Y-43200000D01*
X119200000Y-40950000D02*
X119200000Y-41700000D01*
X131825000Y-41175000D02*
X133900000Y-41175000D01*
X119200000Y-41700000D02*
X122890000Y-45390000D01*
X117945000Y-35755000D02*
X117945000Y-39695000D01*
X122500000Y-42700000D02*
X124700000Y-40500000D01*
X124700000Y-40500000D02*
X124700000Y-33600000D01*
X133900000Y-41825000D02*
X132275000Y-41825000D01*
X125980000Y-32320000D02*
X125980000Y-31820000D01*
X119100000Y-36300000D02*
X121800000Y-33600000D01*
X124700000Y-33600000D02*
X125980000Y-32320000D01*
X125980000Y-31820000D02*
X127040000Y-30760000D01*
X121800000Y-33600000D02*
X124700000Y-33600000D01*
X127040000Y-30760000D02*
X127140000Y-30760000D01*
X132275000Y-41825000D02*
X129800000Y-44300000D01*
D31*
X139500000Y-34900000D02*
X139500000Y-34700000D01*
X139925000Y-35325000D02*
X139500000Y-34900000D01*
X143500000Y-30800000D02*
X144400000Y-29900000D01*
X140600000Y-31600000D02*
X140600000Y-31150000D01*
X140600000Y-31150000D02*
X140950000Y-30800000D01*
X139500000Y-34700000D02*
X139500000Y-34100000D01*
X141100000Y-35325000D02*
X139925000Y-35325000D01*
X140950000Y-30800000D02*
X143500000Y-30800000D01*
X139500000Y-34100000D02*
X140400000Y-33200000D01*
X130610050Y-27600000D02*
X129500000Y-28710050D01*
X132450000Y-27600000D02*
X130610050Y-27600000D01*
X129500000Y-28710050D02*
X129500000Y-33400000D01*
X129500000Y-33400000D02*
X129700000Y-33600000D01*
X141100000Y-34675000D02*
X141525000Y-34675000D01*
X141525000Y-34675000D02*
X142300000Y-33900000D01*
X140950000Y-30000000D02*
X142400000Y-30000000D01*
X144400000Y-28000000D02*
X144400000Y-27360000D01*
X142400000Y-30000000D02*
X144400000Y-28000000D01*
D29*
X119100000Y-37600000D02*
X119100000Y-39200000D01*
X119100000Y-39200000D02*
X119200000Y-39300000D01*
D31*
X143025000Y-36625000D02*
X141100000Y-36625000D01*
X144500000Y-38100000D02*
X143025000Y-36625000D01*
X144500000Y-38100000D02*
X144500000Y-39900000D01*
X142275000Y-43125000D02*
X141100000Y-43125000D01*
X141100000Y-38575000D02*
X142250000Y-38575000D01*
X142250000Y-38575000D02*
X142600000Y-38925000D01*
X142600000Y-39000000D02*
X143500000Y-39900000D01*
X142600000Y-38925000D02*
X142600000Y-39000000D01*
X143500000Y-41900000D02*
X142275000Y-43125000D01*
X143500000Y-39900000D02*
X143500000Y-41900000D01*
X139875000Y-40475000D02*
X139925000Y-40525000D01*
X141100000Y-37925000D02*
X139925000Y-37925000D01*
X139925000Y-37925000D02*
X139875000Y-37975000D01*
X139925000Y-40525000D02*
X141100000Y-40525000D01*
X139875000Y-37975000D02*
X139875000Y-40475000D01*
D29*
X130200000Y-32875000D02*
X132650000Y-35325000D01*
X132650000Y-35325000D02*
X133900000Y-35325000D01*
X131700000Y-25200000D02*
X131200000Y-24700000D01*
X130200000Y-29000000D02*
X130200000Y-32875000D01*
X132450000Y-25200000D02*
X131700000Y-25200000D01*
D32*
X145550000Y-31550000D02*
X145550000Y-32916346D01*
X143250000Y-35550000D02*
X142900000Y-35900000D01*
X142625000Y-35975000D02*
X141100000Y-35975000D01*
X144124597Y-31169504D02*
X145169504Y-31169504D01*
X142900000Y-35900000D02*
X142700000Y-35900000D01*
X144826346Y-33640000D02*
X144100000Y-33640000D01*
X142700000Y-35900000D02*
X142625000Y-35975000D01*
X143381672Y-31250000D02*
X144044101Y-31250000D01*
X142000000Y-29200000D02*
X140950000Y-29200000D01*
X144044101Y-31250000D02*
X144124597Y-31169504D01*
X143231672Y-31400000D02*
X143381672Y-31250000D01*
X145550000Y-32916346D02*
X144826346Y-33640000D01*
X144100000Y-33640000D02*
X143250000Y-34490000D01*
X142000000Y-29200000D02*
X142200000Y-29200000D01*
X143250000Y-34490000D02*
X143250000Y-35550000D01*
X145169504Y-31169504D02*
X145550000Y-31550000D01*
D29*
X132400000Y-38825000D02*
X132400000Y-39100000D01*
X132650000Y-38575000D02*
X132400000Y-38825000D01*
X133900000Y-38575000D02*
X132650000Y-38575000D01*
X132400000Y-39100000D02*
X131900000Y-39600000D01*
X131900000Y-39600000D02*
X130500000Y-39600000D01*
X133900000Y-37925000D02*
X132225000Y-37925000D01*
X132225000Y-37925000D02*
X131500000Y-37200000D01*
X131500000Y-37200000D02*
X130500000Y-37200000D01*
X138700000Y-22675000D02*
X140075000Y-21300000D01*
X140075000Y-21300000D02*
X143400000Y-21300000D01*
X138700000Y-23750000D02*
X138700000Y-22675000D01*
X124720000Y-21100000D02*
X126420000Y-22800000D01*
X133100000Y-22400000D02*
X134425000Y-22400000D01*
X134700000Y-22675000D02*
X134700000Y-23750000D01*
X134425000Y-22400000D02*
X134700000Y-22675000D01*
X126420000Y-22800000D02*
X130100000Y-22800000D01*
X132900000Y-22600000D02*
X133100000Y-22400000D01*
X126700000Y-26000000D02*
X132450000Y-26000000D01*
X120802000Y-22262000D02*
X122962000Y-22262000D01*
X122962000Y-22262000D02*
X126700000Y-26000000D01*
X119640000Y-21100000D02*
X120802000Y-22262000D01*
X129800000Y-21100000D02*
X132450000Y-23750000D01*
X132450000Y-23750000D02*
X133900000Y-23750000D01*
X139500000Y-23750000D02*
X143350000Y-23750000D01*
X143350000Y-23750000D02*
X143400000Y-23700000D01*
X126400000Y-26700000D02*
X126500000Y-26800000D01*
X125300000Y-26000000D02*
X126000000Y-26700000D01*
X117100000Y-22177630D02*
X120922370Y-26000000D01*
X126500000Y-26800000D02*
X132450000Y-26800000D01*
X120922370Y-26000000D02*
X125300000Y-26000000D01*
X117100000Y-21100000D02*
X117100000Y-22177630D01*
X126000000Y-26700000D02*
X126400000Y-26700000D01*
G04 #@! TA.AperFunction,Conductor*
G36*
X116366192Y-22004098D02*
G01*
X116396436Y-22031669D01*
X116445348Y-22061954D01*
X116452615Y-22066453D01*
X116492137Y-22113162D01*
X116499499Y-22150625D01*
X116499499Y-22256687D01*
X116502669Y-22268516D01*
X116540422Y-22409413D01*
X116553430Y-22431943D01*
X116553429Y-22431943D01*
X116619478Y-22546343D01*
X116619480Y-22546346D01*
X116731284Y-22658150D01*
X116731286Y-22658151D01*
X120441848Y-26368713D01*
X120441850Y-26368716D01*
X120553654Y-26480520D01*
X120690586Y-26559577D01*
X120802389Y-26589534D01*
X120843312Y-26600500D01*
X120843313Y-26600500D01*
X123827957Y-26600500D01*
X123886148Y-26619407D01*
X123922112Y-26668907D01*
X123922112Y-26730093D01*
X123894653Y-26772660D01*
X123850460Y-26812948D01*
X123738709Y-26914823D01*
X123609097Y-27086456D01*
X123609092Y-27086465D01*
X123513231Y-27278980D01*
X123513230Y-27278983D01*
X123454372Y-27485845D01*
X123434528Y-27700000D01*
X123454372Y-27914155D01*
X123513230Y-28121017D01*
X123609096Y-28313542D01*
X123738706Y-28485173D01*
X123738708Y-28485175D01*
X123738709Y-28485176D01*
X123897646Y-28630067D01*
X123906953Y-28635830D01*
X123946473Y-28682539D01*
X123950990Y-28743558D01*
X123918779Y-28795578D01*
X123906953Y-28804170D01*
X123897646Y-28809932D01*
X123738709Y-28954823D01*
X123609097Y-29126456D01*
X123609092Y-29126465D01*
X123601846Y-29141017D01*
X123513230Y-29318983D01*
X123454372Y-29525845D01*
X123434528Y-29740000D01*
X123454372Y-29954155D01*
X123454372Y-29954158D01*
X123454373Y-29954159D01*
X123456666Y-29962219D01*
X123454404Y-30023362D01*
X123431449Y-30059313D01*
X119020261Y-34470504D01*
X118965744Y-34498281D01*
X118950257Y-34499500D01*
X118685136Y-34499500D01*
X118685120Y-34499499D01*
X118679057Y-34499499D01*
X118520943Y-34499499D01*
X118368215Y-34540423D01*
X118368213Y-34540423D01*
X118368209Y-34540425D01*
X118334671Y-34559789D01*
X118231284Y-34619479D01*
X118119479Y-34731283D01*
X118119480Y-34731284D01*
X118119478Y-34731286D01*
X117576286Y-35274478D01*
X117576284Y-35274480D01*
X117576283Y-35274479D01*
X117464480Y-35386283D01*
X117459647Y-35394655D01*
X117437158Y-35433608D01*
X117421327Y-35461027D01*
X117385424Y-35523211D01*
X117385423Y-35523215D01*
X117344499Y-35675943D01*
X117344499Y-35675945D01*
X117344499Y-35842031D01*
X117344500Y-35842044D01*
X117344500Y-39609863D01*
X117344499Y-39609881D01*
X117344499Y-39615943D01*
X117344499Y-39774057D01*
X117369125Y-39865961D01*
X117385424Y-39926789D01*
X117393295Y-39940420D01*
X117393296Y-39940423D01*
X117464478Y-40063713D01*
X117464480Y-40063716D01*
X117576284Y-40175520D01*
X117576286Y-40175521D01*
X118295504Y-40894739D01*
X118323281Y-40949256D01*
X118324500Y-40964743D01*
X118324500Y-41189357D01*
X118324501Y-41189362D01*
X118339955Y-41306758D01*
X118339957Y-41306766D01*
X118400462Y-41452838D01*
X118400462Y-41452839D01*
X118489224Y-41568516D01*
X118496718Y-41578282D01*
X118560767Y-41627428D01*
X118595422Y-41677851D01*
X118599499Y-41705969D01*
X118599499Y-41779057D01*
X118635446Y-41913210D01*
X118640424Y-41931787D01*
X118658841Y-41963685D01*
X118658842Y-41963688D01*
X118697439Y-42030540D01*
X118719480Y-42068716D01*
X118831284Y-42180520D01*
X118831286Y-42180521D01*
X122409478Y-45758713D01*
X122409480Y-45758716D01*
X122521284Y-45870520D01*
X122521286Y-45870521D01*
X122521289Y-45870524D01*
X122521288Y-45870524D01*
X122608091Y-45920637D01*
X122608093Y-45920639D01*
X122608094Y-45920639D01*
X122637032Y-45937346D01*
X122658215Y-45949577D01*
X122810943Y-45990501D01*
X122810944Y-45990501D01*
X122975120Y-45990501D01*
X122975136Y-45990500D01*
X123549951Y-45990500D01*
X123608142Y-46009407D01*
X123628954Y-46029839D01*
X123738706Y-46175173D01*
X123897646Y-46320067D01*
X123907422Y-46326120D01*
X123907424Y-46326121D01*
X123946946Y-46372830D01*
X123951465Y-46433848D01*
X123934058Y-46461961D01*
X123932056Y-46479212D01*
X124455648Y-47002804D01*
X124426306Y-47010667D01*
X124323694Y-47069910D01*
X124239910Y-47153694D01*
X124180667Y-47256306D01*
X124172804Y-47285648D01*
X123650118Y-46762962D01*
X123609523Y-46816721D01*
X123513699Y-47009161D01*
X123454866Y-47215937D01*
X123435030Y-47430000D01*
X123454866Y-47644062D01*
X123513699Y-47850838D01*
X123609519Y-48043270D01*
X123609528Y-48043285D01*
X123650118Y-48097036D01*
X124172804Y-47574351D01*
X124180667Y-47603694D01*
X124239910Y-47706306D01*
X124323694Y-47790090D01*
X124426306Y-47849333D01*
X124455647Y-47857194D01*
X123932058Y-48380784D01*
X124080729Y-48472837D01*
X124281193Y-48550498D01*
X124492510Y-48590000D01*
X124707490Y-48590000D01*
X124918806Y-48550498D01*
X125119272Y-48472837D01*
X125119277Y-48472834D01*
X125267941Y-48380785D01*
X124744351Y-47857195D01*
X124773694Y-47849333D01*
X124876306Y-47790090D01*
X124960090Y-47706306D01*
X125019333Y-47603694D01*
X125027195Y-47574351D01*
X125549879Y-48097035D01*
X125590475Y-48043279D01*
X125590480Y-48043270D01*
X125686300Y-47850838D01*
X125745133Y-47644062D01*
X125764969Y-47430000D01*
X125745133Y-47215937D01*
X125686300Y-47009161D01*
X125590480Y-46816729D01*
X125590471Y-46816714D01*
X125549880Y-46762962D01*
X125027194Y-47285647D01*
X125019333Y-47256306D01*
X124960090Y-47153694D01*
X124876306Y-47069910D01*
X124773694Y-47010667D01*
X124744349Y-47002804D01*
X125267942Y-46479212D01*
X125266078Y-46463150D01*
X125253052Y-46447754D01*
X125248535Y-46386736D01*
X125280745Y-46334715D01*
X125292576Y-46326121D01*
X125302354Y-46320067D01*
X125461294Y-46175173D01*
X125590904Y-46003542D01*
X125686770Y-45811017D01*
X125745628Y-45604155D01*
X125765472Y-45390000D01*
X125745628Y-45175845D01*
X125686770Y-44968983D01*
X125649870Y-44894878D01*
X125640857Y-44834360D01*
X125668485Y-44780748D01*
X125846613Y-44602620D01*
X125901128Y-44574845D01*
X125961560Y-44584416D01*
X126004825Y-44627681D01*
X126011835Y-44645530D01*
X126053230Y-44791017D01*
X126149096Y-44983542D01*
X126278706Y-45155173D01*
X126278708Y-45155175D01*
X126278709Y-45155176D01*
X126437646Y-45300067D01*
X126446953Y-45305830D01*
X126486473Y-45352539D01*
X126490990Y-45413558D01*
X126458779Y-45465578D01*
X126446953Y-45474170D01*
X126437646Y-45479932D01*
X126278709Y-45624823D01*
X126149097Y-45796456D01*
X126149092Y-45796465D01*
X126062276Y-45970816D01*
X126053230Y-45988983D01*
X125994372Y-46195845D01*
X125974528Y-46410000D01*
X125994372Y-46624155D01*
X126053230Y-46831017D01*
X126149096Y-47023542D01*
X126260399Y-47170931D01*
X126280379Y-47228761D01*
X126262551Y-47287291D01*
X126226342Y-47318800D01*
X126141659Y-47361949D01*
X126051949Y-47451659D01*
X125994354Y-47564695D01*
X125979500Y-47658478D01*
X125979500Y-49241521D01*
X125979501Y-49241523D01*
X125994352Y-49335299D01*
X125994354Y-49335304D01*
X126051950Y-49448342D01*
X126141658Y-49538050D01*
X126254696Y-49595646D01*
X126348481Y-49610500D01*
X127931518Y-49610499D01*
X127931521Y-49610499D01*
X127931522Y-49610498D01*
X127978411Y-49603072D01*
X128025299Y-49595647D01*
X128025299Y-49595646D01*
X128025304Y-49595646D01*
X128138342Y-49538050D01*
X128228050Y-49448342D01*
X128262291Y-49381139D01*
X128305555Y-49337876D01*
X128365987Y-49328305D01*
X128420504Y-49356083D01*
X128448281Y-49410599D01*
X128449500Y-49426086D01*
X128449500Y-50973918D01*
X128478342Y-51118914D01*
X128534914Y-51255492D01*
X128546726Y-51273170D01*
X128606346Y-51362400D01*
X128617048Y-51378416D01*
X130521584Y-53282951D01*
X130644505Y-53365084D01*
X130781087Y-53421658D01*
X130926082Y-53450500D01*
X131073917Y-53450500D01*
X132624903Y-53450500D01*
X132683094Y-53469407D01*
X132694900Y-53479490D01*
X132788580Y-53573170D01*
X132788582Y-53573171D01*
X132788583Y-53573172D01*
X132859795Y-53615287D01*
X132900258Y-53661182D01*
X132906016Y-53722096D01*
X132874870Y-53774761D01*
X132818717Y-53799061D01*
X132809400Y-53799500D01*
X116299500Y-53799500D01*
X116241309Y-53780593D01*
X116205345Y-53731093D01*
X116200500Y-53700500D01*
X116200500Y-52010225D01*
X120899500Y-52010225D01*
X120933984Y-52227948D01*
X121002102Y-52437599D01*
X121002104Y-52437602D01*
X121002105Y-52437606D01*
X121102185Y-52634022D01*
X121231758Y-52812365D01*
X121387635Y-52968242D01*
X121565978Y-53097815D01*
X121762394Y-53197895D01*
X121972049Y-53266015D01*
X122059140Y-53279809D01*
X122189775Y-53300500D01*
X122189778Y-53300500D01*
X122410225Y-53300500D01*
X122521022Y-53282951D01*
X122627951Y-53266015D01*
X122837606Y-53197895D01*
X123034022Y-53097815D01*
X123212365Y-52968242D01*
X123368242Y-52812365D01*
X123497815Y-52634022D01*
X123597895Y-52437606D01*
X123666015Y-52227951D01*
X123690302Y-52074610D01*
X123700500Y-52010225D01*
X123700500Y-51789774D01*
X123666015Y-51572051D01*
X123666015Y-51572049D01*
X123597895Y-51362394D01*
X123497815Y-51165978D01*
X123368242Y-50987635D01*
X123212365Y-50831758D01*
X123034022Y-50702185D01*
X123034021Y-50702184D01*
X123034019Y-50702183D01*
X122904891Y-50636389D01*
X122837606Y-50602105D01*
X122837602Y-50602104D01*
X122837599Y-50602102D01*
X122627948Y-50533984D01*
X122410225Y-50499500D01*
X122410222Y-50499500D01*
X122189778Y-50499500D01*
X122189775Y-50499500D01*
X121972051Y-50533984D01*
X121762400Y-50602102D01*
X121565980Y-50702183D01*
X121476806Y-50766971D01*
X121387635Y-50831758D01*
X121231758Y-50987635D01*
X121200188Y-51031088D01*
X121102183Y-51165980D01*
X121002102Y-51362400D01*
X120933984Y-51572051D01*
X120899500Y-51789774D01*
X120899500Y-52010225D01*
X116200500Y-52010225D01*
X116200500Y-22077262D01*
X116219407Y-22019071D01*
X116268907Y-21983107D01*
X116330093Y-21983107D01*
X116366192Y-22004098D01*
G37*
G04 #@! TD.AperFunction*
G04 #@! TA.AperFunction,Conductor*
G36*
X135311800Y-35501000D02*
G01*
X135343944Y-35522469D01*
X135461985Y-35640510D01*
X135461987Y-35640511D01*
X135565889Y-35700499D01*
X135565890Y-35700499D01*
X135565892Y-35700500D01*
X135587515Y-35712984D01*
X135727525Y-35750500D01*
X135727526Y-35750500D01*
X137722474Y-35750500D01*
X137722475Y-35750500D01*
X137862485Y-35712984D01*
X137884108Y-35700500D01*
X137895859Y-35693716D01*
X137944753Y-35665487D01*
X137988015Y-35640510D01*
X138024544Y-35603980D01*
X138079057Y-35576203D01*
X138139489Y-35585773D01*
X138178370Y-35621310D01*
X138184324Y-35630785D01*
X138199500Y-35683459D01*
X138199500Y-36164863D01*
X138199499Y-36164881D01*
X138199499Y-36170943D01*
X138199499Y-36329057D01*
X138240423Y-36481785D01*
X138240424Y-36481787D01*
X138267133Y-36528049D01*
X138295944Y-36577951D01*
X138319480Y-36618716D01*
X138431284Y-36730520D01*
X138431286Y-36730521D01*
X138891852Y-37191087D01*
X138919629Y-37245604D01*
X138910058Y-37306036D01*
X138891852Y-37331095D01*
X138561617Y-37661330D01*
X138561615Y-37661332D01*
X138561614Y-37661331D01*
X138449811Y-37773134D01*
X138407775Y-37845942D01*
X138407776Y-37845943D01*
X138370754Y-37910067D01*
X138329830Y-38062795D01*
X138329830Y-38062797D01*
X138329830Y-38228883D01*
X138329831Y-38228896D01*
X138329831Y-39386208D01*
X138314657Y-39438879D01*
X138249875Y-39541977D01*
X138249875Y-39541978D01*
X138194019Y-39701603D01*
X138194016Y-39701615D01*
X138175082Y-39869664D01*
X138175082Y-39869673D01*
X138194016Y-40037722D01*
X138194019Y-40037734D01*
X138249875Y-40197359D01*
X138249875Y-40197360D01*
X138339851Y-40340555D01*
X138339854Y-40340559D01*
X138459441Y-40460146D01*
X138459443Y-40460147D01*
X138459444Y-40460148D01*
X138598423Y-40547475D01*
X138602641Y-40550125D01*
X138659284Y-40569945D01*
X138762265Y-40605980D01*
X138762269Y-40605981D01*
X138762272Y-40605982D01*
X138762273Y-40605982D01*
X138762277Y-40605983D01*
X138930327Y-40624918D01*
X138930331Y-40624918D01*
X138930335Y-40624918D01*
X139098384Y-40605983D01*
X139098385Y-40605982D01*
X139098390Y-40605982D01*
X139218742Y-40563868D01*
X139279909Y-40562495D01*
X139330204Y-40597339D01*
X139347063Y-40631685D01*
X139348302Y-40636308D01*
X139348303Y-40636311D01*
X139362015Y-40687482D01*
X139362016Y-40687485D01*
X139434490Y-40813015D01*
X139434491Y-40813016D01*
X139434492Y-40813017D01*
X139586986Y-40965510D01*
X139690889Y-41025499D01*
X139690890Y-41025499D01*
X139690892Y-41025500D01*
X139712515Y-41037984D01*
X139751123Y-41048329D01*
X139802437Y-41081652D01*
X139824364Y-41138773D01*
X139824500Y-41143955D01*
X139824500Y-41431520D01*
X139824501Y-41431521D01*
X139833146Y-41486108D01*
X139833146Y-41517080D01*
X139825000Y-41568515D01*
X139825000Y-41675128D01*
X139806093Y-41733319D01*
X139756593Y-41769283D01*
X139695407Y-41769283D01*
X139693302Y-41768572D01*
X139637490Y-41749042D01*
X139637478Y-41749039D01*
X139469429Y-41730105D01*
X139469421Y-41730105D01*
X139301371Y-41749039D01*
X139301359Y-41749042D01*
X139141734Y-41804898D01*
X139141733Y-41804898D01*
X138998538Y-41894874D01*
X138878945Y-42014467D01*
X138788969Y-42157662D01*
X138788969Y-42157663D01*
X138733111Y-42317293D01*
X138733111Y-42317295D01*
X138730595Y-42339624D01*
X138705290Y-42395332D01*
X138702222Y-42398541D01*
X138268573Y-42832190D01*
X138214056Y-42859967D01*
X138209656Y-42860563D01*
X138181940Y-42863686D01*
X138181939Y-42863686D01*
X138022309Y-42919544D01*
X138022308Y-42919544D01*
X137879113Y-43009520D01*
X137759520Y-43129113D01*
X137669544Y-43272308D01*
X137669544Y-43272309D01*
X137613688Y-43431934D01*
X137613685Y-43431946D01*
X137594751Y-43599995D01*
X137594751Y-43600004D01*
X137613685Y-43768053D01*
X137613688Y-43768065D01*
X137669544Y-43927690D01*
X137669544Y-43927691D01*
X137759520Y-44070886D01*
X137759523Y-44070890D01*
X137879110Y-44190477D01*
X138022310Y-44280456D01*
X138078150Y-44299995D01*
X138181934Y-44336311D01*
X138181938Y-44336312D01*
X138181941Y-44336313D01*
X138181942Y-44336313D01*
X138181946Y-44336314D01*
X138349996Y-44355249D01*
X138350000Y-44355249D01*
X138350004Y-44355249D01*
X138518053Y-44336314D01*
X138518055Y-44336313D01*
X138518059Y-44336313D01*
X138677690Y-44280456D01*
X138820890Y-44190477D01*
X138940477Y-44070890D01*
X139030456Y-43927690D01*
X139086313Y-43768059D01*
X139089435Y-43740342D01*
X139114739Y-43684636D01*
X139117787Y-43681446D01*
X139545465Y-43253768D01*
X139599980Y-43225993D01*
X139604362Y-43225398D01*
X139637484Y-43221667D01*
X139692803Y-43202309D01*
X139753971Y-43200936D01*
X139804266Y-43235780D01*
X139824475Y-43293531D01*
X139824500Y-43295753D01*
X139824500Y-43381520D01*
X139824501Y-43381523D01*
X139839352Y-43475299D01*
X139839354Y-43475304D01*
X139896950Y-43588342D01*
X139986658Y-43678050D01*
X140099696Y-43735646D01*
X140193481Y-43750500D01*
X142006518Y-43750499D01*
X142006521Y-43750499D01*
X142006522Y-43750498D01*
X142070640Y-43740344D01*
X142100299Y-43735647D01*
X142100299Y-43735646D01*
X142100304Y-43735646D01*
X142197168Y-43686290D01*
X142242114Y-43675500D01*
X142347474Y-43675500D01*
X142347475Y-43675500D01*
X142487485Y-43637984D01*
X142519424Y-43619544D01*
X142613015Y-43565510D01*
X143940510Y-42238014D01*
X144012984Y-42112485D01*
X144044603Y-41994481D01*
X144050500Y-41972475D01*
X144050500Y-40677359D01*
X144069407Y-40619168D01*
X144118907Y-40583204D01*
X144180093Y-40583204D01*
X144182120Y-40583888D01*
X144282943Y-40619168D01*
X144331934Y-40636311D01*
X144331938Y-40636312D01*
X144331941Y-40636313D01*
X144331942Y-40636313D01*
X144331946Y-40636314D01*
X144499996Y-40655249D01*
X144500000Y-40655249D01*
X144500004Y-40655249D01*
X144668053Y-40636314D01*
X144668055Y-40636313D01*
X144668059Y-40636313D01*
X144668074Y-40636308D01*
X144709106Y-40621950D01*
X144827690Y-40580456D01*
X144970890Y-40490477D01*
X145090477Y-40370890D01*
X145180456Y-40227690D01*
X145236313Y-40068059D01*
X145236314Y-40068053D01*
X145255249Y-39900004D01*
X145255249Y-39899995D01*
X145236314Y-39731946D01*
X145236311Y-39731934D01*
X145196612Y-39618482D01*
X145180456Y-39572310D01*
X145180293Y-39572051D01*
X145090479Y-39429113D01*
X145090474Y-39429107D01*
X145079494Y-39418126D01*
X145051718Y-39363609D01*
X145050500Y-39348125D01*
X145050500Y-38027525D01*
X145033141Y-37962742D01*
X145012984Y-37887515D01*
X144992783Y-37852526D01*
X144940510Y-37761985D01*
X143413170Y-36234645D01*
X143385395Y-36180131D01*
X143394966Y-36119699D01*
X143413169Y-36094643D01*
X143518558Y-35989254D01*
X143573073Y-35961479D01*
X143633505Y-35971050D01*
X143645344Y-35978164D01*
X143678336Y-36001265D01*
X143772361Y-36067102D01*
X143970670Y-36159575D01*
X144182023Y-36216207D01*
X144182027Y-36216207D01*
X144182030Y-36216208D01*
X144399997Y-36235277D01*
X144400000Y-36235277D01*
X144400003Y-36235277D01*
X144617969Y-36216208D01*
X144617970Y-36216207D01*
X144617977Y-36216207D01*
X144829330Y-36159575D01*
X145027639Y-36067102D01*
X145206877Y-35941598D01*
X145361598Y-35786877D01*
X145487102Y-35607639D01*
X145510776Y-35556869D01*
X145552503Y-35512123D01*
X145612564Y-35500448D01*
X145668017Y-35526305D01*
X145697681Y-35579819D01*
X145699500Y-35598710D01*
X145699500Y-53700500D01*
X145680593Y-53758691D01*
X145631093Y-53794655D01*
X145600500Y-53799500D01*
X137290600Y-53799500D01*
X137232409Y-53780593D01*
X137196445Y-53731093D01*
X137196445Y-53669907D01*
X137232409Y-53620407D01*
X137240205Y-53615287D01*
X137282128Y-53590492D01*
X137311420Y-53573170D01*
X137405095Y-53479494D01*
X137459610Y-53451719D01*
X137475097Y-53450500D01*
X139123917Y-53450500D01*
X139123918Y-53450500D01*
X139268913Y-53421658D01*
X139405495Y-53365084D01*
X139454729Y-53332186D01*
X139464898Y-53325392D01*
X139469386Y-53322392D01*
X139528416Y-53282952D01*
X140006872Y-52804494D01*
X140061389Y-52776718D01*
X140076876Y-52775499D01*
X140138157Y-52775499D01*
X140138162Y-52775499D01*
X140173627Y-52772709D01*
X140325390Y-52728618D01*
X140461420Y-52648170D01*
X140555351Y-52554238D01*
X140609865Y-52526462D01*
X140670298Y-52536033D01*
X140695357Y-52554239D01*
X140788890Y-52647772D01*
X140924810Y-52728154D01*
X141076447Y-52772209D01*
X141076453Y-52772211D01*
X141111894Y-52775000D01*
X141199999Y-52775000D01*
X141200000Y-52774999D01*
X141600000Y-52774999D01*
X141600001Y-52775000D01*
X141688106Y-52775000D01*
X141723546Y-52772211D01*
X141723552Y-52772209D01*
X141875189Y-52728154D01*
X142011109Y-52647772D01*
X142122772Y-52536109D01*
X142203154Y-52400189D01*
X142247209Y-52248552D01*
X142247211Y-52248546D01*
X142250000Y-52213105D01*
X142250000Y-52100001D01*
X142249999Y-52100000D01*
X141600001Y-52100000D01*
X141600000Y-52100001D01*
X141600000Y-52774999D01*
X141200000Y-52774999D01*
X141200000Y-51799000D01*
X141218907Y-51740809D01*
X141268407Y-51704845D01*
X141299000Y-51700000D01*
X142249999Y-51700000D01*
X142250000Y-51699999D01*
X142250000Y-51586894D01*
X142247211Y-51551453D01*
X142247209Y-51551447D01*
X142203154Y-51399810D01*
X142122772Y-51263890D01*
X142011108Y-51152226D01*
X141981496Y-51134714D01*
X141941033Y-51088818D01*
X141935274Y-51027905D01*
X141966420Y-50975239D01*
X142022573Y-50950939D01*
X142031890Y-50950500D01*
X142173917Y-50950500D01*
X142173918Y-50950500D01*
X142318913Y-50921658D01*
X142455495Y-50865084D01*
X142513864Y-50826083D01*
X142578416Y-50782952D01*
X143782952Y-49578416D01*
X143849818Y-49478342D01*
X143865084Y-49455495D01*
X143921658Y-49318913D01*
X143950500Y-49173918D01*
X143950500Y-48326082D01*
X143921658Y-48181087D01*
X143865084Y-48044505D01*
X143815914Y-47970916D01*
X143782952Y-47921584D01*
X142770916Y-46909548D01*
X142697229Y-46860313D01*
X142647995Y-46827416D01*
X142647994Y-46827415D01*
X142647992Y-46827414D01*
X142511414Y-46770842D01*
X142366418Y-46742000D01*
X141796499Y-46742000D01*
X141738308Y-46723093D01*
X141702344Y-46673593D01*
X141697499Y-46643000D01*
X141697499Y-46310978D01*
X141697498Y-46310976D01*
X141682647Y-46217200D01*
X141682646Y-46217198D01*
X141682646Y-46217196D01*
X141625050Y-46104158D01*
X141535342Y-46014450D01*
X141422304Y-45956854D01*
X141422305Y-45956854D01*
X141328521Y-45942000D01*
X139765478Y-45942000D01*
X139765476Y-45942001D01*
X139671700Y-45956852D01*
X139671695Y-45956854D01*
X139558659Y-46014449D01*
X139468949Y-46104159D01*
X139411354Y-46217195D01*
X139396500Y-46310978D01*
X139396500Y-48401123D01*
X139377593Y-48459314D01*
X139367504Y-48471127D01*
X138418128Y-49420504D01*
X138363611Y-49448281D01*
X138348124Y-49449500D01*
X137200211Y-49449500D01*
X137172592Y-49445569D01*
X137127739Y-49432538D01*
X137023625Y-49402290D01*
X137000894Y-49400502D01*
X136988163Y-49399500D01*
X136988157Y-49399500D01*
X136411842Y-49399500D01*
X136376373Y-49402291D01*
X136376368Y-49402292D01*
X136224606Y-49446383D01*
X136088583Y-49526827D01*
X135976827Y-49638583D01*
X135896383Y-49774606D01*
X135896383Y-49774607D01*
X135852290Y-49926374D01*
X135850335Y-49951227D01*
X135850000Y-49955492D01*
X135849500Y-49961842D01*
X135849500Y-50838157D01*
X135852291Y-50873626D01*
X135852292Y-50873631D01*
X135896383Y-51025393D01*
X135976827Y-51161416D01*
X135976828Y-51161417D01*
X135976830Y-51161420D01*
X136088580Y-51273170D01*
X136224610Y-51353618D01*
X136376373Y-51397709D01*
X136411837Y-51400500D01*
X136988162Y-51400499D01*
X137023627Y-51397709D01*
X137175390Y-51353618D01*
X137311420Y-51273170D01*
X137423170Y-51161420D01*
X137503618Y-51025390D01*
X137504637Y-51021883D01*
X137506011Y-51019859D01*
X137506094Y-51019670D01*
X137506130Y-51019685D01*
X137539026Y-50971277D01*
X137596594Y-50950549D01*
X137599707Y-50950500D01*
X138773917Y-50950500D01*
X138773918Y-50950500D01*
X138918913Y-50921658D01*
X139005617Y-50885743D01*
X139066613Y-50880943D01*
X139118782Y-50912913D01*
X139142197Y-50969441D01*
X139134968Y-51015090D01*
X139128342Y-51031088D01*
X139099500Y-51176081D01*
X139099500Y-51282708D01*
X139085714Y-51333102D01*
X139068391Y-51362394D01*
X139046382Y-51399610D01*
X139002290Y-51551374D01*
X138999500Y-51586842D01*
X138999500Y-51648124D01*
X138980593Y-51706315D01*
X138970504Y-51718127D01*
X138768129Y-51920503D01*
X138713612Y-51948281D01*
X138698125Y-51949500D01*
X137475097Y-51949500D01*
X137416906Y-51930593D01*
X137405099Y-51920509D01*
X137311420Y-51826830D01*
X137311417Y-51826828D01*
X137311416Y-51826827D01*
X137175392Y-51746383D01*
X137175391Y-51746382D01*
X137175390Y-51746382D01*
X137099508Y-51724336D01*
X137023625Y-51702290D01*
X137000894Y-51700502D01*
X136988163Y-51699500D01*
X136988157Y-51699500D01*
X136411842Y-51699500D01*
X136376373Y-51702291D01*
X136376368Y-51702292D01*
X136224606Y-51746383D01*
X136088583Y-51826827D01*
X135976827Y-51938583D01*
X135896383Y-52074606D01*
X135896383Y-52074607D01*
X135852290Y-52226374D01*
X135849500Y-52261842D01*
X135849500Y-53138157D01*
X135852291Y-53173626D01*
X135852292Y-53173631D01*
X135896383Y-53325393D01*
X135976827Y-53461416D01*
X135976828Y-53461417D01*
X135976830Y-53461420D01*
X136088580Y-53573170D01*
X136088582Y-53573171D01*
X136088583Y-53573172D01*
X136159795Y-53615287D01*
X136200258Y-53661182D01*
X136206016Y-53722096D01*
X136174870Y-53774761D01*
X136118717Y-53799061D01*
X136109400Y-53799500D01*
X133990600Y-53799500D01*
X133932409Y-53780593D01*
X133896445Y-53731093D01*
X133896445Y-53669907D01*
X133932409Y-53620407D01*
X133940205Y-53615287D01*
X133982128Y-53590492D01*
X134011420Y-53573170D01*
X134123170Y-53461420D01*
X134203618Y-53325390D01*
X134247709Y-53173627D01*
X134250500Y-53138163D01*
X134250499Y-52261838D01*
X134247709Y-52226373D01*
X134203618Y-52074610D01*
X134123170Y-51938580D01*
X134011420Y-51826830D01*
X134011417Y-51826828D01*
X134011416Y-51826827D01*
X133875392Y-51746383D01*
X133875391Y-51746382D01*
X133875390Y-51746382D01*
X133799508Y-51724336D01*
X133723625Y-51702290D01*
X133700894Y-51700502D01*
X133688163Y-51699500D01*
X133688157Y-51699500D01*
X133111842Y-51699500D01*
X133076373Y-51702291D01*
X133076368Y-51702292D01*
X132924606Y-51746383D01*
X132788583Y-51826827D01*
X132788580Y-51826829D01*
X132788580Y-51826830D01*
X132694904Y-51920505D01*
X132640390Y-51948281D01*
X132624903Y-51949500D01*
X131351875Y-51949500D01*
X131293684Y-51930593D01*
X131281871Y-51920504D01*
X129979496Y-50618128D01*
X129951719Y-50563611D01*
X129950500Y-50548124D01*
X129950500Y-46356083D01*
X129950500Y-46356082D01*
X129921658Y-46211087D01*
X129865084Y-46074505D01*
X129817668Y-46003542D01*
X129782952Y-45951584D01*
X128329505Y-44498137D01*
X128301728Y-44443620D01*
X128300931Y-44418998D01*
X128302143Y-44405920D01*
X128305472Y-44370000D01*
X128285628Y-44155845D01*
X128226770Y-43948983D01*
X128224104Y-43943630D01*
X128215089Y-43883114D01*
X128243367Y-43828855D01*
X128298137Y-43801581D01*
X128312724Y-43800500D01*
X129048372Y-43800500D01*
X129106563Y-43819407D01*
X129142527Y-43868907D01*
X129142527Y-43930093D01*
X129132197Y-43952172D01*
X129119545Y-43972305D01*
X129119544Y-43972309D01*
X129063688Y-44131934D01*
X129063685Y-44131946D01*
X129044751Y-44299995D01*
X129044751Y-44300004D01*
X129063685Y-44468053D01*
X129063688Y-44468065D01*
X129119544Y-44627690D01*
X129119544Y-44627691D01*
X129196498Y-44750161D01*
X129209523Y-44770890D01*
X129329110Y-44890477D01*
X129472310Y-44980456D01*
X129536232Y-45002823D01*
X129631934Y-45036311D01*
X129631938Y-45036312D01*
X129631941Y-45036313D01*
X129631942Y-45036313D01*
X129631946Y-45036314D01*
X129799996Y-45055249D01*
X129800000Y-45055249D01*
X129800004Y-45055249D01*
X129968053Y-45036314D01*
X129968055Y-45036313D01*
X129968059Y-45036313D01*
X130127690Y-44980456D01*
X130270890Y-44890477D01*
X130390477Y-44770890D01*
X130480456Y-44627690D01*
X130536313Y-44468059D01*
X130539435Y-44440342D01*
X130564739Y-44384636D01*
X130567786Y-44381447D01*
X132455497Y-42493738D01*
X132510013Y-42465962D01*
X132570445Y-42475533D01*
X132613710Y-42518798D01*
X132624500Y-42563742D01*
X132624500Y-42731521D01*
X132632893Y-42784511D01*
X132632893Y-42815483D01*
X132624500Y-42868476D01*
X132624500Y-43381520D01*
X132624501Y-43381523D01*
X132639352Y-43475299D01*
X132639354Y-43475304D01*
X132696950Y-43588342D01*
X132786658Y-43678050D01*
X132899696Y-43735646D01*
X132993481Y-43750500D01*
X133200500Y-43750499D01*
X133258690Y-43769406D01*
X133294654Y-43818906D01*
X133299500Y-43849499D01*
X133299500Y-46667532D01*
X133280593Y-46725723D01*
X133231093Y-46761687D01*
X133219815Y-46764629D01*
X133188595Y-46770839D01*
X133188587Y-46770841D01*
X133052006Y-46827415D01*
X132929085Y-46909548D01*
X132017048Y-47821584D01*
X132017047Y-47821585D01*
X131981635Y-47874585D01*
X131981634Y-47874586D01*
X131934919Y-47944497D01*
X131934913Y-47944509D01*
X131878342Y-48081085D01*
X131849500Y-48226081D01*
X131849500Y-49673918D01*
X131878342Y-49818914D01*
X131934914Y-49955492D01*
X131934915Y-49955494D01*
X131934916Y-49955495D01*
X131952016Y-49981087D01*
X132017048Y-50078416D01*
X132438132Y-50499500D01*
X132520504Y-50581872D01*
X132548281Y-50636389D01*
X132549500Y-50651875D01*
X132549500Y-50838157D01*
X132552291Y-50873626D01*
X132552292Y-50873631D01*
X132596383Y-51025393D01*
X132676827Y-51161416D01*
X132676828Y-51161417D01*
X132676830Y-51161420D01*
X132788580Y-51273170D01*
X132924610Y-51353618D01*
X133076373Y-51397709D01*
X133111837Y-51400500D01*
X133688162Y-51400499D01*
X133723627Y-51397709D01*
X133875390Y-51353618D01*
X134011420Y-51273170D01*
X134123170Y-51161420D01*
X134203618Y-51025390D01*
X134247709Y-50873627D01*
X134250500Y-50838163D01*
X134250499Y-49961838D01*
X134247709Y-49926373D01*
X134203618Y-49774610D01*
X134123170Y-49638580D01*
X134011420Y-49526830D01*
X134011417Y-49526828D01*
X134011416Y-49526827D01*
X133875392Y-49446383D01*
X133875391Y-49446382D01*
X133875390Y-49446382D01*
X133786317Y-49420504D01*
X133723625Y-49402290D01*
X133699448Y-49400388D01*
X133688163Y-49399500D01*
X133688158Y-49399500D01*
X133501876Y-49399500D01*
X133443685Y-49380593D01*
X133431872Y-49370504D01*
X133379496Y-49318128D01*
X133351719Y-49263611D01*
X133350500Y-49248124D01*
X133350500Y-48651875D01*
X133369407Y-48593684D01*
X133379496Y-48581871D01*
X133689371Y-48271996D01*
X133743888Y-48244219D01*
X133759375Y-48243000D01*
X134299249Y-48243000D01*
X134357440Y-48261907D01*
X134393402Y-48311404D01*
X134393404Y-48311409D01*
X134400787Y-48334134D01*
X134400790Y-48334141D01*
X134482871Y-48495234D01*
X134483004Y-48495494D01*
X134589447Y-48642001D01*
X134717499Y-48770053D01*
X134864006Y-48876496D01*
X135025361Y-48958711D01*
X135197591Y-49014671D01*
X135263791Y-49025156D01*
X135376451Y-49043000D01*
X135376454Y-49043000D01*
X135557549Y-49043000D01*
X135646977Y-49028835D01*
X135736409Y-49014671D01*
X135908639Y-48958711D01*
X136069994Y-48876496D01*
X136216501Y-48770053D01*
X136344553Y-48642001D01*
X136450996Y-48495494D01*
X136533211Y-48334139D01*
X136589171Y-48161909D01*
X136607960Y-48043279D01*
X136617500Y-47983049D01*
X136617500Y-47983010D01*
X136857000Y-47983010D01*
X136885316Y-48161789D01*
X136941250Y-48333940D01*
X137023431Y-48495230D01*
X137023433Y-48495234D01*
X137129824Y-48641669D01*
X137257830Y-48769675D01*
X137404265Y-48876066D01*
X137404269Y-48876068D01*
X137565559Y-48958249D01*
X137737710Y-49014183D01*
X137737711Y-49014184D01*
X137806999Y-49025157D01*
X137807000Y-49025156D01*
X137807000Y-47954379D01*
X137814007Y-47958425D01*
X137941174Y-47992500D01*
X138072826Y-47992500D01*
X138199993Y-47958425D01*
X138207000Y-47954379D01*
X138207000Y-49025157D01*
X138276288Y-49014184D01*
X138276289Y-49014183D01*
X138448440Y-48958249D01*
X138609730Y-48876068D01*
X138609734Y-48876066D01*
X138756169Y-48769675D01*
X138884175Y-48641669D01*
X138990566Y-48495234D01*
X138990568Y-48495230D01*
X139072749Y-48333940D01*
X139128683Y-48161789D01*
X139157000Y-47983010D01*
X139157000Y-47692501D01*
X139156999Y-47692500D01*
X138468880Y-47692500D01*
X138472925Y-47685493D01*
X138507000Y-47558326D01*
X138507000Y-47426674D01*
X138472925Y-47299507D01*
X138468880Y-47292500D01*
X139156999Y-47292500D01*
X139157000Y-47292499D01*
X139157000Y-47001989D01*
X139128683Y-46823210D01*
X139072749Y-46651059D01*
X138990568Y-46489769D01*
X138990566Y-46489765D01*
X138884175Y-46343330D01*
X138756169Y-46215324D01*
X138609734Y-46108933D01*
X138609730Y-46108931D01*
X138448440Y-46026750D01*
X138276289Y-45970816D01*
X138207000Y-45959841D01*
X138207000Y-47030620D01*
X138199993Y-47026575D01*
X138072826Y-46992500D01*
X137941174Y-46992500D01*
X137814007Y-47026575D01*
X137807000Y-47030620D01*
X137807000Y-45959842D01*
X137806999Y-45959841D01*
X137737710Y-45970816D01*
X137565559Y-46026750D01*
X137404269Y-46108931D01*
X137404265Y-46108933D01*
X137257830Y-46215324D01*
X137129824Y-46343330D01*
X137023433Y-46489765D01*
X137023431Y-46489769D01*
X136941250Y-46651059D01*
X136885316Y-46823210D01*
X136857000Y-47001989D01*
X136857000Y-47292499D01*
X136857001Y-47292500D01*
X137545120Y-47292500D01*
X137541075Y-47299507D01*
X137507000Y-47426674D01*
X137507000Y-47558326D01*
X137541075Y-47685493D01*
X137545120Y-47692500D01*
X136857001Y-47692500D01*
X136857000Y-47692501D01*
X136857000Y-47983010D01*
X136617500Y-47983010D01*
X136617500Y-47001950D01*
X136595066Y-46860313D01*
X136589171Y-46823091D01*
X136533211Y-46650861D01*
X136450996Y-46489506D01*
X136344553Y-46342999D01*
X136216501Y-46214947D01*
X136069994Y-46108504D01*
X136069993Y-46108503D01*
X136069991Y-46108502D01*
X135908637Y-46026288D01*
X135736406Y-45970328D01*
X135557549Y-45942000D01*
X135557546Y-45942000D01*
X135376454Y-45942000D01*
X135376451Y-45942000D01*
X135197593Y-45970328D01*
X135025362Y-46026288D01*
X134864008Y-46108502D01*
X134790752Y-46161725D01*
X134717499Y-46214947D01*
X134669501Y-46262944D01*
X134614987Y-46290720D01*
X134554555Y-46281149D01*
X134511290Y-46237884D01*
X134500500Y-46192939D01*
X134500500Y-43849499D01*
X134519407Y-43791308D01*
X134568907Y-43755344D01*
X134599500Y-43750499D01*
X134806521Y-43750499D01*
X134806522Y-43750498D01*
X134870640Y-43740344D01*
X134900299Y-43735647D01*
X134900299Y-43735646D01*
X134900304Y-43735646D01*
X135013342Y-43678050D01*
X135103050Y-43588342D01*
X135160646Y-43475304D01*
X135175500Y-43381519D01*
X135175499Y-42868482D01*
X135175499Y-42868481D01*
X135175499Y-42868478D01*
X135167106Y-42815486D01*
X135167106Y-42784511D01*
X135175500Y-42731519D01*
X135175499Y-42218482D01*
X135175499Y-42218478D01*
X135167106Y-42165487D01*
X135167106Y-42134511D01*
X135170595Y-42112485D01*
X135175500Y-42081519D01*
X135175499Y-41568482D01*
X135175499Y-41568478D01*
X135167106Y-41515487D01*
X135167106Y-41484511D01*
X135175500Y-41431519D01*
X135175499Y-40918482D01*
X135175498Y-40918478D01*
X135166853Y-40863891D01*
X135166853Y-40832915D01*
X135175000Y-40781482D01*
X135175000Y-40725001D01*
X135174999Y-40725000D01*
X135157399Y-40725000D01*
X135099208Y-40706093D01*
X135087401Y-40696009D01*
X135013342Y-40621950D01*
X134996185Y-40613208D01*
X134952922Y-40569945D01*
X134943351Y-40509513D01*
X134971128Y-40454997D01*
X134996182Y-40436793D01*
X135013342Y-40428050D01*
X135087397Y-40353994D01*
X135141912Y-40326219D01*
X135157399Y-40325000D01*
X135174998Y-40325000D01*
X135174999Y-40324999D01*
X135174999Y-40268516D01*
X135166853Y-40217084D01*
X135166853Y-40186114D01*
X135175500Y-40131519D01*
X135175499Y-39618482D01*
X135175499Y-39618478D01*
X135167106Y-39565487D01*
X135167106Y-39534511D01*
X135173890Y-39491681D01*
X135175500Y-39481519D01*
X135175499Y-38968482D01*
X135175499Y-38968478D01*
X135167106Y-38915487D01*
X135167106Y-38884511D01*
X135172372Y-38851265D01*
X135175500Y-38831519D01*
X135175499Y-38318482D01*
X135175499Y-38318478D01*
X135167106Y-38265487D01*
X135167106Y-38234511D01*
X135175500Y-38181519D01*
X135175499Y-37668482D01*
X135175498Y-37668478D01*
X135170571Y-37637371D01*
X135166853Y-37613888D01*
X135166853Y-37582915D01*
X135175000Y-37531482D01*
X135175000Y-37475001D01*
X135174999Y-37475000D01*
X135157399Y-37475000D01*
X135099208Y-37456093D01*
X135087401Y-37446009D01*
X135013342Y-37371950D01*
X134996185Y-37363208D01*
X134952922Y-37319945D01*
X134943351Y-37259513D01*
X134971128Y-37204997D01*
X134996182Y-37186793D01*
X135013342Y-37178050D01*
X135087397Y-37103994D01*
X135141912Y-37076219D01*
X135157399Y-37075000D01*
X135174998Y-37075000D01*
X135174999Y-37074999D01*
X135174999Y-37018516D01*
X135166853Y-36967084D01*
X135166853Y-36936114D01*
X135175500Y-36881519D01*
X135175499Y-36368482D01*
X135175499Y-36368481D01*
X135175499Y-36368478D01*
X135167106Y-36315486D01*
X135167106Y-36284511D01*
X135175500Y-36231519D01*
X135175499Y-35718482D01*
X135175499Y-35718478D01*
X135167106Y-35665487D01*
X135167106Y-35634511D01*
X135167697Y-35630785D01*
X135175500Y-35581519D01*
X135176109Y-35577676D01*
X135178043Y-35577982D01*
X135198643Y-35528205D01*
X135250802Y-35496219D01*
X135311800Y-35501000D01*
G37*
G04 #@! TD.AperFunction*
G04 #@! TA.AperFunction,Conductor*
G36*
X129850208Y-27419407D02*
G01*
X129886172Y-27468907D01*
X129886172Y-27530093D01*
X129862021Y-27569504D01*
X129059490Y-28372035D01*
X128987016Y-28497565D01*
X128949500Y-28637575D01*
X128949500Y-33472474D01*
X128973617Y-33562484D01*
X128987015Y-33612482D01*
X128987016Y-33612485D01*
X128988124Y-33614404D01*
X128989423Y-33618297D01*
X128989499Y-33618479D01*
X128989486Y-33618484D01*
X129000665Y-33651969D01*
X129014860Y-33768872D01*
X129075182Y-33927930D01*
X129171816Y-34067927D01*
X129171818Y-34067930D01*
X129214260Y-34105530D01*
X129299148Y-34180734D01*
X129449775Y-34259790D01*
X129614944Y-34300500D01*
X129614947Y-34300500D01*
X129785053Y-34300500D01*
X129785056Y-34300500D01*
X129950225Y-34259790D01*
X130100852Y-34180734D01*
X130228183Y-34067929D01*
X130289550Y-33979023D01*
X130338163Y-33941877D01*
X130399330Y-33940398D01*
X130441026Y-33965261D01*
X132169478Y-35693713D01*
X132169480Y-35693716D01*
X132281284Y-35805520D01*
X132281286Y-35805521D01*
X132281289Y-35805524D01*
X132281288Y-35805524D01*
X132368091Y-35855637D01*
X132368093Y-35855639D01*
X132368094Y-35855639D01*
X132389487Y-35867990D01*
X132418215Y-35884577D01*
X132551124Y-35920189D01*
X132602437Y-35953513D01*
X132624364Y-36010635D01*
X132624500Y-36015816D01*
X132624500Y-36231521D01*
X132632893Y-36284511D01*
X132632893Y-36315483D01*
X132624500Y-36368476D01*
X132624500Y-36881521D01*
X132633146Y-36936108D01*
X132633146Y-36967080D01*
X132625000Y-37018515D01*
X132625000Y-37074999D01*
X132625001Y-37075000D01*
X132642601Y-37075000D01*
X132700792Y-37093907D01*
X132712598Y-37103990D01*
X132764106Y-37155498D01*
X132791882Y-37210013D01*
X132782311Y-37270445D01*
X132739046Y-37313710D01*
X132694101Y-37324500D01*
X132514743Y-37324500D01*
X132456552Y-37305593D01*
X132444739Y-37295504D01*
X131980521Y-36831286D01*
X131980520Y-36831284D01*
X131868716Y-36719480D01*
X131868713Y-36719478D01*
X131747509Y-36649501D01*
X131747506Y-36649500D01*
X131731787Y-36640424D01*
X131731785Y-36640423D01*
X131579057Y-36599499D01*
X131420943Y-36599499D01*
X131414880Y-36599499D01*
X131414864Y-36599500D01*
X129518478Y-36599500D01*
X129518476Y-36599501D01*
X129424700Y-36614352D01*
X129424695Y-36614354D01*
X129311659Y-36671949D01*
X129221949Y-36761659D01*
X129164354Y-36874695D01*
X129149500Y-36968477D01*
X129149500Y-37431520D01*
X129149501Y-37431523D01*
X129164352Y-37525299D01*
X129164354Y-37525304D01*
X129221950Y-37638342D01*
X129311658Y-37728050D01*
X129311660Y-37728051D01*
X129313958Y-37730349D01*
X129341735Y-37784866D01*
X129332164Y-37845298D01*
X129313958Y-37870357D01*
X129222358Y-37961956D01*
X129164836Y-38074848D01*
X129164835Y-38074852D01*
X129150000Y-38168515D01*
X129150000Y-38199999D01*
X129150001Y-38200000D01*
X130601000Y-38200000D01*
X130659191Y-38218907D01*
X130695155Y-38268407D01*
X130700000Y-38299000D01*
X130700000Y-38501000D01*
X130681093Y-38559191D01*
X130631593Y-38595155D01*
X130601000Y-38600000D01*
X129150002Y-38600000D01*
X129150001Y-38600001D01*
X129150001Y-38631485D01*
X129164833Y-38725141D01*
X129164836Y-38725151D01*
X129222358Y-38838043D01*
X129313958Y-38929643D01*
X129341735Y-38984160D01*
X129332164Y-39044592D01*
X129313958Y-39069651D01*
X129311659Y-39071948D01*
X129311658Y-39071950D01*
X129221950Y-39161658D01*
X129221949Y-39161659D01*
X129164354Y-39274695D01*
X129149500Y-39368477D01*
X129149500Y-39831520D01*
X129149501Y-39831523D01*
X129164352Y-39925299D01*
X129164354Y-39925304D01*
X129221950Y-40038342D01*
X129311658Y-40128050D01*
X129424696Y-40185646D01*
X129518481Y-40200500D01*
X130409411Y-40200499D01*
X130409421Y-40200500D01*
X130420943Y-40200500D01*
X131814864Y-40200500D01*
X131814880Y-40200501D01*
X131820943Y-40200501D01*
X131979055Y-40200501D01*
X131979057Y-40200501D01*
X132131785Y-40159577D01*
X132131787Y-40159575D01*
X132131789Y-40159575D01*
X132149239Y-40149500D01*
X132213350Y-40112485D01*
X132268716Y-40080520D01*
X132380520Y-39968716D01*
X132380521Y-39968714D01*
X132455496Y-39893739D01*
X132510012Y-39865961D01*
X132570444Y-39875532D01*
X132613709Y-39918796D01*
X132624500Y-39963741D01*
X132624500Y-40131520D01*
X132624501Y-40131521D01*
X132633146Y-40186108D01*
X132633146Y-40217080D01*
X132625000Y-40268515D01*
X132625000Y-40324999D01*
X132625001Y-40325000D01*
X132642601Y-40325000D01*
X132700792Y-40343907D01*
X132712598Y-40353990D01*
X132764106Y-40405498D01*
X132791882Y-40460013D01*
X132782311Y-40520445D01*
X132739046Y-40563710D01*
X132694101Y-40574500D01*
X131745942Y-40574500D01*
X131705018Y-40585465D01*
X131705017Y-40585464D01*
X131593219Y-40615421D01*
X131593218Y-40615421D01*
X131456281Y-40694482D01*
X131344479Y-40806283D01*
X131344480Y-40806284D01*
X131344478Y-40806286D01*
X130449794Y-41700971D01*
X129580261Y-42570504D01*
X129525744Y-42598281D01*
X129510257Y-42599500D01*
X126320942Y-42599500D01*
X126280018Y-42610465D01*
X126280017Y-42610464D01*
X126168219Y-42640421D01*
X126168218Y-42640421D01*
X126031281Y-42719482D01*
X125919479Y-42831283D01*
X125919480Y-42831284D01*
X125919478Y-42831286D01*
X125919477Y-42831286D01*
X125828942Y-42921820D01*
X125774425Y-42949597D01*
X125713993Y-42940025D01*
X125670729Y-42896761D01*
X125670371Y-42896050D01*
X125590904Y-42736458D01*
X125461294Y-42564827D01*
X125425212Y-42531934D01*
X125302353Y-42419932D01*
X125302352Y-42419931D01*
X125119501Y-42306715D01*
X125119496Y-42306712D01*
X124962718Y-42245976D01*
X124918947Y-42229019D01*
X124918946Y-42229018D01*
X124918944Y-42229018D01*
X124707536Y-42189500D01*
X124492464Y-42189500D01*
X124281055Y-42229018D01*
X124257834Y-42238014D01*
X124080504Y-42306712D01*
X123937378Y-42395332D01*
X123918524Y-42407006D01*
X123859095Y-42421564D01*
X123802460Y-42398410D01*
X123770250Y-42346389D01*
X123774769Y-42285371D01*
X123796401Y-42252832D01*
X125068713Y-40980521D01*
X125068716Y-40980520D01*
X125180520Y-40868716D01*
X125256286Y-40737485D01*
X125259577Y-40731785D01*
X125300501Y-40579057D01*
X125300501Y-40420943D01*
X125300501Y-40414881D01*
X125300500Y-40414863D01*
X125300500Y-33889742D01*
X125319407Y-33831551D01*
X125329496Y-33819739D01*
X125557717Y-33591518D01*
X125810496Y-33338737D01*
X125865013Y-33310960D01*
X125925445Y-33320531D01*
X125968710Y-33363796D01*
X125979500Y-33408740D01*
X125979500Y-33591520D01*
X125979501Y-33591523D01*
X125994352Y-33685299D01*
X125994354Y-33685304D01*
X126051950Y-33798342D01*
X126141658Y-33888050D01*
X126254696Y-33945646D01*
X126348481Y-33960500D01*
X127931518Y-33960499D01*
X127931521Y-33960499D01*
X127931522Y-33960498D01*
X128011091Y-33947897D01*
X128025299Y-33945647D01*
X128025299Y-33945646D01*
X128025304Y-33945646D01*
X128138342Y-33888050D01*
X128228050Y-33798342D01*
X128285646Y-33685304D01*
X128300500Y-33591519D01*
X128300499Y-32008482D01*
X128300499Y-32008478D01*
X128300498Y-32008476D01*
X128285647Y-31914700D01*
X128285646Y-31914698D01*
X128285646Y-31914696D01*
X128228050Y-31801658D01*
X128138342Y-31711950D01*
X128113680Y-31699384D01*
X128053657Y-31668800D01*
X128010393Y-31625535D01*
X128000822Y-31565103D01*
X128019597Y-31520935D01*
X128130904Y-31373542D01*
X128226770Y-31181017D01*
X128285628Y-30974155D01*
X128305472Y-30760000D01*
X128285628Y-30545845D01*
X128226770Y-30338983D01*
X128130904Y-30146458D01*
X128001294Y-29974827D01*
X127978622Y-29954159D01*
X127842354Y-29829933D01*
X127842352Y-29829932D01*
X127833048Y-29824171D01*
X127793527Y-29777464D01*
X127789008Y-29716446D01*
X127821217Y-29664424D01*
X127833045Y-29655830D01*
X127842354Y-29650067D01*
X128001294Y-29505173D01*
X128130904Y-29333542D01*
X128226770Y-29141017D01*
X128285628Y-28934155D01*
X128305472Y-28720000D01*
X128285628Y-28505845D01*
X128226770Y-28298983D01*
X128130904Y-28106458D01*
X128001294Y-27934827D01*
X127970246Y-27906523D01*
X127842353Y-27789932D01*
X127842352Y-27789931D01*
X127659501Y-27676715D01*
X127659496Y-27676712D01*
X127458944Y-27599018D01*
X127447151Y-27596814D01*
X127393425Y-27567537D01*
X127367169Y-27512271D01*
X127378412Y-27452128D01*
X127422859Y-27410079D01*
X127465342Y-27400500D01*
X129792017Y-27400500D01*
X129850208Y-27419407D01*
G37*
G04 #@! TD.AperFunction*
G04 #@! TA.AperFunction,Conductor*
G36*
X142544503Y-39723028D02*
G01*
X142920504Y-40099029D01*
X142948281Y-40153546D01*
X142949500Y-40169033D01*
X142949500Y-41630967D01*
X142930593Y-41689158D01*
X142920504Y-41700971D01*
X142544004Y-42077471D01*
X142489487Y-42105248D01*
X142429055Y-42095677D01*
X142385790Y-42052412D01*
X142380539Y-42030540D01*
X142374999Y-42025000D01*
X142357399Y-42025000D01*
X142299208Y-42006093D01*
X142287401Y-41996009D01*
X142213342Y-41921950D01*
X142196185Y-41913208D01*
X142152922Y-41869945D01*
X142143351Y-41809513D01*
X142171128Y-41754997D01*
X142196182Y-41736793D01*
X142213342Y-41728050D01*
X142287397Y-41653994D01*
X142341912Y-41626219D01*
X142357399Y-41625000D01*
X142374998Y-41625000D01*
X142374999Y-41624999D01*
X142374999Y-41568516D01*
X142366853Y-41517084D01*
X142366853Y-41486114D01*
X142375500Y-41431519D01*
X142375499Y-40918482D01*
X142375499Y-40918479D01*
X142375499Y-40918478D01*
X142367106Y-40865487D01*
X142367106Y-40834511D01*
X142368661Y-40824696D01*
X142375500Y-40781519D01*
X142375499Y-40268482D01*
X142375499Y-40268478D01*
X142367106Y-40215487D01*
X142367106Y-40184511D01*
X142368530Y-40175520D01*
X142375500Y-40131519D01*
X142375499Y-39793030D01*
X142394406Y-39734841D01*
X142443906Y-39698877D01*
X142505091Y-39698877D01*
X142544503Y-39723028D01*
G37*
G04 #@! TD.AperFunction*
G04 #@! TA.AperFunction,Conductor*
G36*
X131208691Y-28169407D02*
G01*
X131244655Y-28218907D01*
X131249500Y-28249500D01*
X131249500Y-28706521D01*
X131249501Y-28706523D01*
X131261852Y-28784513D01*
X131261852Y-28815484D01*
X131249500Y-28893477D01*
X131249500Y-29506521D01*
X131249501Y-29506523D01*
X131261852Y-29584513D01*
X131261852Y-29615484D01*
X131249500Y-29693477D01*
X131249500Y-30306521D01*
X131249501Y-30306523D01*
X131261852Y-30384513D01*
X131261852Y-30415484D01*
X131249500Y-30493477D01*
X131249500Y-31106520D01*
X131249501Y-31106523D01*
X131264352Y-31200299D01*
X131264354Y-31200304D01*
X131321950Y-31313342D01*
X131411658Y-31403050D01*
X131524696Y-31460646D01*
X131618481Y-31475500D01*
X133125500Y-31475499D01*
X133183691Y-31494406D01*
X133219655Y-31543906D01*
X133224500Y-31574499D01*
X133224500Y-33081521D01*
X133224501Y-33081523D01*
X133239352Y-33175299D01*
X133239354Y-33175304D01*
X133296950Y-33288342D01*
X133386658Y-33378050D01*
X133499696Y-33435646D01*
X133593481Y-33450500D01*
X134206518Y-33450499D01*
X134284517Y-33438146D01*
X134315480Y-33438146D01*
X134393481Y-33450500D01*
X135006518Y-33450499D01*
X135084517Y-33438146D01*
X135115480Y-33438146D01*
X135193481Y-33450500D01*
X135806518Y-33450499D01*
X135806520Y-33450499D01*
X135806520Y-33450498D01*
X135851879Y-33443315D01*
X135886112Y-33437894D01*
X135917083Y-33437893D01*
X135941603Y-33441776D01*
X135996120Y-33469553D01*
X136023899Y-33524069D01*
X136019563Y-33572255D01*
X135963687Y-33731939D01*
X135963685Y-33731946D01*
X135944751Y-33899995D01*
X135944751Y-33900004D01*
X135963685Y-34068053D01*
X135963688Y-34068065D01*
X136019544Y-34227690D01*
X136019544Y-34227691D01*
X136103490Y-34361289D01*
X136109523Y-34370890D01*
X136219131Y-34480498D01*
X136246907Y-34535013D01*
X136237336Y-34595445D01*
X136194071Y-34638710D01*
X136149126Y-34649500D01*
X136069033Y-34649500D01*
X136010842Y-34630593D01*
X135999030Y-34620504D01*
X135613017Y-34234492D01*
X135613015Y-34234490D01*
X135487485Y-34162016D01*
X135487484Y-34162015D01*
X135487481Y-34162014D01*
X135407187Y-34140499D01*
X135407187Y-34140500D01*
X135347475Y-34124500D01*
X135347474Y-34124500D01*
X135042114Y-34124500D01*
X134997168Y-34113709D01*
X134900304Y-34064354D01*
X134900305Y-34064354D01*
X134806521Y-34049500D01*
X132993478Y-34049500D01*
X132993476Y-34049501D01*
X132899700Y-34064352D01*
X132899695Y-34064354D01*
X132786659Y-34121949D01*
X132696950Y-34211658D01*
X132653816Y-34296311D01*
X132610551Y-34339574D01*
X132550118Y-34349145D01*
X132495603Y-34321368D01*
X130829496Y-32655261D01*
X130801719Y-32600744D01*
X130800500Y-32585257D01*
X130800500Y-29483459D01*
X130815675Y-29430787D01*
X130880454Y-29327693D01*
X130880453Y-29327693D01*
X130880456Y-29327690D01*
X130936313Y-29168059D01*
X130941000Y-29126465D01*
X130955249Y-29000004D01*
X130955249Y-28999995D01*
X130936314Y-28831946D01*
X130936311Y-28831934D01*
X130910263Y-28757495D01*
X130880456Y-28672310D01*
X130875104Y-28663793D01*
X130790479Y-28529113D01*
X130790478Y-28529112D01*
X130790477Y-28529110D01*
X130694971Y-28433604D01*
X130667196Y-28379090D01*
X130676767Y-28318658D01*
X130694970Y-28293603D01*
X130809079Y-28179496D01*
X130863596Y-28151719D01*
X130879082Y-28150500D01*
X131150500Y-28150500D01*
X131208691Y-28169407D01*
G37*
G04 #@! TD.AperFunction*
G04 #@! TA.AperFunction,Conductor*
G36*
X123398668Y-31887308D02*
G01*
X123441933Y-31930573D01*
X123452300Y-31966381D01*
X123454865Y-31994058D01*
X123513699Y-32200838D01*
X123609519Y-32393270D01*
X123609528Y-32393285D01*
X123650118Y-32447036D01*
X124172804Y-31924351D01*
X124180667Y-31953694D01*
X124239910Y-32056306D01*
X124323694Y-32140090D01*
X124426306Y-32199333D01*
X124455647Y-32207194D01*
X123932057Y-32730785D01*
X124070215Y-32816329D01*
X124109736Y-32863037D01*
X124114255Y-32924056D01*
X124082045Y-32976076D01*
X124025409Y-32999230D01*
X124018098Y-32999500D01*
X122428743Y-32999500D01*
X122370552Y-32980593D01*
X122334588Y-32931093D01*
X122334588Y-32869907D01*
X122358739Y-32830497D01*
X123049145Y-32140090D01*
X123283721Y-31905513D01*
X123338236Y-31877737D01*
X123398668Y-31887308D01*
G37*
G04 #@! TD.AperFunction*
G04 #@! TA.AperFunction,Conductor*
G36*
X145658691Y-19319407D02*
G01*
X145694655Y-19368907D01*
X145699500Y-19399500D01*
X145699500Y-26154101D01*
X145680593Y-26212292D01*
X145631093Y-26248256D01*
X145569907Y-26248256D01*
X145530498Y-26224106D01*
X145488342Y-26181950D01*
X145375304Y-26124354D01*
X145375305Y-26124354D01*
X145281521Y-26109500D01*
X143518478Y-26109500D01*
X143518476Y-26109501D01*
X143427959Y-26123836D01*
X143367527Y-26114264D01*
X143329156Y-26076352D01*
X143328220Y-26076999D01*
X143232576Y-25938436D01*
X143218425Y-25907821D01*
X143212984Y-25887515D01*
X143212983Y-25887514D01*
X143212983Y-25887512D01*
X143197472Y-25860648D01*
X143197470Y-25860645D01*
X143140510Y-25761985D01*
X142938015Y-25559490D01*
X142865540Y-25517646D01*
X142812484Y-25487015D01*
X142811156Y-25486660D01*
X142811149Y-25486658D01*
X142672475Y-25449500D01*
X142672473Y-25449500D01*
X142249500Y-25449500D01*
X142191309Y-25430593D01*
X142155345Y-25381093D01*
X142150500Y-25350500D01*
X142150499Y-24893479D01*
X142150498Y-24893476D01*
X142135647Y-24799700D01*
X142135646Y-24799698D01*
X142135646Y-24799696D01*
X142078050Y-24686658D01*
X141988342Y-24596950D01*
X141875304Y-24539354D01*
X141872076Y-24537709D01*
X141828812Y-24494445D01*
X141819241Y-24434012D01*
X141847019Y-24379496D01*
X141901536Y-24351719D01*
X141917022Y-24350500D01*
X143264864Y-24350500D01*
X143264880Y-24350501D01*
X143270943Y-24350501D01*
X143429056Y-24350501D01*
X143429057Y-24350501D01*
X143581785Y-24309577D01*
X143581787Y-24309575D01*
X143581790Y-24309575D01*
X143585512Y-24308034D01*
X143623395Y-24300499D01*
X144381521Y-24300499D01*
X144381522Y-24300498D01*
X144428411Y-24293072D01*
X144475299Y-24285647D01*
X144475299Y-24285646D01*
X144475304Y-24285646D01*
X144588342Y-24228050D01*
X144678050Y-24138342D01*
X144735646Y-24025304D01*
X144750500Y-23931519D01*
X144750499Y-23468482D01*
X144738146Y-23390479D01*
X144735647Y-23374700D01*
X144735646Y-23374698D01*
X144735646Y-23374696D01*
X144678050Y-23261658D01*
X144588342Y-23171950D01*
X144588339Y-23171948D01*
X144586042Y-23169651D01*
X144558265Y-23115134D01*
X144567836Y-23054702D01*
X144586042Y-23029643D01*
X144677641Y-22938043D01*
X144735163Y-22825151D01*
X144735164Y-22825147D01*
X144750000Y-22731484D01*
X144750000Y-22700001D01*
X144749999Y-22700000D01*
X142050002Y-22700000D01*
X142050001Y-22700001D01*
X142050001Y-22731485D01*
X142064833Y-22825141D01*
X142064836Y-22825151D01*
X142122358Y-22938043D01*
X142164811Y-22980496D01*
X142192588Y-23035013D01*
X142183017Y-23095445D01*
X142139752Y-23138710D01*
X142094807Y-23149500D01*
X140274499Y-23149500D01*
X140216308Y-23130593D01*
X140180344Y-23081093D01*
X140175499Y-23050500D01*
X140175499Y-22918478D01*
X140175498Y-22918476D01*
X140160647Y-22824700D01*
X140160646Y-22824697D01*
X140160646Y-22824696D01*
X140103050Y-22711658D01*
X140013342Y-22621950D01*
X139900304Y-22564354D01*
X139900305Y-22564354D01*
X139884659Y-22561876D01*
X139830143Y-22534098D01*
X139802366Y-22479581D01*
X139811938Y-22419149D01*
X139830144Y-22394091D01*
X140294741Y-21929496D01*
X140349257Y-21901719D01*
X140364744Y-21900500D01*
X142045365Y-21900500D01*
X142103556Y-21919407D01*
X142139520Y-21968907D01*
X142139520Y-22030093D01*
X142125458Y-22057690D01*
X142122359Y-22061954D01*
X142064836Y-22174848D01*
X142064835Y-22174852D01*
X142050000Y-22268515D01*
X142050000Y-22299999D01*
X142050001Y-22300000D01*
X144749998Y-22300000D01*
X144749999Y-22299999D01*
X144749999Y-22268516D01*
X144749998Y-22268514D01*
X144735166Y-22174858D01*
X144735163Y-22174848D01*
X144677641Y-22061956D01*
X144586042Y-21970357D01*
X144558265Y-21915840D01*
X144567836Y-21855408D01*
X144586042Y-21830349D01*
X144588339Y-21828051D01*
X144588342Y-21828050D01*
X144678050Y-21738342D01*
X144735646Y-21625304D01*
X144750500Y-21531519D01*
X144750499Y-21068482D01*
X144735646Y-20974696D01*
X144678050Y-20861658D01*
X144588342Y-20771950D01*
X144475304Y-20714354D01*
X144475305Y-20714354D01*
X144381522Y-20699500D01*
X144381519Y-20699500D01*
X143479058Y-20699500D01*
X143479057Y-20699500D01*
X140160137Y-20699500D01*
X140160121Y-20699499D01*
X140154058Y-20699499D01*
X139995943Y-20699499D01*
X139995940Y-20699499D01*
X139843219Y-20740421D01*
X139843218Y-20740421D01*
X139710311Y-20817155D01*
X139706284Y-20819480D01*
X138331286Y-22194478D01*
X138331284Y-22194480D01*
X138331283Y-22194479D01*
X138219479Y-22306284D01*
X138169359Y-22393095D01*
X138140424Y-22443211D01*
X138140423Y-22443214D01*
X138131604Y-22476125D01*
X138098279Y-22527439D01*
X138041157Y-22549364D01*
X138035978Y-22549500D01*
X137593479Y-22549500D01*
X137593475Y-22549501D01*
X137513889Y-22562105D01*
X137482918Y-22562105D01*
X137406485Y-22550000D01*
X137300001Y-22550000D01*
X137300000Y-22550001D01*
X137300000Y-22681904D01*
X137289210Y-22726849D01*
X137239353Y-22824696D01*
X137224500Y-22918478D01*
X137224500Y-24581521D01*
X137224501Y-24581523D01*
X137239352Y-24675299D01*
X137239354Y-24675304D01*
X137289209Y-24773149D01*
X137300000Y-24818095D01*
X137300000Y-24949998D01*
X137300001Y-24949999D01*
X137406481Y-24949999D01*
X137482911Y-24937893D01*
X137513883Y-24937893D01*
X137593481Y-24950500D01*
X138206518Y-24950499D01*
X138284517Y-24938146D01*
X138315480Y-24938146D01*
X138393481Y-24950500D01*
X139006518Y-24950499D01*
X139084517Y-24938146D01*
X139115480Y-24938146D01*
X139193481Y-24950500D01*
X139650500Y-24950499D01*
X139708691Y-24969406D01*
X139744655Y-25018906D01*
X139749500Y-25049499D01*
X139749500Y-25506521D01*
X139749501Y-25506523D01*
X139761852Y-25584513D01*
X139761852Y-25615484D01*
X139749500Y-25693477D01*
X139749500Y-26306521D01*
X139749501Y-26306523D01*
X139761852Y-26384513D01*
X139761852Y-26415484D01*
X139749500Y-26493477D01*
X139749500Y-27106521D01*
X139749501Y-27106523D01*
X139761852Y-27184513D01*
X139761852Y-27215484D01*
X139749500Y-27293477D01*
X139749500Y-27906521D01*
X139749501Y-27906523D01*
X139761852Y-27984513D01*
X139761852Y-28015484D01*
X139749500Y-28093477D01*
X139749500Y-28706521D01*
X139749501Y-28706523D01*
X139761852Y-28784513D01*
X139761852Y-28815484D01*
X139749500Y-28893477D01*
X139749500Y-29506521D01*
X139749501Y-29506523D01*
X139761852Y-29584513D01*
X139761852Y-29615484D01*
X139749500Y-29693477D01*
X139749500Y-30149126D01*
X139730593Y-30207317D01*
X139681093Y-30243281D01*
X139619907Y-30243281D01*
X139580498Y-30219131D01*
X139570890Y-30209523D01*
X139570887Y-30209521D01*
X139570886Y-30209520D01*
X139427691Y-30119544D01*
X139268065Y-30063688D01*
X139268053Y-30063685D01*
X139100004Y-30044751D01*
X139099996Y-30044751D01*
X138931946Y-30063685D01*
X138931934Y-30063688D01*
X138772309Y-30119544D01*
X138772308Y-30119544D01*
X138629113Y-30209520D01*
X138509520Y-30329113D01*
X138419544Y-30472308D01*
X138419544Y-30472309D01*
X138363686Y-30631939D01*
X138363686Y-30631940D01*
X138360563Y-30659656D01*
X138335258Y-30715364D01*
X138332228Y-30718534D01*
X138331324Y-30719439D01*
X138331286Y-30719478D01*
X138331284Y-30719480D01*
X138331283Y-30719479D01*
X138219479Y-30831284D01*
X138169359Y-30918095D01*
X138140424Y-30968211D01*
X138138303Y-30976127D01*
X138104977Y-31027440D01*
X138047855Y-31049365D01*
X138042677Y-31049500D01*
X137593478Y-31049500D01*
X137593476Y-31049501D01*
X137515486Y-31061852D01*
X137484515Y-31061852D01*
X137406522Y-31049500D01*
X136793479Y-31049500D01*
X136793475Y-31049501D01*
X136713889Y-31062105D01*
X136682918Y-31062105D01*
X136606485Y-31050000D01*
X136500001Y-31050000D01*
X136500000Y-31050001D01*
X136500000Y-31181904D01*
X136489210Y-31226849D01*
X136439353Y-31324696D01*
X136424500Y-31418478D01*
X136424500Y-31418481D01*
X136424500Y-32230000D01*
X136424501Y-32351000D01*
X136405594Y-32409191D01*
X136356094Y-32445155D01*
X136325501Y-32450000D01*
X136274500Y-32450000D01*
X136216309Y-32431093D01*
X136180345Y-32381593D01*
X136175500Y-32351000D01*
X136175499Y-31418478D01*
X136175498Y-31418476D01*
X136160647Y-31324700D01*
X136160646Y-31324697D01*
X136160646Y-31324696D01*
X136110789Y-31226848D01*
X136100000Y-31181904D01*
X136100000Y-31050000D01*
X135993521Y-31050000D01*
X135917081Y-31062106D01*
X135886109Y-31062105D01*
X135806522Y-31049500D01*
X135193478Y-31049500D01*
X135193476Y-31049501D01*
X135115486Y-31061852D01*
X135084515Y-31061852D01*
X135006522Y-31049500D01*
X134393478Y-31049500D01*
X134393476Y-31049501D01*
X134315486Y-31061852D01*
X134284515Y-31061852D01*
X134206522Y-31049500D01*
X134206519Y-31049500D01*
X133749499Y-31049500D01*
X133691308Y-31030593D01*
X133655344Y-30981093D01*
X133650499Y-30950500D01*
X133650499Y-30493478D01*
X133638147Y-30415486D01*
X133638147Y-30384512D01*
X133643052Y-30353542D01*
X133650500Y-30306519D01*
X133650499Y-29693482D01*
X133638147Y-29615486D01*
X133638147Y-29584512D01*
X133650500Y-29506519D01*
X133650499Y-28893482D01*
X133644884Y-28858027D01*
X133638147Y-28815486D01*
X133638147Y-28784512D01*
X133642431Y-28757464D01*
X133650500Y-28706519D01*
X133650499Y-28093482D01*
X133638147Y-28015486D01*
X133638147Y-27984512D01*
X133646017Y-27934823D01*
X133650500Y-27906519D01*
X133650499Y-27293482D01*
X133638147Y-27215486D01*
X133638147Y-27184512D01*
X133650499Y-27106523D01*
X133650500Y-27106519D01*
X133650499Y-26493482D01*
X133638147Y-26415486D01*
X133638147Y-26384512D01*
X133650499Y-26306523D01*
X133650500Y-26306519D01*
X133650499Y-25693482D01*
X133638147Y-25615486D01*
X133638147Y-25584512D01*
X133650499Y-25506523D01*
X133650500Y-25506519D01*
X133650499Y-25049498D01*
X133669406Y-24991308D01*
X133718906Y-24955344D01*
X133749499Y-24950499D01*
X134206519Y-24950499D01*
X134216644Y-24948895D01*
X134284517Y-24938146D01*
X134315480Y-24938146D01*
X134393481Y-24950500D01*
X135006518Y-24950499D01*
X135084517Y-24938146D01*
X135115480Y-24938146D01*
X135193481Y-24950500D01*
X135806518Y-24950499D01*
X135884517Y-24938146D01*
X135915480Y-24938146D01*
X135993481Y-24950500D01*
X136606518Y-24950499D01*
X136606520Y-24950499D01*
X136606520Y-24950498D01*
X136651879Y-24943315D01*
X136686112Y-24937894D01*
X136717086Y-24937894D01*
X136793516Y-24949999D01*
X136900000Y-24949999D01*
X136900000Y-24818095D01*
X136910791Y-24773149D01*
X136960646Y-24675304D01*
X136975500Y-24581519D01*
X136975499Y-22918482D01*
X136975499Y-22918481D01*
X136975499Y-22918478D01*
X136975498Y-22918476D01*
X136960647Y-22824700D01*
X136960646Y-22824697D01*
X136960646Y-22824696D01*
X136910789Y-22726848D01*
X136900000Y-22681904D01*
X136900000Y-22550001D01*
X136894265Y-22544266D01*
X136866488Y-22489749D01*
X136876059Y-22429317D01*
X136894262Y-22404261D01*
X137042634Y-22255889D01*
X137097149Y-22228113D01*
X137130824Y-22228579D01*
X137312279Y-22262500D01*
X137312280Y-22262500D01*
X137527721Y-22262500D01*
X137739496Y-22222912D01*
X137940391Y-22145085D01*
X138123564Y-22031669D01*
X138282778Y-21886526D01*
X138412612Y-21714599D01*
X138508643Y-21521742D01*
X138567601Y-21314524D01*
X138587480Y-21100000D01*
X138567601Y-20885476D01*
X138508643Y-20678258D01*
X138412612Y-20485401D01*
X138282778Y-20313474D01*
X138123564Y-20168331D01*
X137940391Y-20054915D01*
X137739496Y-19977088D01*
X137739495Y-19977087D01*
X137739493Y-19977087D01*
X137527721Y-19937500D01*
X137312279Y-19937500D01*
X137100506Y-19977087D01*
X136899608Y-20054915D01*
X136899603Y-20054918D01*
X136716440Y-20168328D01*
X136716438Y-20168329D01*
X136716436Y-20168331D01*
X136576371Y-20296017D01*
X136557223Y-20313473D01*
X136557219Y-20313478D01*
X136427389Y-20485399D01*
X136427384Y-20485408D01*
X136331357Y-20678257D01*
X136272399Y-20885474D01*
X136252520Y-21100000D01*
X136272399Y-21314525D01*
X136290711Y-21378884D01*
X136288450Y-21440028D01*
X136265494Y-21475980D01*
X136137607Y-21603867D01*
X136083090Y-21631644D01*
X136022658Y-21622073D01*
X135979393Y-21578808D01*
X135969822Y-21518376D01*
X135972382Y-21506770D01*
X136027107Y-21314431D01*
X136046977Y-21100000D01*
X136027107Y-20885566D01*
X135968174Y-20678438D01*
X135872188Y-20485671D01*
X135872182Y-20485661D01*
X135831307Y-20431535D01*
X135266370Y-20996471D01*
X135252741Y-20945606D01*
X135200080Y-20854394D01*
X135125606Y-20779920D01*
X135034394Y-20727259D01*
X134983525Y-20713628D01*
X135549393Y-20147761D01*
X135400172Y-20055367D01*
X135400167Y-20055364D01*
X135199356Y-19977570D01*
X134987675Y-19938000D01*
X134772325Y-19938000D01*
X134560643Y-19977570D01*
X134359832Y-20055364D01*
X134359827Y-20055367D01*
X134210605Y-20147761D01*
X134776473Y-20713629D01*
X134725606Y-20727259D01*
X134634394Y-20779920D01*
X134559920Y-20854394D01*
X134507259Y-20945606D01*
X134493629Y-20996473D01*
X133928692Y-20431536D01*
X133887816Y-20485663D01*
X133887811Y-20485672D01*
X133791825Y-20678438D01*
X133732892Y-20885566D01*
X133713022Y-21100000D01*
X133732892Y-21314433D01*
X133791825Y-21521561D01*
X133858953Y-21656372D01*
X133867966Y-21716890D01*
X133839686Y-21771147D01*
X133784915Y-21798420D01*
X133770332Y-21799500D01*
X133450227Y-21799500D01*
X133392036Y-21780593D01*
X133356072Y-21731093D01*
X133356072Y-21669907D01*
X133361606Y-21656372D01*
X133400228Y-21578808D01*
X133428643Y-21521742D01*
X133487601Y-21314524D01*
X133507480Y-21100000D01*
X133487601Y-20885476D01*
X133428643Y-20678258D01*
X133332612Y-20485401D01*
X133202778Y-20313474D01*
X133043564Y-20168331D01*
X132860391Y-20054915D01*
X132659496Y-19977088D01*
X132659495Y-19977087D01*
X132659493Y-19977087D01*
X132447721Y-19937500D01*
X132232279Y-19937500D01*
X132020506Y-19977087D01*
X131819608Y-20054915D01*
X131819603Y-20054918D01*
X131636440Y-20168328D01*
X131636438Y-20168329D01*
X131636436Y-20168331D01*
X131496371Y-20296017D01*
X131477223Y-20313473D01*
X131477219Y-20313478D01*
X131347389Y-20485399D01*
X131347384Y-20485408D01*
X131251357Y-20678257D01*
X131192399Y-20885474D01*
X131172520Y-21100000D01*
X131192399Y-21314525D01*
X131218772Y-21407216D01*
X131216511Y-21468359D01*
X131178742Y-21516497D01*
X131119892Y-21533240D01*
X131062440Y-21512195D01*
X131053547Y-21504312D01*
X130970167Y-21420932D01*
X130942390Y-21366415D01*
X130944952Y-21323831D01*
X130947601Y-21314524D01*
X130967480Y-21100000D01*
X130947601Y-20885476D01*
X130888643Y-20678258D01*
X130792612Y-20485401D01*
X130662778Y-20313474D01*
X130503564Y-20168331D01*
X130320391Y-20054915D01*
X130119496Y-19977088D01*
X130119495Y-19977087D01*
X130119493Y-19977087D01*
X129907721Y-19937500D01*
X129692279Y-19937500D01*
X129480506Y-19977087D01*
X129279608Y-20054915D01*
X129279603Y-20054918D01*
X129096440Y-20168328D01*
X129096438Y-20168329D01*
X129096436Y-20168331D01*
X128956371Y-20296017D01*
X128937223Y-20313473D01*
X128937219Y-20313478D01*
X128807389Y-20485399D01*
X128807384Y-20485408D01*
X128711357Y-20678257D01*
X128652399Y-20885474D01*
X128632520Y-21100000D01*
X128652399Y-21314525D01*
X128696168Y-21468359D01*
X128711357Y-21521742D01*
X128807388Y-21714599D01*
X128937222Y-21886526D01*
X129091686Y-22027339D01*
X129121952Y-22080514D01*
X129115181Y-22141323D01*
X129073961Y-22186540D01*
X129024990Y-22199500D01*
X128035010Y-22199500D01*
X127976819Y-22180593D01*
X127940855Y-22131093D01*
X127940855Y-22069907D01*
X127968312Y-22027339D01*
X128122778Y-21886526D01*
X128252612Y-21714599D01*
X128348643Y-21521742D01*
X128407601Y-21314524D01*
X128427480Y-21100000D01*
X128407601Y-20885476D01*
X128348643Y-20678258D01*
X128252612Y-20485401D01*
X128122778Y-20313474D01*
X127963564Y-20168331D01*
X127780391Y-20054915D01*
X127579496Y-19977088D01*
X127579495Y-19977087D01*
X127579493Y-19977087D01*
X127367721Y-19937500D01*
X127152279Y-19937500D01*
X126940506Y-19977087D01*
X126739608Y-20054915D01*
X126739603Y-20054918D01*
X126556440Y-20168328D01*
X126556438Y-20168329D01*
X126556436Y-20168331D01*
X126416371Y-20296017D01*
X126397223Y-20313473D01*
X126397219Y-20313478D01*
X126267389Y-20485399D01*
X126267384Y-20485408D01*
X126171357Y-20678257D01*
X126112399Y-20885474D01*
X126092520Y-21100000D01*
X126112399Y-21314525D01*
X126138772Y-21407216D01*
X126136511Y-21468359D01*
X126098742Y-21516497D01*
X126039892Y-21533240D01*
X125982440Y-21512195D01*
X125973547Y-21504312D01*
X125890167Y-21420932D01*
X125862390Y-21366415D01*
X125864952Y-21323831D01*
X125867601Y-21314524D01*
X125887480Y-21100000D01*
X125867601Y-20885476D01*
X125808643Y-20678258D01*
X125712612Y-20485401D01*
X125582778Y-20313474D01*
X125423564Y-20168331D01*
X125240391Y-20054915D01*
X125039496Y-19977088D01*
X125039495Y-19977087D01*
X125039493Y-19977087D01*
X124827721Y-19937500D01*
X124612279Y-19937500D01*
X124400506Y-19977087D01*
X124199608Y-20054915D01*
X124199603Y-20054918D01*
X124016440Y-20168328D01*
X124016438Y-20168329D01*
X124016436Y-20168331D01*
X123876371Y-20296017D01*
X123857223Y-20313473D01*
X123857219Y-20313478D01*
X123727389Y-20485399D01*
X123727384Y-20485408D01*
X123631357Y-20678257D01*
X123572399Y-20885474D01*
X123552520Y-21100000D01*
X123572399Y-21314525D01*
X123616168Y-21468359D01*
X123631357Y-21521742D01*
X123727388Y-21714599D01*
X123857222Y-21886526D01*
X124016436Y-22031669D01*
X124199609Y-22145085D01*
X124400504Y-22222912D01*
X124612279Y-22262500D01*
X124827720Y-22262500D01*
X124827721Y-22262500D01*
X124949596Y-22239717D01*
X125010271Y-22247609D01*
X125037792Y-22267027D01*
X125939478Y-23168713D01*
X125939480Y-23168716D01*
X126051284Y-23280520D01*
X126051286Y-23280521D01*
X126051289Y-23280524D01*
X126051288Y-23280524D01*
X126138091Y-23330637D01*
X126138093Y-23330639D01*
X126138094Y-23330639D01*
X126160916Y-23343815D01*
X126188215Y-23359577D01*
X126340943Y-23400500D01*
X129616539Y-23400500D01*
X129669210Y-23415674D01*
X129753253Y-23468482D01*
X129772310Y-23480456D01*
X129836232Y-23502823D01*
X129931934Y-23536311D01*
X129931938Y-23536312D01*
X129931941Y-23536313D01*
X129931942Y-23536313D01*
X129931946Y-23536314D01*
X130099996Y-23555249D01*
X130100000Y-23555249D01*
X130100004Y-23555249D01*
X130268053Y-23536314D01*
X130268055Y-23536313D01*
X130268059Y-23536313D01*
X130427690Y-23480456D01*
X130570890Y-23390477D01*
X130690477Y-23270890D01*
X130780456Y-23127690D01*
X130780457Y-23127686D01*
X130782865Y-23122687D01*
X130784509Y-23123478D01*
X130816779Y-23081068D01*
X130875374Y-23063452D01*
X130933132Y-23083642D01*
X130943189Y-23092424D01*
X131969478Y-24118713D01*
X131969480Y-24118716D01*
X132081284Y-24230520D01*
X132081286Y-24230521D01*
X132137503Y-24262978D01*
X132137507Y-24262980D01*
X132137514Y-24262984D01*
X132190054Y-24293318D01*
X132218211Y-24309575D01*
X132218212Y-24309575D01*
X132218215Y-24309577D01*
X132293963Y-24329874D01*
X132345276Y-24363198D01*
X132367202Y-24420319D01*
X132351366Y-24479420D01*
X132303816Y-24517925D01*
X132268338Y-24524500D01*
X132003954Y-24524500D01*
X131945763Y-24505593D01*
X131910510Y-24458198D01*
X131882970Y-24379496D01*
X131880456Y-24372310D01*
X131872862Y-24360225D01*
X131790479Y-24229113D01*
X131790478Y-24229112D01*
X131790477Y-24229110D01*
X131670890Y-24109523D01*
X131670887Y-24109521D01*
X131670886Y-24109520D01*
X131527691Y-24019544D01*
X131368065Y-23963688D01*
X131368053Y-23963685D01*
X131200004Y-23944751D01*
X131199996Y-23944751D01*
X131031946Y-23963685D01*
X131031934Y-23963688D01*
X130872309Y-24019544D01*
X130872308Y-24019544D01*
X130729113Y-24109520D01*
X130609520Y-24229113D01*
X130519544Y-24372308D01*
X130519544Y-24372309D01*
X130463688Y-24531934D01*
X130463685Y-24531946D01*
X130444751Y-24699995D01*
X130444751Y-24700004D01*
X130463685Y-24868053D01*
X130463688Y-24868065D01*
X130519544Y-25027690D01*
X130519544Y-25027691D01*
X130609520Y-25170886D01*
X130609523Y-25170890D01*
X130669131Y-25230498D01*
X130696907Y-25285013D01*
X130687336Y-25345445D01*
X130644071Y-25388710D01*
X130599126Y-25399500D01*
X126989743Y-25399500D01*
X126931552Y-25380593D01*
X126919739Y-25370504D01*
X123442521Y-21893286D01*
X123442520Y-21893284D01*
X123330716Y-21781480D01*
X123329180Y-21780593D01*
X123262659Y-21742187D01*
X123221718Y-21696718D01*
X123215322Y-21635868D01*
X123223535Y-21612329D01*
X123268643Y-21521742D01*
X123327601Y-21314524D01*
X123347480Y-21100000D01*
X123327601Y-20885476D01*
X123268643Y-20678258D01*
X123172612Y-20485401D01*
X123042778Y-20313474D01*
X122883564Y-20168331D01*
X122700391Y-20054915D01*
X122499496Y-19977088D01*
X122499495Y-19977087D01*
X122499493Y-19977087D01*
X122287721Y-19937500D01*
X122072279Y-19937500D01*
X121860506Y-19977087D01*
X121659608Y-20054915D01*
X121659603Y-20054918D01*
X121476440Y-20168328D01*
X121476438Y-20168329D01*
X121476436Y-20168331D01*
X121336371Y-20296017D01*
X121317223Y-20313473D01*
X121317219Y-20313478D01*
X121187389Y-20485399D01*
X121187384Y-20485408D01*
X121091357Y-20678257D01*
X121032399Y-20885474D01*
X121012520Y-21100000D01*
X121032399Y-21314525D01*
X121058772Y-21407216D01*
X121056511Y-21468359D01*
X121018742Y-21516497D01*
X120959892Y-21533240D01*
X120902440Y-21512195D01*
X120893547Y-21504312D01*
X120810167Y-21420932D01*
X120782390Y-21366415D01*
X120784952Y-21323831D01*
X120787601Y-21314524D01*
X120807480Y-21100000D01*
X120787601Y-20885476D01*
X120728643Y-20678258D01*
X120632612Y-20485401D01*
X120502778Y-20313474D01*
X120343564Y-20168331D01*
X120160391Y-20054915D01*
X119959496Y-19977088D01*
X119959495Y-19977087D01*
X119959493Y-19977087D01*
X119747721Y-19937500D01*
X119532279Y-19937500D01*
X119320506Y-19977087D01*
X119119608Y-20054915D01*
X119119603Y-20054918D01*
X118936440Y-20168328D01*
X118936438Y-20168329D01*
X118936436Y-20168331D01*
X118796371Y-20296017D01*
X118777223Y-20313473D01*
X118777219Y-20313478D01*
X118647389Y-20485399D01*
X118647384Y-20485408D01*
X118551357Y-20678257D01*
X118492399Y-20885474D01*
X118472520Y-21100000D01*
X118492399Y-21314525D01*
X118536168Y-21468359D01*
X118551357Y-21521742D01*
X118647388Y-21714599D01*
X118777222Y-21886526D01*
X118936436Y-22031669D01*
X119119609Y-22145085D01*
X119320504Y-22222912D01*
X119532279Y-22262500D01*
X119747720Y-22262500D01*
X119747721Y-22262500D01*
X119869596Y-22239717D01*
X119930271Y-22247609D01*
X119957792Y-22267027D01*
X120321478Y-22630713D01*
X120321480Y-22630716D01*
X120433284Y-22742520D01*
X120433286Y-22742521D01*
X120494952Y-22778124D01*
X120494956Y-22778126D01*
X120494963Y-22778130D01*
X120570215Y-22821577D01*
X120722943Y-22862500D01*
X120881057Y-22862500D01*
X121525890Y-22862500D01*
X121584081Y-22881407D01*
X121620045Y-22930907D01*
X121620045Y-22992093D01*
X121584081Y-23041593D01*
X121570837Y-23049709D01*
X121565980Y-23052183D01*
X121526189Y-23081093D01*
X121387635Y-23181758D01*
X121231758Y-23337635D01*
X121204832Y-23374696D01*
X121102183Y-23515980D01*
X121002102Y-23712400D01*
X120933984Y-23922051D01*
X120899500Y-24139774D01*
X120899500Y-24360225D01*
X120933984Y-24577948D01*
X121002102Y-24787599D01*
X121002104Y-24787602D01*
X121002105Y-24787606D01*
X121017640Y-24818095D01*
X121094737Y-24969406D01*
X121102185Y-24984022D01*
X121231758Y-25162365D01*
X121299891Y-25230498D01*
X121327667Y-25285013D01*
X121318096Y-25345445D01*
X121274831Y-25388710D01*
X121229886Y-25399500D01*
X121212113Y-25399500D01*
X121153922Y-25380593D01*
X121142109Y-25370504D01*
X117876726Y-22105121D01*
X117848949Y-22050604D01*
X117858520Y-21990172D01*
X117880031Y-21961959D01*
X117962778Y-21886526D01*
X118092612Y-21714599D01*
X118188643Y-21521742D01*
X118247601Y-21314524D01*
X118267480Y-21100000D01*
X118247601Y-20885476D01*
X118188643Y-20678258D01*
X118092612Y-20485401D01*
X117962778Y-20313474D01*
X117803564Y-20168331D01*
X117620391Y-20054915D01*
X117419496Y-19977088D01*
X117419495Y-19977087D01*
X117419493Y-19977087D01*
X117207721Y-19937500D01*
X116992279Y-19937500D01*
X116780506Y-19977087D01*
X116579608Y-20054915D01*
X116579603Y-20054918D01*
X116396438Y-20168329D01*
X116396435Y-20168331D01*
X116366195Y-20195899D01*
X116310454Y-20221129D01*
X116250528Y-20208776D01*
X116209308Y-20163560D01*
X116200500Y-20122737D01*
X116200500Y-19399500D01*
X116219407Y-19341309D01*
X116268907Y-19305345D01*
X116299500Y-19300500D01*
X145600500Y-19300500D01*
X145658691Y-19319407D01*
G37*
G04 #@! TD.AperFunction*
G04 #@! TA.AperFunction,Conductor*
G36*
X125842685Y-27279530D02*
G01*
X125872520Y-27287525D01*
X125920942Y-27300500D01*
X125920943Y-27300500D01*
X126139364Y-27300500D01*
X126188862Y-27313762D01*
X126268216Y-27359577D01*
X126372482Y-27387515D01*
X126420942Y-27400500D01*
X126420943Y-27400500D01*
X126814658Y-27400500D01*
X126872849Y-27419407D01*
X126908813Y-27468907D01*
X126908813Y-27530093D01*
X126872849Y-27579593D01*
X126832849Y-27596814D01*
X126821055Y-27599018D01*
X126620503Y-27676712D01*
X126620498Y-27676715D01*
X126437647Y-27789931D01*
X126437646Y-27789932D01*
X126278709Y-27934823D01*
X126149097Y-28106456D01*
X126149092Y-28106465D01*
X126053231Y-28298980D01*
X126053230Y-28298983D01*
X125994372Y-28505845D01*
X125974528Y-28720000D01*
X125994372Y-28934155D01*
X126053230Y-29141017D01*
X126149096Y-29333542D01*
X126278706Y-29505173D01*
X126278708Y-29505175D01*
X126278709Y-29505176D01*
X126437646Y-29650067D01*
X126446953Y-29655830D01*
X126486473Y-29702539D01*
X126490990Y-29763558D01*
X126458779Y-29815578D01*
X126446953Y-29824170D01*
X126437646Y-29829932D01*
X126278709Y-29974823D01*
X126149097Y-30146456D01*
X126149092Y-30146465D01*
X126053231Y-30338980D01*
X126053230Y-30338983D01*
X126035869Y-30399999D01*
X125994372Y-30545845D01*
X125974528Y-30760000D01*
X125988577Y-30911623D01*
X125975119Y-30971310D01*
X125960003Y-30990761D01*
X125752115Y-31198649D01*
X125697598Y-31226426D01*
X125637166Y-31216855D01*
X125593901Y-31173590D01*
X125593489Y-31172772D01*
X125590477Y-31166724D01*
X125590471Y-31166714D01*
X125549880Y-31112962D01*
X125027194Y-31635647D01*
X125019333Y-31606306D01*
X124960090Y-31503694D01*
X124876306Y-31419910D01*
X124773694Y-31360667D01*
X124744351Y-31352804D01*
X125267942Y-30829213D01*
X125266078Y-30813150D01*
X125253052Y-30797754D01*
X125248535Y-30736736D01*
X125280745Y-30684715D01*
X125292570Y-30676124D01*
X125302354Y-30670067D01*
X125461294Y-30525173D01*
X125590904Y-30353542D01*
X125686770Y-30161017D01*
X125745628Y-29954155D01*
X125765472Y-29740000D01*
X125745628Y-29525845D01*
X125686770Y-29318983D01*
X125590904Y-29126458D01*
X125461294Y-28954827D01*
X125443272Y-28938398D01*
X125302354Y-28809933D01*
X125302352Y-28809932D01*
X125293048Y-28804171D01*
X125253527Y-28757464D01*
X125249008Y-28696446D01*
X125281217Y-28644424D01*
X125293045Y-28635830D01*
X125302354Y-28630067D01*
X125461294Y-28485173D01*
X125590904Y-28313542D01*
X125686770Y-28121017D01*
X125745628Y-27914155D01*
X125765472Y-27700000D01*
X125745628Y-27485845D01*
X125721842Y-27402247D01*
X125724103Y-27341108D01*
X125761871Y-27292970D01*
X125820720Y-27276226D01*
X125842685Y-27279530D01*
G37*
G04 #@! TD.AperFunction*
M02*
