%TF.GenerationSoftware,KiCad,Pcbnew,8.0.1*%
%TF.CreationDate,2024-10-15T00:39:49+09:00*%
%TF.ProjectId,AltBoard2025,416c7442-6f61-4726-9432-3032352e6b69,rev?*%
%TF.SameCoordinates,Original*%
%TF.FileFunction,Drillmap*%
%TF.FilePolarity,Positive*%
%FSLAX45Y45*%
G04 Gerber Fmt 4.5, Leading zero omitted, Abs format (unit mm)*
G04 Created by KiCad (PCBNEW 8.0.1) date 2024-10-15 00:39:49*
%MOMM*%
%LPD*%
G01*
G04 APERTURE LIST*
%ADD10C,0.050000*%
%ADD11C,0.200000*%
%ADD12C,0.100000*%
G04 APERTURE END LIST*
D10*
X11570000Y-1880000D02*
X14620000Y-1880000D01*
X14620000Y-5430000D01*
X11570000Y-5430000D01*
X11570000Y-1880000D01*
D11*
D12*
X11785000Y-2925000D02*
X11815000Y-2955000D01*
X11815000Y-2925000D02*
X11785000Y-2955000D01*
X12555000Y-2855000D02*
X12585000Y-2885000D01*
X12585000Y-2855000D02*
X12555000Y-2885000D01*
X12825000Y-3705000D02*
X12855000Y-3735000D01*
X12855000Y-3705000D02*
X12825000Y-3735000D01*
X13095000Y-4895000D02*
X13125000Y-4925000D01*
X13125000Y-4895000D02*
X13095000Y-4925000D01*
X13175000Y-4445000D02*
X13205000Y-4475000D01*
X13205000Y-4445000D02*
X13175000Y-4475000D01*
X13225000Y-3225000D02*
X13255000Y-3255000D01*
X13255000Y-3225000D02*
X13225000Y-3255000D01*
X13485000Y-4525000D02*
X13515000Y-4555000D01*
X13515000Y-4525000D02*
X13485000Y-4555000D01*
X13525000Y-3955000D02*
X13555000Y-3985000D01*
X13555000Y-3955000D02*
X13525000Y-3985000D01*
X13535000Y-2505000D02*
X13565000Y-2535000D01*
X13565000Y-2505000D02*
X13535000Y-2535000D01*
X13995000Y-4485000D02*
X14025000Y-4515000D01*
X14025000Y-4485000D02*
X13995000Y-4515000D01*
X14308167Y-3125000D02*
X14338167Y-3155000D01*
X14338167Y-3125000D02*
X14308167Y-3155000D01*
X12990000Y-3360000D02*
G75*
G02*
X12950000Y-3360000I-20000J0D01*
G01*
X12950000Y-3360000D02*
G75*
G02*
X12990000Y-3360000I20000J0D01*
G01*
X14060000Y-3320000D02*
G75*
G02*
X14020000Y-3320000I-20000J0D01*
G01*
X14020000Y-3320000D02*
G75*
G02*
X14060000Y-3320000I20000J0D01*
G01*
X14080000Y-3160000D02*
G75*
G02*
X14040000Y-3160000I-20000J0D01*
G01*
X14040000Y-3160000D02*
G75*
G02*
X14080000Y-3160000I20000J0D01*
G01*
X14240000Y-2920000D02*
G75*
G02*
X14200000Y-2920000I-20000J0D01*
G01*
X14200000Y-2920000D02*
G75*
G02*
X14240000Y-2920000I20000J0D01*
G01*
X14250000Y-3390000D02*
G75*
G02*
X14210000Y-3390000I-20000J0D01*
G01*
X14210000Y-3390000D02*
G75*
G02*
X14250000Y-3390000I20000J0D01*
G01*
X14260000Y-3000000D02*
G75*
G02*
X14220000Y-3000000I-20000J0D01*
G01*
X14220000Y-3000000D02*
G75*
G02*
X14260000Y-3000000I20000J0D01*
G01*
X14290000Y-2640000D02*
G75*
G02*
X14250000Y-2640000I-20000J0D01*
G01*
X14250000Y-2640000D02*
G75*
G02*
X14290000Y-2640000I20000J0D01*
G01*
X11720000Y-4975000D02*
X11720000Y-5025000D01*
X11695000Y-5000000D02*
X11745000Y-5000000D01*
X11810000Y-3175000D02*
X11810000Y-3225000D01*
X11785000Y-3200000D02*
X11835000Y-3200000D01*
X11850000Y-2565000D02*
X11850000Y-2615000D01*
X11825000Y-2590000D02*
X11875000Y-2590000D01*
X11850000Y-4315000D02*
X11850000Y-4365000D01*
X11825000Y-4340000D02*
X11875000Y-4340000D01*
X12010000Y-2305000D02*
X12010000Y-2355000D01*
X11985000Y-2330000D02*
X12035000Y-2330000D01*
X12040000Y-5125000D02*
X12040000Y-5175000D01*
X12015000Y-5150000D02*
X12065000Y-5150000D01*
X12130000Y-3005000D02*
X12130000Y-3055000D01*
X12105000Y-3030000D02*
X12155000Y-3030000D01*
X12250000Y-4245000D02*
X12250000Y-4295000D01*
X12225000Y-4270000D02*
X12275000Y-4270000D01*
X12290000Y-2845000D02*
X12290000Y-2895000D01*
X12265000Y-2870000D02*
X12315000Y-2870000D01*
X12310000Y-3235000D02*
X12310000Y-3285000D01*
X12285000Y-3260000D02*
X12335000Y-3260000D01*
X12350000Y-1985000D02*
X12350000Y-2035000D01*
X12325000Y-2010000D02*
X12375000Y-2010000D01*
X12350000Y-4615000D02*
X12350000Y-4665000D01*
X12325000Y-4640000D02*
X12375000Y-4640000D01*
X12390000Y-4855000D02*
X12390000Y-4905000D01*
X12365000Y-4880000D02*
X12415000Y-4880000D01*
X12520000Y-5095000D02*
X12520000Y-5145000D01*
X12495000Y-5120000D02*
X12545000Y-5120000D01*
X12560000Y-4125000D02*
X12560000Y-4175000D01*
X12535000Y-4150000D02*
X12585000Y-4150000D01*
X12580000Y-3545000D02*
X12580000Y-3595000D01*
X12555000Y-3570000D02*
X12605000Y-3570000D01*
X12600000Y-4505000D02*
X12600000Y-4555000D01*
X12575000Y-4530000D02*
X12625000Y-4530000D01*
X12750000Y-2395000D02*
X12750000Y-2445000D01*
X12725000Y-2420000D02*
X12775000Y-2420000D01*
X12850000Y-1985000D02*
X12850000Y-2035000D01*
X12825000Y-2010000D02*
X12875000Y-2010000D01*
X12850000Y-5295000D02*
X12850000Y-5345000D01*
X12825000Y-5320000D02*
X12875000Y-5320000D01*
X12880000Y-2775000D02*
X12880000Y-2825000D01*
X12855000Y-2800000D02*
X12905000Y-2800000D01*
X12910000Y-4065000D02*
X12910000Y-4115000D01*
X12885000Y-4090000D02*
X12935000Y-4090000D01*
X12980000Y-4405000D02*
X12980000Y-4455000D01*
X12955000Y-4430000D02*
X13005000Y-4430000D01*
X12990000Y-3535000D02*
X12990000Y-3585000D01*
X12965000Y-3560000D02*
X13015000Y-3560000D01*
X13010000Y-2255000D02*
X13010000Y-2305000D01*
X12985000Y-2280000D02*
X13035000Y-2280000D01*
X13020000Y-2875000D02*
X13020000Y-2925000D01*
X12995000Y-2900000D02*
X13045000Y-2900000D01*
X13120000Y-2445000D02*
X13120000Y-2495000D01*
X13095000Y-2470000D02*
X13145000Y-2470000D01*
X13165146Y-3852822D02*
X13165146Y-3902822D01*
X13140146Y-3877822D02*
X13190146Y-3877822D01*
X13210000Y-4015000D02*
X13210000Y-4065000D01*
X13185000Y-4040000D02*
X13235000Y-4040000D01*
X13290000Y-2235000D02*
X13290000Y-2285000D01*
X13265000Y-2260000D02*
X13315000Y-2260000D01*
X13390000Y-2785000D02*
X13390000Y-2835000D01*
X13365000Y-2810000D02*
X13415000Y-2810000D01*
X13510000Y-5235000D02*
X13510000Y-5285000D01*
X13485000Y-5260000D02*
X13535000Y-5260000D01*
X13520000Y-5025000D02*
X13520000Y-5075000D01*
X13495000Y-5050000D02*
X13545000Y-5050000D01*
X13560000Y-3055000D02*
X13560000Y-3105000D01*
X13535000Y-3080000D02*
X13585000Y-3080000D01*
X13589501Y-3405249D02*
X13589501Y-3455249D01*
X13564501Y-3430249D02*
X13614501Y-3430249D01*
X13640000Y-3615000D02*
X13640000Y-3665000D01*
X13615000Y-3640000D02*
X13665000Y-3640000D01*
X13650000Y-3755000D02*
X13650000Y-3805000D01*
X13625000Y-3780000D02*
X13675000Y-3780000D01*
X13670000Y-3365000D02*
X13670000Y-3415000D01*
X13645000Y-3390000D02*
X13695000Y-3390000D01*
X13770000Y-3055000D02*
X13770000Y-3105000D01*
X13745000Y-3080000D02*
X13795000Y-3080000D01*
X13798002Y-3363002D02*
X13798002Y-3413002D01*
X13773002Y-3388002D02*
X13823002Y-3388002D01*
X13800000Y-2495000D02*
X13800000Y-2545000D01*
X13775000Y-2520000D02*
X13825000Y-2520000D01*
X13835000Y-4335000D02*
X13835000Y-4385000D01*
X13810000Y-4360000D02*
X13860000Y-4360000D01*
X13880000Y-3495000D02*
X13880000Y-3545000D01*
X13855000Y-3520000D02*
X13905000Y-3520000D01*
X13893033Y-3961967D02*
X13893033Y-4011967D01*
X13868033Y-3986967D02*
X13918033Y-3986967D01*
X13910000Y-3055000D02*
X13910000Y-3105000D01*
X13885000Y-3080000D02*
X13935000Y-3080000D01*
X13920000Y-2025000D02*
X13920000Y-2075000D01*
X13895000Y-2050000D02*
X13945000Y-2050000D01*
X13946942Y-4223535D02*
X13946942Y-4273535D01*
X13921942Y-4248535D02*
X13971942Y-4248535D01*
X14120000Y-2235000D02*
X14120000Y-2285000D01*
X14095000Y-2260000D02*
X14145000Y-2260000D01*
X14240495Y-4149275D02*
X14240495Y-4199275D01*
X14215495Y-4174275D02*
X14265495Y-4174275D01*
X14320000Y-4585000D02*
X14320000Y-4635000D01*
X14295000Y-4610000D02*
X14345000Y-4610000D01*
X14360000Y-5135000D02*
X14360000Y-5185000D01*
X14335000Y-5160000D02*
X14385000Y-5160000D01*
X14390000Y-2495000D02*
X14390000Y-2545000D01*
X14365000Y-2520000D02*
X14415000Y-2520000D01*
X14390000Y-4355000D02*
X14390000Y-4405000D01*
X14365000Y-4380000D02*
X14415000Y-4380000D01*
X14450000Y-3965000D02*
X14450000Y-4015000D01*
X14425000Y-3990000D02*
X14475000Y-3990000D01*
X14530000Y-2225000D02*
X14530000Y-2275000D01*
X14505000Y-2250000D02*
X14555000Y-2250000D01*
X14530000Y-3665000D02*
X14530000Y-3715000D01*
X14505000Y-3690000D02*
X14555000Y-3690000D01*
X11738284Y-2138285D02*
X11738284Y-2081715D01*
X11681715Y-2081715D01*
X11681715Y-2138285D01*
X11738284Y-2138285D01*
X11992284Y-2138285D02*
X11992284Y-2081715D01*
X11935715Y-2081715D01*
X11935715Y-2138285D01*
X11992284Y-2138285D01*
X12246284Y-2138285D02*
X12246284Y-2081715D01*
X12189715Y-2081715D01*
X12189715Y-2138285D01*
X12246284Y-2138285D01*
X12500284Y-2138285D02*
X12500284Y-2081715D01*
X12443715Y-2081715D01*
X12443715Y-2138285D01*
X12500284Y-2138285D01*
X12754284Y-2138285D02*
X12754284Y-2081715D01*
X12697715Y-2081715D01*
X12697715Y-2138285D01*
X12754284Y-2138285D01*
X13008284Y-2138285D02*
X13008284Y-2081715D01*
X12951715Y-2081715D01*
X12951715Y-2138285D01*
X13008284Y-2138285D01*
X13262284Y-2138285D02*
X13262284Y-2081715D01*
X13205715Y-2081715D01*
X13205715Y-2138285D01*
X13262284Y-2138285D01*
X13516284Y-2138285D02*
X13516284Y-2081715D01*
X13459715Y-2081715D01*
X13459715Y-2138285D01*
X13516284Y-2138285D01*
X13770284Y-2138285D02*
X13770284Y-2081715D01*
X13713715Y-2081715D01*
X13713715Y-2138285D01*
X13770284Y-2138285D01*
X12460000Y-2815000D02*
X12505000Y-2770000D01*
X12460000Y-2725000D01*
X12415000Y-2770000D01*
X12460000Y-2815000D01*
X12460000Y-3019000D02*
X12505000Y-2974000D01*
X12460000Y-2929000D01*
X12415000Y-2974000D01*
X12460000Y-3019000D01*
X12460000Y-3223000D02*
X12505000Y-3178000D01*
X12460000Y-3133000D01*
X12415000Y-3178000D01*
X12460000Y-3223000D01*
X12460000Y-4380000D02*
X12505000Y-4335000D01*
X12460000Y-4290000D01*
X12415000Y-4335000D01*
X12460000Y-4380000D01*
X12460000Y-4584000D02*
X12505000Y-4539000D01*
X12460000Y-4494000D01*
X12415000Y-4539000D01*
X12460000Y-4584000D01*
X12460000Y-4788000D02*
X12505000Y-4743000D01*
X12460000Y-4698000D01*
X12415000Y-4743000D01*
X12460000Y-4788000D01*
X12714000Y-2917000D02*
X12759000Y-2872000D01*
X12714000Y-2827000D01*
X12669000Y-2872000D01*
X12714000Y-2917000D01*
X12714000Y-3121000D02*
X12759000Y-3076000D01*
X12714000Y-3031000D01*
X12669000Y-3076000D01*
X12714000Y-3121000D01*
X12714000Y-3325000D02*
X12759000Y-3280000D01*
X12714000Y-3235000D01*
X12669000Y-3280000D01*
X12714000Y-3325000D01*
X12714000Y-4482000D02*
X12759000Y-4437000D01*
X12714000Y-4392000D01*
X12669000Y-4437000D01*
X12714000Y-4482000D01*
X12714000Y-4686000D02*
X12759000Y-4641000D01*
X12714000Y-4596000D01*
X12669000Y-4641000D01*
X12714000Y-4686000D01*
X12714000Y-4890000D02*
X12759000Y-4845000D01*
X12714000Y-4800000D01*
X12669000Y-4845000D01*
X12714000Y-4890000D01*
X13496700Y-4699250D02*
X13596700Y-4799250D01*
X13596700Y-4699250D02*
X13496700Y-4799250D01*
X13596700Y-4749250D02*
G75*
G02*
X13496700Y-4749250I-50000J0D01*
G01*
X13496700Y-4749250D02*
G75*
G02*
X13596700Y-4749250I50000J0D01*
G01*
X13750700Y-4699250D02*
X13850700Y-4799250D01*
X13850700Y-4699250D02*
X13750700Y-4799250D01*
X13850700Y-4749250D02*
G75*
G02*
X13750700Y-4749250I-50000J0D01*
G01*
X13750700Y-4749250D02*
G75*
G02*
X13850700Y-4749250I50000J0D01*
G01*
X14004700Y-4699250D02*
X14104700Y-4799250D01*
X14104700Y-4699250D02*
X14004700Y-4799250D01*
X14104700Y-4749250D02*
G75*
G02*
X14004700Y-4749250I-50000J0D01*
G01*
X14004700Y-4749250D02*
G75*
G02*
X14104700Y-4749250I50000J0D01*
G01*
X14390000Y-2686000D02*
X14490000Y-2786000D01*
X14490000Y-2686000D02*
X14390000Y-2786000D01*
X14490000Y-2736000D02*
G75*
G02*
X14390000Y-2736000I-50000J0D01*
G01*
X14390000Y-2736000D02*
G75*
G02*
X14490000Y-2736000I50000J0D01*
G01*
X14390000Y-2940000D02*
X14490000Y-3040000D01*
X14490000Y-2940000D02*
X14390000Y-3040000D01*
X14490000Y-2990000D02*
G75*
G02*
X14390000Y-2990000I-50000J0D01*
G01*
X14390000Y-2990000D02*
G75*
G02*
X14490000Y-2990000I50000J0D01*
G01*
X14390000Y-3194000D02*
X14490000Y-3294000D01*
X14490000Y-3194000D02*
X14390000Y-3294000D01*
X14490000Y-3244000D02*
G75*
G02*
X14390000Y-3244000I-50000J0D01*
G01*
X14390000Y-3244000D02*
G75*
G02*
X14490000Y-3244000I50000J0D01*
G01*
X14390000Y-3448000D02*
X14490000Y-3548000D01*
X14490000Y-3448000D02*
X14390000Y-3548000D01*
X14490000Y-3498000D02*
G75*
G02*
X14390000Y-3498000I-50000J0D01*
G01*
X14390000Y-3498000D02*
G75*
G02*
X14490000Y-3498000I50000J0D01*
G01*
D11*
X11828277Y-5743984D02*
X11828277Y-5543984D01*
X11828277Y-5543984D02*
X11875896Y-5543984D01*
X11875896Y-5543984D02*
X11904467Y-5553508D01*
X11904467Y-5553508D02*
X11923515Y-5572555D01*
X11923515Y-5572555D02*
X11933039Y-5591603D01*
X11933039Y-5591603D02*
X11942562Y-5629698D01*
X11942562Y-5629698D02*
X11942562Y-5658269D01*
X11942562Y-5658269D02*
X11933039Y-5696365D01*
X11933039Y-5696365D02*
X11923515Y-5715412D01*
X11923515Y-5715412D02*
X11904467Y-5734460D01*
X11904467Y-5734460D02*
X11875896Y-5743984D01*
X11875896Y-5743984D02*
X11828277Y-5743984D01*
X12028277Y-5743984D02*
X12028277Y-5610650D01*
X12028277Y-5648746D02*
X12037801Y-5629698D01*
X12037801Y-5629698D02*
X12047324Y-5620174D01*
X12047324Y-5620174D02*
X12066372Y-5610650D01*
X12066372Y-5610650D02*
X12085420Y-5610650D01*
X12152086Y-5743984D02*
X12152086Y-5610650D01*
X12152086Y-5543984D02*
X12142562Y-5553508D01*
X12142562Y-5553508D02*
X12152086Y-5563031D01*
X12152086Y-5563031D02*
X12161610Y-5553508D01*
X12161610Y-5553508D02*
X12152086Y-5543984D01*
X12152086Y-5543984D02*
X12152086Y-5563031D01*
X12275896Y-5743984D02*
X12256848Y-5734460D01*
X12256848Y-5734460D02*
X12247324Y-5715412D01*
X12247324Y-5715412D02*
X12247324Y-5543984D01*
X12380658Y-5743984D02*
X12361610Y-5734460D01*
X12361610Y-5734460D02*
X12352086Y-5715412D01*
X12352086Y-5715412D02*
X12352086Y-5543984D01*
X12609229Y-5743984D02*
X12609229Y-5543984D01*
X12609229Y-5543984D02*
X12675896Y-5686841D01*
X12675896Y-5686841D02*
X12742562Y-5543984D01*
X12742562Y-5543984D02*
X12742562Y-5743984D01*
X12923515Y-5743984D02*
X12923515Y-5639222D01*
X12923515Y-5639222D02*
X12913991Y-5620174D01*
X12913991Y-5620174D02*
X12894943Y-5610650D01*
X12894943Y-5610650D02*
X12856848Y-5610650D01*
X12856848Y-5610650D02*
X12837801Y-5620174D01*
X12923515Y-5734460D02*
X12904467Y-5743984D01*
X12904467Y-5743984D02*
X12856848Y-5743984D01*
X12856848Y-5743984D02*
X12837801Y-5734460D01*
X12837801Y-5734460D02*
X12828277Y-5715412D01*
X12828277Y-5715412D02*
X12828277Y-5696365D01*
X12828277Y-5696365D02*
X12837801Y-5677317D01*
X12837801Y-5677317D02*
X12856848Y-5667793D01*
X12856848Y-5667793D02*
X12904467Y-5667793D01*
X12904467Y-5667793D02*
X12923515Y-5658269D01*
X13018753Y-5610650D02*
X13018753Y-5810650D01*
X13018753Y-5620174D02*
X13037801Y-5610650D01*
X13037801Y-5610650D02*
X13075896Y-5610650D01*
X13075896Y-5610650D02*
X13094943Y-5620174D01*
X13094943Y-5620174D02*
X13104467Y-5629698D01*
X13104467Y-5629698D02*
X13113991Y-5648746D01*
X13113991Y-5648746D02*
X13113991Y-5705888D01*
X13113991Y-5705888D02*
X13104467Y-5724936D01*
X13104467Y-5724936D02*
X13094943Y-5734460D01*
X13094943Y-5734460D02*
X13075896Y-5743984D01*
X13075896Y-5743984D02*
X13037801Y-5743984D01*
X13037801Y-5743984D02*
X13018753Y-5734460D01*
X13199705Y-5724936D02*
X13209229Y-5734460D01*
X13209229Y-5734460D02*
X13199705Y-5743984D01*
X13199705Y-5743984D02*
X13190182Y-5734460D01*
X13190182Y-5734460D02*
X13199705Y-5724936D01*
X13199705Y-5724936D02*
X13199705Y-5743984D01*
X13199705Y-5620174D02*
X13209229Y-5629698D01*
X13209229Y-5629698D02*
X13199705Y-5639222D01*
X13199705Y-5639222D02*
X13190182Y-5629698D01*
X13190182Y-5629698D02*
X13199705Y-5620174D01*
X13199705Y-5620174D02*
X13199705Y-5639222D01*
D12*
X11537500Y-6057500D02*
X11567500Y-6087500D01*
X11567500Y-6057500D02*
X11537500Y-6087500D01*
D11*
X11866372Y-5963984D02*
X11885420Y-5963984D01*
X11885420Y-5963984D02*
X11904467Y-5973508D01*
X11904467Y-5973508D02*
X11913991Y-5983031D01*
X11913991Y-5983031D02*
X11923515Y-6002079D01*
X11923515Y-6002079D02*
X11933039Y-6040174D01*
X11933039Y-6040174D02*
X11933039Y-6087793D01*
X11933039Y-6087793D02*
X11923515Y-6125888D01*
X11923515Y-6125888D02*
X11913991Y-6144936D01*
X11913991Y-6144936D02*
X11904467Y-6154460D01*
X11904467Y-6154460D02*
X11885420Y-6163984D01*
X11885420Y-6163984D02*
X11866372Y-6163984D01*
X11866372Y-6163984D02*
X11847324Y-6154460D01*
X11847324Y-6154460D02*
X11837801Y-6144936D01*
X11837801Y-6144936D02*
X11828277Y-6125888D01*
X11828277Y-6125888D02*
X11818753Y-6087793D01*
X11818753Y-6087793D02*
X11818753Y-6040174D01*
X11818753Y-6040174D02*
X11828277Y-6002079D01*
X11828277Y-6002079D02*
X11837801Y-5983031D01*
X11837801Y-5983031D02*
X11847324Y-5973508D01*
X11847324Y-5973508D02*
X11866372Y-5963984D01*
X12018753Y-6144936D02*
X12028277Y-6154460D01*
X12028277Y-6154460D02*
X12018753Y-6163984D01*
X12018753Y-6163984D02*
X12009229Y-6154460D01*
X12009229Y-6154460D02*
X12018753Y-6144936D01*
X12018753Y-6144936D02*
X12018753Y-6163984D01*
X12094943Y-5963984D02*
X12218753Y-5963984D01*
X12218753Y-5963984D02*
X12152086Y-6040174D01*
X12152086Y-6040174D02*
X12180658Y-6040174D01*
X12180658Y-6040174D02*
X12199705Y-6049698D01*
X12199705Y-6049698D02*
X12209229Y-6059222D01*
X12209229Y-6059222D02*
X12218753Y-6078269D01*
X12218753Y-6078269D02*
X12218753Y-6125888D01*
X12218753Y-6125888D02*
X12209229Y-6144936D01*
X12209229Y-6144936D02*
X12199705Y-6154460D01*
X12199705Y-6154460D02*
X12180658Y-6163984D01*
X12180658Y-6163984D02*
X12123515Y-6163984D01*
X12123515Y-6163984D02*
X12104467Y-6154460D01*
X12104467Y-6154460D02*
X12094943Y-6144936D01*
X12342562Y-5963984D02*
X12361610Y-5963984D01*
X12361610Y-5963984D02*
X12380658Y-5973508D01*
X12380658Y-5973508D02*
X12390182Y-5983031D01*
X12390182Y-5983031D02*
X12399705Y-6002079D01*
X12399705Y-6002079D02*
X12409229Y-6040174D01*
X12409229Y-6040174D02*
X12409229Y-6087793D01*
X12409229Y-6087793D02*
X12399705Y-6125888D01*
X12399705Y-6125888D02*
X12390182Y-6144936D01*
X12390182Y-6144936D02*
X12380658Y-6154460D01*
X12380658Y-6154460D02*
X12361610Y-6163984D01*
X12361610Y-6163984D02*
X12342562Y-6163984D01*
X12342562Y-6163984D02*
X12323515Y-6154460D01*
X12323515Y-6154460D02*
X12313991Y-6144936D01*
X12313991Y-6144936D02*
X12304467Y-6125888D01*
X12304467Y-6125888D02*
X12294943Y-6087793D01*
X12294943Y-6087793D02*
X12294943Y-6040174D01*
X12294943Y-6040174D02*
X12304467Y-6002079D01*
X12304467Y-6002079D02*
X12313991Y-5983031D01*
X12313991Y-5983031D02*
X12323515Y-5973508D01*
X12323515Y-5973508D02*
X12342562Y-5963984D01*
X12533039Y-5963984D02*
X12552086Y-5963984D01*
X12552086Y-5963984D02*
X12571134Y-5973508D01*
X12571134Y-5973508D02*
X12580658Y-5983031D01*
X12580658Y-5983031D02*
X12590182Y-6002079D01*
X12590182Y-6002079D02*
X12599705Y-6040174D01*
X12599705Y-6040174D02*
X12599705Y-6087793D01*
X12599705Y-6087793D02*
X12590182Y-6125888D01*
X12590182Y-6125888D02*
X12580658Y-6144936D01*
X12580658Y-6144936D02*
X12571134Y-6154460D01*
X12571134Y-6154460D02*
X12552086Y-6163984D01*
X12552086Y-6163984D02*
X12533039Y-6163984D01*
X12533039Y-6163984D02*
X12513991Y-6154460D01*
X12513991Y-6154460D02*
X12504467Y-6144936D01*
X12504467Y-6144936D02*
X12494943Y-6125888D01*
X12494943Y-6125888D02*
X12485420Y-6087793D01*
X12485420Y-6087793D02*
X12485420Y-6040174D01*
X12485420Y-6040174D02*
X12494943Y-6002079D01*
X12494943Y-6002079D02*
X12504467Y-5983031D01*
X12504467Y-5983031D02*
X12513991Y-5973508D01*
X12513991Y-5973508D02*
X12533039Y-5963984D01*
X12685420Y-6163984D02*
X12685420Y-6030650D01*
X12685420Y-6049698D02*
X12694943Y-6040174D01*
X12694943Y-6040174D02*
X12713991Y-6030650D01*
X12713991Y-6030650D02*
X12742563Y-6030650D01*
X12742563Y-6030650D02*
X12761610Y-6040174D01*
X12761610Y-6040174D02*
X12771134Y-6059222D01*
X12771134Y-6059222D02*
X12771134Y-6163984D01*
X12771134Y-6059222D02*
X12780658Y-6040174D01*
X12780658Y-6040174D02*
X12799705Y-6030650D01*
X12799705Y-6030650D02*
X12828277Y-6030650D01*
X12828277Y-6030650D02*
X12847324Y-6040174D01*
X12847324Y-6040174D02*
X12856848Y-6059222D01*
X12856848Y-6059222D02*
X12856848Y-6163984D01*
X12952086Y-6163984D02*
X12952086Y-6030650D01*
X12952086Y-6049698D02*
X12961610Y-6040174D01*
X12961610Y-6040174D02*
X12980658Y-6030650D01*
X12980658Y-6030650D02*
X13009229Y-6030650D01*
X13009229Y-6030650D02*
X13028277Y-6040174D01*
X13028277Y-6040174D02*
X13037801Y-6059222D01*
X13037801Y-6059222D02*
X13037801Y-6163984D01*
X13037801Y-6059222D02*
X13047324Y-6040174D01*
X13047324Y-6040174D02*
X13066372Y-6030650D01*
X13066372Y-6030650D02*
X13094943Y-6030650D01*
X13094943Y-6030650D02*
X13113991Y-6040174D01*
X13113991Y-6040174D02*
X13123515Y-6059222D01*
X13123515Y-6059222D02*
X13123515Y-6163984D01*
X13513991Y-5954460D02*
X13342563Y-6211603D01*
X13771134Y-5963984D02*
X13790182Y-5963984D01*
X13790182Y-5963984D02*
X13809229Y-5973508D01*
X13809229Y-5973508D02*
X13818753Y-5983031D01*
X13818753Y-5983031D02*
X13828277Y-6002079D01*
X13828277Y-6002079D02*
X13837801Y-6040174D01*
X13837801Y-6040174D02*
X13837801Y-6087793D01*
X13837801Y-6087793D02*
X13828277Y-6125888D01*
X13828277Y-6125888D02*
X13818753Y-6144936D01*
X13818753Y-6144936D02*
X13809229Y-6154460D01*
X13809229Y-6154460D02*
X13790182Y-6163984D01*
X13790182Y-6163984D02*
X13771134Y-6163984D01*
X13771134Y-6163984D02*
X13752086Y-6154460D01*
X13752086Y-6154460D02*
X13742563Y-6144936D01*
X13742563Y-6144936D02*
X13733039Y-6125888D01*
X13733039Y-6125888D02*
X13723515Y-6087793D01*
X13723515Y-6087793D02*
X13723515Y-6040174D01*
X13723515Y-6040174D02*
X13733039Y-6002079D01*
X13733039Y-6002079D02*
X13742563Y-5983031D01*
X13742563Y-5983031D02*
X13752086Y-5973508D01*
X13752086Y-5973508D02*
X13771134Y-5963984D01*
X13923515Y-6144936D02*
X13933039Y-6154460D01*
X13933039Y-6154460D02*
X13923515Y-6163984D01*
X13923515Y-6163984D02*
X13913991Y-6154460D01*
X13913991Y-6154460D02*
X13923515Y-6144936D01*
X13923515Y-6144936D02*
X13923515Y-6163984D01*
X14056848Y-5963984D02*
X14075896Y-5963984D01*
X14075896Y-5963984D02*
X14094944Y-5973508D01*
X14094944Y-5973508D02*
X14104467Y-5983031D01*
X14104467Y-5983031D02*
X14113991Y-6002079D01*
X14113991Y-6002079D02*
X14123515Y-6040174D01*
X14123515Y-6040174D02*
X14123515Y-6087793D01*
X14123515Y-6087793D02*
X14113991Y-6125888D01*
X14113991Y-6125888D02*
X14104467Y-6144936D01*
X14104467Y-6144936D02*
X14094944Y-6154460D01*
X14094944Y-6154460D02*
X14075896Y-6163984D01*
X14075896Y-6163984D02*
X14056848Y-6163984D01*
X14056848Y-6163984D02*
X14037801Y-6154460D01*
X14037801Y-6154460D02*
X14028277Y-6144936D01*
X14028277Y-6144936D02*
X14018753Y-6125888D01*
X14018753Y-6125888D02*
X14009229Y-6087793D01*
X14009229Y-6087793D02*
X14009229Y-6040174D01*
X14009229Y-6040174D02*
X14018753Y-6002079D01*
X14018753Y-6002079D02*
X14028277Y-5983031D01*
X14028277Y-5983031D02*
X14037801Y-5973508D01*
X14037801Y-5973508D02*
X14056848Y-5963984D01*
X14313991Y-6163984D02*
X14199706Y-6163984D01*
X14256848Y-6163984D02*
X14256848Y-5963984D01*
X14256848Y-5963984D02*
X14237801Y-5992555D01*
X14237801Y-5992555D02*
X14218753Y-6011603D01*
X14218753Y-6011603D02*
X14199706Y-6021127D01*
X14504467Y-6163984D02*
X14390182Y-6163984D01*
X14447325Y-6163984D02*
X14447325Y-5963984D01*
X14447325Y-5963984D02*
X14428277Y-5992555D01*
X14428277Y-5992555D02*
X14409229Y-6011603D01*
X14409229Y-6011603D02*
X14390182Y-6021127D01*
X14618753Y-6049698D02*
X14599706Y-6040174D01*
X14599706Y-6040174D02*
X14590182Y-6030650D01*
X14590182Y-6030650D02*
X14580658Y-6011603D01*
X14580658Y-6011603D02*
X14580658Y-6002079D01*
X14580658Y-6002079D02*
X14590182Y-5983031D01*
X14590182Y-5983031D02*
X14599706Y-5973508D01*
X14599706Y-5973508D02*
X14618753Y-5963984D01*
X14618753Y-5963984D02*
X14656848Y-5963984D01*
X14656848Y-5963984D02*
X14675896Y-5973508D01*
X14675896Y-5973508D02*
X14685420Y-5983031D01*
X14685420Y-5983031D02*
X14694944Y-6002079D01*
X14694944Y-6002079D02*
X14694944Y-6011603D01*
X14694944Y-6011603D02*
X14685420Y-6030650D01*
X14685420Y-6030650D02*
X14675896Y-6040174D01*
X14675896Y-6040174D02*
X14656848Y-6049698D01*
X14656848Y-6049698D02*
X14618753Y-6049698D01*
X14618753Y-6049698D02*
X14599706Y-6059222D01*
X14599706Y-6059222D02*
X14590182Y-6068746D01*
X14590182Y-6068746D02*
X14580658Y-6087793D01*
X14580658Y-6087793D02*
X14580658Y-6125888D01*
X14580658Y-6125888D02*
X14590182Y-6144936D01*
X14590182Y-6144936D02*
X14599706Y-6154460D01*
X14599706Y-6154460D02*
X14618753Y-6163984D01*
X14618753Y-6163984D02*
X14656848Y-6163984D01*
X14656848Y-6163984D02*
X14675896Y-6154460D01*
X14675896Y-6154460D02*
X14685420Y-6144936D01*
X14685420Y-6144936D02*
X14694944Y-6125888D01*
X14694944Y-6125888D02*
X14694944Y-6087793D01*
X14694944Y-6087793D02*
X14685420Y-6068746D01*
X14685420Y-6068746D02*
X14675896Y-6059222D01*
X14675896Y-6059222D02*
X14656848Y-6049698D01*
X14771134Y-5963984D02*
X14771134Y-6002079D01*
X14847325Y-5963984D02*
X14847325Y-6002079D01*
X15142563Y-6240174D02*
X15133039Y-6230650D01*
X15133039Y-6230650D02*
X15113991Y-6202079D01*
X15113991Y-6202079D02*
X15104468Y-6183031D01*
X15104468Y-6183031D02*
X15094944Y-6154460D01*
X15094944Y-6154460D02*
X15085420Y-6106841D01*
X15085420Y-6106841D02*
X15085420Y-6068746D01*
X15085420Y-6068746D02*
X15094944Y-6021127D01*
X15094944Y-6021127D02*
X15104468Y-5992555D01*
X15104468Y-5992555D02*
X15113991Y-5973508D01*
X15113991Y-5973508D02*
X15133039Y-5944936D01*
X15133039Y-5944936D02*
X15142563Y-5935412D01*
X15323515Y-6163984D02*
X15209229Y-6163984D01*
X15266372Y-6163984D02*
X15266372Y-5963984D01*
X15266372Y-5963984D02*
X15247325Y-5992555D01*
X15247325Y-5992555D02*
X15228277Y-6011603D01*
X15228277Y-6011603D02*
X15209229Y-6021127D01*
X15513991Y-6163984D02*
X15399706Y-6163984D01*
X15456848Y-6163984D02*
X15456848Y-5963984D01*
X15456848Y-5963984D02*
X15437801Y-5992555D01*
X15437801Y-5992555D02*
X15418753Y-6011603D01*
X15418753Y-6011603D02*
X15399706Y-6021127D01*
X15752087Y-6163984D02*
X15752087Y-5963984D01*
X15837801Y-6163984D02*
X15837801Y-6059222D01*
X15837801Y-6059222D02*
X15828277Y-6040174D01*
X15828277Y-6040174D02*
X15809230Y-6030650D01*
X15809230Y-6030650D02*
X15780658Y-6030650D01*
X15780658Y-6030650D02*
X15761610Y-6040174D01*
X15761610Y-6040174D02*
X15752087Y-6049698D01*
X15961610Y-6163984D02*
X15942563Y-6154460D01*
X15942563Y-6154460D02*
X15933039Y-6144936D01*
X15933039Y-6144936D02*
X15923515Y-6125888D01*
X15923515Y-6125888D02*
X15923515Y-6068746D01*
X15923515Y-6068746D02*
X15933039Y-6049698D01*
X15933039Y-6049698D02*
X15942563Y-6040174D01*
X15942563Y-6040174D02*
X15961610Y-6030650D01*
X15961610Y-6030650D02*
X15990182Y-6030650D01*
X15990182Y-6030650D02*
X16009230Y-6040174D01*
X16009230Y-6040174D02*
X16018753Y-6049698D01*
X16018753Y-6049698D02*
X16028277Y-6068746D01*
X16028277Y-6068746D02*
X16028277Y-6125888D01*
X16028277Y-6125888D02*
X16018753Y-6144936D01*
X16018753Y-6144936D02*
X16009230Y-6154460D01*
X16009230Y-6154460D02*
X15990182Y-6163984D01*
X15990182Y-6163984D02*
X15961610Y-6163984D01*
X16142563Y-6163984D02*
X16123515Y-6154460D01*
X16123515Y-6154460D02*
X16113991Y-6135412D01*
X16113991Y-6135412D02*
X16113991Y-5963984D01*
X16294944Y-6154460D02*
X16275896Y-6163984D01*
X16275896Y-6163984D02*
X16237801Y-6163984D01*
X16237801Y-6163984D02*
X16218753Y-6154460D01*
X16218753Y-6154460D02*
X16209230Y-6135412D01*
X16209230Y-6135412D02*
X16209230Y-6059222D01*
X16209230Y-6059222D02*
X16218753Y-6040174D01*
X16218753Y-6040174D02*
X16237801Y-6030650D01*
X16237801Y-6030650D02*
X16275896Y-6030650D01*
X16275896Y-6030650D02*
X16294944Y-6040174D01*
X16294944Y-6040174D02*
X16304468Y-6059222D01*
X16304468Y-6059222D02*
X16304468Y-6078269D01*
X16304468Y-6078269D02*
X16209230Y-6097317D01*
X16380658Y-6154460D02*
X16399706Y-6163984D01*
X16399706Y-6163984D02*
X16437801Y-6163984D01*
X16437801Y-6163984D02*
X16456849Y-6154460D01*
X16456849Y-6154460D02*
X16466372Y-6135412D01*
X16466372Y-6135412D02*
X16466372Y-6125888D01*
X16466372Y-6125888D02*
X16456849Y-6106841D01*
X16456849Y-6106841D02*
X16437801Y-6097317D01*
X16437801Y-6097317D02*
X16409230Y-6097317D01*
X16409230Y-6097317D02*
X16390182Y-6087793D01*
X16390182Y-6087793D02*
X16380658Y-6068746D01*
X16380658Y-6068746D02*
X16380658Y-6059222D01*
X16380658Y-6059222D02*
X16390182Y-6040174D01*
X16390182Y-6040174D02*
X16409230Y-6030650D01*
X16409230Y-6030650D02*
X16437801Y-6030650D01*
X16437801Y-6030650D02*
X16456849Y-6040174D01*
X16533039Y-6240174D02*
X16542563Y-6230650D01*
X16542563Y-6230650D02*
X16561611Y-6202079D01*
X16561611Y-6202079D02*
X16571134Y-6183031D01*
X16571134Y-6183031D02*
X16580658Y-6154460D01*
X16580658Y-6154460D02*
X16590182Y-6106841D01*
X16590182Y-6106841D02*
X16590182Y-6068746D01*
X16590182Y-6068746D02*
X16580658Y-6021127D01*
X16580658Y-6021127D02*
X16571134Y-5992555D01*
X16571134Y-5992555D02*
X16561611Y-5973508D01*
X16561611Y-5973508D02*
X16542563Y-5944936D01*
X16542563Y-5944936D02*
X16533039Y-5935412D01*
D12*
X11567500Y-6336500D02*
G75*
G02*
X11527500Y-6336500I-20000J0D01*
G01*
X11527500Y-6336500D02*
G75*
G02*
X11567500Y-6336500I20000J0D01*
G01*
D11*
X11866372Y-6227984D02*
X11885420Y-6227984D01*
X11885420Y-6227984D02*
X11904467Y-6237508D01*
X11904467Y-6237508D02*
X11913991Y-6247031D01*
X11913991Y-6247031D02*
X11923515Y-6266079D01*
X11923515Y-6266079D02*
X11933039Y-6304174D01*
X11933039Y-6304174D02*
X11933039Y-6351793D01*
X11933039Y-6351793D02*
X11923515Y-6389888D01*
X11923515Y-6389888D02*
X11913991Y-6408936D01*
X11913991Y-6408936D02*
X11904467Y-6418460D01*
X11904467Y-6418460D02*
X11885420Y-6427984D01*
X11885420Y-6427984D02*
X11866372Y-6427984D01*
X11866372Y-6427984D02*
X11847324Y-6418460D01*
X11847324Y-6418460D02*
X11837801Y-6408936D01*
X11837801Y-6408936D02*
X11828277Y-6389888D01*
X11828277Y-6389888D02*
X11818753Y-6351793D01*
X11818753Y-6351793D02*
X11818753Y-6304174D01*
X11818753Y-6304174D02*
X11828277Y-6266079D01*
X11828277Y-6266079D02*
X11837801Y-6247031D01*
X11837801Y-6247031D02*
X11847324Y-6237508D01*
X11847324Y-6237508D02*
X11866372Y-6227984D01*
X12018753Y-6408936D02*
X12028277Y-6418460D01*
X12028277Y-6418460D02*
X12018753Y-6427984D01*
X12018753Y-6427984D02*
X12009229Y-6418460D01*
X12009229Y-6418460D02*
X12018753Y-6408936D01*
X12018753Y-6408936D02*
X12018753Y-6427984D01*
X12199705Y-6294650D02*
X12199705Y-6427984D01*
X12152086Y-6218460D02*
X12104467Y-6361317D01*
X12104467Y-6361317D02*
X12228277Y-6361317D01*
X12342562Y-6227984D02*
X12361610Y-6227984D01*
X12361610Y-6227984D02*
X12380658Y-6237508D01*
X12380658Y-6237508D02*
X12390182Y-6247031D01*
X12390182Y-6247031D02*
X12399705Y-6266079D01*
X12399705Y-6266079D02*
X12409229Y-6304174D01*
X12409229Y-6304174D02*
X12409229Y-6351793D01*
X12409229Y-6351793D02*
X12399705Y-6389888D01*
X12399705Y-6389888D02*
X12390182Y-6408936D01*
X12390182Y-6408936D02*
X12380658Y-6418460D01*
X12380658Y-6418460D02*
X12361610Y-6427984D01*
X12361610Y-6427984D02*
X12342562Y-6427984D01*
X12342562Y-6427984D02*
X12323515Y-6418460D01*
X12323515Y-6418460D02*
X12313991Y-6408936D01*
X12313991Y-6408936D02*
X12304467Y-6389888D01*
X12304467Y-6389888D02*
X12294943Y-6351793D01*
X12294943Y-6351793D02*
X12294943Y-6304174D01*
X12294943Y-6304174D02*
X12304467Y-6266079D01*
X12304467Y-6266079D02*
X12313991Y-6247031D01*
X12313991Y-6247031D02*
X12323515Y-6237508D01*
X12323515Y-6237508D02*
X12342562Y-6227984D01*
X12533039Y-6227984D02*
X12552086Y-6227984D01*
X12552086Y-6227984D02*
X12571134Y-6237508D01*
X12571134Y-6237508D02*
X12580658Y-6247031D01*
X12580658Y-6247031D02*
X12590182Y-6266079D01*
X12590182Y-6266079D02*
X12599705Y-6304174D01*
X12599705Y-6304174D02*
X12599705Y-6351793D01*
X12599705Y-6351793D02*
X12590182Y-6389888D01*
X12590182Y-6389888D02*
X12580658Y-6408936D01*
X12580658Y-6408936D02*
X12571134Y-6418460D01*
X12571134Y-6418460D02*
X12552086Y-6427984D01*
X12552086Y-6427984D02*
X12533039Y-6427984D01*
X12533039Y-6427984D02*
X12513991Y-6418460D01*
X12513991Y-6418460D02*
X12504467Y-6408936D01*
X12504467Y-6408936D02*
X12494943Y-6389888D01*
X12494943Y-6389888D02*
X12485420Y-6351793D01*
X12485420Y-6351793D02*
X12485420Y-6304174D01*
X12485420Y-6304174D02*
X12494943Y-6266079D01*
X12494943Y-6266079D02*
X12504467Y-6247031D01*
X12504467Y-6247031D02*
X12513991Y-6237508D01*
X12513991Y-6237508D02*
X12533039Y-6227984D01*
X12685420Y-6427984D02*
X12685420Y-6294650D01*
X12685420Y-6313698D02*
X12694943Y-6304174D01*
X12694943Y-6304174D02*
X12713991Y-6294650D01*
X12713991Y-6294650D02*
X12742563Y-6294650D01*
X12742563Y-6294650D02*
X12761610Y-6304174D01*
X12761610Y-6304174D02*
X12771134Y-6323222D01*
X12771134Y-6323222D02*
X12771134Y-6427984D01*
X12771134Y-6323222D02*
X12780658Y-6304174D01*
X12780658Y-6304174D02*
X12799705Y-6294650D01*
X12799705Y-6294650D02*
X12828277Y-6294650D01*
X12828277Y-6294650D02*
X12847324Y-6304174D01*
X12847324Y-6304174D02*
X12856848Y-6323222D01*
X12856848Y-6323222D02*
X12856848Y-6427984D01*
X12952086Y-6427984D02*
X12952086Y-6294650D01*
X12952086Y-6313698D02*
X12961610Y-6304174D01*
X12961610Y-6304174D02*
X12980658Y-6294650D01*
X12980658Y-6294650D02*
X13009229Y-6294650D01*
X13009229Y-6294650D02*
X13028277Y-6304174D01*
X13028277Y-6304174D02*
X13037801Y-6323222D01*
X13037801Y-6323222D02*
X13037801Y-6427984D01*
X13037801Y-6323222D02*
X13047324Y-6304174D01*
X13047324Y-6304174D02*
X13066372Y-6294650D01*
X13066372Y-6294650D02*
X13094943Y-6294650D01*
X13094943Y-6294650D02*
X13113991Y-6304174D01*
X13113991Y-6304174D02*
X13123515Y-6323222D01*
X13123515Y-6323222D02*
X13123515Y-6427984D01*
X13513991Y-6218460D02*
X13342563Y-6475603D01*
X13771134Y-6227984D02*
X13790182Y-6227984D01*
X13790182Y-6227984D02*
X13809229Y-6237508D01*
X13809229Y-6237508D02*
X13818753Y-6247031D01*
X13818753Y-6247031D02*
X13828277Y-6266079D01*
X13828277Y-6266079D02*
X13837801Y-6304174D01*
X13837801Y-6304174D02*
X13837801Y-6351793D01*
X13837801Y-6351793D02*
X13828277Y-6389888D01*
X13828277Y-6389888D02*
X13818753Y-6408936D01*
X13818753Y-6408936D02*
X13809229Y-6418460D01*
X13809229Y-6418460D02*
X13790182Y-6427984D01*
X13790182Y-6427984D02*
X13771134Y-6427984D01*
X13771134Y-6427984D02*
X13752086Y-6418460D01*
X13752086Y-6418460D02*
X13742563Y-6408936D01*
X13742563Y-6408936D02*
X13733039Y-6389888D01*
X13733039Y-6389888D02*
X13723515Y-6351793D01*
X13723515Y-6351793D02*
X13723515Y-6304174D01*
X13723515Y-6304174D02*
X13733039Y-6266079D01*
X13733039Y-6266079D02*
X13742563Y-6247031D01*
X13742563Y-6247031D02*
X13752086Y-6237508D01*
X13752086Y-6237508D02*
X13771134Y-6227984D01*
X13923515Y-6408936D02*
X13933039Y-6418460D01*
X13933039Y-6418460D02*
X13923515Y-6427984D01*
X13923515Y-6427984D02*
X13913991Y-6418460D01*
X13913991Y-6418460D02*
X13923515Y-6408936D01*
X13923515Y-6408936D02*
X13923515Y-6427984D01*
X14056848Y-6227984D02*
X14075896Y-6227984D01*
X14075896Y-6227984D02*
X14094944Y-6237508D01*
X14094944Y-6237508D02*
X14104467Y-6247031D01*
X14104467Y-6247031D02*
X14113991Y-6266079D01*
X14113991Y-6266079D02*
X14123515Y-6304174D01*
X14123515Y-6304174D02*
X14123515Y-6351793D01*
X14123515Y-6351793D02*
X14113991Y-6389888D01*
X14113991Y-6389888D02*
X14104467Y-6408936D01*
X14104467Y-6408936D02*
X14094944Y-6418460D01*
X14094944Y-6418460D02*
X14075896Y-6427984D01*
X14075896Y-6427984D02*
X14056848Y-6427984D01*
X14056848Y-6427984D02*
X14037801Y-6418460D01*
X14037801Y-6418460D02*
X14028277Y-6408936D01*
X14028277Y-6408936D02*
X14018753Y-6389888D01*
X14018753Y-6389888D02*
X14009229Y-6351793D01*
X14009229Y-6351793D02*
X14009229Y-6304174D01*
X14009229Y-6304174D02*
X14018753Y-6266079D01*
X14018753Y-6266079D02*
X14028277Y-6247031D01*
X14028277Y-6247031D02*
X14037801Y-6237508D01*
X14037801Y-6237508D02*
X14056848Y-6227984D01*
X14313991Y-6427984D02*
X14199706Y-6427984D01*
X14256848Y-6427984D02*
X14256848Y-6227984D01*
X14256848Y-6227984D02*
X14237801Y-6256555D01*
X14237801Y-6256555D02*
X14218753Y-6275603D01*
X14218753Y-6275603D02*
X14199706Y-6285127D01*
X14494944Y-6227984D02*
X14399706Y-6227984D01*
X14399706Y-6227984D02*
X14390182Y-6323222D01*
X14390182Y-6323222D02*
X14399706Y-6313698D01*
X14399706Y-6313698D02*
X14418753Y-6304174D01*
X14418753Y-6304174D02*
X14466372Y-6304174D01*
X14466372Y-6304174D02*
X14485420Y-6313698D01*
X14485420Y-6313698D02*
X14494944Y-6323222D01*
X14494944Y-6323222D02*
X14504467Y-6342269D01*
X14504467Y-6342269D02*
X14504467Y-6389888D01*
X14504467Y-6389888D02*
X14494944Y-6408936D01*
X14494944Y-6408936D02*
X14485420Y-6418460D01*
X14485420Y-6418460D02*
X14466372Y-6427984D01*
X14466372Y-6427984D02*
X14418753Y-6427984D01*
X14418753Y-6427984D02*
X14399706Y-6418460D01*
X14399706Y-6418460D02*
X14390182Y-6408936D01*
X14571134Y-6227984D02*
X14704467Y-6227984D01*
X14704467Y-6227984D02*
X14618753Y-6427984D01*
X14771134Y-6227984D02*
X14771134Y-6266079D01*
X14847325Y-6227984D02*
X14847325Y-6266079D01*
X15142563Y-6504174D02*
X15133039Y-6494650D01*
X15133039Y-6494650D02*
X15113991Y-6466079D01*
X15113991Y-6466079D02*
X15104468Y-6447031D01*
X15104468Y-6447031D02*
X15094944Y-6418460D01*
X15094944Y-6418460D02*
X15085420Y-6370841D01*
X15085420Y-6370841D02*
X15085420Y-6332746D01*
X15085420Y-6332746D02*
X15094944Y-6285127D01*
X15094944Y-6285127D02*
X15104468Y-6256555D01*
X15104468Y-6256555D02*
X15113991Y-6237508D01*
X15113991Y-6237508D02*
X15133039Y-6208936D01*
X15133039Y-6208936D02*
X15142563Y-6199412D01*
X15199706Y-6227984D02*
X15333039Y-6227984D01*
X15333039Y-6227984D02*
X15247325Y-6427984D01*
X15561610Y-6427984D02*
X15561610Y-6227984D01*
X15647325Y-6427984D02*
X15647325Y-6323222D01*
X15647325Y-6323222D02*
X15637801Y-6304174D01*
X15637801Y-6304174D02*
X15618753Y-6294650D01*
X15618753Y-6294650D02*
X15590182Y-6294650D01*
X15590182Y-6294650D02*
X15571134Y-6304174D01*
X15571134Y-6304174D02*
X15561610Y-6313698D01*
X15771134Y-6427984D02*
X15752087Y-6418460D01*
X15752087Y-6418460D02*
X15742563Y-6408936D01*
X15742563Y-6408936D02*
X15733039Y-6389888D01*
X15733039Y-6389888D02*
X15733039Y-6332746D01*
X15733039Y-6332746D02*
X15742563Y-6313698D01*
X15742563Y-6313698D02*
X15752087Y-6304174D01*
X15752087Y-6304174D02*
X15771134Y-6294650D01*
X15771134Y-6294650D02*
X15799706Y-6294650D01*
X15799706Y-6294650D02*
X15818753Y-6304174D01*
X15818753Y-6304174D02*
X15828277Y-6313698D01*
X15828277Y-6313698D02*
X15837801Y-6332746D01*
X15837801Y-6332746D02*
X15837801Y-6389888D01*
X15837801Y-6389888D02*
X15828277Y-6408936D01*
X15828277Y-6408936D02*
X15818753Y-6418460D01*
X15818753Y-6418460D02*
X15799706Y-6427984D01*
X15799706Y-6427984D02*
X15771134Y-6427984D01*
X15952087Y-6427984D02*
X15933039Y-6418460D01*
X15933039Y-6418460D02*
X15923515Y-6399412D01*
X15923515Y-6399412D02*
X15923515Y-6227984D01*
X16104468Y-6418460D02*
X16085420Y-6427984D01*
X16085420Y-6427984D02*
X16047325Y-6427984D01*
X16047325Y-6427984D02*
X16028277Y-6418460D01*
X16028277Y-6418460D02*
X16018753Y-6399412D01*
X16018753Y-6399412D02*
X16018753Y-6323222D01*
X16018753Y-6323222D02*
X16028277Y-6304174D01*
X16028277Y-6304174D02*
X16047325Y-6294650D01*
X16047325Y-6294650D02*
X16085420Y-6294650D01*
X16085420Y-6294650D02*
X16104468Y-6304174D01*
X16104468Y-6304174D02*
X16113991Y-6323222D01*
X16113991Y-6323222D02*
X16113991Y-6342269D01*
X16113991Y-6342269D02*
X16018753Y-6361317D01*
X16190182Y-6418460D02*
X16209230Y-6427984D01*
X16209230Y-6427984D02*
X16247325Y-6427984D01*
X16247325Y-6427984D02*
X16266372Y-6418460D01*
X16266372Y-6418460D02*
X16275896Y-6399412D01*
X16275896Y-6399412D02*
X16275896Y-6389888D01*
X16275896Y-6389888D02*
X16266372Y-6370841D01*
X16266372Y-6370841D02*
X16247325Y-6361317D01*
X16247325Y-6361317D02*
X16218753Y-6361317D01*
X16218753Y-6361317D02*
X16199706Y-6351793D01*
X16199706Y-6351793D02*
X16190182Y-6332746D01*
X16190182Y-6332746D02*
X16190182Y-6323222D01*
X16190182Y-6323222D02*
X16199706Y-6304174D01*
X16199706Y-6304174D02*
X16218753Y-6294650D01*
X16218753Y-6294650D02*
X16247325Y-6294650D01*
X16247325Y-6294650D02*
X16266372Y-6304174D01*
X16342563Y-6504174D02*
X16352087Y-6494650D01*
X16352087Y-6494650D02*
X16371134Y-6466079D01*
X16371134Y-6466079D02*
X16380658Y-6447031D01*
X16380658Y-6447031D02*
X16390182Y-6418460D01*
X16390182Y-6418460D02*
X16399706Y-6370841D01*
X16399706Y-6370841D02*
X16399706Y-6332746D01*
X16399706Y-6332746D02*
X16390182Y-6285127D01*
X16390182Y-6285127D02*
X16380658Y-6256555D01*
X16380658Y-6256555D02*
X16371134Y-6237508D01*
X16371134Y-6237508D02*
X16352087Y-6208936D01*
X16352087Y-6208936D02*
X16342563Y-6199412D01*
D12*
X11542500Y-6575500D02*
X11542500Y-6625500D01*
X11517500Y-6600500D02*
X11567500Y-6600500D01*
D11*
X11866372Y-6491984D02*
X11885420Y-6491984D01*
X11885420Y-6491984D02*
X11904467Y-6501508D01*
X11904467Y-6501508D02*
X11913991Y-6511031D01*
X11913991Y-6511031D02*
X11923515Y-6530079D01*
X11923515Y-6530079D02*
X11933039Y-6568174D01*
X11933039Y-6568174D02*
X11933039Y-6615793D01*
X11933039Y-6615793D02*
X11923515Y-6653888D01*
X11923515Y-6653888D02*
X11913991Y-6672936D01*
X11913991Y-6672936D02*
X11904467Y-6682460D01*
X11904467Y-6682460D02*
X11885420Y-6691984D01*
X11885420Y-6691984D02*
X11866372Y-6691984D01*
X11866372Y-6691984D02*
X11847324Y-6682460D01*
X11847324Y-6682460D02*
X11837801Y-6672936D01*
X11837801Y-6672936D02*
X11828277Y-6653888D01*
X11828277Y-6653888D02*
X11818753Y-6615793D01*
X11818753Y-6615793D02*
X11818753Y-6568174D01*
X11818753Y-6568174D02*
X11828277Y-6530079D01*
X11828277Y-6530079D02*
X11837801Y-6511031D01*
X11837801Y-6511031D02*
X11847324Y-6501508D01*
X11847324Y-6501508D02*
X11866372Y-6491984D01*
X12018753Y-6672936D02*
X12028277Y-6682460D01*
X12028277Y-6682460D02*
X12018753Y-6691984D01*
X12018753Y-6691984D02*
X12009229Y-6682460D01*
X12009229Y-6682460D02*
X12018753Y-6672936D01*
X12018753Y-6672936D02*
X12018753Y-6691984D01*
X12209229Y-6491984D02*
X12113991Y-6491984D01*
X12113991Y-6491984D02*
X12104467Y-6587222D01*
X12104467Y-6587222D02*
X12113991Y-6577698D01*
X12113991Y-6577698D02*
X12133039Y-6568174D01*
X12133039Y-6568174D02*
X12180658Y-6568174D01*
X12180658Y-6568174D02*
X12199705Y-6577698D01*
X12199705Y-6577698D02*
X12209229Y-6587222D01*
X12209229Y-6587222D02*
X12218753Y-6606269D01*
X12218753Y-6606269D02*
X12218753Y-6653888D01*
X12218753Y-6653888D02*
X12209229Y-6672936D01*
X12209229Y-6672936D02*
X12199705Y-6682460D01*
X12199705Y-6682460D02*
X12180658Y-6691984D01*
X12180658Y-6691984D02*
X12133039Y-6691984D01*
X12133039Y-6691984D02*
X12113991Y-6682460D01*
X12113991Y-6682460D02*
X12104467Y-6672936D01*
X12342562Y-6491984D02*
X12361610Y-6491984D01*
X12361610Y-6491984D02*
X12380658Y-6501508D01*
X12380658Y-6501508D02*
X12390182Y-6511031D01*
X12390182Y-6511031D02*
X12399705Y-6530079D01*
X12399705Y-6530079D02*
X12409229Y-6568174D01*
X12409229Y-6568174D02*
X12409229Y-6615793D01*
X12409229Y-6615793D02*
X12399705Y-6653888D01*
X12399705Y-6653888D02*
X12390182Y-6672936D01*
X12390182Y-6672936D02*
X12380658Y-6682460D01*
X12380658Y-6682460D02*
X12361610Y-6691984D01*
X12361610Y-6691984D02*
X12342562Y-6691984D01*
X12342562Y-6691984D02*
X12323515Y-6682460D01*
X12323515Y-6682460D02*
X12313991Y-6672936D01*
X12313991Y-6672936D02*
X12304467Y-6653888D01*
X12304467Y-6653888D02*
X12294943Y-6615793D01*
X12294943Y-6615793D02*
X12294943Y-6568174D01*
X12294943Y-6568174D02*
X12304467Y-6530079D01*
X12304467Y-6530079D02*
X12313991Y-6511031D01*
X12313991Y-6511031D02*
X12323515Y-6501508D01*
X12323515Y-6501508D02*
X12342562Y-6491984D01*
X12533039Y-6491984D02*
X12552086Y-6491984D01*
X12552086Y-6491984D02*
X12571134Y-6501508D01*
X12571134Y-6501508D02*
X12580658Y-6511031D01*
X12580658Y-6511031D02*
X12590182Y-6530079D01*
X12590182Y-6530079D02*
X12599705Y-6568174D01*
X12599705Y-6568174D02*
X12599705Y-6615793D01*
X12599705Y-6615793D02*
X12590182Y-6653888D01*
X12590182Y-6653888D02*
X12580658Y-6672936D01*
X12580658Y-6672936D02*
X12571134Y-6682460D01*
X12571134Y-6682460D02*
X12552086Y-6691984D01*
X12552086Y-6691984D02*
X12533039Y-6691984D01*
X12533039Y-6691984D02*
X12513991Y-6682460D01*
X12513991Y-6682460D02*
X12504467Y-6672936D01*
X12504467Y-6672936D02*
X12494943Y-6653888D01*
X12494943Y-6653888D02*
X12485420Y-6615793D01*
X12485420Y-6615793D02*
X12485420Y-6568174D01*
X12485420Y-6568174D02*
X12494943Y-6530079D01*
X12494943Y-6530079D02*
X12504467Y-6511031D01*
X12504467Y-6511031D02*
X12513991Y-6501508D01*
X12513991Y-6501508D02*
X12533039Y-6491984D01*
X12685420Y-6691984D02*
X12685420Y-6558650D01*
X12685420Y-6577698D02*
X12694943Y-6568174D01*
X12694943Y-6568174D02*
X12713991Y-6558650D01*
X12713991Y-6558650D02*
X12742563Y-6558650D01*
X12742563Y-6558650D02*
X12761610Y-6568174D01*
X12761610Y-6568174D02*
X12771134Y-6587222D01*
X12771134Y-6587222D02*
X12771134Y-6691984D01*
X12771134Y-6587222D02*
X12780658Y-6568174D01*
X12780658Y-6568174D02*
X12799705Y-6558650D01*
X12799705Y-6558650D02*
X12828277Y-6558650D01*
X12828277Y-6558650D02*
X12847324Y-6568174D01*
X12847324Y-6568174D02*
X12856848Y-6587222D01*
X12856848Y-6587222D02*
X12856848Y-6691984D01*
X12952086Y-6691984D02*
X12952086Y-6558650D01*
X12952086Y-6577698D02*
X12961610Y-6568174D01*
X12961610Y-6568174D02*
X12980658Y-6558650D01*
X12980658Y-6558650D02*
X13009229Y-6558650D01*
X13009229Y-6558650D02*
X13028277Y-6568174D01*
X13028277Y-6568174D02*
X13037801Y-6587222D01*
X13037801Y-6587222D02*
X13037801Y-6691984D01*
X13037801Y-6587222D02*
X13047324Y-6568174D01*
X13047324Y-6568174D02*
X13066372Y-6558650D01*
X13066372Y-6558650D02*
X13094943Y-6558650D01*
X13094943Y-6558650D02*
X13113991Y-6568174D01*
X13113991Y-6568174D02*
X13123515Y-6587222D01*
X13123515Y-6587222D02*
X13123515Y-6691984D01*
X13513991Y-6482460D02*
X13342563Y-6739603D01*
X13771134Y-6491984D02*
X13790182Y-6491984D01*
X13790182Y-6491984D02*
X13809229Y-6501508D01*
X13809229Y-6501508D02*
X13818753Y-6511031D01*
X13818753Y-6511031D02*
X13828277Y-6530079D01*
X13828277Y-6530079D02*
X13837801Y-6568174D01*
X13837801Y-6568174D02*
X13837801Y-6615793D01*
X13837801Y-6615793D02*
X13828277Y-6653888D01*
X13828277Y-6653888D02*
X13818753Y-6672936D01*
X13818753Y-6672936D02*
X13809229Y-6682460D01*
X13809229Y-6682460D02*
X13790182Y-6691984D01*
X13790182Y-6691984D02*
X13771134Y-6691984D01*
X13771134Y-6691984D02*
X13752086Y-6682460D01*
X13752086Y-6682460D02*
X13742563Y-6672936D01*
X13742563Y-6672936D02*
X13733039Y-6653888D01*
X13733039Y-6653888D02*
X13723515Y-6615793D01*
X13723515Y-6615793D02*
X13723515Y-6568174D01*
X13723515Y-6568174D02*
X13733039Y-6530079D01*
X13733039Y-6530079D02*
X13742563Y-6511031D01*
X13742563Y-6511031D02*
X13752086Y-6501508D01*
X13752086Y-6501508D02*
X13771134Y-6491984D01*
X13923515Y-6672936D02*
X13933039Y-6682460D01*
X13933039Y-6682460D02*
X13923515Y-6691984D01*
X13923515Y-6691984D02*
X13913991Y-6682460D01*
X13913991Y-6682460D02*
X13923515Y-6672936D01*
X13923515Y-6672936D02*
X13923515Y-6691984D01*
X14056848Y-6491984D02*
X14075896Y-6491984D01*
X14075896Y-6491984D02*
X14094944Y-6501508D01*
X14094944Y-6501508D02*
X14104467Y-6511031D01*
X14104467Y-6511031D02*
X14113991Y-6530079D01*
X14113991Y-6530079D02*
X14123515Y-6568174D01*
X14123515Y-6568174D02*
X14123515Y-6615793D01*
X14123515Y-6615793D02*
X14113991Y-6653888D01*
X14113991Y-6653888D02*
X14104467Y-6672936D01*
X14104467Y-6672936D02*
X14094944Y-6682460D01*
X14094944Y-6682460D02*
X14075896Y-6691984D01*
X14075896Y-6691984D02*
X14056848Y-6691984D01*
X14056848Y-6691984D02*
X14037801Y-6682460D01*
X14037801Y-6682460D02*
X14028277Y-6672936D01*
X14028277Y-6672936D02*
X14018753Y-6653888D01*
X14018753Y-6653888D02*
X14009229Y-6615793D01*
X14009229Y-6615793D02*
X14009229Y-6568174D01*
X14009229Y-6568174D02*
X14018753Y-6530079D01*
X14018753Y-6530079D02*
X14028277Y-6511031D01*
X14028277Y-6511031D02*
X14037801Y-6501508D01*
X14037801Y-6501508D02*
X14056848Y-6491984D01*
X14313991Y-6691984D02*
X14199706Y-6691984D01*
X14256848Y-6691984D02*
X14256848Y-6491984D01*
X14256848Y-6491984D02*
X14237801Y-6520555D01*
X14237801Y-6520555D02*
X14218753Y-6539603D01*
X14218753Y-6539603D02*
X14199706Y-6549127D01*
X14409229Y-6691984D02*
X14447325Y-6691984D01*
X14447325Y-6691984D02*
X14466372Y-6682460D01*
X14466372Y-6682460D02*
X14475896Y-6672936D01*
X14475896Y-6672936D02*
X14494944Y-6644365D01*
X14494944Y-6644365D02*
X14504467Y-6606269D01*
X14504467Y-6606269D02*
X14504467Y-6530079D01*
X14504467Y-6530079D02*
X14494944Y-6511031D01*
X14494944Y-6511031D02*
X14485420Y-6501508D01*
X14485420Y-6501508D02*
X14466372Y-6491984D01*
X14466372Y-6491984D02*
X14428277Y-6491984D01*
X14428277Y-6491984D02*
X14409229Y-6501508D01*
X14409229Y-6501508D02*
X14399706Y-6511031D01*
X14399706Y-6511031D02*
X14390182Y-6530079D01*
X14390182Y-6530079D02*
X14390182Y-6577698D01*
X14390182Y-6577698D02*
X14399706Y-6596746D01*
X14399706Y-6596746D02*
X14409229Y-6606269D01*
X14409229Y-6606269D02*
X14428277Y-6615793D01*
X14428277Y-6615793D02*
X14466372Y-6615793D01*
X14466372Y-6615793D02*
X14485420Y-6606269D01*
X14485420Y-6606269D02*
X14494944Y-6596746D01*
X14494944Y-6596746D02*
X14504467Y-6577698D01*
X14571134Y-6491984D02*
X14704467Y-6491984D01*
X14704467Y-6491984D02*
X14618753Y-6691984D01*
X14771134Y-6491984D02*
X14771134Y-6530079D01*
X14847325Y-6491984D02*
X14847325Y-6530079D01*
X15142563Y-6768174D02*
X15133039Y-6758650D01*
X15133039Y-6758650D02*
X15113991Y-6730079D01*
X15113991Y-6730079D02*
X15104468Y-6711031D01*
X15104468Y-6711031D02*
X15094944Y-6682460D01*
X15094944Y-6682460D02*
X15085420Y-6634841D01*
X15085420Y-6634841D02*
X15085420Y-6596746D01*
X15085420Y-6596746D02*
X15094944Y-6549127D01*
X15094944Y-6549127D02*
X15104468Y-6520555D01*
X15104468Y-6520555D02*
X15113991Y-6501508D01*
X15113991Y-6501508D02*
X15133039Y-6472936D01*
X15133039Y-6472936D02*
X15142563Y-6463412D01*
X15313991Y-6491984D02*
X15218753Y-6491984D01*
X15218753Y-6491984D02*
X15209229Y-6587222D01*
X15209229Y-6587222D02*
X15218753Y-6577698D01*
X15218753Y-6577698D02*
X15237801Y-6568174D01*
X15237801Y-6568174D02*
X15285420Y-6568174D01*
X15285420Y-6568174D02*
X15304468Y-6577698D01*
X15304468Y-6577698D02*
X15313991Y-6587222D01*
X15313991Y-6587222D02*
X15323515Y-6606269D01*
X15323515Y-6606269D02*
X15323515Y-6653888D01*
X15323515Y-6653888D02*
X15313991Y-6672936D01*
X15313991Y-6672936D02*
X15304468Y-6682460D01*
X15304468Y-6682460D02*
X15285420Y-6691984D01*
X15285420Y-6691984D02*
X15237801Y-6691984D01*
X15237801Y-6691984D02*
X15218753Y-6682460D01*
X15218753Y-6682460D02*
X15209229Y-6672936D01*
X15494944Y-6491984D02*
X15456848Y-6491984D01*
X15456848Y-6491984D02*
X15437801Y-6501508D01*
X15437801Y-6501508D02*
X15428277Y-6511031D01*
X15428277Y-6511031D02*
X15409229Y-6539603D01*
X15409229Y-6539603D02*
X15399706Y-6577698D01*
X15399706Y-6577698D02*
X15399706Y-6653888D01*
X15399706Y-6653888D02*
X15409229Y-6672936D01*
X15409229Y-6672936D02*
X15418753Y-6682460D01*
X15418753Y-6682460D02*
X15437801Y-6691984D01*
X15437801Y-6691984D02*
X15475896Y-6691984D01*
X15475896Y-6691984D02*
X15494944Y-6682460D01*
X15494944Y-6682460D02*
X15504468Y-6672936D01*
X15504468Y-6672936D02*
X15513991Y-6653888D01*
X15513991Y-6653888D02*
X15513991Y-6606269D01*
X15513991Y-6606269D02*
X15504468Y-6587222D01*
X15504468Y-6587222D02*
X15494944Y-6577698D01*
X15494944Y-6577698D02*
X15475896Y-6568174D01*
X15475896Y-6568174D02*
X15437801Y-6568174D01*
X15437801Y-6568174D02*
X15418753Y-6577698D01*
X15418753Y-6577698D02*
X15409229Y-6587222D01*
X15409229Y-6587222D02*
X15399706Y-6606269D01*
X15752087Y-6691984D02*
X15752087Y-6491984D01*
X15837801Y-6691984D02*
X15837801Y-6587222D01*
X15837801Y-6587222D02*
X15828277Y-6568174D01*
X15828277Y-6568174D02*
X15809230Y-6558650D01*
X15809230Y-6558650D02*
X15780658Y-6558650D01*
X15780658Y-6558650D02*
X15761610Y-6568174D01*
X15761610Y-6568174D02*
X15752087Y-6577698D01*
X15961610Y-6691984D02*
X15942563Y-6682460D01*
X15942563Y-6682460D02*
X15933039Y-6672936D01*
X15933039Y-6672936D02*
X15923515Y-6653888D01*
X15923515Y-6653888D02*
X15923515Y-6596746D01*
X15923515Y-6596746D02*
X15933039Y-6577698D01*
X15933039Y-6577698D02*
X15942563Y-6568174D01*
X15942563Y-6568174D02*
X15961610Y-6558650D01*
X15961610Y-6558650D02*
X15990182Y-6558650D01*
X15990182Y-6558650D02*
X16009230Y-6568174D01*
X16009230Y-6568174D02*
X16018753Y-6577698D01*
X16018753Y-6577698D02*
X16028277Y-6596746D01*
X16028277Y-6596746D02*
X16028277Y-6653888D01*
X16028277Y-6653888D02*
X16018753Y-6672936D01*
X16018753Y-6672936D02*
X16009230Y-6682460D01*
X16009230Y-6682460D02*
X15990182Y-6691984D01*
X15990182Y-6691984D02*
X15961610Y-6691984D01*
X16142563Y-6691984D02*
X16123515Y-6682460D01*
X16123515Y-6682460D02*
X16113991Y-6663412D01*
X16113991Y-6663412D02*
X16113991Y-6491984D01*
X16294944Y-6682460D02*
X16275896Y-6691984D01*
X16275896Y-6691984D02*
X16237801Y-6691984D01*
X16237801Y-6691984D02*
X16218753Y-6682460D01*
X16218753Y-6682460D02*
X16209230Y-6663412D01*
X16209230Y-6663412D02*
X16209230Y-6587222D01*
X16209230Y-6587222D02*
X16218753Y-6568174D01*
X16218753Y-6568174D02*
X16237801Y-6558650D01*
X16237801Y-6558650D02*
X16275896Y-6558650D01*
X16275896Y-6558650D02*
X16294944Y-6568174D01*
X16294944Y-6568174D02*
X16304468Y-6587222D01*
X16304468Y-6587222D02*
X16304468Y-6606269D01*
X16304468Y-6606269D02*
X16209230Y-6625317D01*
X16380658Y-6682460D02*
X16399706Y-6691984D01*
X16399706Y-6691984D02*
X16437801Y-6691984D01*
X16437801Y-6691984D02*
X16456849Y-6682460D01*
X16456849Y-6682460D02*
X16466372Y-6663412D01*
X16466372Y-6663412D02*
X16466372Y-6653888D01*
X16466372Y-6653888D02*
X16456849Y-6634841D01*
X16456849Y-6634841D02*
X16437801Y-6625317D01*
X16437801Y-6625317D02*
X16409230Y-6625317D01*
X16409230Y-6625317D02*
X16390182Y-6615793D01*
X16390182Y-6615793D02*
X16380658Y-6596746D01*
X16380658Y-6596746D02*
X16380658Y-6587222D01*
X16380658Y-6587222D02*
X16390182Y-6568174D01*
X16390182Y-6568174D02*
X16409230Y-6558650D01*
X16409230Y-6558650D02*
X16437801Y-6558650D01*
X16437801Y-6558650D02*
X16456849Y-6568174D01*
X16533039Y-6768174D02*
X16542563Y-6758650D01*
X16542563Y-6758650D02*
X16561611Y-6730079D01*
X16561611Y-6730079D02*
X16571134Y-6711031D01*
X16571134Y-6711031D02*
X16580658Y-6682460D01*
X16580658Y-6682460D02*
X16590182Y-6634841D01*
X16590182Y-6634841D02*
X16590182Y-6596746D01*
X16590182Y-6596746D02*
X16580658Y-6549127D01*
X16580658Y-6549127D02*
X16571134Y-6520555D01*
X16571134Y-6520555D02*
X16561611Y-6501508D01*
X16561611Y-6501508D02*
X16542563Y-6472936D01*
X16542563Y-6472936D02*
X16533039Y-6463412D01*
D12*
X11555784Y-6892784D02*
X11555784Y-6836215D01*
X11499215Y-6836215D01*
X11499215Y-6892784D01*
X11555784Y-6892784D01*
D11*
X11866372Y-6755984D02*
X11885420Y-6755984D01*
X11885420Y-6755984D02*
X11904467Y-6765508D01*
X11904467Y-6765508D02*
X11913991Y-6775031D01*
X11913991Y-6775031D02*
X11923515Y-6794079D01*
X11923515Y-6794079D02*
X11933039Y-6832174D01*
X11933039Y-6832174D02*
X11933039Y-6879793D01*
X11933039Y-6879793D02*
X11923515Y-6917888D01*
X11923515Y-6917888D02*
X11913991Y-6936936D01*
X11913991Y-6936936D02*
X11904467Y-6946460D01*
X11904467Y-6946460D02*
X11885420Y-6955984D01*
X11885420Y-6955984D02*
X11866372Y-6955984D01*
X11866372Y-6955984D02*
X11847324Y-6946460D01*
X11847324Y-6946460D02*
X11837801Y-6936936D01*
X11837801Y-6936936D02*
X11828277Y-6917888D01*
X11828277Y-6917888D02*
X11818753Y-6879793D01*
X11818753Y-6879793D02*
X11818753Y-6832174D01*
X11818753Y-6832174D02*
X11828277Y-6794079D01*
X11828277Y-6794079D02*
X11837801Y-6775031D01*
X11837801Y-6775031D02*
X11847324Y-6765508D01*
X11847324Y-6765508D02*
X11866372Y-6755984D01*
X12018753Y-6936936D02*
X12028277Y-6946460D01*
X12028277Y-6946460D02*
X12018753Y-6955984D01*
X12018753Y-6955984D02*
X12009229Y-6946460D01*
X12009229Y-6946460D02*
X12018753Y-6936936D01*
X12018753Y-6936936D02*
X12018753Y-6955984D01*
X12142562Y-6841698D02*
X12123515Y-6832174D01*
X12123515Y-6832174D02*
X12113991Y-6822650D01*
X12113991Y-6822650D02*
X12104467Y-6803603D01*
X12104467Y-6803603D02*
X12104467Y-6794079D01*
X12104467Y-6794079D02*
X12113991Y-6775031D01*
X12113991Y-6775031D02*
X12123515Y-6765508D01*
X12123515Y-6765508D02*
X12142562Y-6755984D01*
X12142562Y-6755984D02*
X12180658Y-6755984D01*
X12180658Y-6755984D02*
X12199705Y-6765508D01*
X12199705Y-6765508D02*
X12209229Y-6775031D01*
X12209229Y-6775031D02*
X12218753Y-6794079D01*
X12218753Y-6794079D02*
X12218753Y-6803603D01*
X12218753Y-6803603D02*
X12209229Y-6822650D01*
X12209229Y-6822650D02*
X12199705Y-6832174D01*
X12199705Y-6832174D02*
X12180658Y-6841698D01*
X12180658Y-6841698D02*
X12142562Y-6841698D01*
X12142562Y-6841698D02*
X12123515Y-6851222D01*
X12123515Y-6851222D02*
X12113991Y-6860746D01*
X12113991Y-6860746D02*
X12104467Y-6879793D01*
X12104467Y-6879793D02*
X12104467Y-6917888D01*
X12104467Y-6917888D02*
X12113991Y-6936936D01*
X12113991Y-6936936D02*
X12123515Y-6946460D01*
X12123515Y-6946460D02*
X12142562Y-6955984D01*
X12142562Y-6955984D02*
X12180658Y-6955984D01*
X12180658Y-6955984D02*
X12199705Y-6946460D01*
X12199705Y-6946460D02*
X12209229Y-6936936D01*
X12209229Y-6936936D02*
X12218753Y-6917888D01*
X12218753Y-6917888D02*
X12218753Y-6879793D01*
X12218753Y-6879793D02*
X12209229Y-6860746D01*
X12209229Y-6860746D02*
X12199705Y-6851222D01*
X12199705Y-6851222D02*
X12180658Y-6841698D01*
X12342562Y-6755984D02*
X12361610Y-6755984D01*
X12361610Y-6755984D02*
X12380658Y-6765508D01*
X12380658Y-6765508D02*
X12390182Y-6775031D01*
X12390182Y-6775031D02*
X12399705Y-6794079D01*
X12399705Y-6794079D02*
X12409229Y-6832174D01*
X12409229Y-6832174D02*
X12409229Y-6879793D01*
X12409229Y-6879793D02*
X12399705Y-6917888D01*
X12399705Y-6917888D02*
X12390182Y-6936936D01*
X12390182Y-6936936D02*
X12380658Y-6946460D01*
X12380658Y-6946460D02*
X12361610Y-6955984D01*
X12361610Y-6955984D02*
X12342562Y-6955984D01*
X12342562Y-6955984D02*
X12323515Y-6946460D01*
X12323515Y-6946460D02*
X12313991Y-6936936D01*
X12313991Y-6936936D02*
X12304467Y-6917888D01*
X12304467Y-6917888D02*
X12294943Y-6879793D01*
X12294943Y-6879793D02*
X12294943Y-6832174D01*
X12294943Y-6832174D02*
X12304467Y-6794079D01*
X12304467Y-6794079D02*
X12313991Y-6775031D01*
X12313991Y-6775031D02*
X12323515Y-6765508D01*
X12323515Y-6765508D02*
X12342562Y-6755984D01*
X12533039Y-6755984D02*
X12552086Y-6755984D01*
X12552086Y-6755984D02*
X12571134Y-6765508D01*
X12571134Y-6765508D02*
X12580658Y-6775031D01*
X12580658Y-6775031D02*
X12590182Y-6794079D01*
X12590182Y-6794079D02*
X12599705Y-6832174D01*
X12599705Y-6832174D02*
X12599705Y-6879793D01*
X12599705Y-6879793D02*
X12590182Y-6917888D01*
X12590182Y-6917888D02*
X12580658Y-6936936D01*
X12580658Y-6936936D02*
X12571134Y-6946460D01*
X12571134Y-6946460D02*
X12552086Y-6955984D01*
X12552086Y-6955984D02*
X12533039Y-6955984D01*
X12533039Y-6955984D02*
X12513991Y-6946460D01*
X12513991Y-6946460D02*
X12504467Y-6936936D01*
X12504467Y-6936936D02*
X12494943Y-6917888D01*
X12494943Y-6917888D02*
X12485420Y-6879793D01*
X12485420Y-6879793D02*
X12485420Y-6832174D01*
X12485420Y-6832174D02*
X12494943Y-6794079D01*
X12494943Y-6794079D02*
X12504467Y-6775031D01*
X12504467Y-6775031D02*
X12513991Y-6765508D01*
X12513991Y-6765508D02*
X12533039Y-6755984D01*
X12685420Y-6955984D02*
X12685420Y-6822650D01*
X12685420Y-6841698D02*
X12694943Y-6832174D01*
X12694943Y-6832174D02*
X12713991Y-6822650D01*
X12713991Y-6822650D02*
X12742563Y-6822650D01*
X12742563Y-6822650D02*
X12761610Y-6832174D01*
X12761610Y-6832174D02*
X12771134Y-6851222D01*
X12771134Y-6851222D02*
X12771134Y-6955984D01*
X12771134Y-6851222D02*
X12780658Y-6832174D01*
X12780658Y-6832174D02*
X12799705Y-6822650D01*
X12799705Y-6822650D02*
X12828277Y-6822650D01*
X12828277Y-6822650D02*
X12847324Y-6832174D01*
X12847324Y-6832174D02*
X12856848Y-6851222D01*
X12856848Y-6851222D02*
X12856848Y-6955984D01*
X12952086Y-6955984D02*
X12952086Y-6822650D01*
X12952086Y-6841698D02*
X12961610Y-6832174D01*
X12961610Y-6832174D02*
X12980658Y-6822650D01*
X12980658Y-6822650D02*
X13009229Y-6822650D01*
X13009229Y-6822650D02*
X13028277Y-6832174D01*
X13028277Y-6832174D02*
X13037801Y-6851222D01*
X13037801Y-6851222D02*
X13037801Y-6955984D01*
X13037801Y-6851222D02*
X13047324Y-6832174D01*
X13047324Y-6832174D02*
X13066372Y-6822650D01*
X13066372Y-6822650D02*
X13094943Y-6822650D01*
X13094943Y-6822650D02*
X13113991Y-6832174D01*
X13113991Y-6832174D02*
X13123515Y-6851222D01*
X13123515Y-6851222D02*
X13123515Y-6955984D01*
X13513991Y-6746460D02*
X13342563Y-7003603D01*
X13771134Y-6755984D02*
X13790182Y-6755984D01*
X13790182Y-6755984D02*
X13809229Y-6765508D01*
X13809229Y-6765508D02*
X13818753Y-6775031D01*
X13818753Y-6775031D02*
X13828277Y-6794079D01*
X13828277Y-6794079D02*
X13837801Y-6832174D01*
X13837801Y-6832174D02*
X13837801Y-6879793D01*
X13837801Y-6879793D02*
X13828277Y-6917888D01*
X13828277Y-6917888D02*
X13818753Y-6936936D01*
X13818753Y-6936936D02*
X13809229Y-6946460D01*
X13809229Y-6946460D02*
X13790182Y-6955984D01*
X13790182Y-6955984D02*
X13771134Y-6955984D01*
X13771134Y-6955984D02*
X13752086Y-6946460D01*
X13752086Y-6946460D02*
X13742563Y-6936936D01*
X13742563Y-6936936D02*
X13733039Y-6917888D01*
X13733039Y-6917888D02*
X13723515Y-6879793D01*
X13723515Y-6879793D02*
X13723515Y-6832174D01*
X13723515Y-6832174D02*
X13733039Y-6794079D01*
X13733039Y-6794079D02*
X13742563Y-6775031D01*
X13742563Y-6775031D02*
X13752086Y-6765508D01*
X13752086Y-6765508D02*
X13771134Y-6755984D01*
X13923515Y-6936936D02*
X13933039Y-6946460D01*
X13933039Y-6946460D02*
X13923515Y-6955984D01*
X13923515Y-6955984D02*
X13913991Y-6946460D01*
X13913991Y-6946460D02*
X13923515Y-6936936D01*
X13923515Y-6936936D02*
X13923515Y-6955984D01*
X14056848Y-6755984D02*
X14075896Y-6755984D01*
X14075896Y-6755984D02*
X14094944Y-6765508D01*
X14094944Y-6765508D02*
X14104467Y-6775031D01*
X14104467Y-6775031D02*
X14113991Y-6794079D01*
X14113991Y-6794079D02*
X14123515Y-6832174D01*
X14123515Y-6832174D02*
X14123515Y-6879793D01*
X14123515Y-6879793D02*
X14113991Y-6917888D01*
X14113991Y-6917888D02*
X14104467Y-6936936D01*
X14104467Y-6936936D02*
X14094944Y-6946460D01*
X14094944Y-6946460D02*
X14075896Y-6955984D01*
X14075896Y-6955984D02*
X14056848Y-6955984D01*
X14056848Y-6955984D02*
X14037801Y-6946460D01*
X14037801Y-6946460D02*
X14028277Y-6936936D01*
X14028277Y-6936936D02*
X14018753Y-6917888D01*
X14018753Y-6917888D02*
X14009229Y-6879793D01*
X14009229Y-6879793D02*
X14009229Y-6832174D01*
X14009229Y-6832174D02*
X14018753Y-6794079D01*
X14018753Y-6794079D02*
X14028277Y-6775031D01*
X14028277Y-6775031D02*
X14037801Y-6765508D01*
X14037801Y-6765508D02*
X14056848Y-6755984D01*
X14190182Y-6755984D02*
X14313991Y-6755984D01*
X14313991Y-6755984D02*
X14247325Y-6832174D01*
X14247325Y-6832174D02*
X14275896Y-6832174D01*
X14275896Y-6832174D02*
X14294944Y-6841698D01*
X14294944Y-6841698D02*
X14304467Y-6851222D01*
X14304467Y-6851222D02*
X14313991Y-6870269D01*
X14313991Y-6870269D02*
X14313991Y-6917888D01*
X14313991Y-6917888D02*
X14304467Y-6936936D01*
X14304467Y-6936936D02*
X14294944Y-6946460D01*
X14294944Y-6946460D02*
X14275896Y-6955984D01*
X14275896Y-6955984D02*
X14218753Y-6955984D01*
X14218753Y-6955984D02*
X14199706Y-6946460D01*
X14199706Y-6946460D02*
X14190182Y-6936936D01*
X14504467Y-6955984D02*
X14390182Y-6955984D01*
X14447325Y-6955984D02*
X14447325Y-6755984D01*
X14447325Y-6755984D02*
X14428277Y-6784555D01*
X14428277Y-6784555D02*
X14409229Y-6803603D01*
X14409229Y-6803603D02*
X14390182Y-6813127D01*
X14685420Y-6755984D02*
X14590182Y-6755984D01*
X14590182Y-6755984D02*
X14580658Y-6851222D01*
X14580658Y-6851222D02*
X14590182Y-6841698D01*
X14590182Y-6841698D02*
X14609229Y-6832174D01*
X14609229Y-6832174D02*
X14656848Y-6832174D01*
X14656848Y-6832174D02*
X14675896Y-6841698D01*
X14675896Y-6841698D02*
X14685420Y-6851222D01*
X14685420Y-6851222D02*
X14694944Y-6870269D01*
X14694944Y-6870269D02*
X14694944Y-6917888D01*
X14694944Y-6917888D02*
X14685420Y-6936936D01*
X14685420Y-6936936D02*
X14675896Y-6946460D01*
X14675896Y-6946460D02*
X14656848Y-6955984D01*
X14656848Y-6955984D02*
X14609229Y-6955984D01*
X14609229Y-6955984D02*
X14590182Y-6946460D01*
X14590182Y-6946460D02*
X14580658Y-6936936D01*
X14771134Y-6755984D02*
X14771134Y-6794079D01*
X14847325Y-6755984D02*
X14847325Y-6794079D01*
X15142563Y-7032174D02*
X15133039Y-7022650D01*
X15133039Y-7022650D02*
X15113991Y-6994079D01*
X15113991Y-6994079D02*
X15104468Y-6975031D01*
X15104468Y-6975031D02*
X15094944Y-6946460D01*
X15094944Y-6946460D02*
X15085420Y-6898841D01*
X15085420Y-6898841D02*
X15085420Y-6860746D01*
X15085420Y-6860746D02*
X15094944Y-6813127D01*
X15094944Y-6813127D02*
X15104468Y-6784555D01*
X15104468Y-6784555D02*
X15113991Y-6765508D01*
X15113991Y-6765508D02*
X15133039Y-6736936D01*
X15133039Y-6736936D02*
X15142563Y-6727412D01*
X15228277Y-6955984D02*
X15266372Y-6955984D01*
X15266372Y-6955984D02*
X15285420Y-6946460D01*
X15285420Y-6946460D02*
X15294944Y-6936936D01*
X15294944Y-6936936D02*
X15313991Y-6908365D01*
X15313991Y-6908365D02*
X15323515Y-6870269D01*
X15323515Y-6870269D02*
X15323515Y-6794079D01*
X15323515Y-6794079D02*
X15313991Y-6775031D01*
X15313991Y-6775031D02*
X15304468Y-6765508D01*
X15304468Y-6765508D02*
X15285420Y-6755984D01*
X15285420Y-6755984D02*
X15247325Y-6755984D01*
X15247325Y-6755984D02*
X15228277Y-6765508D01*
X15228277Y-6765508D02*
X15218753Y-6775031D01*
X15218753Y-6775031D02*
X15209229Y-6794079D01*
X15209229Y-6794079D02*
X15209229Y-6841698D01*
X15209229Y-6841698D02*
X15218753Y-6860746D01*
X15218753Y-6860746D02*
X15228277Y-6870269D01*
X15228277Y-6870269D02*
X15247325Y-6879793D01*
X15247325Y-6879793D02*
X15285420Y-6879793D01*
X15285420Y-6879793D02*
X15304468Y-6870269D01*
X15304468Y-6870269D02*
X15313991Y-6860746D01*
X15313991Y-6860746D02*
X15323515Y-6841698D01*
X15561610Y-6955984D02*
X15561610Y-6755984D01*
X15647325Y-6955984D02*
X15647325Y-6851222D01*
X15647325Y-6851222D02*
X15637801Y-6832174D01*
X15637801Y-6832174D02*
X15618753Y-6822650D01*
X15618753Y-6822650D02*
X15590182Y-6822650D01*
X15590182Y-6822650D02*
X15571134Y-6832174D01*
X15571134Y-6832174D02*
X15561610Y-6841698D01*
X15771134Y-6955984D02*
X15752087Y-6946460D01*
X15752087Y-6946460D02*
X15742563Y-6936936D01*
X15742563Y-6936936D02*
X15733039Y-6917888D01*
X15733039Y-6917888D02*
X15733039Y-6860746D01*
X15733039Y-6860746D02*
X15742563Y-6841698D01*
X15742563Y-6841698D02*
X15752087Y-6832174D01*
X15752087Y-6832174D02*
X15771134Y-6822650D01*
X15771134Y-6822650D02*
X15799706Y-6822650D01*
X15799706Y-6822650D02*
X15818753Y-6832174D01*
X15818753Y-6832174D02*
X15828277Y-6841698D01*
X15828277Y-6841698D02*
X15837801Y-6860746D01*
X15837801Y-6860746D02*
X15837801Y-6917888D01*
X15837801Y-6917888D02*
X15828277Y-6936936D01*
X15828277Y-6936936D02*
X15818753Y-6946460D01*
X15818753Y-6946460D02*
X15799706Y-6955984D01*
X15799706Y-6955984D02*
X15771134Y-6955984D01*
X15952087Y-6955984D02*
X15933039Y-6946460D01*
X15933039Y-6946460D02*
X15923515Y-6927412D01*
X15923515Y-6927412D02*
X15923515Y-6755984D01*
X16104468Y-6946460D02*
X16085420Y-6955984D01*
X16085420Y-6955984D02*
X16047325Y-6955984D01*
X16047325Y-6955984D02*
X16028277Y-6946460D01*
X16028277Y-6946460D02*
X16018753Y-6927412D01*
X16018753Y-6927412D02*
X16018753Y-6851222D01*
X16018753Y-6851222D02*
X16028277Y-6832174D01*
X16028277Y-6832174D02*
X16047325Y-6822650D01*
X16047325Y-6822650D02*
X16085420Y-6822650D01*
X16085420Y-6822650D02*
X16104468Y-6832174D01*
X16104468Y-6832174D02*
X16113991Y-6851222D01*
X16113991Y-6851222D02*
X16113991Y-6870269D01*
X16113991Y-6870269D02*
X16018753Y-6889317D01*
X16190182Y-6946460D02*
X16209230Y-6955984D01*
X16209230Y-6955984D02*
X16247325Y-6955984D01*
X16247325Y-6955984D02*
X16266372Y-6946460D01*
X16266372Y-6946460D02*
X16275896Y-6927412D01*
X16275896Y-6927412D02*
X16275896Y-6917888D01*
X16275896Y-6917888D02*
X16266372Y-6898841D01*
X16266372Y-6898841D02*
X16247325Y-6889317D01*
X16247325Y-6889317D02*
X16218753Y-6889317D01*
X16218753Y-6889317D02*
X16199706Y-6879793D01*
X16199706Y-6879793D02*
X16190182Y-6860746D01*
X16190182Y-6860746D02*
X16190182Y-6851222D01*
X16190182Y-6851222D02*
X16199706Y-6832174D01*
X16199706Y-6832174D02*
X16218753Y-6822650D01*
X16218753Y-6822650D02*
X16247325Y-6822650D01*
X16247325Y-6822650D02*
X16266372Y-6832174D01*
X16342563Y-7032174D02*
X16352087Y-7022650D01*
X16352087Y-7022650D02*
X16371134Y-6994079D01*
X16371134Y-6994079D02*
X16380658Y-6975031D01*
X16380658Y-6975031D02*
X16390182Y-6946460D01*
X16390182Y-6946460D02*
X16399706Y-6898841D01*
X16399706Y-6898841D02*
X16399706Y-6860746D01*
X16399706Y-6860746D02*
X16390182Y-6813127D01*
X16390182Y-6813127D02*
X16380658Y-6784555D01*
X16380658Y-6784555D02*
X16371134Y-6765508D01*
X16371134Y-6765508D02*
X16352087Y-6736936D01*
X16352087Y-6736936D02*
X16342563Y-6727412D01*
D12*
X11522500Y-7173500D02*
X11567500Y-7128500D01*
X11522500Y-7083500D01*
X11477500Y-7128500D01*
X11522500Y-7173500D01*
D11*
X11866372Y-7019984D02*
X11885420Y-7019984D01*
X11885420Y-7019984D02*
X11904467Y-7029508D01*
X11904467Y-7029508D02*
X11913991Y-7039031D01*
X11913991Y-7039031D02*
X11923515Y-7058079D01*
X11923515Y-7058079D02*
X11933039Y-7096174D01*
X11933039Y-7096174D02*
X11933039Y-7143793D01*
X11933039Y-7143793D02*
X11923515Y-7181888D01*
X11923515Y-7181888D02*
X11913991Y-7200936D01*
X11913991Y-7200936D02*
X11904467Y-7210460D01*
X11904467Y-7210460D02*
X11885420Y-7219984D01*
X11885420Y-7219984D02*
X11866372Y-7219984D01*
X11866372Y-7219984D02*
X11847324Y-7210460D01*
X11847324Y-7210460D02*
X11837801Y-7200936D01*
X11837801Y-7200936D02*
X11828277Y-7181888D01*
X11828277Y-7181888D02*
X11818753Y-7143793D01*
X11818753Y-7143793D02*
X11818753Y-7096174D01*
X11818753Y-7096174D02*
X11828277Y-7058079D01*
X11828277Y-7058079D02*
X11837801Y-7039031D01*
X11837801Y-7039031D02*
X11847324Y-7029508D01*
X11847324Y-7029508D02*
X11866372Y-7019984D01*
X12018753Y-7200936D02*
X12028277Y-7210460D01*
X12028277Y-7210460D02*
X12018753Y-7219984D01*
X12018753Y-7219984D02*
X12009229Y-7210460D01*
X12009229Y-7210460D02*
X12018753Y-7200936D01*
X12018753Y-7200936D02*
X12018753Y-7219984D01*
X12123515Y-7219984D02*
X12161610Y-7219984D01*
X12161610Y-7219984D02*
X12180658Y-7210460D01*
X12180658Y-7210460D02*
X12190182Y-7200936D01*
X12190182Y-7200936D02*
X12209229Y-7172365D01*
X12209229Y-7172365D02*
X12218753Y-7134269D01*
X12218753Y-7134269D02*
X12218753Y-7058079D01*
X12218753Y-7058079D02*
X12209229Y-7039031D01*
X12209229Y-7039031D02*
X12199705Y-7029508D01*
X12199705Y-7029508D02*
X12180658Y-7019984D01*
X12180658Y-7019984D02*
X12142562Y-7019984D01*
X12142562Y-7019984D02*
X12123515Y-7029508D01*
X12123515Y-7029508D02*
X12113991Y-7039031D01*
X12113991Y-7039031D02*
X12104467Y-7058079D01*
X12104467Y-7058079D02*
X12104467Y-7105698D01*
X12104467Y-7105698D02*
X12113991Y-7124746D01*
X12113991Y-7124746D02*
X12123515Y-7134269D01*
X12123515Y-7134269D02*
X12142562Y-7143793D01*
X12142562Y-7143793D02*
X12180658Y-7143793D01*
X12180658Y-7143793D02*
X12199705Y-7134269D01*
X12199705Y-7134269D02*
X12209229Y-7124746D01*
X12209229Y-7124746D02*
X12218753Y-7105698D01*
X12342562Y-7019984D02*
X12361610Y-7019984D01*
X12361610Y-7019984D02*
X12380658Y-7029508D01*
X12380658Y-7029508D02*
X12390182Y-7039031D01*
X12390182Y-7039031D02*
X12399705Y-7058079D01*
X12399705Y-7058079D02*
X12409229Y-7096174D01*
X12409229Y-7096174D02*
X12409229Y-7143793D01*
X12409229Y-7143793D02*
X12399705Y-7181888D01*
X12399705Y-7181888D02*
X12390182Y-7200936D01*
X12390182Y-7200936D02*
X12380658Y-7210460D01*
X12380658Y-7210460D02*
X12361610Y-7219984D01*
X12361610Y-7219984D02*
X12342562Y-7219984D01*
X12342562Y-7219984D02*
X12323515Y-7210460D01*
X12323515Y-7210460D02*
X12313991Y-7200936D01*
X12313991Y-7200936D02*
X12304467Y-7181888D01*
X12304467Y-7181888D02*
X12294943Y-7143793D01*
X12294943Y-7143793D02*
X12294943Y-7096174D01*
X12294943Y-7096174D02*
X12304467Y-7058079D01*
X12304467Y-7058079D02*
X12313991Y-7039031D01*
X12313991Y-7039031D02*
X12323515Y-7029508D01*
X12323515Y-7029508D02*
X12342562Y-7019984D01*
X12533039Y-7019984D02*
X12552086Y-7019984D01*
X12552086Y-7019984D02*
X12571134Y-7029508D01*
X12571134Y-7029508D02*
X12580658Y-7039031D01*
X12580658Y-7039031D02*
X12590182Y-7058079D01*
X12590182Y-7058079D02*
X12599705Y-7096174D01*
X12599705Y-7096174D02*
X12599705Y-7143793D01*
X12599705Y-7143793D02*
X12590182Y-7181888D01*
X12590182Y-7181888D02*
X12580658Y-7200936D01*
X12580658Y-7200936D02*
X12571134Y-7210460D01*
X12571134Y-7210460D02*
X12552086Y-7219984D01*
X12552086Y-7219984D02*
X12533039Y-7219984D01*
X12533039Y-7219984D02*
X12513991Y-7210460D01*
X12513991Y-7210460D02*
X12504467Y-7200936D01*
X12504467Y-7200936D02*
X12494943Y-7181888D01*
X12494943Y-7181888D02*
X12485420Y-7143793D01*
X12485420Y-7143793D02*
X12485420Y-7096174D01*
X12485420Y-7096174D02*
X12494943Y-7058079D01*
X12494943Y-7058079D02*
X12504467Y-7039031D01*
X12504467Y-7039031D02*
X12513991Y-7029508D01*
X12513991Y-7029508D02*
X12533039Y-7019984D01*
X12685420Y-7219984D02*
X12685420Y-7086650D01*
X12685420Y-7105698D02*
X12694943Y-7096174D01*
X12694943Y-7096174D02*
X12713991Y-7086650D01*
X12713991Y-7086650D02*
X12742563Y-7086650D01*
X12742563Y-7086650D02*
X12761610Y-7096174D01*
X12761610Y-7096174D02*
X12771134Y-7115222D01*
X12771134Y-7115222D02*
X12771134Y-7219984D01*
X12771134Y-7115222D02*
X12780658Y-7096174D01*
X12780658Y-7096174D02*
X12799705Y-7086650D01*
X12799705Y-7086650D02*
X12828277Y-7086650D01*
X12828277Y-7086650D02*
X12847324Y-7096174D01*
X12847324Y-7096174D02*
X12856848Y-7115222D01*
X12856848Y-7115222D02*
X12856848Y-7219984D01*
X12952086Y-7219984D02*
X12952086Y-7086650D01*
X12952086Y-7105698D02*
X12961610Y-7096174D01*
X12961610Y-7096174D02*
X12980658Y-7086650D01*
X12980658Y-7086650D02*
X13009229Y-7086650D01*
X13009229Y-7086650D02*
X13028277Y-7096174D01*
X13028277Y-7096174D02*
X13037801Y-7115222D01*
X13037801Y-7115222D02*
X13037801Y-7219984D01*
X13037801Y-7115222D02*
X13047324Y-7096174D01*
X13047324Y-7096174D02*
X13066372Y-7086650D01*
X13066372Y-7086650D02*
X13094943Y-7086650D01*
X13094943Y-7086650D02*
X13113991Y-7096174D01*
X13113991Y-7096174D02*
X13123515Y-7115222D01*
X13123515Y-7115222D02*
X13123515Y-7219984D01*
X13513991Y-7010460D02*
X13342563Y-7267603D01*
X13771134Y-7019984D02*
X13790182Y-7019984D01*
X13790182Y-7019984D02*
X13809229Y-7029508D01*
X13809229Y-7029508D02*
X13818753Y-7039031D01*
X13818753Y-7039031D02*
X13828277Y-7058079D01*
X13828277Y-7058079D02*
X13837801Y-7096174D01*
X13837801Y-7096174D02*
X13837801Y-7143793D01*
X13837801Y-7143793D02*
X13828277Y-7181888D01*
X13828277Y-7181888D02*
X13818753Y-7200936D01*
X13818753Y-7200936D02*
X13809229Y-7210460D01*
X13809229Y-7210460D02*
X13790182Y-7219984D01*
X13790182Y-7219984D02*
X13771134Y-7219984D01*
X13771134Y-7219984D02*
X13752086Y-7210460D01*
X13752086Y-7210460D02*
X13742563Y-7200936D01*
X13742563Y-7200936D02*
X13733039Y-7181888D01*
X13733039Y-7181888D02*
X13723515Y-7143793D01*
X13723515Y-7143793D02*
X13723515Y-7096174D01*
X13723515Y-7096174D02*
X13733039Y-7058079D01*
X13733039Y-7058079D02*
X13742563Y-7039031D01*
X13742563Y-7039031D02*
X13752086Y-7029508D01*
X13752086Y-7029508D02*
X13771134Y-7019984D01*
X13923515Y-7200936D02*
X13933039Y-7210460D01*
X13933039Y-7210460D02*
X13923515Y-7219984D01*
X13923515Y-7219984D02*
X13913991Y-7210460D01*
X13913991Y-7210460D02*
X13923515Y-7200936D01*
X13923515Y-7200936D02*
X13923515Y-7219984D01*
X14056848Y-7019984D02*
X14075896Y-7019984D01*
X14075896Y-7019984D02*
X14094944Y-7029508D01*
X14094944Y-7029508D02*
X14104467Y-7039031D01*
X14104467Y-7039031D02*
X14113991Y-7058079D01*
X14113991Y-7058079D02*
X14123515Y-7096174D01*
X14123515Y-7096174D02*
X14123515Y-7143793D01*
X14123515Y-7143793D02*
X14113991Y-7181888D01*
X14113991Y-7181888D02*
X14104467Y-7200936D01*
X14104467Y-7200936D02*
X14094944Y-7210460D01*
X14094944Y-7210460D02*
X14075896Y-7219984D01*
X14075896Y-7219984D02*
X14056848Y-7219984D01*
X14056848Y-7219984D02*
X14037801Y-7210460D01*
X14037801Y-7210460D02*
X14028277Y-7200936D01*
X14028277Y-7200936D02*
X14018753Y-7181888D01*
X14018753Y-7181888D02*
X14009229Y-7143793D01*
X14009229Y-7143793D02*
X14009229Y-7096174D01*
X14009229Y-7096174D02*
X14018753Y-7058079D01*
X14018753Y-7058079D02*
X14028277Y-7039031D01*
X14028277Y-7039031D02*
X14037801Y-7029508D01*
X14037801Y-7029508D02*
X14056848Y-7019984D01*
X14190182Y-7019984D02*
X14313991Y-7019984D01*
X14313991Y-7019984D02*
X14247325Y-7096174D01*
X14247325Y-7096174D02*
X14275896Y-7096174D01*
X14275896Y-7096174D02*
X14294944Y-7105698D01*
X14294944Y-7105698D02*
X14304467Y-7115222D01*
X14304467Y-7115222D02*
X14313991Y-7134269D01*
X14313991Y-7134269D02*
X14313991Y-7181888D01*
X14313991Y-7181888D02*
X14304467Y-7200936D01*
X14304467Y-7200936D02*
X14294944Y-7210460D01*
X14294944Y-7210460D02*
X14275896Y-7219984D01*
X14275896Y-7219984D02*
X14218753Y-7219984D01*
X14218753Y-7219984D02*
X14199706Y-7210460D01*
X14199706Y-7210460D02*
X14190182Y-7200936D01*
X14494944Y-7019984D02*
X14399706Y-7019984D01*
X14399706Y-7019984D02*
X14390182Y-7115222D01*
X14390182Y-7115222D02*
X14399706Y-7105698D01*
X14399706Y-7105698D02*
X14418753Y-7096174D01*
X14418753Y-7096174D02*
X14466372Y-7096174D01*
X14466372Y-7096174D02*
X14485420Y-7105698D01*
X14485420Y-7105698D02*
X14494944Y-7115222D01*
X14494944Y-7115222D02*
X14504467Y-7134269D01*
X14504467Y-7134269D02*
X14504467Y-7181888D01*
X14504467Y-7181888D02*
X14494944Y-7200936D01*
X14494944Y-7200936D02*
X14485420Y-7210460D01*
X14485420Y-7210460D02*
X14466372Y-7219984D01*
X14466372Y-7219984D02*
X14418753Y-7219984D01*
X14418753Y-7219984D02*
X14399706Y-7210460D01*
X14399706Y-7210460D02*
X14390182Y-7200936D01*
X14675896Y-7086650D02*
X14675896Y-7219984D01*
X14628277Y-7010460D02*
X14580658Y-7153317D01*
X14580658Y-7153317D02*
X14704467Y-7153317D01*
X14771134Y-7019984D02*
X14771134Y-7058079D01*
X14847325Y-7019984D02*
X14847325Y-7058079D01*
X15142563Y-7296174D02*
X15133039Y-7286650D01*
X15133039Y-7286650D02*
X15113991Y-7258079D01*
X15113991Y-7258079D02*
X15104468Y-7239031D01*
X15104468Y-7239031D02*
X15094944Y-7210460D01*
X15094944Y-7210460D02*
X15085420Y-7162841D01*
X15085420Y-7162841D02*
X15085420Y-7124746D01*
X15085420Y-7124746D02*
X15094944Y-7077127D01*
X15094944Y-7077127D02*
X15104468Y-7048555D01*
X15104468Y-7048555D02*
X15113991Y-7029508D01*
X15113991Y-7029508D02*
X15133039Y-7000936D01*
X15133039Y-7000936D02*
X15142563Y-6991412D01*
X15323515Y-7219984D02*
X15209229Y-7219984D01*
X15266372Y-7219984D02*
X15266372Y-7019984D01*
X15266372Y-7019984D02*
X15247325Y-7048555D01*
X15247325Y-7048555D02*
X15228277Y-7067603D01*
X15228277Y-7067603D02*
X15209229Y-7077127D01*
X15399706Y-7039031D02*
X15409229Y-7029508D01*
X15409229Y-7029508D02*
X15428277Y-7019984D01*
X15428277Y-7019984D02*
X15475896Y-7019984D01*
X15475896Y-7019984D02*
X15494944Y-7029508D01*
X15494944Y-7029508D02*
X15504468Y-7039031D01*
X15504468Y-7039031D02*
X15513991Y-7058079D01*
X15513991Y-7058079D02*
X15513991Y-7077127D01*
X15513991Y-7077127D02*
X15504468Y-7105698D01*
X15504468Y-7105698D02*
X15390182Y-7219984D01*
X15390182Y-7219984D02*
X15513991Y-7219984D01*
X15752087Y-7219984D02*
X15752087Y-7019984D01*
X15837801Y-7219984D02*
X15837801Y-7115222D01*
X15837801Y-7115222D02*
X15828277Y-7096174D01*
X15828277Y-7096174D02*
X15809230Y-7086650D01*
X15809230Y-7086650D02*
X15780658Y-7086650D01*
X15780658Y-7086650D02*
X15761610Y-7096174D01*
X15761610Y-7096174D02*
X15752087Y-7105698D01*
X15961610Y-7219984D02*
X15942563Y-7210460D01*
X15942563Y-7210460D02*
X15933039Y-7200936D01*
X15933039Y-7200936D02*
X15923515Y-7181888D01*
X15923515Y-7181888D02*
X15923515Y-7124746D01*
X15923515Y-7124746D02*
X15933039Y-7105698D01*
X15933039Y-7105698D02*
X15942563Y-7096174D01*
X15942563Y-7096174D02*
X15961610Y-7086650D01*
X15961610Y-7086650D02*
X15990182Y-7086650D01*
X15990182Y-7086650D02*
X16009230Y-7096174D01*
X16009230Y-7096174D02*
X16018753Y-7105698D01*
X16018753Y-7105698D02*
X16028277Y-7124746D01*
X16028277Y-7124746D02*
X16028277Y-7181888D01*
X16028277Y-7181888D02*
X16018753Y-7200936D01*
X16018753Y-7200936D02*
X16009230Y-7210460D01*
X16009230Y-7210460D02*
X15990182Y-7219984D01*
X15990182Y-7219984D02*
X15961610Y-7219984D01*
X16142563Y-7219984D02*
X16123515Y-7210460D01*
X16123515Y-7210460D02*
X16113991Y-7191412D01*
X16113991Y-7191412D02*
X16113991Y-7019984D01*
X16294944Y-7210460D02*
X16275896Y-7219984D01*
X16275896Y-7219984D02*
X16237801Y-7219984D01*
X16237801Y-7219984D02*
X16218753Y-7210460D01*
X16218753Y-7210460D02*
X16209230Y-7191412D01*
X16209230Y-7191412D02*
X16209230Y-7115222D01*
X16209230Y-7115222D02*
X16218753Y-7096174D01*
X16218753Y-7096174D02*
X16237801Y-7086650D01*
X16237801Y-7086650D02*
X16275896Y-7086650D01*
X16275896Y-7086650D02*
X16294944Y-7096174D01*
X16294944Y-7096174D02*
X16304468Y-7115222D01*
X16304468Y-7115222D02*
X16304468Y-7134269D01*
X16304468Y-7134269D02*
X16209230Y-7153317D01*
X16380658Y-7210460D02*
X16399706Y-7219984D01*
X16399706Y-7219984D02*
X16437801Y-7219984D01*
X16437801Y-7219984D02*
X16456849Y-7210460D01*
X16456849Y-7210460D02*
X16466372Y-7191412D01*
X16466372Y-7191412D02*
X16466372Y-7181888D01*
X16466372Y-7181888D02*
X16456849Y-7162841D01*
X16456849Y-7162841D02*
X16437801Y-7153317D01*
X16437801Y-7153317D02*
X16409230Y-7153317D01*
X16409230Y-7153317D02*
X16390182Y-7143793D01*
X16390182Y-7143793D02*
X16380658Y-7124746D01*
X16380658Y-7124746D02*
X16380658Y-7115222D01*
X16380658Y-7115222D02*
X16390182Y-7096174D01*
X16390182Y-7096174D02*
X16409230Y-7086650D01*
X16409230Y-7086650D02*
X16437801Y-7086650D01*
X16437801Y-7086650D02*
X16456849Y-7096174D01*
X16533039Y-7296174D02*
X16542563Y-7286650D01*
X16542563Y-7286650D02*
X16561611Y-7258079D01*
X16561611Y-7258079D02*
X16571134Y-7239031D01*
X16571134Y-7239031D02*
X16580658Y-7210460D01*
X16580658Y-7210460D02*
X16590182Y-7162841D01*
X16590182Y-7162841D02*
X16590182Y-7124746D01*
X16590182Y-7124746D02*
X16580658Y-7077127D01*
X16580658Y-7077127D02*
X16571134Y-7048555D01*
X16571134Y-7048555D02*
X16561611Y-7029508D01*
X16561611Y-7029508D02*
X16542563Y-7000936D01*
X16542563Y-7000936D02*
X16533039Y-6991412D01*
D12*
X11467500Y-7342500D02*
X11567500Y-7442500D01*
X11567500Y-7342500D02*
X11467500Y-7442500D01*
X11567500Y-7392500D02*
G75*
G02*
X11467500Y-7392500I-50000J0D01*
G01*
X11467500Y-7392500D02*
G75*
G02*
X11567500Y-7392500I50000J0D01*
G01*
D11*
X11933039Y-7483984D02*
X11818753Y-7483984D01*
X11875896Y-7483984D02*
X11875896Y-7283984D01*
X11875896Y-7283984D02*
X11856848Y-7312555D01*
X11856848Y-7312555D02*
X11837801Y-7331603D01*
X11837801Y-7331603D02*
X11818753Y-7341127D01*
X12018753Y-7464936D02*
X12028277Y-7474460D01*
X12028277Y-7474460D02*
X12018753Y-7483984D01*
X12018753Y-7483984D02*
X12009229Y-7474460D01*
X12009229Y-7474460D02*
X12018753Y-7464936D01*
X12018753Y-7464936D02*
X12018753Y-7483984D01*
X12152086Y-7283984D02*
X12171134Y-7283984D01*
X12171134Y-7283984D02*
X12190182Y-7293508D01*
X12190182Y-7293508D02*
X12199705Y-7303031D01*
X12199705Y-7303031D02*
X12209229Y-7322079D01*
X12209229Y-7322079D02*
X12218753Y-7360174D01*
X12218753Y-7360174D02*
X12218753Y-7407793D01*
X12218753Y-7407793D02*
X12209229Y-7445888D01*
X12209229Y-7445888D02*
X12199705Y-7464936D01*
X12199705Y-7464936D02*
X12190182Y-7474460D01*
X12190182Y-7474460D02*
X12171134Y-7483984D01*
X12171134Y-7483984D02*
X12152086Y-7483984D01*
X12152086Y-7483984D02*
X12133039Y-7474460D01*
X12133039Y-7474460D02*
X12123515Y-7464936D01*
X12123515Y-7464936D02*
X12113991Y-7445888D01*
X12113991Y-7445888D02*
X12104467Y-7407793D01*
X12104467Y-7407793D02*
X12104467Y-7360174D01*
X12104467Y-7360174D02*
X12113991Y-7322079D01*
X12113991Y-7322079D02*
X12123515Y-7303031D01*
X12123515Y-7303031D02*
X12133039Y-7293508D01*
X12133039Y-7293508D02*
X12152086Y-7283984D01*
X12342562Y-7283984D02*
X12361610Y-7283984D01*
X12361610Y-7283984D02*
X12380658Y-7293508D01*
X12380658Y-7293508D02*
X12390182Y-7303031D01*
X12390182Y-7303031D02*
X12399705Y-7322079D01*
X12399705Y-7322079D02*
X12409229Y-7360174D01*
X12409229Y-7360174D02*
X12409229Y-7407793D01*
X12409229Y-7407793D02*
X12399705Y-7445888D01*
X12399705Y-7445888D02*
X12390182Y-7464936D01*
X12390182Y-7464936D02*
X12380658Y-7474460D01*
X12380658Y-7474460D02*
X12361610Y-7483984D01*
X12361610Y-7483984D02*
X12342562Y-7483984D01*
X12342562Y-7483984D02*
X12323515Y-7474460D01*
X12323515Y-7474460D02*
X12313991Y-7464936D01*
X12313991Y-7464936D02*
X12304467Y-7445888D01*
X12304467Y-7445888D02*
X12294943Y-7407793D01*
X12294943Y-7407793D02*
X12294943Y-7360174D01*
X12294943Y-7360174D02*
X12304467Y-7322079D01*
X12304467Y-7322079D02*
X12313991Y-7303031D01*
X12313991Y-7303031D02*
X12323515Y-7293508D01*
X12323515Y-7293508D02*
X12342562Y-7283984D01*
X12533039Y-7283984D02*
X12552086Y-7283984D01*
X12552086Y-7283984D02*
X12571134Y-7293508D01*
X12571134Y-7293508D02*
X12580658Y-7303031D01*
X12580658Y-7303031D02*
X12590182Y-7322079D01*
X12590182Y-7322079D02*
X12599705Y-7360174D01*
X12599705Y-7360174D02*
X12599705Y-7407793D01*
X12599705Y-7407793D02*
X12590182Y-7445888D01*
X12590182Y-7445888D02*
X12580658Y-7464936D01*
X12580658Y-7464936D02*
X12571134Y-7474460D01*
X12571134Y-7474460D02*
X12552086Y-7483984D01*
X12552086Y-7483984D02*
X12533039Y-7483984D01*
X12533039Y-7483984D02*
X12513991Y-7474460D01*
X12513991Y-7474460D02*
X12504467Y-7464936D01*
X12504467Y-7464936D02*
X12494943Y-7445888D01*
X12494943Y-7445888D02*
X12485420Y-7407793D01*
X12485420Y-7407793D02*
X12485420Y-7360174D01*
X12485420Y-7360174D02*
X12494943Y-7322079D01*
X12494943Y-7322079D02*
X12504467Y-7303031D01*
X12504467Y-7303031D02*
X12513991Y-7293508D01*
X12513991Y-7293508D02*
X12533039Y-7283984D01*
X12685420Y-7483984D02*
X12685420Y-7350650D01*
X12685420Y-7369698D02*
X12694943Y-7360174D01*
X12694943Y-7360174D02*
X12713991Y-7350650D01*
X12713991Y-7350650D02*
X12742563Y-7350650D01*
X12742563Y-7350650D02*
X12761610Y-7360174D01*
X12761610Y-7360174D02*
X12771134Y-7379222D01*
X12771134Y-7379222D02*
X12771134Y-7483984D01*
X12771134Y-7379222D02*
X12780658Y-7360174D01*
X12780658Y-7360174D02*
X12799705Y-7350650D01*
X12799705Y-7350650D02*
X12828277Y-7350650D01*
X12828277Y-7350650D02*
X12847324Y-7360174D01*
X12847324Y-7360174D02*
X12856848Y-7379222D01*
X12856848Y-7379222D02*
X12856848Y-7483984D01*
X12952086Y-7483984D02*
X12952086Y-7350650D01*
X12952086Y-7369698D02*
X12961610Y-7360174D01*
X12961610Y-7360174D02*
X12980658Y-7350650D01*
X12980658Y-7350650D02*
X13009229Y-7350650D01*
X13009229Y-7350650D02*
X13028277Y-7360174D01*
X13028277Y-7360174D02*
X13037801Y-7379222D01*
X13037801Y-7379222D02*
X13037801Y-7483984D01*
X13037801Y-7379222D02*
X13047324Y-7360174D01*
X13047324Y-7360174D02*
X13066372Y-7350650D01*
X13066372Y-7350650D02*
X13094943Y-7350650D01*
X13094943Y-7350650D02*
X13113991Y-7360174D01*
X13113991Y-7360174D02*
X13123515Y-7379222D01*
X13123515Y-7379222D02*
X13123515Y-7483984D01*
X13513991Y-7274460D02*
X13342563Y-7531603D01*
X13771134Y-7283984D02*
X13790182Y-7283984D01*
X13790182Y-7283984D02*
X13809229Y-7293508D01*
X13809229Y-7293508D02*
X13818753Y-7303031D01*
X13818753Y-7303031D02*
X13828277Y-7322079D01*
X13828277Y-7322079D02*
X13837801Y-7360174D01*
X13837801Y-7360174D02*
X13837801Y-7407793D01*
X13837801Y-7407793D02*
X13828277Y-7445888D01*
X13828277Y-7445888D02*
X13818753Y-7464936D01*
X13818753Y-7464936D02*
X13809229Y-7474460D01*
X13809229Y-7474460D02*
X13790182Y-7483984D01*
X13790182Y-7483984D02*
X13771134Y-7483984D01*
X13771134Y-7483984D02*
X13752086Y-7474460D01*
X13752086Y-7474460D02*
X13742563Y-7464936D01*
X13742563Y-7464936D02*
X13733039Y-7445888D01*
X13733039Y-7445888D02*
X13723515Y-7407793D01*
X13723515Y-7407793D02*
X13723515Y-7360174D01*
X13723515Y-7360174D02*
X13733039Y-7322079D01*
X13733039Y-7322079D02*
X13742563Y-7303031D01*
X13742563Y-7303031D02*
X13752086Y-7293508D01*
X13752086Y-7293508D02*
X13771134Y-7283984D01*
X13923515Y-7464936D02*
X13933039Y-7474460D01*
X13933039Y-7474460D02*
X13923515Y-7483984D01*
X13923515Y-7483984D02*
X13913991Y-7474460D01*
X13913991Y-7474460D02*
X13923515Y-7464936D01*
X13923515Y-7464936D02*
X13923515Y-7483984D01*
X14056848Y-7283984D02*
X14075896Y-7283984D01*
X14075896Y-7283984D02*
X14094944Y-7293508D01*
X14094944Y-7293508D02*
X14104467Y-7303031D01*
X14104467Y-7303031D02*
X14113991Y-7322079D01*
X14113991Y-7322079D02*
X14123515Y-7360174D01*
X14123515Y-7360174D02*
X14123515Y-7407793D01*
X14123515Y-7407793D02*
X14113991Y-7445888D01*
X14113991Y-7445888D02*
X14104467Y-7464936D01*
X14104467Y-7464936D02*
X14094944Y-7474460D01*
X14094944Y-7474460D02*
X14075896Y-7483984D01*
X14075896Y-7483984D02*
X14056848Y-7483984D01*
X14056848Y-7483984D02*
X14037801Y-7474460D01*
X14037801Y-7474460D02*
X14028277Y-7464936D01*
X14028277Y-7464936D02*
X14018753Y-7445888D01*
X14018753Y-7445888D02*
X14009229Y-7407793D01*
X14009229Y-7407793D02*
X14009229Y-7360174D01*
X14009229Y-7360174D02*
X14018753Y-7322079D01*
X14018753Y-7322079D02*
X14028277Y-7303031D01*
X14028277Y-7303031D02*
X14037801Y-7293508D01*
X14037801Y-7293508D02*
X14056848Y-7283984D01*
X14190182Y-7283984D02*
X14313991Y-7283984D01*
X14313991Y-7283984D02*
X14247325Y-7360174D01*
X14247325Y-7360174D02*
X14275896Y-7360174D01*
X14275896Y-7360174D02*
X14294944Y-7369698D01*
X14294944Y-7369698D02*
X14304467Y-7379222D01*
X14304467Y-7379222D02*
X14313991Y-7398269D01*
X14313991Y-7398269D02*
X14313991Y-7445888D01*
X14313991Y-7445888D02*
X14304467Y-7464936D01*
X14304467Y-7464936D02*
X14294944Y-7474460D01*
X14294944Y-7474460D02*
X14275896Y-7483984D01*
X14275896Y-7483984D02*
X14218753Y-7483984D01*
X14218753Y-7483984D02*
X14199706Y-7474460D01*
X14199706Y-7474460D02*
X14190182Y-7464936D01*
X14409229Y-7483984D02*
X14447325Y-7483984D01*
X14447325Y-7483984D02*
X14466372Y-7474460D01*
X14466372Y-7474460D02*
X14475896Y-7464936D01*
X14475896Y-7464936D02*
X14494944Y-7436365D01*
X14494944Y-7436365D02*
X14504467Y-7398269D01*
X14504467Y-7398269D02*
X14504467Y-7322079D01*
X14504467Y-7322079D02*
X14494944Y-7303031D01*
X14494944Y-7303031D02*
X14485420Y-7293508D01*
X14485420Y-7293508D02*
X14466372Y-7283984D01*
X14466372Y-7283984D02*
X14428277Y-7283984D01*
X14428277Y-7283984D02*
X14409229Y-7293508D01*
X14409229Y-7293508D02*
X14399706Y-7303031D01*
X14399706Y-7303031D02*
X14390182Y-7322079D01*
X14390182Y-7322079D02*
X14390182Y-7369698D01*
X14390182Y-7369698D02*
X14399706Y-7388746D01*
X14399706Y-7388746D02*
X14409229Y-7398269D01*
X14409229Y-7398269D02*
X14428277Y-7407793D01*
X14428277Y-7407793D02*
X14466372Y-7407793D01*
X14466372Y-7407793D02*
X14485420Y-7398269D01*
X14485420Y-7398269D02*
X14494944Y-7388746D01*
X14494944Y-7388746D02*
X14504467Y-7369698D01*
X14675896Y-7350650D02*
X14675896Y-7483984D01*
X14628277Y-7274460D02*
X14580658Y-7417317D01*
X14580658Y-7417317D02*
X14704467Y-7417317D01*
X14771134Y-7283984D02*
X14771134Y-7322079D01*
X14847325Y-7283984D02*
X14847325Y-7322079D01*
X15142563Y-7560174D02*
X15133039Y-7550650D01*
X15133039Y-7550650D02*
X15113991Y-7522079D01*
X15113991Y-7522079D02*
X15104468Y-7503031D01*
X15104468Y-7503031D02*
X15094944Y-7474460D01*
X15094944Y-7474460D02*
X15085420Y-7426841D01*
X15085420Y-7426841D02*
X15085420Y-7388746D01*
X15085420Y-7388746D02*
X15094944Y-7341127D01*
X15094944Y-7341127D02*
X15104468Y-7312555D01*
X15104468Y-7312555D02*
X15113991Y-7293508D01*
X15113991Y-7293508D02*
X15133039Y-7264936D01*
X15133039Y-7264936D02*
X15142563Y-7255412D01*
X15199706Y-7283984D02*
X15333039Y-7283984D01*
X15333039Y-7283984D02*
X15247325Y-7483984D01*
X15561610Y-7483984D02*
X15561610Y-7283984D01*
X15647325Y-7483984D02*
X15647325Y-7379222D01*
X15647325Y-7379222D02*
X15637801Y-7360174D01*
X15637801Y-7360174D02*
X15618753Y-7350650D01*
X15618753Y-7350650D02*
X15590182Y-7350650D01*
X15590182Y-7350650D02*
X15571134Y-7360174D01*
X15571134Y-7360174D02*
X15561610Y-7369698D01*
X15771134Y-7483984D02*
X15752087Y-7474460D01*
X15752087Y-7474460D02*
X15742563Y-7464936D01*
X15742563Y-7464936D02*
X15733039Y-7445888D01*
X15733039Y-7445888D02*
X15733039Y-7388746D01*
X15733039Y-7388746D02*
X15742563Y-7369698D01*
X15742563Y-7369698D02*
X15752087Y-7360174D01*
X15752087Y-7360174D02*
X15771134Y-7350650D01*
X15771134Y-7350650D02*
X15799706Y-7350650D01*
X15799706Y-7350650D02*
X15818753Y-7360174D01*
X15818753Y-7360174D02*
X15828277Y-7369698D01*
X15828277Y-7369698D02*
X15837801Y-7388746D01*
X15837801Y-7388746D02*
X15837801Y-7445888D01*
X15837801Y-7445888D02*
X15828277Y-7464936D01*
X15828277Y-7464936D02*
X15818753Y-7474460D01*
X15818753Y-7474460D02*
X15799706Y-7483984D01*
X15799706Y-7483984D02*
X15771134Y-7483984D01*
X15952087Y-7483984D02*
X15933039Y-7474460D01*
X15933039Y-7474460D02*
X15923515Y-7455412D01*
X15923515Y-7455412D02*
X15923515Y-7283984D01*
X16104468Y-7474460D02*
X16085420Y-7483984D01*
X16085420Y-7483984D02*
X16047325Y-7483984D01*
X16047325Y-7483984D02*
X16028277Y-7474460D01*
X16028277Y-7474460D02*
X16018753Y-7455412D01*
X16018753Y-7455412D02*
X16018753Y-7379222D01*
X16018753Y-7379222D02*
X16028277Y-7360174D01*
X16028277Y-7360174D02*
X16047325Y-7350650D01*
X16047325Y-7350650D02*
X16085420Y-7350650D01*
X16085420Y-7350650D02*
X16104468Y-7360174D01*
X16104468Y-7360174D02*
X16113991Y-7379222D01*
X16113991Y-7379222D02*
X16113991Y-7398269D01*
X16113991Y-7398269D02*
X16018753Y-7417317D01*
X16190182Y-7474460D02*
X16209230Y-7483984D01*
X16209230Y-7483984D02*
X16247325Y-7483984D01*
X16247325Y-7483984D02*
X16266372Y-7474460D01*
X16266372Y-7474460D02*
X16275896Y-7455412D01*
X16275896Y-7455412D02*
X16275896Y-7445888D01*
X16275896Y-7445888D02*
X16266372Y-7426841D01*
X16266372Y-7426841D02*
X16247325Y-7417317D01*
X16247325Y-7417317D02*
X16218753Y-7417317D01*
X16218753Y-7417317D02*
X16199706Y-7407793D01*
X16199706Y-7407793D02*
X16190182Y-7388746D01*
X16190182Y-7388746D02*
X16190182Y-7379222D01*
X16190182Y-7379222D02*
X16199706Y-7360174D01*
X16199706Y-7360174D02*
X16218753Y-7350650D01*
X16218753Y-7350650D02*
X16247325Y-7350650D01*
X16247325Y-7350650D02*
X16266372Y-7360174D01*
X16342563Y-7560174D02*
X16352087Y-7550650D01*
X16352087Y-7550650D02*
X16371134Y-7522079D01*
X16371134Y-7522079D02*
X16380658Y-7503031D01*
X16380658Y-7503031D02*
X16390182Y-7474460D01*
X16390182Y-7474460D02*
X16399706Y-7426841D01*
X16399706Y-7426841D02*
X16399706Y-7388746D01*
X16399706Y-7388746D02*
X16390182Y-7341127D01*
X16390182Y-7341127D02*
X16380658Y-7312555D01*
X16380658Y-7312555D02*
X16371134Y-7293508D01*
X16371134Y-7293508D02*
X16352087Y-7264936D01*
X16352087Y-7264936D02*
X16342563Y-7255412D01*
M02*
