G04 #@! TF.GenerationSoftware,KiCad,Pcbnew,8.0.1*
G04 #@! TF.CreationDate,2024-10-15T00:39:43+09:00*
G04 #@! TF.ProjectId,AltBoard2025,416c7442-6f61-4726-9432-3032352e6b69,rev?*
G04 #@! TF.SameCoordinates,Original*
G04 #@! TF.FileFunction,Legend,Top*
G04 #@! TF.FilePolarity,Positive*
%FSLAX46Y46*%
G04 Gerber Fmt 4.6, Leading zero omitted, Abs format (unit mm)*
G04 Created by KiCad (PCBNEW 8.0.1) date 2024-10-15 00:39:43*
%MOMM*%
%LPD*%
G01*
G04 APERTURE LIST*
G04 Aperture macros list*
%AMRoundRect*
0 Rectangle with rounded corners*
0 $1 Rounding radius*
0 $2 $3 $4 $5 $6 $7 $8 $9 X,Y pos of 4 corners*
0 Add a 4 corners polygon primitive as box body*
4,1,4,$2,$3,$4,$5,$6,$7,$8,$9,$2,$3,0*
0 Add four circle primitives for the rounded corners*
1,1,$1+$1,$2,$3*
1,1,$1+$1,$4,$5*
1,1,$1+$1,$6,$7*
1,1,$1+$1,$8,$9*
0 Add four rect primitives between the rounded corners*
20,1,$1+$1,$2,$3,$4,$5,0*
20,1,$1+$1,$4,$5,$6,$7,0*
20,1,$1+$1,$6,$7,$8,$9,0*
20,1,$1+$1,$8,$9,$2,$3,0*%
G04 Aperture macros list end*
%ADD10C,0.150000*%
%ADD11C,0.120000*%
%ADD12C,1.520000*%
%ADD13R,1.520000X1.520000*%
%ADD14C,2.300000*%
%ADD15R,1.700000X1.700000*%
%ADD16O,1.700000X1.700000*%
%ADD17RoundRect,0.225000X0.225000X0.250000X-0.225000X0.250000X-0.225000X-0.250000X0.225000X-0.250000X0*%
%ADD18RoundRect,0.218750X-0.218750X-0.256250X0.218750X-0.256250X0.218750X0.256250X-0.218750X0.256250X0*%
%ADD19RoundRect,0.225000X-0.225000X-0.250000X0.225000X-0.250000X0.225000X0.250000X-0.225000X0.250000X0*%
%ADD20R,1.500000X2.300000*%
%ADD21O,1.500000X2.300000*%
%ADD22R,1.050000X0.650000*%
%ADD23RoundRect,0.200000X0.200000X0.275000X-0.200000X0.275000X-0.200000X-0.275000X0.200000X-0.275000X0*%
%ADD24RoundRect,0.200000X-0.200000X-0.275000X0.200000X-0.275000X0.200000X0.275000X-0.200000X0.275000X0*%
%ADD25C,1.524000*%
%ADD26C,0.700000*%
%ADD27C,0.600000*%
%ADD28C,0.500000*%
G04 APERTURE END LIST*
D10*
X135627255Y-35782057D02*
X135327255Y-35353485D01*
X135112969Y-35782057D02*
X135112969Y-34882057D01*
X135112969Y-34882057D02*
X135455826Y-34882057D01*
X135455826Y-34882057D02*
X135541541Y-34924914D01*
X135541541Y-34924914D02*
X135584398Y-34967771D01*
X135584398Y-34967771D02*
X135627255Y-35053485D01*
X135627255Y-35053485D02*
X135627255Y-35182057D01*
X135627255Y-35182057D02*
X135584398Y-35267771D01*
X135584398Y-35267771D02*
X135541541Y-35310628D01*
X135541541Y-35310628D02*
X135455826Y-35353485D01*
X135455826Y-35353485D02*
X135112969Y-35353485D01*
X135970112Y-35739200D02*
X136098684Y-35782057D01*
X136098684Y-35782057D02*
X136312969Y-35782057D01*
X136312969Y-35782057D02*
X136398684Y-35739200D01*
X136398684Y-35739200D02*
X136441541Y-35696342D01*
X136441541Y-35696342D02*
X136484398Y-35610628D01*
X136484398Y-35610628D02*
X136484398Y-35524914D01*
X136484398Y-35524914D02*
X136441541Y-35439200D01*
X136441541Y-35439200D02*
X136398684Y-35396342D01*
X136398684Y-35396342D02*
X136312969Y-35353485D01*
X136312969Y-35353485D02*
X136141541Y-35310628D01*
X136141541Y-35310628D02*
X136055826Y-35267771D01*
X136055826Y-35267771D02*
X136012969Y-35224914D01*
X136012969Y-35224914D02*
X135970112Y-35139200D01*
X135970112Y-35139200D02*
X135970112Y-35053485D01*
X135970112Y-35053485D02*
X136012969Y-34967771D01*
X136012969Y-34967771D02*
X136055826Y-34924914D01*
X136055826Y-34924914D02*
X136141541Y-34882057D01*
X136141541Y-34882057D02*
X136355826Y-34882057D01*
X136355826Y-34882057D02*
X136484398Y-34924914D01*
X136741541Y-34882057D02*
X137255827Y-34882057D01*
X136998684Y-35782057D02*
X136998684Y-34882057D01*
X132312969Y-24312728D02*
X132612969Y-24312728D01*
X132741541Y-24784157D02*
X132312969Y-24784157D01*
X132312969Y-24784157D02*
X132312969Y-23884157D01*
X132312969Y-23884157D02*
X132741541Y-23884157D01*
X133641541Y-24784157D02*
X133341541Y-24355585D01*
X133127255Y-24784157D02*
X133127255Y-23884157D01*
X133127255Y-23884157D02*
X133470112Y-23884157D01*
X133470112Y-23884157D02*
X133555827Y-23927014D01*
X133555827Y-23927014D02*
X133598684Y-23969871D01*
X133598684Y-23969871D02*
X133641541Y-24055585D01*
X133641541Y-24055585D02*
X133641541Y-24184157D01*
X133641541Y-24184157D02*
X133598684Y-24269871D01*
X133598684Y-24269871D02*
X133555827Y-24312728D01*
X133555827Y-24312728D02*
X133470112Y-24355585D01*
X133470112Y-24355585D02*
X133127255Y-24355585D01*
X134541541Y-24784157D02*
X134241541Y-24355585D01*
X134027255Y-24784157D02*
X134027255Y-23884157D01*
X134027255Y-23884157D02*
X134370112Y-23884157D01*
X134370112Y-23884157D02*
X134455827Y-23927014D01*
X134455827Y-23927014D02*
X134498684Y-23969871D01*
X134498684Y-23969871D02*
X134541541Y-24055585D01*
X134541541Y-24055585D02*
X134541541Y-24184157D01*
X134541541Y-24184157D02*
X134498684Y-24269871D01*
X134498684Y-24269871D02*
X134455827Y-24312728D01*
X134455827Y-24312728D02*
X134370112Y-24355585D01*
X134370112Y-24355585D02*
X134027255Y-24355585D01*
X132827255Y-26147392D02*
X132784398Y-26190250D01*
X132784398Y-26190250D02*
X132655826Y-26233107D01*
X132655826Y-26233107D02*
X132570112Y-26233107D01*
X132570112Y-26233107D02*
X132441541Y-26190250D01*
X132441541Y-26190250D02*
X132355826Y-26104535D01*
X132355826Y-26104535D02*
X132312969Y-26018821D01*
X132312969Y-26018821D02*
X132270112Y-25847392D01*
X132270112Y-25847392D02*
X132270112Y-25718821D01*
X132270112Y-25718821D02*
X132312969Y-25547392D01*
X132312969Y-25547392D02*
X132355826Y-25461678D01*
X132355826Y-25461678D02*
X132441541Y-25375964D01*
X132441541Y-25375964D02*
X132570112Y-25333107D01*
X132570112Y-25333107D02*
X132655826Y-25333107D01*
X132655826Y-25333107D02*
X132784398Y-25375964D01*
X132784398Y-25375964D02*
X132827255Y-25418821D01*
X133170112Y-25975964D02*
X133598684Y-25975964D01*
X133084398Y-26233107D02*
X133384398Y-25333107D01*
X133384398Y-25333107D02*
X133684398Y-26233107D01*
X133984398Y-26233107D02*
X133984398Y-25333107D01*
X133984398Y-25333107D02*
X134498684Y-26233107D01*
X134498684Y-26233107D02*
X134498684Y-25333107D01*
X132312969Y-27682057D02*
X132312969Y-26782057D01*
X132312969Y-26782057D02*
X132655826Y-26782057D01*
X132655826Y-26782057D02*
X132741541Y-26824914D01*
X132741541Y-26824914D02*
X132784398Y-26867771D01*
X132784398Y-26867771D02*
X132827255Y-26953485D01*
X132827255Y-26953485D02*
X132827255Y-27082057D01*
X132827255Y-27082057D02*
X132784398Y-27167771D01*
X132784398Y-27167771D02*
X132741541Y-27210628D01*
X132741541Y-27210628D02*
X132655826Y-27253485D01*
X132655826Y-27253485D02*
X132312969Y-27253485D01*
X133127255Y-26782057D02*
X133341541Y-27682057D01*
X133341541Y-27682057D02*
X133512969Y-27039200D01*
X133512969Y-27039200D02*
X133684398Y-27682057D01*
X133684398Y-27682057D02*
X133898684Y-26782057D01*
X134755826Y-27682057D02*
X134455826Y-27253485D01*
X134241540Y-27682057D02*
X134241540Y-26782057D01*
X134241540Y-26782057D02*
X134584397Y-26782057D01*
X134584397Y-26782057D02*
X134670112Y-26824914D01*
X134670112Y-26824914D02*
X134712969Y-26867771D01*
X134712969Y-26867771D02*
X134755826Y-26953485D01*
X134755826Y-26953485D02*
X134755826Y-27082057D01*
X134755826Y-27082057D02*
X134712969Y-27167771D01*
X134712969Y-27167771D02*
X134670112Y-27210628D01*
X134670112Y-27210628D02*
X134584397Y-27253485D01*
X134584397Y-27253485D02*
X134241540Y-27253485D01*
X129769819Y-26148333D02*
X130484104Y-26148333D01*
X130484104Y-26148333D02*
X130626961Y-26195952D01*
X130626961Y-26195952D02*
X130722200Y-26291190D01*
X130722200Y-26291190D02*
X130769819Y-26434047D01*
X130769819Y-26434047D02*
X130769819Y-26529285D01*
X130769819Y-25148333D02*
X130769819Y-25719761D01*
X130769819Y-25434047D02*
X129769819Y-25434047D01*
X129769819Y-25434047D02*
X129912676Y-25529285D01*
X129912676Y-25529285D02*
X130007914Y-25624523D01*
X130007914Y-25624523D02*
X130055533Y-25719761D01*
X144966666Y-24254819D02*
X144966666Y-24969104D01*
X144966666Y-24969104D02*
X144919047Y-25111961D01*
X144919047Y-25111961D02*
X144823809Y-25207200D01*
X144823809Y-25207200D02*
X144680952Y-25254819D01*
X144680952Y-25254819D02*
X144585714Y-25254819D01*
X145347619Y-24254819D02*
X145966666Y-24254819D01*
X145966666Y-24254819D02*
X145633333Y-24635771D01*
X145633333Y-24635771D02*
X145776190Y-24635771D01*
X145776190Y-24635771D02*
X145871428Y-24683390D01*
X145871428Y-24683390D02*
X145919047Y-24731009D01*
X145919047Y-24731009D02*
X145966666Y-24826247D01*
X145966666Y-24826247D02*
X145966666Y-25064342D01*
X145966666Y-25064342D02*
X145919047Y-25159580D01*
X145919047Y-25159580D02*
X145871428Y-25207200D01*
X145871428Y-25207200D02*
X145776190Y-25254819D01*
X145776190Y-25254819D02*
X145490476Y-25254819D01*
X145490476Y-25254819D02*
X145395238Y-25207200D01*
X145395238Y-25207200D02*
X145347619Y-25159580D01*
D11*
X130466667Y-31487664D02*
X130428571Y-31525760D01*
X130428571Y-31525760D02*
X130314286Y-31563855D01*
X130314286Y-31563855D02*
X130238095Y-31563855D01*
X130238095Y-31563855D02*
X130123809Y-31525760D01*
X130123809Y-31525760D02*
X130047619Y-31449569D01*
X130047619Y-31449569D02*
X130009524Y-31373379D01*
X130009524Y-31373379D02*
X129971428Y-31220998D01*
X129971428Y-31220998D02*
X129971428Y-31106712D01*
X129971428Y-31106712D02*
X130009524Y-30954331D01*
X130009524Y-30954331D02*
X130047619Y-30878140D01*
X130047619Y-30878140D02*
X130123809Y-30801950D01*
X130123809Y-30801950D02*
X130238095Y-30763855D01*
X130238095Y-30763855D02*
X130314286Y-30763855D01*
X130314286Y-30763855D02*
X130428571Y-30801950D01*
X130428571Y-30801950D02*
X130466667Y-30840045D01*
X131152381Y-30763855D02*
X131000000Y-30763855D01*
X131000000Y-30763855D02*
X130923809Y-30801950D01*
X130923809Y-30801950D02*
X130885714Y-30840045D01*
X130885714Y-30840045D02*
X130809524Y-30954331D01*
X130809524Y-30954331D02*
X130771428Y-31106712D01*
X130771428Y-31106712D02*
X130771428Y-31411474D01*
X130771428Y-31411474D02*
X130809524Y-31487664D01*
X130809524Y-31487664D02*
X130847619Y-31525760D01*
X130847619Y-31525760D02*
X130923809Y-31563855D01*
X130923809Y-31563855D02*
X131076190Y-31563855D01*
X131076190Y-31563855D02*
X131152381Y-31525760D01*
X131152381Y-31525760D02*
X131190476Y-31487664D01*
X131190476Y-31487664D02*
X131228571Y-31411474D01*
X131228571Y-31411474D02*
X131228571Y-31220998D01*
X131228571Y-31220998D02*
X131190476Y-31144807D01*
X131190476Y-31144807D02*
X131152381Y-31106712D01*
X131152381Y-31106712D02*
X131076190Y-31068617D01*
X131076190Y-31068617D02*
X130923809Y-31068617D01*
X130923809Y-31068617D02*
X130847619Y-31106712D01*
X130847619Y-31106712D02*
X130809524Y-31144807D01*
X130809524Y-31144807D02*
X130771428Y-31220998D01*
X139409524Y-25263855D02*
X139409524Y-24463855D01*
X139409524Y-24463855D02*
X139600000Y-24463855D01*
X139600000Y-24463855D02*
X139714286Y-24501950D01*
X139714286Y-24501950D02*
X139790476Y-24578140D01*
X139790476Y-24578140D02*
X139828571Y-24654331D01*
X139828571Y-24654331D02*
X139866667Y-24806712D01*
X139866667Y-24806712D02*
X139866667Y-24920998D01*
X139866667Y-24920998D02*
X139828571Y-25073379D01*
X139828571Y-25073379D02*
X139790476Y-25149569D01*
X139790476Y-25149569D02*
X139714286Y-25225760D01*
X139714286Y-25225760D02*
X139600000Y-25263855D01*
X139600000Y-25263855D02*
X139409524Y-25263855D01*
X140133333Y-24463855D02*
X140628571Y-24463855D01*
X140628571Y-24463855D02*
X140361905Y-24768617D01*
X140361905Y-24768617D02*
X140476190Y-24768617D01*
X140476190Y-24768617D02*
X140552381Y-24806712D01*
X140552381Y-24806712D02*
X140590476Y-24844807D01*
X140590476Y-24844807D02*
X140628571Y-24920998D01*
X140628571Y-24920998D02*
X140628571Y-25111474D01*
X140628571Y-25111474D02*
X140590476Y-25187664D01*
X140590476Y-25187664D02*
X140552381Y-25225760D01*
X140552381Y-25225760D02*
X140476190Y-25263855D01*
X140476190Y-25263855D02*
X140247619Y-25263855D01*
X140247619Y-25263855D02*
X140171428Y-25225760D01*
X140171428Y-25225760D02*
X140133333Y-25187664D01*
D10*
X139233333Y-40959580D02*
X139185714Y-41007200D01*
X139185714Y-41007200D02*
X139042857Y-41054819D01*
X139042857Y-41054819D02*
X138947619Y-41054819D01*
X138947619Y-41054819D02*
X138804762Y-41007200D01*
X138804762Y-41007200D02*
X138709524Y-40911961D01*
X138709524Y-40911961D02*
X138661905Y-40816723D01*
X138661905Y-40816723D02*
X138614286Y-40626247D01*
X138614286Y-40626247D02*
X138614286Y-40483390D01*
X138614286Y-40483390D02*
X138661905Y-40292914D01*
X138661905Y-40292914D02*
X138709524Y-40197676D01*
X138709524Y-40197676D02*
X138804762Y-40102438D01*
X138804762Y-40102438D02*
X138947619Y-40054819D01*
X138947619Y-40054819D02*
X139042857Y-40054819D01*
X139042857Y-40054819D02*
X139185714Y-40102438D01*
X139185714Y-40102438D02*
X139233333Y-40150057D01*
X139566667Y-40054819D02*
X140185714Y-40054819D01*
X140185714Y-40054819D02*
X139852381Y-40435771D01*
X139852381Y-40435771D02*
X139995238Y-40435771D01*
X139995238Y-40435771D02*
X140090476Y-40483390D01*
X140090476Y-40483390D02*
X140138095Y-40531009D01*
X140138095Y-40531009D02*
X140185714Y-40626247D01*
X140185714Y-40626247D02*
X140185714Y-40864342D01*
X140185714Y-40864342D02*
X140138095Y-40959580D01*
X140138095Y-40959580D02*
X140090476Y-41007200D01*
X140090476Y-41007200D02*
X139995238Y-41054819D01*
X139995238Y-41054819D02*
X139709524Y-41054819D01*
X139709524Y-41054819D02*
X139614286Y-41007200D01*
X139614286Y-41007200D02*
X139566667Y-40959580D01*
X130238095Y-45954819D02*
X130238095Y-46764342D01*
X130238095Y-46764342D02*
X130285714Y-46859580D01*
X130285714Y-46859580D02*
X130333333Y-46907200D01*
X130333333Y-46907200D02*
X130428571Y-46954819D01*
X130428571Y-46954819D02*
X130619047Y-46954819D01*
X130619047Y-46954819D02*
X130714285Y-46907200D01*
X130714285Y-46907200D02*
X130761904Y-46859580D01*
X130761904Y-46859580D02*
X130809523Y-46764342D01*
X130809523Y-46764342D02*
X130809523Y-45954819D01*
X131190476Y-45954819D02*
X131809523Y-45954819D01*
X131809523Y-45954819D02*
X131476190Y-46335771D01*
X131476190Y-46335771D02*
X131619047Y-46335771D01*
X131619047Y-46335771D02*
X131714285Y-46383390D01*
X131714285Y-46383390D02*
X131761904Y-46431009D01*
X131761904Y-46431009D02*
X131809523Y-46526247D01*
X131809523Y-46526247D02*
X131809523Y-46764342D01*
X131809523Y-46764342D02*
X131761904Y-46859580D01*
X131761904Y-46859580D02*
X131714285Y-46907200D01*
X131714285Y-46907200D02*
X131619047Y-46954819D01*
X131619047Y-46954819D02*
X131333333Y-46954819D01*
X131333333Y-46954819D02*
X131238095Y-46907200D01*
X131238095Y-46907200D02*
X131190476Y-46859580D01*
X134766667Y-38307200D02*
X134909524Y-38354819D01*
X134909524Y-38354819D02*
X135147619Y-38354819D01*
X135147619Y-38354819D02*
X135242857Y-38307200D01*
X135242857Y-38307200D02*
X135290476Y-38259580D01*
X135290476Y-38259580D02*
X135338095Y-38164342D01*
X135338095Y-38164342D02*
X135338095Y-38069104D01*
X135338095Y-38069104D02*
X135290476Y-37973866D01*
X135290476Y-37973866D02*
X135242857Y-37926247D01*
X135242857Y-37926247D02*
X135147619Y-37878628D01*
X135147619Y-37878628D02*
X134957143Y-37831009D01*
X134957143Y-37831009D02*
X134861905Y-37783390D01*
X134861905Y-37783390D02*
X134814286Y-37735771D01*
X134814286Y-37735771D02*
X134766667Y-37640533D01*
X134766667Y-37640533D02*
X134766667Y-37545295D01*
X134766667Y-37545295D02*
X134814286Y-37450057D01*
X134814286Y-37450057D02*
X134861905Y-37402438D01*
X134861905Y-37402438D02*
X134957143Y-37354819D01*
X134957143Y-37354819D02*
X135195238Y-37354819D01*
X135195238Y-37354819D02*
X135338095Y-37402438D01*
X135671429Y-37354819D02*
X135909524Y-38354819D01*
X135909524Y-38354819D02*
X136100000Y-37640533D01*
X136100000Y-37640533D02*
X136290476Y-38354819D01*
X136290476Y-38354819D02*
X136528572Y-37354819D01*
X137433333Y-38354819D02*
X136861905Y-38354819D01*
X137147619Y-38354819D02*
X137147619Y-37354819D01*
X137147619Y-37354819D02*
X137052381Y-37497676D01*
X137052381Y-37497676D02*
X136957143Y-37592914D01*
X136957143Y-37592914D02*
X136861905Y-37640533D01*
X139233333Y-44659580D02*
X139185714Y-44707200D01*
X139185714Y-44707200D02*
X139042857Y-44754819D01*
X139042857Y-44754819D02*
X138947619Y-44754819D01*
X138947619Y-44754819D02*
X138804762Y-44707200D01*
X138804762Y-44707200D02*
X138709524Y-44611961D01*
X138709524Y-44611961D02*
X138661905Y-44516723D01*
X138661905Y-44516723D02*
X138614286Y-44326247D01*
X138614286Y-44326247D02*
X138614286Y-44183390D01*
X138614286Y-44183390D02*
X138661905Y-43992914D01*
X138661905Y-43992914D02*
X138709524Y-43897676D01*
X138709524Y-43897676D02*
X138804762Y-43802438D01*
X138804762Y-43802438D02*
X138947619Y-43754819D01*
X138947619Y-43754819D02*
X139042857Y-43754819D01*
X139042857Y-43754819D02*
X139185714Y-43802438D01*
X139185714Y-43802438D02*
X139233333Y-43850057D01*
X139614286Y-43850057D02*
X139661905Y-43802438D01*
X139661905Y-43802438D02*
X139757143Y-43754819D01*
X139757143Y-43754819D02*
X139995238Y-43754819D01*
X139995238Y-43754819D02*
X140090476Y-43802438D01*
X140090476Y-43802438D02*
X140138095Y-43850057D01*
X140138095Y-43850057D02*
X140185714Y-43945295D01*
X140185714Y-43945295D02*
X140185714Y-44040533D01*
X140185714Y-44040533D02*
X140138095Y-44183390D01*
X140138095Y-44183390D02*
X139566667Y-44754819D01*
X139566667Y-44754819D02*
X140185714Y-44754819D01*
D11*
X139409524Y-24163855D02*
X139409524Y-23363855D01*
X139409524Y-23363855D02*
X139600000Y-23363855D01*
X139600000Y-23363855D02*
X139714286Y-23401950D01*
X139714286Y-23401950D02*
X139790476Y-23478140D01*
X139790476Y-23478140D02*
X139828571Y-23554331D01*
X139828571Y-23554331D02*
X139866667Y-23706712D01*
X139866667Y-23706712D02*
X139866667Y-23820998D01*
X139866667Y-23820998D02*
X139828571Y-23973379D01*
X139828571Y-23973379D02*
X139790476Y-24049569D01*
X139790476Y-24049569D02*
X139714286Y-24125760D01*
X139714286Y-24125760D02*
X139600000Y-24163855D01*
X139600000Y-24163855D02*
X139409524Y-24163855D01*
X140552381Y-23630521D02*
X140552381Y-24163855D01*
X140361905Y-23325760D02*
X140171428Y-23897188D01*
X140171428Y-23897188D02*
X140666667Y-23897188D01*
X130466667Y-30187664D02*
X130428571Y-30225760D01*
X130428571Y-30225760D02*
X130314286Y-30263855D01*
X130314286Y-30263855D02*
X130238095Y-30263855D01*
X130238095Y-30263855D02*
X130123809Y-30225760D01*
X130123809Y-30225760D02*
X130047619Y-30149569D01*
X130047619Y-30149569D02*
X130009524Y-30073379D01*
X130009524Y-30073379D02*
X129971428Y-29920998D01*
X129971428Y-29920998D02*
X129971428Y-29806712D01*
X129971428Y-29806712D02*
X130009524Y-29654331D01*
X130009524Y-29654331D02*
X130047619Y-29578140D01*
X130047619Y-29578140D02*
X130123809Y-29501950D01*
X130123809Y-29501950D02*
X130238095Y-29463855D01*
X130238095Y-29463855D02*
X130314286Y-29463855D01*
X130314286Y-29463855D02*
X130428571Y-29501950D01*
X130428571Y-29501950D02*
X130466667Y-29540045D01*
X131190476Y-29463855D02*
X130809524Y-29463855D01*
X130809524Y-29463855D02*
X130771428Y-29844807D01*
X130771428Y-29844807D02*
X130809524Y-29806712D01*
X130809524Y-29806712D02*
X130885714Y-29768617D01*
X130885714Y-29768617D02*
X131076190Y-29768617D01*
X131076190Y-29768617D02*
X131152381Y-29806712D01*
X131152381Y-29806712D02*
X131190476Y-29844807D01*
X131190476Y-29844807D02*
X131228571Y-29920998D01*
X131228571Y-29920998D02*
X131228571Y-30111474D01*
X131228571Y-30111474D02*
X131190476Y-30187664D01*
X131190476Y-30187664D02*
X131152381Y-30225760D01*
X131152381Y-30225760D02*
X131076190Y-30263855D01*
X131076190Y-30263855D02*
X130885714Y-30263855D01*
X130885714Y-30263855D02*
X130809524Y-30225760D01*
X130809524Y-30225760D02*
X130771428Y-30187664D01*
D10*
X129954819Y-41773333D02*
X130669104Y-41773333D01*
X130669104Y-41773333D02*
X130811961Y-41820952D01*
X130811961Y-41820952D02*
X130907200Y-41916190D01*
X130907200Y-41916190D02*
X130954819Y-42059047D01*
X130954819Y-42059047D02*
X130954819Y-42154285D01*
X130050057Y-41344761D02*
X130002438Y-41297142D01*
X130002438Y-41297142D02*
X129954819Y-41201904D01*
X129954819Y-41201904D02*
X129954819Y-40963809D01*
X129954819Y-40963809D02*
X130002438Y-40868571D01*
X130002438Y-40868571D02*
X130050057Y-40820952D01*
X130050057Y-40820952D02*
X130145295Y-40773333D01*
X130145295Y-40773333D02*
X130240533Y-40773333D01*
X130240533Y-40773333D02*
X130383390Y-40820952D01*
X130383390Y-40820952D02*
X130954819Y-41392380D01*
X130954819Y-41392380D02*
X130954819Y-40773333D01*
D11*
X136466667Y-31363855D02*
X136200000Y-30982902D01*
X136009524Y-31363855D02*
X136009524Y-30563855D01*
X136009524Y-30563855D02*
X136314286Y-30563855D01*
X136314286Y-30563855D02*
X136390476Y-30601950D01*
X136390476Y-30601950D02*
X136428571Y-30640045D01*
X136428571Y-30640045D02*
X136466667Y-30716236D01*
X136466667Y-30716236D02*
X136466667Y-30830521D01*
X136466667Y-30830521D02*
X136428571Y-30906712D01*
X136428571Y-30906712D02*
X136390476Y-30944807D01*
X136390476Y-30944807D02*
X136314286Y-30982902D01*
X136314286Y-30982902D02*
X136009524Y-30982902D01*
X137190476Y-30563855D02*
X136809524Y-30563855D01*
X136809524Y-30563855D02*
X136771428Y-30944807D01*
X136771428Y-30944807D02*
X136809524Y-30906712D01*
X136809524Y-30906712D02*
X136885714Y-30868617D01*
X136885714Y-30868617D02*
X137076190Y-30868617D01*
X137076190Y-30868617D02*
X137152381Y-30906712D01*
X137152381Y-30906712D02*
X137190476Y-30944807D01*
X137190476Y-30944807D02*
X137228571Y-31020998D01*
X137228571Y-31020998D02*
X137228571Y-31211474D01*
X137228571Y-31211474D02*
X137190476Y-31287664D01*
X137190476Y-31287664D02*
X137152381Y-31325760D01*
X137152381Y-31325760D02*
X137076190Y-31363855D01*
X137076190Y-31363855D02*
X136885714Y-31363855D01*
X136885714Y-31363855D02*
X136809524Y-31325760D01*
X136809524Y-31325760D02*
X136771428Y-31287664D01*
X136766667Y-24163855D02*
X136500000Y-23782902D01*
X136309524Y-24163855D02*
X136309524Y-23363855D01*
X136309524Y-23363855D02*
X136614286Y-23363855D01*
X136614286Y-23363855D02*
X136690476Y-23401950D01*
X136690476Y-23401950D02*
X136728571Y-23440045D01*
X136728571Y-23440045D02*
X136766667Y-23516236D01*
X136766667Y-23516236D02*
X136766667Y-23630521D01*
X136766667Y-23630521D02*
X136728571Y-23706712D01*
X136728571Y-23706712D02*
X136690476Y-23744807D01*
X136690476Y-23744807D02*
X136614286Y-23782902D01*
X136614286Y-23782902D02*
X136309524Y-23782902D01*
X137452381Y-23630521D02*
X137452381Y-24163855D01*
X137261905Y-23325760D02*
X137071428Y-23897188D01*
X137071428Y-23897188D02*
X137566667Y-23897188D01*
D10*
X144633333Y-41554819D02*
X144300000Y-41078628D01*
X144061905Y-41554819D02*
X144061905Y-40554819D01*
X144061905Y-40554819D02*
X144442857Y-40554819D01*
X144442857Y-40554819D02*
X144538095Y-40602438D01*
X144538095Y-40602438D02*
X144585714Y-40650057D01*
X144585714Y-40650057D02*
X144633333Y-40745295D01*
X144633333Y-40745295D02*
X144633333Y-40888152D01*
X144633333Y-40888152D02*
X144585714Y-40983390D01*
X144585714Y-40983390D02*
X144538095Y-41031009D01*
X144538095Y-41031009D02*
X144442857Y-41078628D01*
X144442857Y-41078628D02*
X144061905Y-41078628D01*
X145014286Y-40650057D02*
X145061905Y-40602438D01*
X145061905Y-40602438D02*
X145157143Y-40554819D01*
X145157143Y-40554819D02*
X145395238Y-40554819D01*
X145395238Y-40554819D02*
X145490476Y-40602438D01*
X145490476Y-40602438D02*
X145538095Y-40650057D01*
X145538095Y-40650057D02*
X145585714Y-40745295D01*
X145585714Y-40745295D02*
X145585714Y-40840533D01*
X145585714Y-40840533D02*
X145538095Y-40983390D01*
X145538095Y-40983390D02*
X144966667Y-41554819D01*
X144966667Y-41554819D02*
X145585714Y-41554819D01*
D11*
X139609524Y-31363855D02*
X139609524Y-30563855D01*
X139609524Y-30563855D02*
X139800000Y-30563855D01*
X139800000Y-30563855D02*
X139914286Y-30601950D01*
X139914286Y-30601950D02*
X139990476Y-30678140D01*
X139990476Y-30678140D02*
X140028571Y-30754331D01*
X140028571Y-30754331D02*
X140066667Y-30906712D01*
X140066667Y-30906712D02*
X140066667Y-31020998D01*
X140066667Y-31020998D02*
X140028571Y-31173379D01*
X140028571Y-31173379D02*
X139990476Y-31249569D01*
X139990476Y-31249569D02*
X139914286Y-31325760D01*
X139914286Y-31325760D02*
X139800000Y-31363855D01*
X139800000Y-31363855D02*
X139609524Y-31363855D01*
X140790476Y-30563855D02*
X140409524Y-30563855D01*
X140409524Y-30563855D02*
X140371428Y-30944807D01*
X140371428Y-30944807D02*
X140409524Y-30906712D01*
X140409524Y-30906712D02*
X140485714Y-30868617D01*
X140485714Y-30868617D02*
X140676190Y-30868617D01*
X140676190Y-30868617D02*
X140752381Y-30906712D01*
X140752381Y-30906712D02*
X140790476Y-30944807D01*
X140790476Y-30944807D02*
X140828571Y-31020998D01*
X140828571Y-31020998D02*
X140828571Y-31211474D01*
X140828571Y-31211474D02*
X140790476Y-31287664D01*
X140790476Y-31287664D02*
X140752381Y-31325760D01*
X140752381Y-31325760D02*
X140676190Y-31363855D01*
X140676190Y-31363855D02*
X140485714Y-31363855D01*
X140485714Y-31363855D02*
X140409524Y-31325760D01*
X140409524Y-31325760D02*
X140371428Y-31287664D01*
X136766667Y-25263855D02*
X136500000Y-24882902D01*
X136309524Y-25263855D02*
X136309524Y-24463855D01*
X136309524Y-24463855D02*
X136614286Y-24463855D01*
X136614286Y-24463855D02*
X136690476Y-24501950D01*
X136690476Y-24501950D02*
X136728571Y-24540045D01*
X136728571Y-24540045D02*
X136766667Y-24616236D01*
X136766667Y-24616236D02*
X136766667Y-24730521D01*
X136766667Y-24730521D02*
X136728571Y-24806712D01*
X136728571Y-24806712D02*
X136690476Y-24844807D01*
X136690476Y-24844807D02*
X136614286Y-24882902D01*
X136614286Y-24882902D02*
X136309524Y-24882902D01*
X137033333Y-24463855D02*
X137528571Y-24463855D01*
X137528571Y-24463855D02*
X137261905Y-24768617D01*
X137261905Y-24768617D02*
X137376190Y-24768617D01*
X137376190Y-24768617D02*
X137452381Y-24806712D01*
X137452381Y-24806712D02*
X137490476Y-24844807D01*
X137490476Y-24844807D02*
X137528571Y-24920998D01*
X137528571Y-24920998D02*
X137528571Y-25111474D01*
X137528571Y-25111474D02*
X137490476Y-25187664D01*
X137490476Y-25187664D02*
X137452381Y-25225760D01*
X137452381Y-25225760D02*
X137376190Y-25263855D01*
X137376190Y-25263855D02*
X137147619Y-25263855D01*
X137147619Y-25263855D02*
X137071428Y-25225760D01*
X137071428Y-25225760D02*
X137033333Y-25187664D01*
D10*
X144633333Y-39354819D02*
X144300000Y-38878628D01*
X144061905Y-39354819D02*
X144061905Y-38354819D01*
X144061905Y-38354819D02*
X144442857Y-38354819D01*
X144442857Y-38354819D02*
X144538095Y-38402438D01*
X144538095Y-38402438D02*
X144585714Y-38450057D01*
X144585714Y-38450057D02*
X144633333Y-38545295D01*
X144633333Y-38545295D02*
X144633333Y-38688152D01*
X144633333Y-38688152D02*
X144585714Y-38783390D01*
X144585714Y-38783390D02*
X144538095Y-38831009D01*
X144538095Y-38831009D02*
X144442857Y-38878628D01*
X144442857Y-38878628D02*
X144061905Y-38878628D01*
X145490476Y-38354819D02*
X145300000Y-38354819D01*
X145300000Y-38354819D02*
X145204762Y-38402438D01*
X145204762Y-38402438D02*
X145157143Y-38450057D01*
X145157143Y-38450057D02*
X145061905Y-38592914D01*
X145061905Y-38592914D02*
X145014286Y-38783390D01*
X145014286Y-38783390D02*
X145014286Y-39164342D01*
X145014286Y-39164342D02*
X145061905Y-39259580D01*
X145061905Y-39259580D02*
X145109524Y-39307200D01*
X145109524Y-39307200D02*
X145204762Y-39354819D01*
X145204762Y-39354819D02*
X145395238Y-39354819D01*
X145395238Y-39354819D02*
X145490476Y-39307200D01*
X145490476Y-39307200D02*
X145538095Y-39259580D01*
X145538095Y-39259580D02*
X145585714Y-39164342D01*
X145585714Y-39164342D02*
X145585714Y-38926247D01*
X145585714Y-38926247D02*
X145538095Y-38831009D01*
X145538095Y-38831009D02*
X145490476Y-38783390D01*
X145490476Y-38783390D02*
X145395238Y-38735771D01*
X145395238Y-38735771D02*
X145204762Y-38735771D01*
X145204762Y-38735771D02*
X145109524Y-38783390D01*
X145109524Y-38783390D02*
X145061905Y-38831009D01*
X145061905Y-38831009D02*
X145014286Y-38926247D01*
X139233333Y-42759580D02*
X139185714Y-42807200D01*
X139185714Y-42807200D02*
X139042857Y-42854819D01*
X139042857Y-42854819D02*
X138947619Y-42854819D01*
X138947619Y-42854819D02*
X138804762Y-42807200D01*
X138804762Y-42807200D02*
X138709524Y-42711961D01*
X138709524Y-42711961D02*
X138661905Y-42616723D01*
X138661905Y-42616723D02*
X138614286Y-42426247D01*
X138614286Y-42426247D02*
X138614286Y-42283390D01*
X138614286Y-42283390D02*
X138661905Y-42092914D01*
X138661905Y-42092914D02*
X138709524Y-41997676D01*
X138709524Y-41997676D02*
X138804762Y-41902438D01*
X138804762Y-41902438D02*
X138947619Y-41854819D01*
X138947619Y-41854819D02*
X139042857Y-41854819D01*
X139042857Y-41854819D02*
X139185714Y-41902438D01*
X139185714Y-41902438D02*
X139233333Y-41950057D01*
X140090476Y-42188152D02*
X140090476Y-42854819D01*
X139852381Y-41807200D02*
X139614286Y-42521485D01*
X139614286Y-42521485D02*
X140233333Y-42521485D01*
D11*
X129410000Y-36460000D02*
X123670000Y-36460000D01*
X129410000Y-24040000D02*
X129410000Y-36460000D01*
X129410000Y-24040000D02*
X123670000Y-24040000D01*
X127640000Y-37120000D02*
X127140000Y-36620000D01*
X127640000Y-37120000D02*
X126640000Y-37120000D01*
X127140000Y-36620000D02*
X126640000Y-37120000D01*
X120920000Y-36460000D02*
X116190000Y-36460000D01*
X120920000Y-24040000D02*
X116190000Y-24040000D01*
X116190000Y-24040000D02*
X116190000Y-36460000D01*
X143070000Y-28630000D02*
X143070000Y-36310000D01*
X143070000Y-28630000D02*
X145730000Y-28630000D01*
X143070000Y-36310000D02*
X145730000Y-36310000D01*
X144400000Y-26030000D02*
X145730000Y-26030000D01*
X145730000Y-26030000D02*
X145730000Y-27360000D01*
X145730000Y-28630000D02*
X145730000Y-36310000D01*
X132965580Y-30390000D02*
X132684420Y-30390000D01*
X132965580Y-31410000D02*
X132684420Y-31410000D01*
X138102500Y-27165000D02*
X138102500Y-28635000D01*
X138102500Y-28635000D02*
X140387500Y-28635000D01*
X140387500Y-27165000D02*
X138102500Y-27165000D01*
X136784420Y-40090000D02*
X137065580Y-40090000D01*
X136784420Y-41110000D02*
X137065580Y-41110000D01*
X132197000Y-54052500D02*
X132197000Y-45432500D01*
X143918000Y-45432500D02*
X132197000Y-45432500D01*
X143918000Y-54052500D02*
X132197000Y-54052500D01*
X143918000Y-54052500D02*
X143918000Y-45432500D01*
X144158000Y-45192500D02*
X142918000Y-45192500D01*
X144158000Y-46432500D02*
X144158000Y-45192500D01*
X133900000Y-36200000D02*
X133900000Y-36320000D01*
X133900000Y-37330000D02*
X133900000Y-38470000D01*
X133900000Y-39480000D02*
X133900000Y-39600000D01*
X133900000Y-39600000D02*
X138300000Y-39600000D01*
X138300000Y-36200000D02*
X133900000Y-36200000D01*
X138300000Y-36320000D02*
X138300000Y-36200000D01*
X138300000Y-38470000D02*
X138300000Y-37330000D01*
X138300000Y-39600000D02*
X138300000Y-39480000D01*
X137015580Y-43790000D02*
X136734420Y-43790000D01*
X137015580Y-44810000D02*
X136734420Y-44810000D01*
X138115000Y-25465000D02*
X138115000Y-26935000D01*
X138115000Y-26935000D02*
X140400000Y-26935000D01*
X140400000Y-25465000D02*
X138115000Y-25465000D01*
X132684420Y-28790000D02*
X132965580Y-28790000D01*
X132684420Y-29810000D02*
X132965580Y-29810000D01*
X116190000Y-39690000D02*
X116190000Y-52110000D01*
X120920000Y-39690000D02*
X116190000Y-39690000D01*
X120920000Y-52110000D02*
X116190000Y-52110000D01*
X127140000Y-52270000D02*
X126640000Y-52770000D01*
X127640000Y-52770000D02*
X126640000Y-52770000D01*
X127640000Y-52770000D02*
X127140000Y-52270000D01*
X129410000Y-39690000D02*
X123670000Y-39690000D01*
X129410000Y-39690000D02*
X129410000Y-52110000D01*
X129410000Y-52110000D02*
X123670000Y-52110000D01*
X136612258Y-29097500D02*
X136137742Y-29097500D01*
X136612258Y-30142500D02*
X136137742Y-30142500D01*
X136612258Y-26732500D02*
X136137742Y-26732500D01*
X136612258Y-25687500D02*
X136137742Y-25687500D01*
X142037742Y-40377500D02*
X142512258Y-40377500D01*
X142037742Y-41422500D02*
X142512258Y-41422500D01*
X138115000Y-28865000D02*
X138115000Y-30335000D01*
X138115000Y-30335000D02*
X140400000Y-30335000D01*
X140400000Y-28865000D02*
X138115000Y-28865000D01*
X136599758Y-27377500D02*
X136125242Y-27377500D01*
X136599758Y-28422500D02*
X136125242Y-28422500D01*
X142062742Y-38677500D02*
X142537258Y-38677500D01*
X142062742Y-39722500D02*
X142537258Y-39722500D01*
X136734420Y-41890000D02*
X137015580Y-41890000D01*
X136734420Y-42910000D02*
X137015580Y-42910000D01*
%LPC*%
D12*
X124600000Y-27700000D03*
X127140000Y-28720000D03*
X124600000Y-29740000D03*
X127140000Y-30760000D03*
X124600000Y-31780000D03*
D13*
X127140000Y-32800000D03*
D14*
X122300000Y-36250000D03*
X122300000Y-24250000D03*
D15*
X144400000Y-27360000D03*
D16*
X144400000Y-29900000D03*
X144400000Y-32440000D03*
X144400000Y-34980000D03*
D17*
X133600000Y-30900000D03*
X132050000Y-30900000D03*
D18*
X138800000Y-27900000D03*
X140375000Y-27900000D03*
D19*
X136150000Y-40600000D03*
X137700000Y-40600000D03*
D20*
X140547000Y-47492500D03*
D21*
X138007000Y-47492500D03*
X135467000Y-47492500D03*
D22*
X138175000Y-38975000D03*
X134025000Y-38975000D03*
X138175000Y-36825000D03*
X134025000Y-36825000D03*
D17*
X137650000Y-44300000D03*
X136100000Y-44300000D03*
D18*
X138812500Y-26200000D03*
X140387500Y-26200000D03*
D19*
X132050000Y-29300000D03*
X133600000Y-29300000D03*
D14*
X122300000Y-39900000D03*
X122300000Y-51900000D03*
D13*
X127140000Y-48450000D03*
D12*
X124600000Y-47430000D03*
X127140000Y-46410000D03*
X124600000Y-45390000D03*
X127140000Y-44370000D03*
X124600000Y-43350000D03*
D23*
X137200000Y-29620000D03*
X135550000Y-29620000D03*
X135550000Y-26210000D03*
X137200000Y-26210000D03*
D24*
X141450000Y-40900000D03*
X143100000Y-40900000D03*
D18*
X138812500Y-29600000D03*
X140387500Y-29600000D03*
D23*
X137187500Y-27900000D03*
X135537500Y-27900000D03*
D24*
X141475000Y-39200000D03*
X143125000Y-39200000D03*
D19*
X136100000Y-42400000D03*
X137650000Y-42400000D03*
D25*
X137420000Y-21100000D03*
X134880000Y-21100000D03*
X132340000Y-21100000D03*
X129800000Y-21100000D03*
X127260000Y-21100000D03*
X124720000Y-21100000D03*
X122180000Y-21100000D03*
X119640000Y-21100000D03*
X117100000Y-21100000D03*
D26*
X127500000Y-24200000D03*
D27*
X125700000Y-28700000D03*
D26*
X138000000Y-25200000D03*
D27*
X118000000Y-29400000D03*
X132400000Y-32400000D03*
D26*
X125800000Y-35700000D03*
D27*
X128400000Y-37200000D03*
D26*
X120400000Y-51500000D03*
D27*
X131900000Y-44600000D03*
D26*
X123900000Y-48800000D03*
X123500000Y-46400000D03*
X136400000Y-36400000D03*
X128500000Y-53200000D03*
X135895014Y-34302493D03*
X118500000Y-43400000D03*
X142404947Y-41742746D03*
X120100000Y-23300000D03*
X136500000Y-37800000D03*
D27*
X140100000Y-45000000D03*
D26*
X145300000Y-22500000D03*
X126000000Y-45300000D03*
X143600000Y-51600000D03*
X131651460Y-38778216D03*
X125200000Y-51200000D03*
X118500000Y-25900000D03*
X135200000Y-50500000D03*
X123500000Y-20100000D03*
D27*
X131100000Y-49100000D03*
D26*
X145300000Y-36900000D03*
X118100000Y-32000000D03*
X133900000Y-28100000D03*
X123100000Y-32600000D03*
X129100000Y-40900000D03*
X122900000Y-28700000D03*
X143200000Y-46100000D03*
X121300000Y-30300000D03*
D27*
X135000000Y-45400000D03*
D26*
X128800000Y-28000000D03*
X125600000Y-41500000D03*
X143900000Y-25200000D03*
X137700000Y-30800000D03*
X135600000Y-30800000D03*
X132100000Y-40400000D03*
X139200000Y-20500000D03*
D27*
X135500000Y-25200000D03*
D26*
X128500000Y-20100000D03*
X135100000Y-52600000D03*
X141200000Y-22600000D03*
X117200000Y-50000000D03*
X143900000Y-43800000D03*
D27*
X135400000Y-39700000D03*
D26*
X129900000Y-35600000D03*
X138930331Y-39869669D03*
X139100000Y-30800000D03*
X138800000Y-35200000D03*
X138350000Y-43600000D03*
X139469425Y-42485354D03*
X137980025Y-33880025D03*
X136700000Y-33900000D03*
D27*
X142700000Y-26400000D03*
D26*
X129800000Y-44300000D03*
X122500000Y-42700000D03*
D27*
X140400000Y-33200000D03*
X140600000Y-31600000D03*
X129700000Y-33600000D03*
X142400000Y-30000000D03*
X142300000Y-33900000D03*
D26*
X144500000Y-39900000D03*
X131200000Y-24700000D03*
X130200000Y-29000000D03*
D27*
X142200000Y-29200000D03*
D28*
X143231672Y-31400000D03*
D26*
X130100000Y-22800000D03*
X132900000Y-22600000D03*
%LPD*%
M02*
