G04 #@! TF.GenerationSoftware,KiCad,Pcbnew,8.0.1*
G04 #@! TF.CreationDate,2024-10-15T00:39:43+09:00*
G04 #@! TF.ProjectId,AltBoard2025,416c7442-6f61-4726-9432-3032352e6b69,rev?*
G04 #@! TF.SameCoordinates,Original*
G04 #@! TF.FileFunction,Copper,L1,Top*
G04 #@! TF.FilePolarity,Positive*
%FSLAX46Y46*%
G04 Gerber Fmt 4.6, Leading zero omitted, Abs format (unit mm)*
G04 Created by KiCad (PCBNEW 8.0.1) date 2024-10-15 00:39:43*
%MOMM*%
%LPD*%
G01*
G04 APERTURE LIST*
G04 Aperture macros list*
%AMRoundRect*
0 Rectangle with rounded corners*
0 $1 Rounding radius*
0 $2 $3 $4 $5 $6 $7 $8 $9 X,Y pos of 4 corners*
0 Add a 4 corners polygon primitive as box body*
4,1,4,$2,$3,$4,$5,$6,$7,$8,$9,$2,$3,0*
0 Add four circle primitives for the rounded corners*
1,1,$1+$1,$2,$3*
1,1,$1+$1,$4,$5*
1,1,$1+$1,$6,$7*
1,1,$1+$1,$8,$9*
0 Add four rect primitives between the rounded corners*
20,1,$1+$1,$2,$3,$4,$5,0*
20,1,$1+$1,$4,$5,$6,$7,0*
20,1,$1+$1,$6,$7,$8,$9,0*
20,1,$1+$1,$8,$9,$2,$3,0*%
G04 Aperture macros list end*
G04 #@! TA.AperFunction,ComponentPad*
%ADD10C,1.520000*%
G04 #@! TD*
G04 #@! TA.AperFunction,ComponentPad*
%ADD11R,1.520000X1.520000*%
G04 #@! TD*
G04 #@! TA.AperFunction,ComponentPad*
%ADD12R,1.700000X1.700000*%
G04 #@! TD*
G04 #@! TA.AperFunction,ComponentPad*
%ADD13O,1.700000X1.700000*%
G04 #@! TD*
G04 #@! TA.AperFunction,SMDPad,CuDef*
%ADD14RoundRect,0.225000X0.225000X0.250000X-0.225000X0.250000X-0.225000X-0.250000X0.225000X-0.250000X0*%
G04 #@! TD*
G04 #@! TA.AperFunction,SMDPad,CuDef*
%ADD15RoundRect,0.218750X-0.218750X-0.256250X0.218750X-0.256250X0.218750X0.256250X-0.218750X0.256250X0*%
G04 #@! TD*
G04 #@! TA.AperFunction,SMDPad,CuDef*
%ADD16RoundRect,0.225000X-0.225000X-0.250000X0.225000X-0.250000X0.225000X0.250000X-0.225000X0.250000X0*%
G04 #@! TD*
G04 #@! TA.AperFunction,ComponentPad*
%ADD17R,1.500000X2.300000*%
G04 #@! TD*
G04 #@! TA.AperFunction,ComponentPad*
%ADD18O,1.500000X2.300000*%
G04 #@! TD*
G04 #@! TA.AperFunction,SMDPad,CuDef*
%ADD19R,1.050000X0.650000*%
G04 #@! TD*
G04 #@! TA.AperFunction,SMDPad,CuDef*
%ADD20RoundRect,0.200000X0.200000X0.275000X-0.200000X0.275000X-0.200000X-0.275000X0.200000X-0.275000X0*%
G04 #@! TD*
G04 #@! TA.AperFunction,SMDPad,CuDef*
%ADD21RoundRect,0.200000X-0.200000X-0.275000X0.200000X-0.275000X0.200000X0.275000X-0.200000X0.275000X0*%
G04 #@! TD*
G04 #@! TA.AperFunction,ComponentPad*
%ADD22C,1.524000*%
G04 #@! TD*
G04 #@! TA.AperFunction,ViaPad*
%ADD23C,0.700000*%
G04 #@! TD*
G04 #@! TA.AperFunction,ViaPad*
%ADD24C,0.600000*%
G04 #@! TD*
G04 #@! TA.AperFunction,ViaPad*
%ADD25C,0.500000*%
G04 #@! TD*
G04 #@! TA.AperFunction,Conductor*
%ADD26C,0.400000*%
G04 #@! TD*
G04 #@! TA.AperFunction,Conductor*
%ADD27C,0.200000*%
G04 #@! TD*
G04 #@! TA.AperFunction,Conductor*
%ADD28C,0.300000*%
G04 #@! TD*
G04 #@! TA.AperFunction,Conductor*
%ADD29C,0.700000*%
G04 #@! TD*
G04 APERTURE END LIST*
D10*
X124600000Y-27700000D03*
X127140000Y-28720000D03*
X124600000Y-29740000D03*
X127140000Y-30760000D03*
X124600000Y-31780000D03*
D11*
X127140000Y-32800000D03*
D12*
X144400000Y-27360000D03*
D13*
X144400000Y-29900000D03*
X144400000Y-32440000D03*
X144400000Y-34980000D03*
D14*
X133600000Y-30900000D03*
X132050000Y-30900000D03*
D15*
X138800000Y-27900000D03*
X140375000Y-27900000D03*
D16*
X136150000Y-40600000D03*
X137700000Y-40600000D03*
D17*
X140547000Y-47492500D03*
D18*
X138007000Y-47492500D03*
X135467000Y-47492500D03*
D19*
X138175000Y-38975000D03*
X134025000Y-38975000D03*
X138175000Y-36825000D03*
X134025000Y-36825000D03*
D14*
X137650000Y-44300000D03*
X136100000Y-44300000D03*
D15*
X138812500Y-26200000D03*
X140387500Y-26200000D03*
D16*
X132050000Y-29300000D03*
X133600000Y-29300000D03*
D11*
X127140000Y-48450000D03*
D10*
X124600000Y-47430000D03*
X127140000Y-46410000D03*
X124600000Y-45390000D03*
X127140000Y-44370000D03*
X124600000Y-43350000D03*
D20*
X137200000Y-29620000D03*
X135550000Y-29620000D03*
X135550000Y-26210000D03*
X137200000Y-26210000D03*
D21*
X141450000Y-40900000D03*
X143100000Y-40900000D03*
D15*
X138812500Y-29600000D03*
X140387500Y-29600000D03*
D20*
X137187500Y-27900000D03*
X135537500Y-27900000D03*
D21*
X141475000Y-39200000D03*
X143125000Y-39200000D03*
D16*
X136100000Y-42400000D03*
X137650000Y-42400000D03*
D22*
X137420000Y-21100000D03*
X134880000Y-21100000D03*
X132340000Y-21100000D03*
X129800000Y-21100000D03*
X127260000Y-21100000D03*
X124720000Y-21100000D03*
X122180000Y-21100000D03*
X119640000Y-21100000D03*
X117100000Y-21100000D03*
D23*
X127500000Y-24200000D03*
D24*
X125700000Y-28700000D03*
D23*
X138000000Y-25200000D03*
D24*
X118000000Y-29400000D03*
X132400000Y-32400000D03*
D23*
X125800000Y-35700000D03*
D24*
X128400000Y-37200000D03*
D23*
X120400000Y-51500000D03*
D24*
X131900000Y-44600000D03*
D23*
X123900000Y-48800000D03*
X123500000Y-46400000D03*
X136400000Y-36400000D03*
X128500000Y-53200000D03*
X135895014Y-34302493D03*
X118500000Y-43400000D03*
X142404947Y-41742746D03*
X120100000Y-23300000D03*
X136500000Y-37800000D03*
D24*
X140100000Y-45000000D03*
D23*
X145300000Y-22500000D03*
X126000000Y-45300000D03*
X143600000Y-51600000D03*
X131651460Y-38778216D03*
X125200000Y-51200000D03*
X118500000Y-25900000D03*
X135200000Y-50500000D03*
X123500000Y-20100000D03*
D24*
X131100000Y-49100000D03*
D23*
X145300000Y-36900000D03*
X118100000Y-32000000D03*
X133900000Y-28100000D03*
X123100000Y-32600000D03*
X129100000Y-40900000D03*
X122900000Y-28700000D03*
X143200000Y-46100000D03*
X121300000Y-30300000D03*
D24*
X135000000Y-45400000D03*
D23*
X128800000Y-28000000D03*
X125600000Y-41500000D03*
X143900000Y-25200000D03*
X137700000Y-30800000D03*
X135600000Y-30800000D03*
X132100000Y-40400000D03*
X139200000Y-20500000D03*
D24*
X135500000Y-25200000D03*
D23*
X128500000Y-20100000D03*
X135100000Y-52600000D03*
X141200000Y-22600000D03*
X117200000Y-50000000D03*
X143900000Y-43800000D03*
D24*
X135400000Y-39700000D03*
D23*
X129900000Y-35600000D03*
X138930331Y-39869669D03*
X139100000Y-30800000D03*
X138800000Y-35200000D03*
X138350000Y-43600000D03*
X139469425Y-42485354D03*
X137980025Y-33880025D03*
X136700000Y-33900000D03*
D24*
X142700000Y-26400000D03*
D23*
X129800000Y-44300000D03*
X122500000Y-42700000D03*
D24*
X140400000Y-33200000D03*
X140600000Y-31600000D03*
X129700000Y-33600000D03*
X142400000Y-30000000D03*
X142300000Y-33900000D03*
D23*
X144500000Y-39900000D03*
X131200000Y-24700000D03*
X130200000Y-29000000D03*
D24*
X142200000Y-29200000D03*
D25*
X143231672Y-31400000D03*
D23*
X130100000Y-22800000D03*
X132900000Y-22600000D03*
D26*
X131651460Y-39951460D02*
X132100000Y-40400000D01*
X131651460Y-38778216D02*
X131651460Y-39951460D01*
D27*
X136150000Y-42350000D02*
X136100000Y-42400000D01*
D26*
X142404947Y-41742746D02*
X142404947Y-41804947D01*
X136300000Y-35000000D02*
X136300000Y-36300000D01*
X142404947Y-41804947D02*
X143900000Y-43300000D01*
X136300000Y-36300000D02*
X136400000Y-36400000D01*
X135895014Y-34302493D02*
X135895014Y-34595014D01*
X135895014Y-34595014D02*
X136300000Y-35000000D01*
X136150000Y-40600000D02*
X136150000Y-42350000D01*
X143900000Y-43300000D02*
X143900000Y-43800000D01*
X136100000Y-42400000D02*
X136100000Y-44300000D01*
X120000000Y-47200000D02*
X120000000Y-28339339D01*
X135467000Y-46483000D02*
X137650000Y-44300000D01*
X138930331Y-41946260D02*
X139469425Y-42485354D01*
X135700000Y-22820000D02*
X135700000Y-23000000D01*
X132509500Y-50450000D02*
X124550000Y-50450000D01*
X140800000Y-43600000D02*
X141450000Y-42950000D01*
X134700000Y-24000000D02*
X132050000Y-26650000D01*
X138800000Y-35200000D02*
X138800000Y-34700000D01*
X138800000Y-34700000D02*
X137980025Y-33880025D01*
X140387500Y-29600000D02*
X140300000Y-29600000D01*
X124500000Y-50500000D02*
X123300000Y-50500000D01*
X128369512Y-25850000D02*
X130269512Y-23950000D01*
X130269512Y-23950000D02*
X134650000Y-23950000D01*
X134650000Y-23950000D02*
X134700000Y-24000000D01*
X137700000Y-42350000D02*
X137650000Y-42400000D01*
X141475000Y-39200000D02*
X141475000Y-40875000D01*
X137650000Y-44300000D02*
X138350000Y-43600000D01*
X137700000Y-40600000D02*
X137700000Y-42350000D01*
X138930331Y-39869669D02*
X138930331Y-41946260D01*
X138350000Y-43600000D02*
X140800000Y-43600000D01*
X135467000Y-47492500D02*
X135467000Y-46483000D01*
X141450000Y-42950000D02*
X141450000Y-40900000D01*
X122489339Y-25850000D02*
X128369512Y-25850000D01*
X135467000Y-47492500D02*
X132509500Y-50450000D01*
X141475000Y-40875000D02*
X141450000Y-40900000D01*
X132050000Y-26650000D02*
X132050000Y-29300000D01*
X120000000Y-28339339D02*
X122489339Y-25850000D01*
X124550000Y-50450000D02*
X124500000Y-50500000D01*
X137420000Y-21100000D02*
X135700000Y-22820000D01*
X135700000Y-23000000D02*
X134700000Y-24000000D01*
X140300000Y-29600000D02*
X139100000Y-30800000D01*
X137650000Y-42400000D02*
X137650000Y-44300000D01*
X123300000Y-50500000D02*
X120000000Y-47200000D01*
D28*
X130600000Y-31600000D02*
X131300000Y-30900000D01*
X136402493Y-33602493D02*
X135397507Y-33602493D01*
X131700000Y-34000000D02*
X130600000Y-32900000D01*
X131300000Y-30900000D02*
X132050000Y-30900000D01*
X136700000Y-33900000D02*
X136402493Y-33602493D01*
X135000000Y-34000000D02*
X131700000Y-34000000D01*
X135397507Y-33602493D02*
X135000000Y-34000000D01*
X130600000Y-32900000D02*
X130600000Y-31600000D01*
D29*
X128450000Y-33950000D02*
X127140000Y-35260000D01*
X127140000Y-35260000D02*
X127140000Y-44370000D01*
X128450000Y-30030000D02*
X128450000Y-33950000D01*
X127140000Y-28720000D02*
X128450000Y-30030000D01*
D27*
X144710000Y-28510000D02*
X140985000Y-28510000D01*
X145600000Y-29400000D02*
X144710000Y-28510000D01*
X140985000Y-28510000D02*
X140375000Y-27900000D01*
D28*
X144400000Y-31825000D02*
X144400000Y-32440000D01*
D27*
X144400000Y-32440000D02*
X145600000Y-31240000D01*
X145600000Y-31240000D02*
X145600000Y-29400000D01*
D26*
X137187500Y-27900000D02*
X138800000Y-27900000D01*
X138802500Y-26210000D02*
X138812500Y-26200000D01*
X137200000Y-26210000D02*
X138802500Y-26210000D01*
D28*
X142500000Y-26600000D02*
X140787500Y-26600000D01*
X142700000Y-26400000D02*
X142500000Y-26600000D01*
X140787500Y-26600000D02*
X140387500Y-26200000D01*
D26*
X138792500Y-29620000D02*
X138812500Y-29600000D01*
X137200000Y-29620000D02*
X138792500Y-29620000D01*
X127900000Y-45300000D02*
X127900000Y-45650000D01*
X120700000Y-44500000D02*
X122500000Y-42700000D01*
X129800000Y-44300000D02*
X128900000Y-44300000D01*
X126065198Y-46410000D02*
X125800000Y-46675198D01*
X123500000Y-49800000D02*
X120700000Y-47000000D01*
X127140000Y-46410000D02*
X126065198Y-46410000D01*
X125300000Y-49800000D02*
X123500000Y-49800000D01*
X125800000Y-46675198D02*
X125800000Y-49300000D01*
X120700000Y-47000000D02*
X120700000Y-44500000D01*
X127900000Y-45650000D02*
X127140000Y-46410000D01*
X128900000Y-44300000D02*
X127900000Y-45300000D01*
X125800000Y-49300000D02*
X125300000Y-49800000D01*
D28*
X140400000Y-31800000D02*
X140600000Y-31600000D01*
X140400000Y-33200000D02*
X140400000Y-31800000D01*
X132600000Y-36500000D02*
X132600000Y-37550000D01*
X132600000Y-37550000D02*
X134025000Y-38975000D01*
X138175000Y-38975000D02*
X139625000Y-38975000D01*
X143000000Y-39200000D02*
X143125000Y-39200000D01*
X134025000Y-38975000D02*
X138175000Y-38975000D01*
D26*
X144400000Y-38400000D02*
X144400000Y-34980000D01*
D28*
X139625000Y-38975000D02*
X140600000Y-38000000D01*
X141800000Y-38000000D02*
X143000000Y-39200000D01*
X129700000Y-33600000D02*
X132600000Y-36500000D01*
D26*
X143600000Y-39200000D02*
X144400000Y-38400000D01*
D28*
X140600000Y-38000000D02*
X141800000Y-38000000D01*
D26*
X143125000Y-39200000D02*
X143600000Y-39200000D01*
D28*
X142300000Y-33900000D02*
X142400000Y-33800000D01*
X142400000Y-33800000D02*
X142400000Y-30000000D01*
X144500000Y-39900000D02*
X143500000Y-40900000D01*
X143500000Y-40900000D02*
X143100000Y-40900000D01*
D26*
X131200000Y-24700000D02*
X130600000Y-24700000D01*
X130200000Y-25100000D02*
X130200000Y-25400000D01*
X130200000Y-25400000D02*
X130200000Y-29000000D01*
X130600000Y-24700000D02*
X130200000Y-25100000D01*
D27*
X142500000Y-29200000D02*
X143000000Y-29700000D01*
X143000000Y-29700000D02*
X143000000Y-30700000D01*
X143000000Y-31168328D02*
X143231672Y-31400000D01*
X143000000Y-30700000D02*
X143000000Y-31168328D01*
X142200000Y-29200000D02*
X142500000Y-29200000D01*
D26*
X132700000Y-22800000D02*
X132900000Y-22600000D01*
X130100000Y-22800000D02*
X132700000Y-22800000D01*
G04 #@! TA.AperFunction,Conductor*
G36*
X145658691Y-19319407D02*
G01*
X145694655Y-19368907D01*
X145699500Y-19399500D01*
X145699500Y-26154101D01*
X145680593Y-26212292D01*
X145631093Y-26248256D01*
X145569907Y-26248256D01*
X145530498Y-26224106D01*
X145488342Y-26181950D01*
X145375304Y-26124354D01*
X145375305Y-26124354D01*
X145281521Y-26109500D01*
X143518478Y-26109500D01*
X143518476Y-26109501D01*
X143427959Y-26123836D01*
X143367527Y-26114264D01*
X143329156Y-26076352D01*
X143328220Y-26076999D01*
X143296188Y-26030593D01*
X143228183Y-25932071D01*
X143187101Y-25895676D01*
X143100853Y-25819267D01*
X143100852Y-25819266D01*
X142950225Y-25740210D01*
X142950224Y-25740209D01*
X142950223Y-25740209D01*
X142785058Y-25699500D01*
X142785056Y-25699500D01*
X142614944Y-25699500D01*
X142614941Y-25699500D01*
X142449776Y-25740209D01*
X142299146Y-25819267D01*
X142171818Y-25932069D01*
X142171816Y-25932072D01*
X142120277Y-26006739D01*
X142071660Y-26043888D01*
X142038802Y-26049500D01*
X141324499Y-26049500D01*
X141266308Y-26030593D01*
X141230344Y-25981093D01*
X141225499Y-25950500D01*
X141225499Y-25881218D01*
X141225499Y-25881214D01*
X141222737Y-25846108D01*
X141179087Y-25695861D01*
X141141564Y-25632414D01*
X141099445Y-25561194D01*
X141099444Y-25561193D01*
X141099443Y-25561191D01*
X140988809Y-25450557D01*
X140988806Y-25450555D01*
X140988805Y-25450554D01*
X140854141Y-25370914D01*
X140854140Y-25370913D01*
X140854139Y-25370913D01*
X140777800Y-25348735D01*
X140703890Y-25327262D01*
X140681390Y-25325492D01*
X140668787Y-25324500D01*
X140668781Y-25324500D01*
X140106218Y-25324500D01*
X140071108Y-25327263D01*
X140071100Y-25327264D01*
X139920858Y-25370914D01*
X139920857Y-25370914D01*
X139786194Y-25450554D01*
X139786191Y-25450556D01*
X139786191Y-25450557D01*
X139675557Y-25561191D01*
X139675555Y-25561193D01*
X139671153Y-25565596D01*
X139669345Y-25563788D01*
X139627611Y-25592145D01*
X139566456Y-25590217D01*
X139530412Y-25564030D01*
X139528847Y-25565596D01*
X139524444Y-25561193D01*
X139524443Y-25561191D01*
X139413809Y-25450557D01*
X139413806Y-25450555D01*
X139413805Y-25450554D01*
X139279141Y-25370914D01*
X139279140Y-25370913D01*
X139279139Y-25370913D01*
X139202800Y-25348735D01*
X139128890Y-25327262D01*
X139106390Y-25325492D01*
X139093787Y-25324500D01*
X139093781Y-25324500D01*
X138531218Y-25324500D01*
X138496108Y-25327263D01*
X138496100Y-25327264D01*
X138345858Y-25370914D01*
X138345857Y-25370914D01*
X138211194Y-25450554D01*
X138100553Y-25561195D01*
X138096739Y-25566113D01*
X138095714Y-25565317D01*
X138054842Y-25601355D01*
X138015519Y-25609500D01*
X137955970Y-25609500D01*
X137897779Y-25590593D01*
X137877428Y-25570767D01*
X137870082Y-25561194D01*
X137828282Y-25506718D01*
X137828277Y-25506714D01*
X137828276Y-25506713D01*
X137751526Y-25447821D01*
X137702841Y-25410464D01*
X137702840Y-25410463D01*
X137702838Y-25410462D01*
X137556766Y-25349957D01*
X137556758Y-25349955D01*
X137439361Y-25334500D01*
X136960642Y-25334500D01*
X136960637Y-25334501D01*
X136843241Y-25349955D01*
X136843233Y-25349957D01*
X136697161Y-25410462D01*
X136697160Y-25410462D01*
X136571723Y-25506713D01*
X136571713Y-25506723D01*
X136475463Y-25632160D01*
X136466193Y-25654540D01*
X136426456Y-25701066D01*
X136366961Y-25715349D01*
X136310433Y-25691934D01*
X136283265Y-25654540D01*
X136274099Y-25632412D01*
X136274098Y-25632410D01*
X136177929Y-25507080D01*
X136177919Y-25507070D01*
X136052589Y-25410901D01*
X136052585Y-25410899D01*
X135906631Y-25350444D01*
X135906630Y-25350443D01*
X135789323Y-25335000D01*
X135750001Y-25335000D01*
X135750000Y-25335001D01*
X135750000Y-27074493D01*
X135737500Y-27112964D01*
X135737500Y-28717879D01*
X135748781Y-28740020D01*
X135750000Y-28755507D01*
X135750000Y-30494998D01*
X135750001Y-30494999D01*
X135789320Y-30494999D01*
X135789324Y-30494998D01*
X135906629Y-30479556D01*
X135906631Y-30479555D01*
X136052585Y-30419100D01*
X136052589Y-30419098D01*
X136177919Y-30322929D01*
X136177929Y-30322919D01*
X136274098Y-30197589D01*
X136274100Y-30197585D01*
X136283265Y-30175460D01*
X136323001Y-30128934D01*
X136382495Y-30114650D01*
X136439024Y-30138064D01*
X136466193Y-30175460D01*
X136475462Y-30197838D01*
X136475462Y-30197839D01*
X136571439Y-30322919D01*
X136571718Y-30323282D01*
X136697159Y-30419536D01*
X136697160Y-30419536D01*
X136697161Y-30419537D01*
X136825595Y-30472736D01*
X136843238Y-30480044D01*
X136960639Y-30495500D01*
X137439360Y-30495499D01*
X137556762Y-30480044D01*
X137702841Y-30419536D01*
X137828282Y-30323282D01*
X137877428Y-30259232D01*
X137927852Y-30224577D01*
X137955970Y-30220500D01*
X138041241Y-30220500D01*
X138099432Y-30239407D01*
X138111238Y-30249490D01*
X138211191Y-30349443D01*
X138211193Y-30349444D01*
X138211194Y-30349445D01*
X138349588Y-30431292D01*
X138390051Y-30477188D01*
X138395809Y-30538102D01*
X138392638Y-30549202D01*
X138363687Y-30631939D01*
X138363685Y-30631946D01*
X138344751Y-30799995D01*
X138344751Y-30800004D01*
X138363685Y-30968053D01*
X138363688Y-30968065D01*
X138419544Y-31127690D01*
X138419544Y-31127691D01*
X138509520Y-31270886D01*
X138509523Y-31270890D01*
X138629110Y-31390477D01*
X138772310Y-31480456D01*
X138820033Y-31497155D01*
X138931934Y-31536311D01*
X138931938Y-31536312D01*
X138931941Y-31536313D01*
X138931942Y-31536313D01*
X138931946Y-31536314D01*
X139099996Y-31555249D01*
X139100000Y-31555249D01*
X139100004Y-31555249D01*
X139268053Y-31536314D01*
X139268055Y-31536313D01*
X139268059Y-31536313D01*
X139427690Y-31480456D01*
X139570890Y-31390477D01*
X139690477Y-31270890D01*
X139780456Y-31127690D01*
X139836313Y-30968059D01*
X139839435Y-30940342D01*
X139864739Y-30884636D01*
X139867810Y-30881424D01*
X140244740Y-30504495D01*
X140299256Y-30476718D01*
X140314743Y-30475499D01*
X140668781Y-30475499D01*
X140668786Y-30475499D01*
X140703892Y-30472737D01*
X140854139Y-30429087D01*
X140988809Y-30349443D01*
X141099443Y-30238809D01*
X141179087Y-30104139D01*
X141222737Y-29953892D01*
X141225500Y-29918787D01*
X141225499Y-29281214D01*
X141222737Y-29246108D01*
X141205963Y-29188369D01*
X141191074Y-29137120D01*
X141192996Y-29075965D01*
X141230497Y-29027619D01*
X141286143Y-29010500D01*
X141405617Y-29010500D01*
X141463808Y-29029407D01*
X141499772Y-29078907D01*
X141503894Y-29121432D01*
X141494355Y-29200000D01*
X141514860Y-29368872D01*
X141575182Y-29527930D01*
X141671817Y-29667929D01*
X141699213Y-29692200D01*
X141730232Y-29744939D01*
X141726132Y-29801405D01*
X141714859Y-29831129D01*
X141694355Y-29999998D01*
X141694355Y-30000000D01*
X141714860Y-30168872D01*
X141775182Y-30327930D01*
X141831975Y-30410208D01*
X141849500Y-30466446D01*
X141849500Y-33318693D01*
X141830593Y-33376884D01*
X141816150Y-33392795D01*
X141771819Y-33432068D01*
X141771816Y-33432072D01*
X141705650Y-33527930D01*
X141675182Y-33572070D01*
X141622126Y-33711971D01*
X141614860Y-33731129D01*
X141594355Y-33899998D01*
X141594355Y-33900001D01*
X141594416Y-33900500D01*
X141614860Y-34068872D01*
X141675182Y-34227930D01*
X141771817Y-34367929D01*
X141899148Y-34480734D01*
X142049775Y-34559790D01*
X142214944Y-34600500D01*
X142214947Y-34600500D01*
X142385053Y-34600500D01*
X142385056Y-34600500D01*
X142550225Y-34559790D01*
X142700852Y-34480734D01*
X142828183Y-34367929D01*
X142924818Y-34227930D01*
X142985140Y-34068872D01*
X143005584Y-33900500D01*
X143005645Y-33900001D01*
X143005645Y-33899998D01*
X142991163Y-33780734D01*
X142985140Y-33731128D01*
X142956933Y-33656750D01*
X142950500Y-33621645D01*
X142950500Y-32487495D01*
X142964762Y-32443598D01*
X142964641Y-32443493D01*
X142950500Y-32392504D01*
X142950500Y-32127029D01*
X142969407Y-32068838D01*
X143018907Y-32032874D01*
X143073189Y-32030906D01*
X143108141Y-32039520D01*
X143160114Y-32071805D01*
X143183186Y-32128474D01*
X143180073Y-32161265D01*
X143163791Y-32222029D01*
X143148123Y-32401132D01*
X143132670Y-32437536D01*
X143148123Y-32478867D01*
X143163791Y-32657969D01*
X143163792Y-32657976D01*
X143163793Y-32657977D01*
X143220425Y-32869330D01*
X143312898Y-33067639D01*
X143366164Y-33143710D01*
X143405276Y-33199569D01*
X143438402Y-33246877D01*
X143593123Y-33401598D01*
X143593126Y-33401600D01*
X143593127Y-33401601D01*
X143628590Y-33426432D01*
X143772361Y-33527102D01*
X143970670Y-33619575D01*
X143970671Y-33619575D01*
X143972172Y-33620275D01*
X144016920Y-33662004D01*
X144028595Y-33722065D01*
X144002737Y-33777518D01*
X143972172Y-33799724D01*
X143772372Y-33892892D01*
X143772364Y-33892896D01*
X143593127Y-34018398D01*
X143438398Y-34173127D01*
X143312896Y-34352364D01*
X143312892Y-34352372D01*
X143220426Y-34550666D01*
X143163791Y-34762030D01*
X143144723Y-34979996D01*
X143144723Y-34980003D01*
X143163791Y-35197969D01*
X143163792Y-35197976D01*
X143163793Y-35197977D01*
X143220425Y-35409330D01*
X143299925Y-35579819D01*
X143312897Y-35607637D01*
X143386252Y-35712400D01*
X143438402Y-35786877D01*
X143593123Y-35941598D01*
X143593126Y-35941600D01*
X143593127Y-35941601D01*
X143598711Y-35945511D01*
X143757285Y-36056546D01*
X143794106Y-36105408D01*
X143799500Y-36137640D01*
X143799500Y-38110257D01*
X143780593Y-38168448D01*
X143770503Y-38180261D01*
X143619785Y-38330978D01*
X143565269Y-38358755D01*
X143511897Y-38352438D01*
X143481766Y-38339957D01*
X143481758Y-38339955D01*
X143364362Y-38324500D01*
X143364361Y-38324500D01*
X142944033Y-38324500D01*
X142885842Y-38305593D01*
X142874029Y-38295504D01*
X142688782Y-38110257D01*
X142138015Y-37559490D01*
X142012485Y-37487016D01*
X142012484Y-37487015D01*
X142012481Y-37487014D01*
X141977068Y-37477525D01*
X141977068Y-37477526D01*
X141872475Y-37449500D01*
X140527525Y-37449500D01*
X140422932Y-37477526D01*
X140387515Y-37487016D01*
X140261985Y-37559490D01*
X139425971Y-38395504D01*
X139371454Y-38423281D01*
X139355967Y-38424500D01*
X139081899Y-38424500D01*
X139023708Y-38405593D01*
X139011901Y-38395509D01*
X138938342Y-38321950D01*
X138825304Y-38264354D01*
X138825305Y-38264354D01*
X138731521Y-38249500D01*
X137618478Y-38249500D01*
X137618476Y-38249501D01*
X137524700Y-38264352D01*
X137524695Y-38264354D01*
X137411659Y-38321949D01*
X137411658Y-38321949D01*
X137411658Y-38321950D01*
X137338102Y-38395505D01*
X137283588Y-38423281D01*
X137268101Y-38424500D01*
X134931899Y-38424500D01*
X134873708Y-38405593D01*
X134861901Y-38395509D01*
X134788342Y-38321950D01*
X134675304Y-38264354D01*
X134675305Y-38264354D01*
X134581522Y-38249500D01*
X134581519Y-38249500D01*
X134119033Y-38249500D01*
X134060842Y-38230593D01*
X134049029Y-38220504D01*
X133547528Y-37719003D01*
X133519751Y-37664486D01*
X133529322Y-37604054D01*
X133572587Y-37560789D01*
X133617532Y-37549999D01*
X133824999Y-37549999D01*
X133825000Y-37549998D01*
X134225000Y-37549998D01*
X134225001Y-37549999D01*
X134581483Y-37549999D01*
X134581485Y-37549998D01*
X134675141Y-37535166D01*
X134675151Y-37535163D01*
X134788043Y-37477641D01*
X134877641Y-37388043D01*
X134935163Y-37275151D01*
X134935164Y-37275147D01*
X134950000Y-37181485D01*
X137250001Y-37181485D01*
X137264833Y-37275141D01*
X137264836Y-37275151D01*
X137322358Y-37388043D01*
X137411956Y-37477641D01*
X137524848Y-37535163D01*
X137524852Y-37535164D01*
X137618515Y-37549999D01*
X137974998Y-37549999D01*
X137975000Y-37549998D01*
X138375000Y-37549998D01*
X138375001Y-37549999D01*
X138731483Y-37549999D01*
X138731485Y-37549998D01*
X138825141Y-37535166D01*
X138825151Y-37535163D01*
X138938043Y-37477641D01*
X139027641Y-37388043D01*
X139085163Y-37275151D01*
X139085164Y-37275147D01*
X139100000Y-37181484D01*
X139100000Y-37025001D01*
X139099999Y-37025000D01*
X138375001Y-37025000D01*
X138375000Y-37025001D01*
X138375000Y-37549998D01*
X137975000Y-37549998D01*
X137975000Y-37025001D01*
X137974999Y-37025000D01*
X137250002Y-37025000D01*
X137250001Y-37025001D01*
X137250001Y-37181485D01*
X134950000Y-37181485D01*
X134950000Y-37181484D01*
X134950000Y-37025001D01*
X134949999Y-37025000D01*
X134225001Y-37025000D01*
X134225000Y-37025001D01*
X134225000Y-37549998D01*
X133825000Y-37549998D01*
X133825000Y-36624999D01*
X134225000Y-36624999D01*
X134225001Y-36625000D01*
X134949998Y-36625000D01*
X134949999Y-36624999D01*
X137250000Y-36624999D01*
X137250001Y-36625000D01*
X137974999Y-36625000D01*
X137975000Y-36624999D01*
X137975000Y-36100001D01*
X137974999Y-36100000D01*
X137618517Y-36100000D01*
X137618514Y-36100001D01*
X137524858Y-36114833D01*
X137524848Y-36114836D01*
X137411956Y-36172358D01*
X137322358Y-36261956D01*
X137264836Y-36374848D01*
X137264835Y-36374852D01*
X137250000Y-36468515D01*
X137250000Y-36624999D01*
X134949999Y-36624999D01*
X134949999Y-36468516D01*
X134949998Y-36468514D01*
X134935166Y-36374858D01*
X134935163Y-36374848D01*
X134877641Y-36261956D01*
X134788043Y-36172358D01*
X134675151Y-36114836D01*
X134675147Y-36114835D01*
X134581484Y-36100000D01*
X134225001Y-36100000D01*
X134225000Y-36100001D01*
X134225000Y-36624999D01*
X133825000Y-36624999D01*
X133825000Y-36100001D01*
X133824999Y-36100000D01*
X133468517Y-36100000D01*
X133468514Y-36100001D01*
X133374858Y-36114833D01*
X133374848Y-36114836D01*
X133261955Y-36172359D01*
X133261953Y-36172360D01*
X133216591Y-36217722D01*
X133162074Y-36245499D01*
X133101642Y-36235927D01*
X133060852Y-36197218D01*
X133040511Y-36161987D01*
X133040510Y-36161985D01*
X131598029Y-34719504D01*
X131570252Y-34664987D01*
X131579823Y-34604555D01*
X131623088Y-34561290D01*
X131668033Y-34550500D01*
X135072473Y-34550500D01*
X135072474Y-34550500D01*
X135072475Y-34550500D01*
X135212485Y-34512984D01*
X135212984Y-34512696D01*
X135338015Y-34440510D01*
X135518735Y-34259790D01*
X135596537Y-34181989D01*
X135651053Y-34154212D01*
X135666540Y-34152993D01*
X135923162Y-34152993D01*
X135981353Y-34171900D01*
X136016605Y-34219293D01*
X136019542Y-34227687D01*
X136019544Y-34227691D01*
X136103490Y-34361289D01*
X136109523Y-34370890D01*
X136229110Y-34490477D01*
X136229112Y-34490478D01*
X136229113Y-34490479D01*
X136341807Y-34561290D01*
X136372310Y-34580456D01*
X136429590Y-34600499D01*
X136531934Y-34636311D01*
X136531938Y-34636312D01*
X136531941Y-34636313D01*
X136531942Y-34636313D01*
X136531946Y-34636314D01*
X136699996Y-34655249D01*
X136700000Y-34655249D01*
X136700004Y-34655249D01*
X136868053Y-34636314D01*
X136868055Y-34636313D01*
X136868059Y-34636313D01*
X137027690Y-34580456D01*
X137170890Y-34490477D01*
X137279998Y-34381368D01*
X137334513Y-34353593D01*
X137394945Y-34363164D01*
X137420000Y-34381367D01*
X137509135Y-34470502D01*
X137509137Y-34470503D01*
X137509138Y-34470504D01*
X137636714Y-34550666D01*
X137652335Y-34560481D01*
X137709418Y-34580455D01*
X137811959Y-34616336D01*
X137811963Y-34616337D01*
X137811966Y-34616338D01*
X137839680Y-34619460D01*
X137895387Y-34644764D01*
X137898598Y-34647834D01*
X137995827Y-34745063D01*
X138076472Y-34825707D01*
X138104250Y-34880224D01*
X138099914Y-34928408D01*
X138063687Y-35031939D01*
X138063685Y-35031946D01*
X138044751Y-35199995D01*
X138044751Y-35200004D01*
X138063685Y-35368053D01*
X138063688Y-35368065D01*
X138119544Y-35527690D01*
X138119544Y-35527691D01*
X138172441Y-35611875D01*
X138209523Y-35670890D01*
X138329110Y-35790477D01*
X138472310Y-35880456D01*
X138513117Y-35894735D01*
X138549757Y-35907556D01*
X138598437Y-35944621D01*
X138616034Y-36003221D01*
X138595826Y-36060973D01*
X138545531Y-36095817D01*
X138517059Y-36100000D01*
X138375001Y-36100000D01*
X138375000Y-36100001D01*
X138375000Y-36624999D01*
X138375001Y-36625000D01*
X139099998Y-36625000D01*
X139099999Y-36624999D01*
X139099999Y-36468516D01*
X139099998Y-36468514D01*
X139085166Y-36374858D01*
X139085163Y-36374848D01*
X139027641Y-36261956D01*
X138938043Y-36172358D01*
X138857857Y-36131501D01*
X138814593Y-36088237D01*
X138805022Y-36027804D01*
X138832800Y-35973288D01*
X138887316Y-35945511D01*
X138891687Y-35944918D01*
X138968059Y-35936313D01*
X139127690Y-35880456D01*
X139270890Y-35790477D01*
X139390477Y-35670890D01*
X139480456Y-35527690D01*
X139536313Y-35368059D01*
X139539741Y-35337635D01*
X139555249Y-35200004D01*
X139555249Y-35199995D01*
X139536314Y-35031946D01*
X139536311Y-35031934D01*
X139484541Y-34883985D01*
X139480456Y-34872310D01*
X139480454Y-34872308D01*
X139480454Y-34872305D01*
X139415676Y-34769213D01*
X139400501Y-34716541D01*
X139400501Y-34620942D01*
X139400500Y-34620940D01*
X139400103Y-34619460D01*
X139371572Y-34512982D01*
X139359578Y-34468219D01*
X139359578Y-34468218D01*
X139343579Y-34440507D01*
X139280520Y-34331284D01*
X138747834Y-33798598D01*
X138720057Y-33744081D01*
X138719461Y-33739679D01*
X138716339Y-33711971D01*
X138716336Y-33711959D01*
X138674193Y-33591523D01*
X138660481Y-33552335D01*
X138581370Y-33426432D01*
X138570504Y-33409138D01*
X138570503Y-33409137D01*
X138570502Y-33409135D01*
X138450915Y-33289548D01*
X138450912Y-33289546D01*
X138450911Y-33289545D01*
X138308402Y-33200000D01*
X139694355Y-33200000D01*
X139714860Y-33368872D01*
X139775182Y-33527930D01*
X139871817Y-33667929D01*
X139999148Y-33780734D01*
X140149775Y-33859790D01*
X140314944Y-33900500D01*
X140314947Y-33900500D01*
X140485053Y-33900500D01*
X140485056Y-33900500D01*
X140650225Y-33859790D01*
X140800852Y-33780734D01*
X140928183Y-33667929D01*
X141024818Y-33527930D01*
X141085140Y-33368872D01*
X141105645Y-33200000D01*
X141085140Y-33031128D01*
X141024818Y-32872070D01*
X140968024Y-32789790D01*
X140950500Y-32733553D01*
X140950500Y-32267008D01*
X140969407Y-32208817D01*
X140996686Y-32185232D01*
X140995928Y-32184133D01*
X141000850Y-32180735D01*
X141000849Y-32180735D01*
X141000852Y-32180734D01*
X141128183Y-32067929D01*
X141224818Y-31927930D01*
X141285140Y-31768872D01*
X141305645Y-31600000D01*
X141304923Y-31594057D01*
X141300089Y-31554240D01*
X141285140Y-31431128D01*
X141224818Y-31272070D01*
X141128183Y-31132071D01*
X141106613Y-31112962D01*
X141000853Y-31019267D01*
X141000852Y-31019266D01*
X140850225Y-30940210D01*
X140850224Y-30940209D01*
X140850223Y-30940209D01*
X140685058Y-30899500D01*
X140685056Y-30899500D01*
X140514944Y-30899500D01*
X140514941Y-30899500D01*
X140349776Y-30940209D01*
X140199146Y-31019267D01*
X140071818Y-31132069D01*
X140071816Y-31132072D01*
X139975182Y-31272070D01*
X139914860Y-31431128D01*
X139900665Y-31548030D01*
X139889487Y-31581516D01*
X139889499Y-31581521D01*
X139889429Y-31581687D01*
X139888127Y-31585591D01*
X139887016Y-31587514D01*
X139849500Y-31727525D01*
X139849500Y-32733553D01*
X139831975Y-32789790D01*
X139775182Y-32872070D01*
X139728587Y-32994934D01*
X139714860Y-33031129D01*
X139700602Y-33148555D01*
X139694355Y-33200000D01*
X138308402Y-33200000D01*
X138307716Y-33199569D01*
X138148090Y-33143713D01*
X138148078Y-33143710D01*
X137980029Y-33124776D01*
X137980021Y-33124776D01*
X137811971Y-33143710D01*
X137811959Y-33143713D01*
X137652334Y-33199569D01*
X137652333Y-33199569D01*
X137509138Y-33289545D01*
X137509135Y-33289547D01*
X137509135Y-33289548D01*
X137400026Y-33398656D01*
X137345512Y-33426432D01*
X137285080Y-33416861D01*
X137260024Y-33398657D01*
X137170890Y-33309523D01*
X137170887Y-33309521D01*
X137170886Y-33309520D01*
X137027691Y-33219544D01*
X136868059Y-33163686D01*
X136733772Y-33148555D01*
X136695358Y-33135915D01*
X136614979Y-33089509D01*
X136614974Y-33089507D01*
X136562562Y-33075463D01*
X136562562Y-33075464D01*
X136474968Y-33051993D01*
X135325032Y-33051993D01*
X135237438Y-33075464D01*
X135237437Y-33075463D01*
X135185025Y-33089507D01*
X135185024Y-33089507D01*
X135059489Y-33161985D01*
X134800970Y-33420504D01*
X134746454Y-33448281D01*
X134730967Y-33449500D01*
X131969033Y-33449500D01*
X131910842Y-33430593D01*
X131899029Y-33420504D01*
X131179496Y-32700971D01*
X131151719Y-32646454D01*
X131150500Y-32630967D01*
X131150500Y-31869032D01*
X131169407Y-31810841D01*
X131179496Y-31799029D01*
X131316272Y-31662252D01*
X131370789Y-31634474D01*
X131431221Y-31644045D01*
X131436671Y-31647041D01*
X131438579Y-31648169D01*
X131438580Y-31648170D01*
X131574610Y-31728618D01*
X131726373Y-31772709D01*
X131761837Y-31775500D01*
X132338162Y-31775499D01*
X132373627Y-31772709D01*
X132525390Y-31728618D01*
X132661420Y-31648170D01*
X132755351Y-31554238D01*
X132809865Y-31526462D01*
X132870298Y-31536033D01*
X132895357Y-31554239D01*
X132988890Y-31647772D01*
X133124810Y-31728154D01*
X133276447Y-31772209D01*
X133276453Y-31772211D01*
X133311894Y-31775000D01*
X133399999Y-31775000D01*
X133400000Y-31774999D01*
X133800000Y-31774999D01*
X133800001Y-31775000D01*
X133888106Y-31775000D01*
X133923546Y-31772211D01*
X133923552Y-31772209D01*
X134075189Y-31728154D01*
X134211109Y-31647772D01*
X134322772Y-31536109D01*
X134403154Y-31400189D01*
X134447209Y-31248552D01*
X134447211Y-31248546D01*
X134450000Y-31213105D01*
X134450000Y-31100001D01*
X134449999Y-31100000D01*
X133800001Y-31100000D01*
X133800000Y-31100001D01*
X133800000Y-31774999D01*
X133400000Y-31774999D01*
X133400000Y-30699999D01*
X133800000Y-30699999D01*
X133800001Y-30700000D01*
X134449999Y-30700000D01*
X134450000Y-30699999D01*
X134450000Y-30586894D01*
X134447211Y-30551453D01*
X134447209Y-30551447D01*
X134403154Y-30399810D01*
X134322772Y-30263890D01*
X134228886Y-30170004D01*
X134201109Y-30115487D01*
X134210680Y-30055055D01*
X134228886Y-30029996D01*
X134322772Y-29936109D01*
X134323828Y-29934324D01*
X134750001Y-29934324D01*
X134765443Y-30051629D01*
X134765444Y-30051631D01*
X134825899Y-30197585D01*
X134825901Y-30197589D01*
X134922070Y-30322919D01*
X134922080Y-30322929D01*
X135047410Y-30419098D01*
X135047414Y-30419100D01*
X135193368Y-30479555D01*
X135193369Y-30479556D01*
X135310677Y-30494999D01*
X135350000Y-30494998D01*
X135350000Y-29820001D01*
X135349999Y-29820000D01*
X134750002Y-29820000D01*
X134750001Y-29820001D01*
X134750001Y-29934324D01*
X134323828Y-29934324D01*
X134403154Y-29800189D01*
X134447209Y-29648552D01*
X134447211Y-29648546D01*
X134450000Y-29613105D01*
X134450000Y-29500001D01*
X134449999Y-29500000D01*
X133800001Y-29500000D01*
X133800000Y-29500001D01*
X133800000Y-30699999D01*
X133400000Y-30699999D01*
X133400000Y-29099999D01*
X133800000Y-29099999D01*
X133800001Y-29100000D01*
X134449999Y-29100000D01*
X134450000Y-29099999D01*
X134450000Y-28986894D01*
X134447211Y-28951453D01*
X134447209Y-28951447D01*
X134403154Y-28799810D01*
X134322772Y-28663890D01*
X134211109Y-28552227D01*
X134075189Y-28471845D01*
X133923552Y-28427790D01*
X133923546Y-28427788D01*
X133888106Y-28425000D01*
X133800001Y-28425000D01*
X133800000Y-28425001D01*
X133800000Y-29099999D01*
X133400000Y-29099999D01*
X133400000Y-28425001D01*
X133399999Y-28425000D01*
X133311894Y-28425000D01*
X133276453Y-28427788D01*
X133276447Y-28427790D01*
X133124810Y-28471845D01*
X132988887Y-28552229D01*
X132895356Y-28645760D01*
X132840840Y-28673537D01*
X132780407Y-28663965D01*
X132755352Y-28645762D01*
X132679494Y-28569904D01*
X132651719Y-28515390D01*
X132650500Y-28499903D01*
X132650500Y-28214324D01*
X134737501Y-28214324D01*
X134752943Y-28331629D01*
X134752944Y-28331631D01*
X134813399Y-28477585D01*
X134813401Y-28477589D01*
X134909570Y-28602919D01*
X134909580Y-28602929D01*
X135018170Y-28686253D01*
X135052826Y-28736677D01*
X135051225Y-28797842D01*
X135018171Y-28843336D01*
X134922081Y-28917069D01*
X134922070Y-28917080D01*
X134825901Y-29042410D01*
X134825899Y-29042414D01*
X134765444Y-29188368D01*
X134765443Y-29188369D01*
X134750000Y-29305676D01*
X134750000Y-29419999D01*
X134750001Y-29420000D01*
X135349999Y-29420000D01*
X135350000Y-29419999D01*
X135350000Y-28802120D01*
X135338719Y-28779980D01*
X135337500Y-28764493D01*
X135337500Y-28100001D01*
X135337499Y-28100000D01*
X134737502Y-28100000D01*
X134737501Y-28100001D01*
X134737501Y-28214324D01*
X132650500Y-28214324D01*
X132650500Y-27699999D01*
X134737500Y-27699999D01*
X134737501Y-27700000D01*
X135337499Y-27700000D01*
X135337500Y-27699999D01*
X135337500Y-27035507D01*
X135350000Y-26997035D01*
X135350000Y-26410001D01*
X135349999Y-26410000D01*
X134750002Y-26410000D01*
X134750001Y-26410001D01*
X134750001Y-26524324D01*
X134765443Y-26641629D01*
X134765444Y-26641631D01*
X134825899Y-26787585D01*
X134825901Y-26787589D01*
X134922070Y-26912919D01*
X134922079Y-26912928D01*
X134998622Y-26971661D01*
X135033278Y-27022085D01*
X135031677Y-27083249D01*
X134998623Y-27128744D01*
X134909581Y-27197069D01*
X134909570Y-27197080D01*
X134813401Y-27322410D01*
X134813399Y-27322414D01*
X134752944Y-27468368D01*
X134752943Y-27468369D01*
X134737500Y-27585676D01*
X134737500Y-27699999D01*
X132650500Y-27699999D01*
X132650500Y-26939742D01*
X132669407Y-26881551D01*
X132679490Y-26869744D01*
X133539235Y-26009999D01*
X134750000Y-26009999D01*
X134750001Y-26010000D01*
X135349999Y-26010000D01*
X135350000Y-26009999D01*
X135350000Y-25335000D01*
X135349999Y-25334999D01*
X135310681Y-25335000D01*
X135310673Y-25335001D01*
X135193370Y-25350443D01*
X135193368Y-25350444D01*
X135047414Y-25410899D01*
X135047410Y-25410901D01*
X134922080Y-25507070D01*
X134922070Y-25507080D01*
X134825901Y-25632410D01*
X134825899Y-25632414D01*
X134765444Y-25778368D01*
X134765443Y-25778369D01*
X134750000Y-25895676D01*
X134750000Y-26009999D01*
X133539235Y-26009999D01*
X135068713Y-24480521D01*
X135068716Y-24480520D01*
X135180520Y-24368716D01*
X135180521Y-24368713D01*
X136180520Y-23368716D01*
X136259577Y-23231784D01*
X136297414Y-23090575D01*
X136323034Y-23046200D01*
X137102209Y-22267024D01*
X137156724Y-22239249D01*
X137190396Y-22239715D01*
X137312279Y-22262500D01*
X137312280Y-22262500D01*
X137527721Y-22262500D01*
X137739496Y-22222912D01*
X137940391Y-22145085D01*
X138123564Y-22031669D01*
X138282778Y-21886526D01*
X138412612Y-21714599D01*
X138508643Y-21521742D01*
X138567601Y-21314524D01*
X138587480Y-21100000D01*
X138567601Y-20885476D01*
X138508643Y-20678258D01*
X138412612Y-20485401D01*
X138282778Y-20313474D01*
X138123564Y-20168331D01*
X137940391Y-20054915D01*
X137739496Y-19977088D01*
X137739495Y-19977087D01*
X137739493Y-19977087D01*
X137527721Y-19937500D01*
X137312279Y-19937500D01*
X137100506Y-19977087D01*
X136899608Y-20054915D01*
X136899603Y-20054918D01*
X136716440Y-20168328D01*
X136716438Y-20168329D01*
X136716436Y-20168331D01*
X136576371Y-20296017D01*
X136557223Y-20313473D01*
X136557219Y-20313478D01*
X136427389Y-20485399D01*
X136427384Y-20485408D01*
X136331357Y-20678257D01*
X136272399Y-20885474D01*
X136252520Y-21100000D01*
X136272399Y-21314525D01*
X136275050Y-21323842D01*
X136272785Y-21384985D01*
X136249831Y-21420932D01*
X136165727Y-21505036D01*
X136111210Y-21532813D01*
X136050778Y-21523242D01*
X136007513Y-21479977D01*
X135997942Y-21419545D01*
X136000502Y-21407939D01*
X136027107Y-21314431D01*
X136046977Y-21100000D01*
X136027107Y-20885566D01*
X135968174Y-20678438D01*
X135872188Y-20485671D01*
X135872182Y-20485661D01*
X135831307Y-20431535D01*
X135266370Y-20996471D01*
X135252741Y-20945606D01*
X135200080Y-20854394D01*
X135125606Y-20779920D01*
X135034394Y-20727259D01*
X134983525Y-20713628D01*
X135549393Y-20147761D01*
X135400172Y-20055367D01*
X135400167Y-20055364D01*
X135199356Y-19977570D01*
X134987675Y-19938000D01*
X134772325Y-19938000D01*
X134560643Y-19977570D01*
X134359832Y-20055364D01*
X134359827Y-20055367D01*
X134210605Y-20147761D01*
X134776473Y-20713629D01*
X134725606Y-20727259D01*
X134634394Y-20779920D01*
X134559920Y-20854394D01*
X134507259Y-20945606D01*
X134493629Y-20996473D01*
X133928692Y-20431536D01*
X133887816Y-20485663D01*
X133887811Y-20485672D01*
X133791825Y-20678438D01*
X133732892Y-20885566D01*
X133713022Y-21100000D01*
X133732892Y-21314433D01*
X133791825Y-21521561D01*
X133887813Y-21714331D01*
X133887822Y-21714346D01*
X133928690Y-21768463D01*
X134493628Y-21203525D01*
X134507259Y-21254394D01*
X134559920Y-21345606D01*
X134634394Y-21420080D01*
X134725606Y-21472741D01*
X134776471Y-21486370D01*
X134210605Y-22052237D01*
X134359824Y-22144631D01*
X134359830Y-22144634D01*
X134560643Y-22222429D01*
X134772325Y-22262000D01*
X134987674Y-22262000D01*
X135191318Y-22223931D01*
X135251992Y-22231823D01*
X135296440Y-22273872D01*
X135307683Y-22334015D01*
X135281427Y-22389281D01*
X135279515Y-22391247D01*
X135219479Y-22451284D01*
X135169359Y-22538095D01*
X135140424Y-22588211D01*
X135140422Y-22588215D01*
X135102586Y-22729419D01*
X135076964Y-22773798D01*
X134530261Y-23320503D01*
X134475744Y-23348281D01*
X134460257Y-23349500D01*
X133450874Y-23349500D01*
X133392683Y-23330593D01*
X133356719Y-23281093D01*
X133356719Y-23219907D01*
X133380868Y-23180498D01*
X133490477Y-23070890D01*
X133580456Y-22927690D01*
X133636313Y-22768059D01*
X133636314Y-22768053D01*
X133655249Y-22600004D01*
X133655249Y-22599995D01*
X133636314Y-22431946D01*
X133636311Y-22431934D01*
X133609170Y-22354370D01*
X133580456Y-22272310D01*
X133559682Y-22239249D01*
X133490479Y-22129113D01*
X133490478Y-22129112D01*
X133490477Y-22129110D01*
X133370890Y-22009523D01*
X133370887Y-22009521D01*
X133370884Y-22009518D01*
X133285229Y-21955697D01*
X133246017Y-21908728D01*
X133241902Y-21847682D01*
X133258898Y-21812211D01*
X133332612Y-21714599D01*
X133428643Y-21521742D01*
X133487601Y-21314524D01*
X133507480Y-21100000D01*
X133487601Y-20885476D01*
X133428643Y-20678258D01*
X133332612Y-20485401D01*
X133202778Y-20313474D01*
X133043564Y-20168331D01*
X132860391Y-20054915D01*
X132659496Y-19977088D01*
X132659495Y-19977087D01*
X132659493Y-19977087D01*
X132447721Y-19937500D01*
X132232279Y-19937500D01*
X132020506Y-19977087D01*
X131819608Y-20054915D01*
X131819603Y-20054918D01*
X131636440Y-20168328D01*
X131636438Y-20168329D01*
X131636436Y-20168331D01*
X131496371Y-20296017D01*
X131477223Y-20313473D01*
X131477219Y-20313478D01*
X131347389Y-20485399D01*
X131347384Y-20485408D01*
X131251357Y-20678257D01*
X131192399Y-20885474D01*
X131172520Y-21100000D01*
X131192399Y-21314525D01*
X131222280Y-21419545D01*
X131251357Y-21521742D01*
X131347388Y-21714599D01*
X131477222Y-21886526D01*
X131631686Y-22027339D01*
X131661952Y-22080514D01*
X131655181Y-22141323D01*
X131613961Y-22186540D01*
X131564990Y-22199500D01*
X130583461Y-22199500D01*
X130530785Y-22184323D01*
X130525782Y-22181179D01*
X130486572Y-22134208D01*
X130482460Y-22073161D01*
X130511759Y-22024197D01*
X130662778Y-21886526D01*
X130792612Y-21714599D01*
X130888643Y-21521742D01*
X130947601Y-21314524D01*
X130967480Y-21100000D01*
X130947601Y-20885476D01*
X130888643Y-20678258D01*
X130792612Y-20485401D01*
X130662778Y-20313474D01*
X130503564Y-20168331D01*
X130320391Y-20054915D01*
X130119496Y-19977088D01*
X130119495Y-19977087D01*
X130119493Y-19977087D01*
X129907721Y-19937500D01*
X129692279Y-19937500D01*
X129480506Y-19977087D01*
X129279608Y-20054915D01*
X129279603Y-20054918D01*
X129096440Y-20168328D01*
X129096438Y-20168329D01*
X129096436Y-20168331D01*
X128956371Y-20296017D01*
X128937223Y-20313473D01*
X128937219Y-20313478D01*
X128807389Y-20485399D01*
X128807384Y-20485408D01*
X128711357Y-20678257D01*
X128652399Y-20885474D01*
X128632520Y-21100000D01*
X128652399Y-21314525D01*
X128682280Y-21419545D01*
X128711357Y-21521742D01*
X128807388Y-21714599D01*
X128937222Y-21886526D01*
X129096436Y-22031669D01*
X129279609Y-22145085D01*
X129445589Y-22209386D01*
X129493018Y-22248035D01*
X129508672Y-22307184D01*
X129493650Y-22354370D01*
X129419544Y-22472308D01*
X129419544Y-22472309D01*
X129363688Y-22631934D01*
X129363685Y-22631946D01*
X129344751Y-22799995D01*
X129344751Y-22800004D01*
X129363685Y-22968053D01*
X129363688Y-22968065D01*
X129419544Y-23127690D01*
X129419544Y-23127691D01*
X129509520Y-23270886D01*
X129509523Y-23270890D01*
X129629110Y-23390477D01*
X129629112Y-23390478D01*
X129629115Y-23390481D01*
X129739360Y-23459753D01*
X129778572Y-23506721D01*
X129782687Y-23567768D01*
X129756692Y-23613582D01*
X128149773Y-25220504D01*
X128095256Y-25248281D01*
X128079769Y-25249500D01*
X123499232Y-25249500D01*
X123441041Y-25230593D01*
X123405077Y-25181093D01*
X123405077Y-25119907D01*
X123419135Y-25092315D01*
X123497815Y-24984022D01*
X123597895Y-24787606D01*
X123666015Y-24577951D01*
X123699155Y-24368716D01*
X123700500Y-24360225D01*
X123700500Y-24139774D01*
X123666015Y-23922051D01*
X123666015Y-23922049D01*
X123597895Y-23712394D01*
X123497815Y-23515978D01*
X123368242Y-23337635D01*
X123212365Y-23181758D01*
X123034022Y-23052185D01*
X123034021Y-23052184D01*
X123034019Y-23052183D01*
X122944825Y-23006736D01*
X122837606Y-22952105D01*
X122837602Y-22952104D01*
X122837599Y-22952102D01*
X122627948Y-22883984D01*
X122410225Y-22849500D01*
X122410222Y-22849500D01*
X122189778Y-22849500D01*
X122189775Y-22849500D01*
X121972051Y-22883984D01*
X121762400Y-22952102D01*
X121565980Y-23052183D01*
X121513134Y-23090578D01*
X121387635Y-23181758D01*
X121231758Y-23337635D01*
X121166971Y-23426806D01*
X121102183Y-23515980D01*
X121002102Y-23712400D01*
X120933984Y-23922051D01*
X120899500Y-24139774D01*
X120899500Y-24360225D01*
X120933984Y-24577948D01*
X121002102Y-24787599D01*
X121002104Y-24787602D01*
X121002105Y-24787606D01*
X121102185Y-24984022D01*
X121231758Y-25162365D01*
X121387635Y-25318242D01*
X121550630Y-25436664D01*
X121565981Y-25447817D01*
X121565988Y-25447821D01*
X121760102Y-25546728D01*
X121803367Y-25589992D01*
X121812938Y-25650424D01*
X121785161Y-25704941D01*
X119631286Y-27858817D01*
X119631284Y-27858819D01*
X119631283Y-27858818D01*
X119519482Y-27970620D01*
X119519480Y-27970622D01*
X119519480Y-27970623D01*
X119507951Y-27990593D01*
X119470815Y-28054915D01*
X119470814Y-28054916D01*
X119440424Y-28107550D01*
X119440423Y-28107554D01*
X119399499Y-28260282D01*
X119399499Y-28260284D01*
X119399499Y-28426370D01*
X119399500Y-28426383D01*
X119399500Y-47114863D01*
X119399499Y-47114881D01*
X119399499Y-47120943D01*
X119399499Y-47279057D01*
X119440423Y-47431785D01*
X119440424Y-47431786D01*
X119451897Y-47451658D01*
X119451897Y-47451661D01*
X119513481Y-47558326D01*
X119519480Y-47568716D01*
X119631284Y-47680520D01*
X119631286Y-47680521D01*
X122281260Y-50330496D01*
X122309037Y-50385013D01*
X122299466Y-50445445D01*
X122256201Y-50488710D01*
X122211256Y-50499500D01*
X122189775Y-50499500D01*
X121972051Y-50533984D01*
X121762400Y-50602102D01*
X121565980Y-50702183D01*
X121476806Y-50766971D01*
X121387635Y-50831758D01*
X121231758Y-50987635D01*
X121180609Y-51058036D01*
X121102183Y-51165980D01*
X121002102Y-51362400D01*
X120933984Y-51572051D01*
X120899500Y-51789774D01*
X120899500Y-52010225D01*
X120933984Y-52227948D01*
X121002102Y-52437599D01*
X121002104Y-52437602D01*
X121002105Y-52437606D01*
X121102185Y-52634022D01*
X121231758Y-52812365D01*
X121387635Y-52968242D01*
X121565978Y-53097815D01*
X121762394Y-53197895D01*
X121972049Y-53266015D01*
X122059140Y-53279809D01*
X122189775Y-53300500D01*
X122189778Y-53300500D01*
X122410225Y-53300500D01*
X122519086Y-53283257D01*
X122627951Y-53266015D01*
X122837606Y-53197895D01*
X123034022Y-53097815D01*
X123212365Y-52968242D01*
X123368242Y-52812365D01*
X123497815Y-52634022D01*
X123597895Y-52437606D01*
X123666015Y-52227951D01*
X123700500Y-52010222D01*
X123700500Y-51789778D01*
X123700500Y-51789774D01*
X123666015Y-51572051D01*
X123666015Y-51572049D01*
X123597895Y-51362394D01*
X123537795Y-51244443D01*
X123528225Y-51184013D01*
X123556002Y-51129496D01*
X123610519Y-51101719D01*
X123626006Y-51100500D01*
X124414864Y-51100500D01*
X124414880Y-51100501D01*
X124420943Y-51100501D01*
X124579055Y-51100501D01*
X124579057Y-51100501D01*
X124731785Y-51059577D01*
X124731789Y-51059574D01*
X124731791Y-51059574D01*
X124735506Y-51058036D01*
X124773391Y-51050500D01*
X132424364Y-51050500D01*
X132424380Y-51050501D01*
X132430443Y-51050501D01*
X132588555Y-51050501D01*
X132588557Y-51050501D01*
X132741285Y-51009577D01*
X132791614Y-50980519D01*
X132878216Y-50930520D01*
X132990020Y-50818716D01*
X132990021Y-50818713D01*
X134858348Y-48950385D01*
X134912863Y-48922610D01*
X134973292Y-48932180D01*
X135025361Y-48958711D01*
X135197591Y-49014671D01*
X135263791Y-49025156D01*
X135376451Y-49043000D01*
X135376454Y-49043000D01*
X135557549Y-49043000D01*
X135646977Y-49028835D01*
X135736409Y-49014671D01*
X135908639Y-48958711D01*
X136069994Y-48876496D01*
X136216501Y-48770053D01*
X136344553Y-48642001D01*
X136450996Y-48495494D01*
X136533211Y-48334139D01*
X136589171Y-48161909D01*
X136607959Y-48043285D01*
X136617500Y-47983049D01*
X136617500Y-47983010D01*
X136857000Y-47983010D01*
X136885316Y-48161789D01*
X136941250Y-48333940D01*
X137023431Y-48495230D01*
X137023433Y-48495234D01*
X137129824Y-48641669D01*
X137257830Y-48769675D01*
X137404265Y-48876066D01*
X137404269Y-48876068D01*
X137565559Y-48958249D01*
X137737710Y-49014183D01*
X137737711Y-49014184D01*
X137806999Y-49025157D01*
X137807000Y-49025156D01*
X137807000Y-47954379D01*
X137814007Y-47958425D01*
X137941174Y-47992500D01*
X138072826Y-47992500D01*
X138199993Y-47958425D01*
X138207000Y-47954379D01*
X138207000Y-49025157D01*
X138276288Y-49014184D01*
X138276289Y-49014183D01*
X138448440Y-48958249D01*
X138609730Y-48876068D01*
X138609734Y-48876066D01*
X138756169Y-48769675D01*
X138851823Y-48674021D01*
X139396500Y-48674021D01*
X139396501Y-48674023D01*
X139411352Y-48767799D01*
X139411354Y-48767804D01*
X139468950Y-48880842D01*
X139558658Y-48970550D01*
X139671696Y-49028146D01*
X139765481Y-49043000D01*
X141328518Y-49042999D01*
X141328521Y-49042999D01*
X141328522Y-49042998D01*
X141375411Y-49035572D01*
X141422299Y-49028147D01*
X141422299Y-49028146D01*
X141422304Y-49028146D01*
X141535342Y-48970550D01*
X141625050Y-48880842D01*
X141682646Y-48767804D01*
X141697500Y-48674019D01*
X141697499Y-46310982D01*
X141697499Y-46310981D01*
X141697499Y-46310978D01*
X141697498Y-46310976D01*
X141682647Y-46217200D01*
X141682646Y-46217198D01*
X141682646Y-46217196D01*
X141625050Y-46104158D01*
X141535342Y-46014450D01*
X141422304Y-45956854D01*
X141422305Y-45956854D01*
X141328521Y-45942000D01*
X139765478Y-45942000D01*
X139765476Y-45942001D01*
X139671700Y-45956852D01*
X139671695Y-45956854D01*
X139558659Y-46014449D01*
X139468949Y-46104159D01*
X139411354Y-46217195D01*
X139396500Y-46310978D01*
X139396500Y-48674021D01*
X138851823Y-48674021D01*
X138884175Y-48641669D01*
X138990566Y-48495234D01*
X138990568Y-48495230D01*
X139072749Y-48333940D01*
X139128683Y-48161789D01*
X139157000Y-47983010D01*
X139157000Y-47692501D01*
X139156999Y-47692500D01*
X138468880Y-47692500D01*
X138472925Y-47685493D01*
X138507000Y-47558326D01*
X138507000Y-47426674D01*
X138472925Y-47299507D01*
X138468880Y-47292500D01*
X139156999Y-47292500D01*
X139157000Y-47292499D01*
X139157000Y-47001989D01*
X139128683Y-46823210D01*
X139072749Y-46651059D01*
X138990568Y-46489769D01*
X138990566Y-46489765D01*
X138884175Y-46343330D01*
X138756169Y-46215324D01*
X138609734Y-46108933D01*
X138609730Y-46108931D01*
X138448440Y-46026750D01*
X138276289Y-45970816D01*
X138207000Y-45959841D01*
X138207000Y-47030620D01*
X138199993Y-47026575D01*
X138072826Y-46992500D01*
X137941174Y-46992500D01*
X137814007Y-47026575D01*
X137807000Y-47030620D01*
X137807000Y-45959842D01*
X137806999Y-45959841D01*
X137737710Y-45970816D01*
X137565559Y-46026750D01*
X137404269Y-46108931D01*
X137404265Y-46108933D01*
X137257830Y-46215324D01*
X137129824Y-46343330D01*
X137023433Y-46489765D01*
X137023431Y-46489769D01*
X136941250Y-46651059D01*
X136885316Y-46823210D01*
X136857000Y-47001989D01*
X136857000Y-47292499D01*
X136857001Y-47292500D01*
X137545120Y-47292500D01*
X137541075Y-47299507D01*
X137507000Y-47426674D01*
X137507000Y-47558326D01*
X137541075Y-47685493D01*
X137545120Y-47692500D01*
X136857001Y-47692500D01*
X136857000Y-47692501D01*
X136857000Y-47983010D01*
X136617500Y-47983010D01*
X136617500Y-47001950D01*
X136598614Y-46882712D01*
X136589171Y-46823091D01*
X136533211Y-46650861D01*
X136450996Y-46489506D01*
X136441250Y-46476092D01*
X136422341Y-46417904D01*
X136441246Y-46359712D01*
X136451331Y-46347902D01*
X137594739Y-45204495D01*
X137649256Y-45176718D01*
X137664743Y-45175499D01*
X137938157Y-45175499D01*
X137938162Y-45175499D01*
X137973627Y-45172709D01*
X138125390Y-45128618D01*
X138261420Y-45048170D01*
X138373170Y-44936420D01*
X138453618Y-44800390D01*
X138497709Y-44648627D01*
X138500500Y-44613163D01*
X138500499Y-44412700D01*
X138519406Y-44354511D01*
X138566799Y-44319258D01*
X138677690Y-44280456D01*
X138780790Y-44215674D01*
X138833461Y-44200500D01*
X140714864Y-44200500D01*
X140714880Y-44200501D01*
X140720943Y-44200501D01*
X140879055Y-44200501D01*
X140879057Y-44200501D01*
X141031785Y-44159577D01*
X141128561Y-44103703D01*
X141141946Y-44095975D01*
X141168710Y-44080524D01*
X141168711Y-44080522D01*
X141168716Y-44080520D01*
X141280520Y-43968716D01*
X141280521Y-43968713D01*
X141818713Y-43430521D01*
X141818716Y-43430520D01*
X141930520Y-43318716D01*
X141986551Y-43221667D01*
X142009577Y-43181785D01*
X142050501Y-43029057D01*
X142050501Y-42870943D01*
X142050501Y-42864881D01*
X142050500Y-42864863D01*
X142050500Y-41672071D01*
X142069407Y-41613880D01*
X142076715Y-41605324D01*
X142078282Y-41603282D01*
X142174536Y-41477841D01*
X142183536Y-41456114D01*
X142223272Y-41409588D01*
X142282767Y-41395304D01*
X142339295Y-41418718D01*
X142366464Y-41456114D01*
X142375462Y-41477838D01*
X142375462Y-41477839D01*
X142443116Y-41566007D01*
X142471718Y-41603282D01*
X142597159Y-41699536D01*
X142597160Y-41699536D01*
X142597161Y-41699537D01*
X142716672Y-41749040D01*
X142743238Y-41760044D01*
X142860639Y-41775500D01*
X143339360Y-41775499D01*
X143456762Y-41760044D01*
X143602841Y-41699536D01*
X143728282Y-41603282D01*
X143824536Y-41477841D01*
X143885044Y-41331762D01*
X143886460Y-41320998D01*
X143912796Y-41265776D01*
X143914573Y-41263950D01*
X144501736Y-40676786D01*
X144556251Y-40649011D01*
X144560635Y-40648416D01*
X144668059Y-40636313D01*
X144827690Y-40580456D01*
X144970890Y-40490477D01*
X145090477Y-40370890D01*
X145180456Y-40227690D01*
X145236313Y-40068059D01*
X145236314Y-40068053D01*
X145255249Y-39900004D01*
X145255249Y-39899995D01*
X145236314Y-39731946D01*
X145236311Y-39731934D01*
X145201259Y-39631762D01*
X145180456Y-39572310D01*
X145180293Y-39572051D01*
X145090479Y-39429113D01*
X145090478Y-39429112D01*
X145090477Y-39429110D01*
X144970890Y-39309523D01*
X144970887Y-39309521D01*
X144970886Y-39309520D01*
X144827691Y-39219544D01*
X144681572Y-39168415D01*
X144632892Y-39131350D01*
X144615295Y-39072750D01*
X144635503Y-39014998D01*
X144644259Y-39004974D01*
X144768713Y-38880521D01*
X144768716Y-38880520D01*
X144880520Y-38768716D01*
X144920500Y-38699467D01*
X144949312Y-38649565D01*
X144949322Y-38649546D01*
X144949349Y-38649500D01*
X144959577Y-38631785D01*
X145000501Y-38479057D01*
X145000501Y-38320943D01*
X145000501Y-38314881D01*
X145000500Y-38314863D01*
X145000500Y-36137640D01*
X145019407Y-36079449D01*
X145042712Y-36056547D01*
X145206877Y-35941598D01*
X145361598Y-35786877D01*
X145487102Y-35607639D01*
X145510776Y-35556869D01*
X145552503Y-35512123D01*
X145612564Y-35500448D01*
X145668017Y-35526305D01*
X145697681Y-35579819D01*
X145699500Y-35598710D01*
X145699500Y-53700500D01*
X145680593Y-53758691D01*
X145631093Y-53794655D01*
X145600500Y-53799500D01*
X116299500Y-53799500D01*
X116241309Y-53780593D01*
X116205345Y-53731093D01*
X116200500Y-53700500D01*
X116200500Y-22077262D01*
X116219407Y-22019071D01*
X116268907Y-21983107D01*
X116330093Y-21983107D01*
X116366192Y-22004098D01*
X116396436Y-22031669D01*
X116579609Y-22145085D01*
X116780504Y-22222912D01*
X116992279Y-22262500D01*
X117207721Y-22262500D01*
X117419496Y-22222912D01*
X117620391Y-22145085D01*
X117803564Y-22031669D01*
X117962778Y-21886526D01*
X118092612Y-21714599D01*
X118188643Y-21521742D01*
X118247601Y-21314524D01*
X118267480Y-21100000D01*
X118472520Y-21100000D01*
X118492399Y-21314525D01*
X118522280Y-21419545D01*
X118551357Y-21521742D01*
X118647388Y-21714599D01*
X118777222Y-21886526D01*
X118936436Y-22031669D01*
X119119609Y-22145085D01*
X119320504Y-22222912D01*
X119532279Y-22262500D01*
X119747721Y-22262500D01*
X119959496Y-22222912D01*
X120160391Y-22145085D01*
X120343564Y-22031669D01*
X120502778Y-21886526D01*
X120632612Y-21714599D01*
X120728643Y-21521742D01*
X120787601Y-21314524D01*
X120807480Y-21100000D01*
X121012520Y-21100000D01*
X121032399Y-21314525D01*
X121062280Y-21419545D01*
X121091357Y-21521742D01*
X121187388Y-21714599D01*
X121317222Y-21886526D01*
X121476436Y-22031669D01*
X121659609Y-22145085D01*
X121860504Y-22222912D01*
X122072279Y-22262500D01*
X122287721Y-22262500D01*
X122499496Y-22222912D01*
X122700391Y-22145085D01*
X122883564Y-22031669D01*
X123042778Y-21886526D01*
X123172612Y-21714599D01*
X123268643Y-21521742D01*
X123327601Y-21314524D01*
X123347480Y-21100000D01*
X123552520Y-21100000D01*
X123572399Y-21314525D01*
X123602280Y-21419545D01*
X123631357Y-21521742D01*
X123727388Y-21714599D01*
X123857222Y-21886526D01*
X124016436Y-22031669D01*
X124199609Y-22145085D01*
X124400504Y-22222912D01*
X124612279Y-22262500D01*
X124827721Y-22262500D01*
X125039496Y-22222912D01*
X125240391Y-22145085D01*
X125423564Y-22031669D01*
X125582778Y-21886526D01*
X125712612Y-21714599D01*
X125808643Y-21521742D01*
X125867601Y-21314524D01*
X125887480Y-21100000D01*
X126092520Y-21100000D01*
X126112399Y-21314525D01*
X126142280Y-21419545D01*
X126171357Y-21521742D01*
X126267388Y-21714599D01*
X126397222Y-21886526D01*
X126556436Y-22031669D01*
X126739609Y-22145085D01*
X126940504Y-22222912D01*
X127152279Y-22262500D01*
X127367721Y-22262500D01*
X127579496Y-22222912D01*
X127780391Y-22145085D01*
X127963564Y-22031669D01*
X128122778Y-21886526D01*
X128252612Y-21714599D01*
X128348643Y-21521742D01*
X128407601Y-21314524D01*
X128427480Y-21100000D01*
X128407601Y-20885476D01*
X128348643Y-20678258D01*
X128252612Y-20485401D01*
X128122778Y-20313474D01*
X127963564Y-20168331D01*
X127780391Y-20054915D01*
X127579496Y-19977088D01*
X127579495Y-19977087D01*
X127579493Y-19977087D01*
X127367721Y-19937500D01*
X127152279Y-19937500D01*
X126940506Y-19977087D01*
X126739608Y-20054915D01*
X126739603Y-20054918D01*
X126556440Y-20168328D01*
X126556438Y-20168329D01*
X126556436Y-20168331D01*
X126416371Y-20296017D01*
X126397223Y-20313473D01*
X126397219Y-20313478D01*
X126267389Y-20485399D01*
X126267384Y-20485408D01*
X126171357Y-20678257D01*
X126112399Y-20885474D01*
X126092520Y-21100000D01*
X125887480Y-21100000D01*
X125867601Y-20885476D01*
X125808643Y-20678258D01*
X125712612Y-20485401D01*
X125582778Y-20313474D01*
X125423564Y-20168331D01*
X125240391Y-20054915D01*
X125039496Y-19977088D01*
X125039495Y-19977087D01*
X125039493Y-19977087D01*
X124827721Y-19937500D01*
X124612279Y-19937500D01*
X124400506Y-19977087D01*
X124199608Y-20054915D01*
X124199603Y-20054918D01*
X124016440Y-20168328D01*
X124016438Y-20168329D01*
X124016436Y-20168331D01*
X123876371Y-20296017D01*
X123857223Y-20313473D01*
X123857219Y-20313478D01*
X123727389Y-20485399D01*
X123727384Y-20485408D01*
X123631357Y-20678257D01*
X123572399Y-20885474D01*
X123552520Y-21100000D01*
X123347480Y-21100000D01*
X123327601Y-20885476D01*
X123268643Y-20678258D01*
X123172612Y-20485401D01*
X123042778Y-20313474D01*
X122883564Y-20168331D01*
X122700391Y-20054915D01*
X122499496Y-19977088D01*
X122499495Y-19977087D01*
X122499493Y-19977087D01*
X122287721Y-19937500D01*
X122072279Y-19937500D01*
X121860506Y-19977087D01*
X121659608Y-20054915D01*
X121659603Y-20054918D01*
X121476440Y-20168328D01*
X121476438Y-20168329D01*
X121476436Y-20168331D01*
X121336371Y-20296017D01*
X121317223Y-20313473D01*
X121317219Y-20313478D01*
X121187389Y-20485399D01*
X121187384Y-20485408D01*
X121091357Y-20678257D01*
X121032399Y-20885474D01*
X121012520Y-21100000D01*
X120807480Y-21100000D01*
X120787601Y-20885476D01*
X120728643Y-20678258D01*
X120632612Y-20485401D01*
X120502778Y-20313474D01*
X120343564Y-20168331D01*
X120160391Y-20054915D01*
X119959496Y-19977088D01*
X119959495Y-19977087D01*
X119959493Y-19977087D01*
X119747721Y-19937500D01*
X119532279Y-19937500D01*
X119320506Y-19977087D01*
X119119608Y-20054915D01*
X119119603Y-20054918D01*
X118936440Y-20168328D01*
X118936438Y-20168329D01*
X118936436Y-20168331D01*
X118796371Y-20296017D01*
X118777223Y-20313473D01*
X118777219Y-20313478D01*
X118647389Y-20485399D01*
X118647384Y-20485408D01*
X118551357Y-20678257D01*
X118492399Y-20885474D01*
X118472520Y-21100000D01*
X118267480Y-21100000D01*
X118247601Y-20885476D01*
X118188643Y-20678258D01*
X118092612Y-20485401D01*
X117962778Y-20313474D01*
X117803564Y-20168331D01*
X117620391Y-20054915D01*
X117419496Y-19977088D01*
X117419495Y-19977087D01*
X117419493Y-19977087D01*
X117207721Y-19937500D01*
X116992279Y-19937500D01*
X116780506Y-19977087D01*
X116579608Y-20054915D01*
X116579603Y-20054918D01*
X116396438Y-20168329D01*
X116396435Y-20168331D01*
X116366195Y-20195899D01*
X116310454Y-20221129D01*
X116250528Y-20208776D01*
X116209308Y-20163560D01*
X116200500Y-20122737D01*
X116200500Y-19399500D01*
X116219407Y-19341309D01*
X116268907Y-19305345D01*
X116299500Y-19300500D01*
X145600500Y-19300500D01*
X145658691Y-19319407D01*
G37*
G04 #@! TD.AperFunction*
G04 #@! TA.AperFunction,Conductor*
G36*
X129293764Y-34178106D02*
G01*
X129293846Y-34177951D01*
X129294934Y-34178522D01*
X129297014Y-34179261D01*
X129299146Y-34180732D01*
X129299148Y-34180734D01*
X129449775Y-34259790D01*
X129449777Y-34259791D01*
X129539105Y-34281807D01*
X129597476Y-34296194D01*
X129643788Y-34322313D01*
X132020504Y-36699029D01*
X132048281Y-36753546D01*
X132049500Y-36769033D01*
X132049500Y-37622477D01*
X132060086Y-37661983D01*
X132060086Y-37661984D01*
X132060087Y-37661984D01*
X132060087Y-37661985D01*
X132087016Y-37762485D01*
X132159490Y-37888015D01*
X132623913Y-38352438D01*
X133070504Y-38799029D01*
X133098281Y-38853546D01*
X133099500Y-38869033D01*
X133099500Y-39331520D01*
X133099501Y-39331523D01*
X133114352Y-39425299D01*
X133114354Y-39425304D01*
X133171950Y-39538342D01*
X133261658Y-39628050D01*
X133374696Y-39685646D01*
X133468481Y-39700500D01*
X134581518Y-39700499D01*
X134581521Y-39700499D01*
X134581522Y-39700498D01*
X134628411Y-39693072D01*
X134675299Y-39685647D01*
X134675299Y-39685646D01*
X134675304Y-39685646D01*
X134788342Y-39628050D01*
X134861897Y-39554494D01*
X134916412Y-39526719D01*
X134931899Y-39525500D01*
X137268101Y-39525500D01*
X137326292Y-39544407D01*
X137338098Y-39554490D01*
X137362245Y-39578637D01*
X137390021Y-39633152D01*
X137380450Y-39693584D01*
X137337185Y-39736849D01*
X137319862Y-39743708D01*
X137261171Y-39760759D01*
X137224610Y-39771382D01*
X137224608Y-39771383D01*
X137224605Y-39771384D01*
X137088582Y-39851828D01*
X137088580Y-39851829D01*
X136994649Y-39945760D01*
X136940133Y-39973537D01*
X136879700Y-39963965D01*
X136854642Y-39945760D01*
X136761109Y-39852227D01*
X136625189Y-39771845D01*
X136473552Y-39727790D01*
X136473546Y-39727788D01*
X136438106Y-39725000D01*
X136350001Y-39725000D01*
X136350000Y-39725001D01*
X136350000Y-41433993D01*
X136331093Y-41492184D01*
X136321004Y-41503997D01*
X136300000Y-41525001D01*
X136300000Y-42501000D01*
X136281093Y-42559191D01*
X136231593Y-42595155D01*
X136201000Y-42600000D01*
X135250001Y-42600000D01*
X135250000Y-42600001D01*
X135250000Y-42713105D01*
X135252788Y-42748546D01*
X135252790Y-42748552D01*
X135296845Y-42900189D01*
X135377227Y-43036109D01*
X135488890Y-43147772D01*
X135624809Y-43228154D01*
X135716974Y-43254931D01*
X135767579Y-43289323D01*
X135788304Y-43346891D01*
X135771234Y-43405647D01*
X135722888Y-43443147D01*
X135716974Y-43445069D01*
X135624809Y-43471845D01*
X135488890Y-43552227D01*
X135377227Y-43663890D01*
X135296845Y-43799810D01*
X135252790Y-43951447D01*
X135252788Y-43951453D01*
X135250000Y-43986894D01*
X135250000Y-44099999D01*
X135250001Y-44100000D01*
X136201000Y-44100000D01*
X136259191Y-44118907D01*
X136295155Y-44168407D01*
X136300000Y-44199000D01*
X136300000Y-44401000D01*
X136281093Y-44459191D01*
X136231593Y-44495155D01*
X136201000Y-44500000D01*
X135250001Y-44500000D01*
X135250000Y-44500001D01*
X135250000Y-44613105D01*
X135252788Y-44648546D01*
X135252790Y-44648552D01*
X135296845Y-44800189D01*
X135377227Y-44936109D01*
X135488890Y-45047772D01*
X135624810Y-45128154D01*
X135733557Y-45159749D01*
X135784163Y-45194140D01*
X135804888Y-45251709D01*
X135787818Y-45310465D01*
X135775941Y-45324822D01*
X135114919Y-45985844D01*
X135075510Y-46009994D01*
X135061800Y-46014449D01*
X135025361Y-46026289D01*
X135025357Y-46026290D01*
X135025357Y-46026291D01*
X134864008Y-46108502D01*
X134833703Y-46130520D01*
X134717499Y-46214947D01*
X134589447Y-46342999D01*
X134542450Y-46407685D01*
X134483002Y-46489508D01*
X134400788Y-46650862D01*
X134344828Y-46823093D01*
X134316500Y-47001950D01*
X134316500Y-47752756D01*
X134297593Y-47810947D01*
X134287504Y-47822760D01*
X132289761Y-49820504D01*
X132235244Y-49848281D01*
X132219757Y-49849500D01*
X126338743Y-49849500D01*
X126280552Y-49830593D01*
X126244588Y-49781093D01*
X126244588Y-49719907D01*
X126268737Y-49680498D01*
X126280520Y-49668716D01*
X126285549Y-49660005D01*
X126331012Y-49619062D01*
X126371283Y-49610499D01*
X127931518Y-49610499D01*
X127931521Y-49610499D01*
X127931522Y-49610498D01*
X127978411Y-49603072D01*
X128025299Y-49595647D01*
X128025299Y-49595646D01*
X128025304Y-49595646D01*
X128138342Y-49538050D01*
X128228050Y-49448342D01*
X128285646Y-49335304D01*
X128300500Y-49241519D01*
X128300499Y-47658482D01*
X128300499Y-47658478D01*
X128300498Y-47658476D01*
X128285647Y-47564700D01*
X128285646Y-47564698D01*
X128285646Y-47564696D01*
X128228050Y-47451658D01*
X128138342Y-47361950D01*
X128134507Y-47359996D01*
X128053657Y-47318800D01*
X128010393Y-47275535D01*
X128000822Y-47215103D01*
X128019597Y-47170935D01*
X128130904Y-47023542D01*
X128226770Y-46831017D01*
X128285628Y-46624155D01*
X128305472Y-46410000D01*
X128285628Y-46195845D01*
X128283334Y-46187782D01*
X128285593Y-46126640D01*
X128308549Y-46090686D01*
X128380520Y-46018716D01*
X128432040Y-45929480D01*
X128459149Y-45882527D01*
X128459164Y-45882500D01*
X128459577Y-45881785D01*
X128500500Y-45729058D01*
X128500500Y-45589743D01*
X128519407Y-45531552D01*
X128529496Y-45519739D01*
X129119740Y-44929496D01*
X129174257Y-44901719D01*
X129189744Y-44900500D01*
X129316539Y-44900500D01*
X129369210Y-44915674D01*
X129454050Y-44968983D01*
X129472310Y-44980456D01*
X129536232Y-45002823D01*
X129631934Y-45036311D01*
X129631938Y-45036312D01*
X129631941Y-45036313D01*
X129631942Y-45036313D01*
X129631946Y-45036314D01*
X129799996Y-45055249D01*
X129800000Y-45055249D01*
X129800004Y-45055249D01*
X129968053Y-45036314D01*
X129968055Y-45036313D01*
X129968059Y-45036313D01*
X130127690Y-44980456D01*
X130270890Y-44890477D01*
X130390477Y-44770890D01*
X130480456Y-44627690D01*
X130536313Y-44468059D01*
X130537229Y-44459932D01*
X130555249Y-44300004D01*
X130555249Y-44299995D01*
X130536314Y-44131946D01*
X130536311Y-44131934D01*
X130485539Y-43986837D01*
X130480456Y-43972310D01*
X130478076Y-43968523D01*
X130390479Y-43829113D01*
X130390478Y-43829112D01*
X130390477Y-43829110D01*
X130270890Y-43709523D01*
X130270887Y-43709521D01*
X130270886Y-43709520D01*
X130127691Y-43619544D01*
X129968065Y-43563688D01*
X129968053Y-43563685D01*
X129800004Y-43544751D01*
X129799996Y-43544751D01*
X129631946Y-43563685D01*
X129631934Y-43563688D01*
X129472309Y-43619544D01*
X129472308Y-43619544D01*
X129369210Y-43684326D01*
X129316539Y-43699500D01*
X128985137Y-43699500D01*
X128985121Y-43699499D01*
X128979058Y-43699499D01*
X128820943Y-43699499D01*
X128820940Y-43699499D01*
X128668219Y-43740421D01*
X128668218Y-43740421D01*
X128531281Y-43819482D01*
X128382239Y-43968523D01*
X128327722Y-43996300D01*
X128267290Y-43986728D01*
X128224026Y-43943463D01*
X128223615Y-43942647D01*
X128162285Y-43819480D01*
X128130904Y-43756458D01*
X128001294Y-43584827D01*
X128001288Y-43584821D01*
X128001287Y-43584820D01*
X127922804Y-43513272D01*
X127892538Y-43460097D01*
X127890500Y-43440111D01*
X127890500Y-42199999D01*
X135250000Y-42199999D01*
X135250001Y-42200000D01*
X135899999Y-42200000D01*
X135900000Y-42199999D01*
X135900000Y-41566007D01*
X135918907Y-41507816D01*
X135928996Y-41496003D01*
X135950000Y-41474999D01*
X135950000Y-40800001D01*
X135949999Y-40800000D01*
X135300001Y-40800000D01*
X135300000Y-40800001D01*
X135300000Y-40913105D01*
X135302788Y-40948546D01*
X135302790Y-40948552D01*
X135346845Y-41100189D01*
X135427227Y-41236109D01*
X135538892Y-41347774D01*
X135627204Y-41400002D01*
X135667667Y-41445897D01*
X135673425Y-41506811D01*
X135642279Y-41559476D01*
X135627204Y-41570428D01*
X135488892Y-41652225D01*
X135377227Y-41763890D01*
X135296845Y-41899810D01*
X135252790Y-42051447D01*
X135252788Y-42051453D01*
X135250000Y-42086894D01*
X135250000Y-42199999D01*
X127890500Y-42199999D01*
X127890500Y-40399999D01*
X135300000Y-40399999D01*
X135300001Y-40400000D01*
X135949999Y-40400000D01*
X135950000Y-40399999D01*
X135950000Y-39725001D01*
X135949999Y-39725000D01*
X135861894Y-39725000D01*
X135826453Y-39727788D01*
X135826447Y-39727790D01*
X135674810Y-39771845D01*
X135538890Y-39852227D01*
X135427227Y-39963890D01*
X135346845Y-40099810D01*
X135302790Y-40251447D01*
X135302788Y-40251453D01*
X135300000Y-40286894D01*
X135300000Y-40399999D01*
X127890500Y-40399999D01*
X127890500Y-35611875D01*
X127909407Y-35553684D01*
X127919490Y-35541877D01*
X129032952Y-34428416D01*
X129109030Y-34314555D01*
X129115084Y-34305495D01*
X129149315Y-34222854D01*
X129189051Y-34176328D01*
X129248546Y-34162044D01*
X129293764Y-34178106D01*
G37*
G04 #@! TD.AperFunction*
G04 #@! TA.AperFunction,Conductor*
G36*
X133119448Y-24569407D02*
G01*
X133155412Y-24618907D01*
X133155412Y-24680093D01*
X133131261Y-24719503D01*
X132402949Y-25447815D01*
X131681286Y-26169478D01*
X131681284Y-26169480D01*
X131681283Y-26169479D01*
X131569480Y-26281283D01*
X131553069Y-26309709D01*
X131541054Y-26330520D01*
X131525561Y-26357354D01*
X131490424Y-26418211D01*
X131490423Y-26418215D01*
X131449499Y-26570943D01*
X131449499Y-26570945D01*
X131449499Y-26737031D01*
X131449500Y-26737044D01*
X131449500Y-28499903D01*
X131430593Y-28558094D01*
X131420509Y-28569900D01*
X131361328Y-28629082D01*
X131326827Y-28663583D01*
X131246383Y-28799606D01*
X131246383Y-28799607D01*
X131202290Y-28951374D01*
X131199500Y-28986842D01*
X131199500Y-29613157D01*
X131202291Y-29648626D01*
X131202292Y-29648631D01*
X131246383Y-29800393D01*
X131326827Y-29936416D01*
X131326828Y-29936417D01*
X131326830Y-29936420D01*
X131420408Y-30029998D01*
X131448184Y-30084513D01*
X131438613Y-30144945D01*
X131420409Y-30170000D01*
X131369910Y-30220500D01*
X131326827Y-30263583D01*
X131304636Y-30301107D01*
X131258740Y-30341570D01*
X131232348Y-30348865D01*
X131227526Y-30349499D01*
X131087510Y-30387017D01*
X130961989Y-30459487D01*
X130961988Y-30459488D01*
X130159488Y-31261987D01*
X130103145Y-31359576D01*
X130103146Y-31359577D01*
X130087016Y-31387513D01*
X130049500Y-31527525D01*
X130049500Y-32838315D01*
X130030593Y-32896506D01*
X129981093Y-32932470D01*
X129926808Y-32934438D01*
X129785058Y-32899500D01*
X129785056Y-32899500D01*
X129614944Y-32899500D01*
X129614941Y-32899500D01*
X129449776Y-32940209D01*
X129345508Y-32994934D01*
X129285196Y-33005235D01*
X129230347Y-32978118D01*
X129201913Y-32923942D01*
X129200500Y-32907274D01*
X129200500Y-29956083D01*
X129200500Y-29956082D01*
X129171658Y-29811087D01*
X129115084Y-29674505D01*
X129065636Y-29600500D01*
X129032952Y-29551584D01*
X128329505Y-28848137D01*
X128301728Y-28793620D01*
X128300931Y-28768998D01*
X128305472Y-28720000D01*
X128285628Y-28505845D01*
X128226770Y-28298983D01*
X128130904Y-28106458D01*
X128001294Y-27934827D01*
X127842354Y-27789933D01*
X127842353Y-27789932D01*
X127842352Y-27789931D01*
X127659501Y-27676715D01*
X127659496Y-27676712D01*
X127458944Y-27599018D01*
X127247536Y-27559500D01*
X127032464Y-27559500D01*
X126821055Y-27599018D01*
X126620503Y-27676712D01*
X126620498Y-27676715D01*
X126437647Y-27789931D01*
X126437646Y-27789932D01*
X126278709Y-27934823D01*
X126149097Y-28106456D01*
X126149092Y-28106465D01*
X126053231Y-28298980D01*
X126053230Y-28298983D01*
X125994372Y-28505845D01*
X125974528Y-28720000D01*
X125994372Y-28934155D01*
X126053230Y-29141017D01*
X126149096Y-29333542D01*
X126278706Y-29505173D01*
X126278708Y-29505175D01*
X126278709Y-29505176D01*
X126437646Y-29650067D01*
X126446953Y-29655830D01*
X126486473Y-29702539D01*
X126490990Y-29763558D01*
X126458779Y-29815578D01*
X126446953Y-29824170D01*
X126437646Y-29829932D01*
X126278709Y-29974823D01*
X126149097Y-30146456D01*
X126149092Y-30146465D01*
X126053231Y-30338980D01*
X126053230Y-30338983D01*
X125994372Y-30545845D01*
X125974528Y-30760000D01*
X125994372Y-30974155D01*
X126053230Y-31181017D01*
X126149096Y-31373542D01*
X126260399Y-31520931D01*
X126280379Y-31578761D01*
X126262551Y-31637291D01*
X126226342Y-31668800D01*
X126141659Y-31711949D01*
X126051949Y-31801659D01*
X125994354Y-31914695D01*
X125979500Y-32008478D01*
X125979500Y-33591521D01*
X125979501Y-33591523D01*
X125994352Y-33685299D01*
X125994354Y-33685304D01*
X126051950Y-33798342D01*
X126141658Y-33888050D01*
X126254696Y-33945646D01*
X126348481Y-33960500D01*
X127139124Y-33960499D01*
X127197315Y-33979406D01*
X127233279Y-34028906D01*
X127233279Y-34090092D01*
X127209128Y-34129502D01*
X126557047Y-34781584D01*
X126511669Y-34849500D01*
X126474914Y-34904507D01*
X126418342Y-35041085D01*
X126389500Y-35186081D01*
X126389500Y-43440111D01*
X126370593Y-43498302D01*
X126357196Y-43513272D01*
X126278712Y-43584820D01*
X126278708Y-43584824D01*
X126278706Y-43584827D01*
X126219000Y-43663890D01*
X126149097Y-43756456D01*
X126149092Y-43756465D01*
X126053231Y-43948980D01*
X126053230Y-43948983D01*
X125994372Y-44155845D01*
X125974528Y-44370000D01*
X125994372Y-44584155D01*
X126053230Y-44791017D01*
X126149096Y-44983542D01*
X126278706Y-45155173D01*
X126278708Y-45155175D01*
X126278709Y-45155176D01*
X126437646Y-45300067D01*
X126446953Y-45305830D01*
X126486473Y-45352539D01*
X126490990Y-45413558D01*
X126458779Y-45465578D01*
X126446953Y-45474170D01*
X126437646Y-45479932D01*
X126278706Y-45624826D01*
X126168954Y-45770160D01*
X126118798Y-45805203D01*
X126089951Y-45809499D01*
X125986141Y-45809499D01*
X125843095Y-45847829D01*
X125831145Y-45851031D01*
X125770044Y-45847829D01*
X125722494Y-45809324D01*
X125706658Y-45750223D01*
X125710299Y-45728320D01*
X125745628Y-45604155D01*
X125765472Y-45390000D01*
X125745628Y-45175845D01*
X125686770Y-44968983D01*
X125590904Y-44776458D01*
X125461294Y-44604827D01*
X125340990Y-44495155D01*
X125302354Y-44459933D01*
X125301156Y-44459191D01*
X125293048Y-44454171D01*
X125253527Y-44407464D01*
X125249008Y-44346446D01*
X125281217Y-44294424D01*
X125293045Y-44285830D01*
X125302354Y-44280067D01*
X125461294Y-44135173D01*
X125590904Y-43963542D01*
X125686770Y-43771017D01*
X125745628Y-43564155D01*
X125765472Y-43350000D01*
X125745628Y-43135845D01*
X125686770Y-42928983D01*
X125590904Y-42736458D01*
X125461294Y-42564827D01*
X125428210Y-42534667D01*
X125302353Y-42419932D01*
X125302352Y-42419931D01*
X125119501Y-42306715D01*
X125119496Y-42306712D01*
X124918947Y-42229019D01*
X124918946Y-42229018D01*
X124918944Y-42229018D01*
X124707536Y-42189500D01*
X124492464Y-42189500D01*
X124281055Y-42229018D01*
X124080503Y-42306712D01*
X124080498Y-42306715D01*
X123897647Y-42419931D01*
X123897646Y-42419932D01*
X123738709Y-42564823D01*
X123609097Y-42736456D01*
X123609092Y-42736465D01*
X123519492Y-42916407D01*
X123513230Y-42928983D01*
X123454372Y-43135845D01*
X123434528Y-43350000D01*
X123454372Y-43564155D01*
X123513230Y-43771017D01*
X123609096Y-43963542D01*
X123738706Y-44135173D01*
X123738708Y-44135175D01*
X123738709Y-44135176D01*
X123897646Y-44280067D01*
X123906953Y-44285830D01*
X123946473Y-44332539D01*
X123950990Y-44393558D01*
X123918779Y-44445578D01*
X123906953Y-44454170D01*
X123897646Y-44459932D01*
X123738709Y-44604823D01*
X123609097Y-44776456D01*
X123609092Y-44776465D01*
X123532892Y-44929496D01*
X123513230Y-44968983D01*
X123454372Y-45175845D01*
X123434528Y-45390000D01*
X123454372Y-45604155D01*
X123512798Y-45809499D01*
X123513231Y-45811019D01*
X123587335Y-45959841D01*
X123609096Y-46003542D01*
X123738706Y-46175173D01*
X123738708Y-46175175D01*
X123738709Y-46175176D01*
X123784803Y-46217196D01*
X123897646Y-46320067D01*
X123907424Y-46326121D01*
X123946946Y-46372830D01*
X123951465Y-46433848D01*
X123934058Y-46461961D01*
X123932056Y-46479212D01*
X124455647Y-47002804D01*
X124426306Y-47010667D01*
X124323694Y-47069910D01*
X124239910Y-47153694D01*
X124180667Y-47256306D01*
X124172804Y-47285648D01*
X123650118Y-46762962D01*
X123609523Y-46816721D01*
X123513699Y-47009161D01*
X123454866Y-47215937D01*
X123435030Y-47430000D01*
X123454866Y-47644062D01*
X123513699Y-47850838D01*
X123609519Y-48043270D01*
X123609528Y-48043285D01*
X123650118Y-48097036D01*
X124172804Y-47574351D01*
X124180667Y-47603694D01*
X124239910Y-47706306D01*
X124323694Y-47790090D01*
X124426306Y-47849333D01*
X124455647Y-47857195D01*
X123932058Y-48380784D01*
X124080729Y-48472837D01*
X124281193Y-48550498D01*
X124492510Y-48590000D01*
X124707490Y-48590000D01*
X124918806Y-48550498D01*
X125064737Y-48493964D01*
X125125828Y-48490574D01*
X125177245Y-48523739D01*
X125199348Y-48580793D01*
X125199500Y-48586279D01*
X125199500Y-49010257D01*
X125180593Y-49068448D01*
X125170504Y-49080260D01*
X125080262Y-49170503D01*
X125025746Y-49198281D01*
X125010258Y-49199500D01*
X123789743Y-49199500D01*
X123731552Y-49180593D01*
X123719739Y-49170504D01*
X121329496Y-46780261D01*
X121301719Y-46725744D01*
X121300500Y-46710257D01*
X121300500Y-44789742D01*
X121319407Y-44731551D01*
X121329490Y-44719744D01*
X122581426Y-43467807D01*
X122635941Y-43440032D01*
X122640319Y-43439438D01*
X122668059Y-43436313D01*
X122827690Y-43380456D01*
X122970890Y-43290477D01*
X123090477Y-43170890D01*
X123180456Y-43027690D01*
X123236313Y-42868059D01*
X123238593Y-42847828D01*
X123255249Y-42700004D01*
X123255249Y-42699995D01*
X123236314Y-42531946D01*
X123236312Y-42531940D01*
X123228816Y-42510517D01*
X123199516Y-42426781D01*
X123180456Y-42372310D01*
X123090477Y-42229110D01*
X122970890Y-42109523D01*
X122970887Y-42109521D01*
X122970886Y-42109520D01*
X122827691Y-42019544D01*
X122668065Y-41963688D01*
X122668053Y-41963685D01*
X122500004Y-41944751D01*
X122499996Y-41944751D01*
X122331946Y-41963685D01*
X122331934Y-41963688D01*
X122172309Y-42019544D01*
X122172308Y-42019544D01*
X122029113Y-42109520D01*
X121909520Y-42229113D01*
X121819544Y-42372308D01*
X121819544Y-42372309D01*
X121763686Y-42531939D01*
X121763686Y-42531940D01*
X121760563Y-42559656D01*
X121735258Y-42615364D01*
X121732190Y-42618573D01*
X120769504Y-43581260D01*
X120714987Y-43609037D01*
X120654555Y-43599466D01*
X120611290Y-43556201D01*
X120600500Y-43511256D01*
X120600500Y-40010225D01*
X120899500Y-40010225D01*
X120933984Y-40227948D01*
X121002102Y-40437599D01*
X121002104Y-40437602D01*
X121002105Y-40437606D01*
X121102185Y-40634022D01*
X121231758Y-40812365D01*
X121387635Y-40968242D01*
X121565978Y-41097815D01*
X121762394Y-41197895D01*
X121972049Y-41266015D01*
X122059140Y-41279809D01*
X122189775Y-41300500D01*
X122189778Y-41300500D01*
X122410225Y-41300500D01*
X122519086Y-41283257D01*
X122627951Y-41266015D01*
X122837606Y-41197895D01*
X123034022Y-41097815D01*
X123212365Y-40968242D01*
X123368242Y-40812365D01*
X123497815Y-40634022D01*
X123597895Y-40437606D01*
X123666015Y-40227951D01*
X123691339Y-40068065D01*
X123700500Y-40010225D01*
X123700500Y-39789774D01*
X123666015Y-39572051D01*
X123666015Y-39572049D01*
X123597895Y-39362394D01*
X123497815Y-39165978D01*
X123368242Y-38987635D01*
X123212365Y-38831758D01*
X123034022Y-38702185D01*
X123034021Y-38702184D01*
X123034019Y-38702183D01*
X122944825Y-38656736D01*
X122837606Y-38602105D01*
X122837602Y-38602104D01*
X122837599Y-38602102D01*
X122627948Y-38533984D01*
X122410225Y-38499500D01*
X122410222Y-38499500D01*
X122189778Y-38499500D01*
X122189775Y-38499500D01*
X121972051Y-38533984D01*
X121762400Y-38602102D01*
X121565980Y-38702183D01*
X121476806Y-38766971D01*
X121387635Y-38831758D01*
X121231758Y-38987635D01*
X121219166Y-39004967D01*
X121102183Y-39165980D01*
X121002102Y-39362400D01*
X120933984Y-39572051D01*
X120899500Y-39789774D01*
X120899500Y-40010225D01*
X120600500Y-40010225D01*
X120600500Y-36360225D01*
X120899500Y-36360225D01*
X120933984Y-36577948D01*
X121002102Y-36787599D01*
X121002104Y-36787602D01*
X121002105Y-36787606D01*
X121102185Y-36984022D01*
X121231758Y-37162365D01*
X121387635Y-37318242D01*
X121565978Y-37447815D01*
X121762394Y-37547895D01*
X121762399Y-37547896D01*
X121762400Y-37547897D01*
X121777520Y-37552809D01*
X121972049Y-37616015D01*
X122059140Y-37629809D01*
X122189775Y-37650500D01*
X122189778Y-37650500D01*
X122410225Y-37650500D01*
X122519086Y-37633257D01*
X122627951Y-37616015D01*
X122837606Y-37547895D01*
X123034022Y-37447815D01*
X123212365Y-37318242D01*
X123368242Y-37162365D01*
X123497815Y-36984022D01*
X123597895Y-36787606D01*
X123666015Y-36577951D01*
X123698183Y-36374852D01*
X123700500Y-36360225D01*
X123700500Y-36139774D01*
X123666015Y-35922051D01*
X123666015Y-35922049D01*
X123597895Y-35712394D01*
X123497815Y-35515978D01*
X123368242Y-35337635D01*
X123212365Y-35181758D01*
X123034022Y-35052185D01*
X123034021Y-35052184D01*
X123034019Y-35052183D01*
X122892352Y-34980000D01*
X122837606Y-34952105D01*
X122837602Y-34952104D01*
X122837599Y-34952102D01*
X122627948Y-34883984D01*
X122410225Y-34849500D01*
X122410222Y-34849500D01*
X122189778Y-34849500D01*
X122189775Y-34849500D01*
X121972051Y-34883984D01*
X121762400Y-34952102D01*
X121565980Y-35052183D01*
X121476806Y-35116971D01*
X121387635Y-35181758D01*
X121231758Y-35337635D01*
X121179670Y-35409328D01*
X121102183Y-35515980D01*
X121002102Y-35712400D01*
X120933984Y-35922051D01*
X120899500Y-36139774D01*
X120899500Y-36360225D01*
X120600500Y-36360225D01*
X120600500Y-28629082D01*
X120619407Y-28570891D01*
X120629496Y-28559078D01*
X122709078Y-26479496D01*
X122763595Y-26451719D01*
X122779082Y-26450500D01*
X124083196Y-26450500D01*
X124141387Y-26469407D01*
X124177351Y-26518907D01*
X124177351Y-26580093D01*
X124141387Y-26629593D01*
X124118962Y-26641813D01*
X124096780Y-26650406D01*
X124080503Y-26656712D01*
X124080498Y-26656715D01*
X123897647Y-26769931D01*
X123897646Y-26769932D01*
X123738709Y-26914823D01*
X123609097Y-27086456D01*
X123609092Y-27086465D01*
X123513231Y-27278980D01*
X123513230Y-27278983D01*
X123454372Y-27485845D01*
X123434528Y-27700000D01*
X123454372Y-27914155D01*
X123513230Y-28121017D01*
X123609096Y-28313542D01*
X123738706Y-28485173D01*
X123738708Y-28485175D01*
X123738709Y-28485176D01*
X123897646Y-28630067D01*
X123906953Y-28635830D01*
X123946473Y-28682539D01*
X123950990Y-28743558D01*
X123918779Y-28795578D01*
X123906953Y-28804170D01*
X123897646Y-28809932D01*
X123738709Y-28954823D01*
X123609097Y-29126456D01*
X123609092Y-29126465D01*
X123519856Y-29305676D01*
X123513230Y-29318983D01*
X123454372Y-29525845D01*
X123434528Y-29740000D01*
X123454372Y-29954155D01*
X123513230Y-30161017D01*
X123609096Y-30353542D01*
X123738706Y-30525173D01*
X123738708Y-30525175D01*
X123738709Y-30525176D01*
X123806349Y-30586838D01*
X123897646Y-30670067D01*
X123907422Y-30676120D01*
X123907424Y-30676121D01*
X123946946Y-30722830D01*
X123951465Y-30783848D01*
X123934058Y-30811961D01*
X123932056Y-30829212D01*
X124455648Y-31352804D01*
X124426306Y-31360667D01*
X124323694Y-31419910D01*
X124239910Y-31503694D01*
X124180667Y-31606306D01*
X124172804Y-31635648D01*
X123650118Y-31112962D01*
X123609523Y-31166721D01*
X123513699Y-31359161D01*
X123454866Y-31565937D01*
X123435030Y-31780000D01*
X123454866Y-31994062D01*
X123513699Y-32200838D01*
X123609519Y-32393270D01*
X123609528Y-32393285D01*
X123650118Y-32447036D01*
X124172804Y-31924351D01*
X124180667Y-31953694D01*
X124239910Y-32056306D01*
X124323694Y-32140090D01*
X124426306Y-32199333D01*
X124455647Y-32207194D01*
X123932058Y-32730784D01*
X124080729Y-32822837D01*
X124281193Y-32900498D01*
X124492510Y-32940000D01*
X124707490Y-32940000D01*
X124918806Y-32900498D01*
X125119272Y-32822837D01*
X125119277Y-32822834D01*
X125267941Y-32730785D01*
X124744351Y-32207195D01*
X124773694Y-32199333D01*
X124876306Y-32140090D01*
X124960090Y-32056306D01*
X125019333Y-31953694D01*
X125027195Y-31924351D01*
X125549879Y-32447035D01*
X125590475Y-32393279D01*
X125590480Y-32393270D01*
X125686300Y-32200838D01*
X125745133Y-31994062D01*
X125764969Y-31780000D01*
X125745133Y-31565937D01*
X125686300Y-31359161D01*
X125590480Y-31166729D01*
X125590471Y-31166714D01*
X125549880Y-31112962D01*
X125027194Y-31635647D01*
X125019333Y-31606306D01*
X124960090Y-31503694D01*
X124876306Y-31419910D01*
X124773694Y-31360667D01*
X124744349Y-31352804D01*
X125267942Y-30829212D01*
X125266078Y-30813150D01*
X125253052Y-30797754D01*
X125248535Y-30736736D01*
X125280745Y-30684715D01*
X125292576Y-30676121D01*
X125302354Y-30670067D01*
X125461294Y-30525173D01*
X125590904Y-30353542D01*
X125686770Y-30161017D01*
X125745628Y-29954155D01*
X125765472Y-29740000D01*
X125745628Y-29525845D01*
X125686770Y-29318983D01*
X125590904Y-29126458D01*
X125461294Y-28954827D01*
X125457586Y-28951447D01*
X125302354Y-28809933D01*
X125302352Y-28809932D01*
X125293048Y-28804171D01*
X125253527Y-28757464D01*
X125249008Y-28696446D01*
X125281217Y-28644424D01*
X125293045Y-28635830D01*
X125302354Y-28630067D01*
X125461294Y-28485173D01*
X125590904Y-28313542D01*
X125686770Y-28121017D01*
X125745628Y-27914155D01*
X125765472Y-27700000D01*
X125745628Y-27485845D01*
X125686770Y-27278983D01*
X125590904Y-27086458D01*
X125461294Y-26914827D01*
X125459599Y-26913282D01*
X125302353Y-26769932D01*
X125302352Y-26769931D01*
X125119501Y-26656715D01*
X125119496Y-26656712D01*
X125081039Y-26641813D01*
X125033610Y-26603163D01*
X125017956Y-26544014D01*
X125040059Y-26486961D01*
X125091476Y-26453795D01*
X125116804Y-26450500D01*
X128284376Y-26450500D01*
X128284392Y-26450501D01*
X128290455Y-26450501D01*
X128448568Y-26450501D01*
X128448569Y-26450501D01*
X128601297Y-26409577D01*
X128651416Y-26380639D01*
X128738228Y-26330520D01*
X128850032Y-26218716D01*
X128850033Y-26218713D01*
X129430497Y-25638249D01*
X129485013Y-25610473D01*
X129545445Y-25620044D01*
X129588710Y-25663309D01*
X129599500Y-25708254D01*
X129599500Y-28516539D01*
X129584326Y-28569210D01*
X129519544Y-28672308D01*
X129519544Y-28672309D01*
X129463688Y-28831934D01*
X129463685Y-28831946D01*
X129444751Y-28999995D01*
X129444751Y-29000004D01*
X129463685Y-29168053D01*
X129463688Y-29168065D01*
X129519544Y-29327690D01*
X129519544Y-29327691D01*
X129609520Y-29470886D01*
X129609523Y-29470890D01*
X129729110Y-29590477D01*
X129729112Y-29590478D01*
X129729113Y-29590479D01*
X129821654Y-29648627D01*
X129872310Y-29680456D01*
X129905870Y-29692199D01*
X130031934Y-29736311D01*
X130031938Y-29736312D01*
X130031941Y-29736313D01*
X130031942Y-29736313D01*
X130031946Y-29736314D01*
X130199996Y-29755249D01*
X130200000Y-29755249D01*
X130200004Y-29755249D01*
X130368053Y-29736314D01*
X130368055Y-29736313D01*
X130368059Y-29736313D01*
X130527690Y-29680456D01*
X130670890Y-29590477D01*
X130790477Y-29470890D01*
X130880456Y-29327690D01*
X130936313Y-29168059D01*
X130941000Y-29126465D01*
X130955249Y-29000004D01*
X130955249Y-28999995D01*
X130936314Y-28831946D01*
X130936311Y-28831934D01*
X130910695Y-28758728D01*
X130880456Y-28672310D01*
X130878051Y-28668483D01*
X130815674Y-28569210D01*
X130800500Y-28516539D01*
X130800500Y-25494855D01*
X130819407Y-25436664D01*
X130868907Y-25400700D01*
X130930093Y-25400700D01*
X130932148Y-25401394D01*
X130989383Y-25421421D01*
X131031934Y-25436311D01*
X131031938Y-25436312D01*
X131031941Y-25436313D01*
X131031942Y-25436313D01*
X131031946Y-25436314D01*
X131199996Y-25455249D01*
X131200000Y-25455249D01*
X131200004Y-25455249D01*
X131368053Y-25436314D01*
X131368055Y-25436313D01*
X131368059Y-25436313D01*
X131527690Y-25380456D01*
X131670890Y-25290477D01*
X131790477Y-25170890D01*
X131880456Y-25027690D01*
X131936313Y-24868059D01*
X131945379Y-24787599D01*
X131955249Y-24700004D01*
X131955249Y-24699997D01*
X131950808Y-24660586D01*
X131963080Y-24600644D01*
X132008242Y-24559363D01*
X132049185Y-24550500D01*
X133061257Y-24550500D01*
X133119448Y-24569407D01*
G37*
G04 #@! TD.AperFunction*
M02*
