G04 #@! TF.GenerationSoftware,KiCad,Pcbnew,8.0.1*
G04 #@! TF.CreationDate,2024-10-15T00:39:43+09:00*
G04 #@! TF.ProjectId,AltBoard2025,416c7442-6f61-4726-9432-3032352e6b69,rev?*
G04 #@! TF.SameCoordinates,Original*
G04 #@! TF.FileFunction,Paste,Bot*
G04 #@! TF.FilePolarity,Positive*
%FSLAX46Y46*%
G04 Gerber Fmt 4.6, Leading zero omitted, Abs format (unit mm)*
G04 Created by KiCad (PCBNEW 8.0.1) date 2024-10-15 00:39:43*
%MOMM*%
%LPD*%
G01*
G04 APERTURE LIST*
G04 Aperture macros list*
%AMRoundRect*
0 Rectangle with rounded corners*
0 $1 Rounding radius*
0 $2 $3 $4 $5 $6 $7 $8 $9 X,Y pos of 4 corners*
0 Add a 4 corners polygon primitive as box body*
4,1,4,$2,$3,$4,$5,$6,$7,$8,$9,$2,$3,0*
0 Add four circle primitives for the rounded corners*
1,1,$1+$1,$2,$3*
1,1,$1+$1,$4,$5*
1,1,$1+$1,$6,$7*
1,1,$1+$1,$8,$9*
0 Add four rect primitives between the rounded corners*
20,1,$1+$1,$2,$3,$4,$5,0*
20,1,$1+$1,$4,$5,$6,$7,0*
20,1,$1+$1,$6,$7,$8,$9,0*
20,1,$1+$1,$8,$9,$2,$3,0*%
G04 Aperture macros list end*
%ADD10RoundRect,0.200000X0.275000X-0.200000X0.275000X0.200000X-0.275000X0.200000X-0.275000X-0.200000X0*%
%ADD11RoundRect,0.225000X0.225000X0.375000X-0.225000X0.375000X-0.225000X-0.375000X0.225000X-0.375000X0*%
%ADD12R,0.550000X1.600000*%
%ADD13R,1.600000X0.550000*%
%ADD14R,1.900000X0.400000*%
%ADD15R,1.750000X0.450000*%
%ADD16RoundRect,0.225000X-0.225000X-0.250000X0.225000X-0.250000X0.225000X0.250000X-0.225000X0.250000X0*%
G04 APERTURE END LIST*
D10*
X119200000Y-40950000D03*
X119200000Y-39300000D03*
D11*
X136700000Y-50400000D03*
X133400000Y-50400000D03*
D12*
X133900000Y-23750000D03*
X134700000Y-23750000D03*
X135500000Y-23750000D03*
X136300000Y-23750000D03*
X137100000Y-23750000D03*
X137900000Y-23750000D03*
X138700000Y-23750000D03*
X139500000Y-23750000D03*
D13*
X140950000Y-25200000D03*
X140950000Y-26000000D03*
X140950000Y-26800000D03*
X140950000Y-27600000D03*
X140950000Y-28400000D03*
X140950000Y-29200000D03*
X140950000Y-30000000D03*
X140950000Y-30800000D03*
D12*
X139500000Y-32250000D03*
X138700000Y-32250000D03*
X137900000Y-32250000D03*
X137100000Y-32250000D03*
X136300000Y-32250000D03*
X135500000Y-32250000D03*
X134700000Y-32250000D03*
X133900000Y-32250000D03*
D13*
X132450000Y-30800000D03*
X132450000Y-30000000D03*
X132450000Y-29200000D03*
X132450000Y-28400000D03*
X132450000Y-27600000D03*
X132450000Y-26800000D03*
X132450000Y-26000000D03*
X132450000Y-25200000D03*
D14*
X143400000Y-23700000D03*
X143400000Y-22500000D03*
X143400000Y-21300000D03*
D11*
X136700000Y-52700000D03*
X133400000Y-52700000D03*
D15*
X133900000Y-43125000D03*
X133900000Y-42475000D03*
X133900000Y-41825000D03*
X133900000Y-41175000D03*
X133900000Y-40525000D03*
X133900000Y-39875000D03*
X133900000Y-39225000D03*
X133900000Y-38575000D03*
X133900000Y-37925000D03*
X133900000Y-37275000D03*
X133900000Y-36625000D03*
X133900000Y-35975000D03*
X133900000Y-35325000D03*
X133900000Y-34675000D03*
X141100000Y-34675000D03*
X141100000Y-35325000D03*
X141100000Y-35975000D03*
X141100000Y-36625000D03*
X141100000Y-37275000D03*
X141100000Y-37925000D03*
X141100000Y-38575000D03*
X141100000Y-39225000D03*
X141100000Y-39875000D03*
X141100000Y-40525000D03*
X141100000Y-41175000D03*
X141100000Y-41825000D03*
X141100000Y-42475000D03*
X141100000Y-43125000D03*
D16*
X139850000Y-51900000D03*
X141400000Y-51900000D03*
D14*
X130500000Y-37200000D03*
X130500000Y-38400000D03*
X130500000Y-39600000D03*
M02*
