M48
; DRILL file {KiCad 8.0.1} date 2024-10-15T00:39:48+0900
; FORMAT={-:-/ absolute / metric / decimal}
; #@! TF.CreationDate,2024-10-15T00:39:48+09:00
; #@! TF.GenerationSoftware,Kicad,Pcbnew,8.0.1
; #@! TF.FileFunction,Plated,1,2,PTH
FMAT,2
METRIC
; #@! TA.AperFunction,Plated,PTH,ViaDrill
T1C0.300
; #@! TA.AperFunction,Plated,PTH,ViaDrill
T2C0.400
; #@! TA.AperFunction,Plated,PTH,ViaDrill
T3C0.500
; #@! TA.AperFunction,Plated,PTH,ComponentDrill
T4C0.800
; #@! TA.AperFunction,Plated,PTH,ComponentDrill
T5C0.900
; #@! TA.AperFunction,Plated,PTH,ComponentDrill
T6C1.000
%
G90
G05
T1
X118.0Y-29.4
X125.7Y-28.7
X128.4Y-37.2
X131.1Y-49.1
X131.9Y-44.6
X132.4Y-32.4
X135.0Y-45.4
X135.4Y-39.7
X135.5Y-25.2
X140.1Y-45.0
X143.232Y-31.4
T2
X129.7Y-33.6
X140.4Y-33.2
X140.6Y-31.6
X142.2Y-29.2
X142.3Y-33.9
X142.4Y-30.0
X142.7Y-26.4
T3
X117.2Y-50.0
X118.1Y-32.0
X118.5Y-25.9
X118.5Y-43.4
X120.1Y-23.3
X120.4Y-51.5
X121.3Y-30.3
X122.5Y-42.7
X122.9Y-28.7
X123.1Y-32.6
X123.5Y-20.1
X123.5Y-46.4
X123.9Y-48.8
X125.2Y-51.2
X125.6Y-41.5
X125.8Y-35.7
X126.0Y-45.3
X127.5Y-24.2
X128.5Y-20.1
X128.5Y-53.2
X128.8Y-28.0
X129.1Y-40.9
X129.8Y-44.3
X129.9Y-35.6
X130.1Y-22.8
X130.2Y-29.0
X131.2Y-24.7
X131.651Y-38.778
X132.1Y-40.4
X132.9Y-22.6
X133.9Y-28.1
X135.1Y-52.6
X135.2Y-50.5
X135.6Y-30.8
X135.895Y-34.302
X136.4Y-36.4
X136.5Y-37.8
X136.7Y-33.9
X137.7Y-30.8
X137.98Y-33.88
X138.0Y-25.2
X138.35Y-43.6
X138.8Y-35.2
X138.93Y-39.87
X139.1Y-30.8
X139.2Y-20.5
X139.469Y-42.485
X141.2Y-22.6
X142.405Y-41.743
X143.2Y-46.1
X143.6Y-51.6
X143.9Y-25.2
X143.9Y-43.8
X144.5Y-39.9
X145.3Y-22.5
X145.3Y-36.9
T4
X117.1Y-21.1
X119.64Y-21.1
X122.18Y-21.1
X124.72Y-21.1
X127.26Y-21.1
X129.8Y-21.1
X132.34Y-21.1
X134.88Y-21.1
X137.42Y-21.1
T5
X124.6Y-27.7
X124.6Y-29.74
X124.6Y-31.78
X124.6Y-43.35
X124.6Y-45.39
X124.6Y-47.43
X127.14Y-28.72
X127.14Y-30.76
X127.14Y-32.8
X127.14Y-44.37
X127.14Y-46.41
X127.14Y-48.45
T6
X135.467Y-47.492
X138.007Y-47.492
X140.547Y-47.492
X144.4Y-27.36
X144.4Y-29.9
X144.4Y-32.44
X144.4Y-34.98
M30
