%TF.GenerationSoftware,KiCad,Pcbnew,8.0.1*%
%TF.CreationDate,2024-10-15T00:39:49+09:00*%
%TF.ProjectId,AltBoard2025,416c7442-6f61-4726-9432-3032352e6b69,rev?*%
%TF.SameCoordinates,Original*%
%TF.FileFunction,Drillmap*%
%TF.FilePolarity,Positive*%
%FSLAX45Y45*%
G04 Gerber Fmt 4.5, Leading zero omitted, Abs format (unit mm)*
G04 Created by KiCad (PCBNEW 8.0.1) date 2024-10-15 00:39:49*
%MOMM*%
%LPD*%
G01*
G04 APERTURE LIST*
%ADD10C,0.050000*%
%ADD11C,0.200000*%
%ADD12C,0.230000*%
G04 APERTURE END LIST*
D10*
X11570000Y-1880000D02*
X14620000Y-1880000D01*
X14620000Y-5430000D01*
X11570000Y-5430000D01*
X11570000Y-1880000D01*
D11*
D12*
X12115000Y-2310000D02*
X12345000Y-2540000D01*
X12345000Y-2310000D02*
X12115000Y-2540000D01*
X12115000Y-3510000D02*
X12345000Y-3740000D01*
X12345000Y-3510000D02*
X12115000Y-3740000D01*
X12115000Y-3875000D02*
X12345000Y-4105000D01*
X12345000Y-3875000D02*
X12115000Y-4105000D01*
X12115000Y-5075000D02*
X12345000Y-5305000D01*
X12345000Y-5075000D02*
X12115000Y-5305000D01*
D11*
X11828277Y-5743984D02*
X11828277Y-5543984D01*
X11828277Y-5543984D02*
X11875896Y-5543984D01*
X11875896Y-5543984D02*
X11904467Y-5553508D01*
X11904467Y-5553508D02*
X11923515Y-5572555D01*
X11923515Y-5572555D02*
X11933039Y-5591603D01*
X11933039Y-5591603D02*
X11942562Y-5629698D01*
X11942562Y-5629698D02*
X11942562Y-5658269D01*
X11942562Y-5658269D02*
X11933039Y-5696365D01*
X11933039Y-5696365D02*
X11923515Y-5715412D01*
X11923515Y-5715412D02*
X11904467Y-5734460D01*
X11904467Y-5734460D02*
X11875896Y-5743984D01*
X11875896Y-5743984D02*
X11828277Y-5743984D01*
X12028277Y-5743984D02*
X12028277Y-5610650D01*
X12028277Y-5648746D02*
X12037801Y-5629698D01*
X12037801Y-5629698D02*
X12047324Y-5620174D01*
X12047324Y-5620174D02*
X12066372Y-5610650D01*
X12066372Y-5610650D02*
X12085420Y-5610650D01*
X12152086Y-5743984D02*
X12152086Y-5610650D01*
X12152086Y-5543984D02*
X12142562Y-5553508D01*
X12142562Y-5553508D02*
X12152086Y-5563031D01*
X12152086Y-5563031D02*
X12161610Y-5553508D01*
X12161610Y-5553508D02*
X12152086Y-5543984D01*
X12152086Y-5543984D02*
X12152086Y-5563031D01*
X12275896Y-5743984D02*
X12256848Y-5734460D01*
X12256848Y-5734460D02*
X12247324Y-5715412D01*
X12247324Y-5715412D02*
X12247324Y-5543984D01*
X12380658Y-5743984D02*
X12361610Y-5734460D01*
X12361610Y-5734460D02*
X12352086Y-5715412D01*
X12352086Y-5715412D02*
X12352086Y-5543984D01*
X12609229Y-5743984D02*
X12609229Y-5543984D01*
X12609229Y-5543984D02*
X12675896Y-5686841D01*
X12675896Y-5686841D02*
X12742562Y-5543984D01*
X12742562Y-5543984D02*
X12742562Y-5743984D01*
X12923515Y-5743984D02*
X12923515Y-5639222D01*
X12923515Y-5639222D02*
X12913991Y-5620174D01*
X12913991Y-5620174D02*
X12894943Y-5610650D01*
X12894943Y-5610650D02*
X12856848Y-5610650D01*
X12856848Y-5610650D02*
X12837801Y-5620174D01*
X12923515Y-5734460D02*
X12904467Y-5743984D01*
X12904467Y-5743984D02*
X12856848Y-5743984D01*
X12856848Y-5743984D02*
X12837801Y-5734460D01*
X12837801Y-5734460D02*
X12828277Y-5715412D01*
X12828277Y-5715412D02*
X12828277Y-5696365D01*
X12828277Y-5696365D02*
X12837801Y-5677317D01*
X12837801Y-5677317D02*
X12856848Y-5667793D01*
X12856848Y-5667793D02*
X12904467Y-5667793D01*
X12904467Y-5667793D02*
X12923515Y-5658269D01*
X13018753Y-5610650D02*
X13018753Y-5810650D01*
X13018753Y-5620174D02*
X13037801Y-5610650D01*
X13037801Y-5610650D02*
X13075896Y-5610650D01*
X13075896Y-5610650D02*
X13094943Y-5620174D01*
X13094943Y-5620174D02*
X13104467Y-5629698D01*
X13104467Y-5629698D02*
X13113991Y-5648746D01*
X13113991Y-5648746D02*
X13113991Y-5705888D01*
X13113991Y-5705888D02*
X13104467Y-5724936D01*
X13104467Y-5724936D02*
X13094943Y-5734460D01*
X13094943Y-5734460D02*
X13075896Y-5743984D01*
X13075896Y-5743984D02*
X13037801Y-5743984D01*
X13037801Y-5743984D02*
X13018753Y-5734460D01*
X13199705Y-5724936D02*
X13209229Y-5734460D01*
X13209229Y-5734460D02*
X13199705Y-5743984D01*
X13199705Y-5743984D02*
X13190182Y-5734460D01*
X13190182Y-5734460D02*
X13199705Y-5724936D01*
X13199705Y-5724936D02*
X13199705Y-5743984D01*
X13199705Y-5620174D02*
X13209229Y-5629698D01*
X13209229Y-5629698D02*
X13199705Y-5639222D01*
X13199705Y-5639222D02*
X13190182Y-5629698D01*
X13190182Y-5629698D02*
X13199705Y-5620174D01*
X13199705Y-5620174D02*
X13199705Y-5639222D01*
X11367500Y-5972500D02*
X11567500Y-6172500D01*
X11567500Y-5972500D02*
X11367500Y-6172500D01*
X11818753Y-5983031D02*
X11828277Y-5973508D01*
X11828277Y-5973508D02*
X11847324Y-5963984D01*
X11847324Y-5963984D02*
X11894943Y-5963984D01*
X11894943Y-5963984D02*
X11913991Y-5973508D01*
X11913991Y-5973508D02*
X11923515Y-5983031D01*
X11923515Y-5983031D02*
X11933039Y-6002079D01*
X11933039Y-6002079D02*
X11933039Y-6021127D01*
X11933039Y-6021127D02*
X11923515Y-6049698D01*
X11923515Y-6049698D02*
X11809229Y-6163984D01*
X11809229Y-6163984D02*
X11933039Y-6163984D01*
X12018753Y-6144936D02*
X12028277Y-6154460D01*
X12028277Y-6154460D02*
X12018753Y-6163984D01*
X12018753Y-6163984D02*
X12009229Y-6154460D01*
X12009229Y-6154460D02*
X12018753Y-6144936D01*
X12018753Y-6144936D02*
X12018753Y-6163984D01*
X12094943Y-5963984D02*
X12218753Y-5963984D01*
X12218753Y-5963984D02*
X12152086Y-6040174D01*
X12152086Y-6040174D02*
X12180658Y-6040174D01*
X12180658Y-6040174D02*
X12199705Y-6049698D01*
X12199705Y-6049698D02*
X12209229Y-6059222D01*
X12209229Y-6059222D02*
X12218753Y-6078269D01*
X12218753Y-6078269D02*
X12218753Y-6125888D01*
X12218753Y-6125888D02*
X12209229Y-6144936D01*
X12209229Y-6144936D02*
X12199705Y-6154460D01*
X12199705Y-6154460D02*
X12180658Y-6163984D01*
X12180658Y-6163984D02*
X12123515Y-6163984D01*
X12123515Y-6163984D02*
X12104467Y-6154460D01*
X12104467Y-6154460D02*
X12094943Y-6144936D01*
X12342562Y-5963984D02*
X12361610Y-5963984D01*
X12361610Y-5963984D02*
X12380658Y-5973508D01*
X12380658Y-5973508D02*
X12390182Y-5983031D01*
X12390182Y-5983031D02*
X12399705Y-6002079D01*
X12399705Y-6002079D02*
X12409229Y-6040174D01*
X12409229Y-6040174D02*
X12409229Y-6087793D01*
X12409229Y-6087793D02*
X12399705Y-6125888D01*
X12399705Y-6125888D02*
X12390182Y-6144936D01*
X12390182Y-6144936D02*
X12380658Y-6154460D01*
X12380658Y-6154460D02*
X12361610Y-6163984D01*
X12361610Y-6163984D02*
X12342562Y-6163984D01*
X12342562Y-6163984D02*
X12323515Y-6154460D01*
X12323515Y-6154460D02*
X12313991Y-6144936D01*
X12313991Y-6144936D02*
X12304467Y-6125888D01*
X12304467Y-6125888D02*
X12294943Y-6087793D01*
X12294943Y-6087793D02*
X12294943Y-6040174D01*
X12294943Y-6040174D02*
X12304467Y-6002079D01*
X12304467Y-6002079D02*
X12313991Y-5983031D01*
X12313991Y-5983031D02*
X12323515Y-5973508D01*
X12323515Y-5973508D02*
X12342562Y-5963984D01*
X12533039Y-5963984D02*
X12552086Y-5963984D01*
X12552086Y-5963984D02*
X12571134Y-5973508D01*
X12571134Y-5973508D02*
X12580658Y-5983031D01*
X12580658Y-5983031D02*
X12590182Y-6002079D01*
X12590182Y-6002079D02*
X12599705Y-6040174D01*
X12599705Y-6040174D02*
X12599705Y-6087793D01*
X12599705Y-6087793D02*
X12590182Y-6125888D01*
X12590182Y-6125888D02*
X12580658Y-6144936D01*
X12580658Y-6144936D02*
X12571134Y-6154460D01*
X12571134Y-6154460D02*
X12552086Y-6163984D01*
X12552086Y-6163984D02*
X12533039Y-6163984D01*
X12533039Y-6163984D02*
X12513991Y-6154460D01*
X12513991Y-6154460D02*
X12504467Y-6144936D01*
X12504467Y-6144936D02*
X12494943Y-6125888D01*
X12494943Y-6125888D02*
X12485420Y-6087793D01*
X12485420Y-6087793D02*
X12485420Y-6040174D01*
X12485420Y-6040174D02*
X12494943Y-6002079D01*
X12494943Y-6002079D02*
X12504467Y-5983031D01*
X12504467Y-5983031D02*
X12513991Y-5973508D01*
X12513991Y-5973508D02*
X12533039Y-5963984D01*
X12685420Y-6163984D02*
X12685420Y-6030650D01*
X12685420Y-6049698D02*
X12694943Y-6040174D01*
X12694943Y-6040174D02*
X12713991Y-6030650D01*
X12713991Y-6030650D02*
X12742563Y-6030650D01*
X12742563Y-6030650D02*
X12761610Y-6040174D01*
X12761610Y-6040174D02*
X12771134Y-6059222D01*
X12771134Y-6059222D02*
X12771134Y-6163984D01*
X12771134Y-6059222D02*
X12780658Y-6040174D01*
X12780658Y-6040174D02*
X12799705Y-6030650D01*
X12799705Y-6030650D02*
X12828277Y-6030650D01*
X12828277Y-6030650D02*
X12847324Y-6040174D01*
X12847324Y-6040174D02*
X12856848Y-6059222D01*
X12856848Y-6059222D02*
X12856848Y-6163984D01*
X12952086Y-6163984D02*
X12952086Y-6030650D01*
X12952086Y-6049698D02*
X12961610Y-6040174D01*
X12961610Y-6040174D02*
X12980658Y-6030650D01*
X12980658Y-6030650D02*
X13009229Y-6030650D01*
X13009229Y-6030650D02*
X13028277Y-6040174D01*
X13028277Y-6040174D02*
X13037801Y-6059222D01*
X13037801Y-6059222D02*
X13037801Y-6163984D01*
X13037801Y-6059222D02*
X13047324Y-6040174D01*
X13047324Y-6040174D02*
X13066372Y-6030650D01*
X13066372Y-6030650D02*
X13094943Y-6030650D01*
X13094943Y-6030650D02*
X13113991Y-6040174D01*
X13113991Y-6040174D02*
X13123515Y-6059222D01*
X13123515Y-6059222D02*
X13123515Y-6163984D01*
X13513991Y-5954460D02*
X13342563Y-6211603D01*
X13771134Y-5963984D02*
X13790182Y-5963984D01*
X13790182Y-5963984D02*
X13809229Y-5973508D01*
X13809229Y-5973508D02*
X13818753Y-5983031D01*
X13818753Y-5983031D02*
X13828277Y-6002079D01*
X13828277Y-6002079D02*
X13837801Y-6040174D01*
X13837801Y-6040174D02*
X13837801Y-6087793D01*
X13837801Y-6087793D02*
X13828277Y-6125888D01*
X13828277Y-6125888D02*
X13818753Y-6144936D01*
X13818753Y-6144936D02*
X13809229Y-6154460D01*
X13809229Y-6154460D02*
X13790182Y-6163984D01*
X13790182Y-6163984D02*
X13771134Y-6163984D01*
X13771134Y-6163984D02*
X13752086Y-6154460D01*
X13752086Y-6154460D02*
X13742563Y-6144936D01*
X13742563Y-6144936D02*
X13733039Y-6125888D01*
X13733039Y-6125888D02*
X13723515Y-6087793D01*
X13723515Y-6087793D02*
X13723515Y-6040174D01*
X13723515Y-6040174D02*
X13733039Y-6002079D01*
X13733039Y-6002079D02*
X13742563Y-5983031D01*
X13742563Y-5983031D02*
X13752086Y-5973508D01*
X13752086Y-5973508D02*
X13771134Y-5963984D01*
X13923515Y-6144936D02*
X13933039Y-6154460D01*
X13933039Y-6154460D02*
X13923515Y-6163984D01*
X13923515Y-6163984D02*
X13913991Y-6154460D01*
X13913991Y-6154460D02*
X13923515Y-6144936D01*
X13923515Y-6144936D02*
X13923515Y-6163984D01*
X14056848Y-5963984D02*
X14075896Y-5963984D01*
X14075896Y-5963984D02*
X14094944Y-5973508D01*
X14094944Y-5973508D02*
X14104467Y-5983031D01*
X14104467Y-5983031D02*
X14113991Y-6002079D01*
X14113991Y-6002079D02*
X14123515Y-6040174D01*
X14123515Y-6040174D02*
X14123515Y-6087793D01*
X14123515Y-6087793D02*
X14113991Y-6125888D01*
X14113991Y-6125888D02*
X14104467Y-6144936D01*
X14104467Y-6144936D02*
X14094944Y-6154460D01*
X14094944Y-6154460D02*
X14075896Y-6163984D01*
X14075896Y-6163984D02*
X14056848Y-6163984D01*
X14056848Y-6163984D02*
X14037801Y-6154460D01*
X14037801Y-6154460D02*
X14028277Y-6144936D01*
X14028277Y-6144936D02*
X14018753Y-6125888D01*
X14018753Y-6125888D02*
X14009229Y-6087793D01*
X14009229Y-6087793D02*
X14009229Y-6040174D01*
X14009229Y-6040174D02*
X14018753Y-6002079D01*
X14018753Y-6002079D02*
X14028277Y-5983031D01*
X14028277Y-5983031D02*
X14037801Y-5973508D01*
X14037801Y-5973508D02*
X14056848Y-5963984D01*
X14218753Y-6163984D02*
X14256848Y-6163984D01*
X14256848Y-6163984D02*
X14275896Y-6154460D01*
X14275896Y-6154460D02*
X14285420Y-6144936D01*
X14285420Y-6144936D02*
X14304467Y-6116365D01*
X14304467Y-6116365D02*
X14313991Y-6078269D01*
X14313991Y-6078269D02*
X14313991Y-6002079D01*
X14313991Y-6002079D02*
X14304467Y-5983031D01*
X14304467Y-5983031D02*
X14294944Y-5973508D01*
X14294944Y-5973508D02*
X14275896Y-5963984D01*
X14275896Y-5963984D02*
X14237801Y-5963984D01*
X14237801Y-5963984D02*
X14218753Y-5973508D01*
X14218753Y-5973508D02*
X14209229Y-5983031D01*
X14209229Y-5983031D02*
X14199706Y-6002079D01*
X14199706Y-6002079D02*
X14199706Y-6049698D01*
X14199706Y-6049698D02*
X14209229Y-6068746D01*
X14209229Y-6068746D02*
X14218753Y-6078269D01*
X14218753Y-6078269D02*
X14237801Y-6087793D01*
X14237801Y-6087793D02*
X14275896Y-6087793D01*
X14275896Y-6087793D02*
X14294944Y-6078269D01*
X14294944Y-6078269D02*
X14304467Y-6068746D01*
X14304467Y-6068746D02*
X14313991Y-6049698D01*
X14437801Y-5963984D02*
X14456848Y-5963984D01*
X14456848Y-5963984D02*
X14475896Y-5973508D01*
X14475896Y-5973508D02*
X14485420Y-5983031D01*
X14485420Y-5983031D02*
X14494944Y-6002079D01*
X14494944Y-6002079D02*
X14504467Y-6040174D01*
X14504467Y-6040174D02*
X14504467Y-6087793D01*
X14504467Y-6087793D02*
X14494944Y-6125888D01*
X14494944Y-6125888D02*
X14485420Y-6144936D01*
X14485420Y-6144936D02*
X14475896Y-6154460D01*
X14475896Y-6154460D02*
X14456848Y-6163984D01*
X14456848Y-6163984D02*
X14437801Y-6163984D01*
X14437801Y-6163984D02*
X14418753Y-6154460D01*
X14418753Y-6154460D02*
X14409229Y-6144936D01*
X14409229Y-6144936D02*
X14399706Y-6125888D01*
X14399706Y-6125888D02*
X14390182Y-6087793D01*
X14390182Y-6087793D02*
X14390182Y-6040174D01*
X14390182Y-6040174D02*
X14399706Y-6002079D01*
X14399706Y-6002079D02*
X14409229Y-5983031D01*
X14409229Y-5983031D02*
X14418753Y-5973508D01*
X14418753Y-5973508D02*
X14437801Y-5963984D01*
X14675896Y-5963984D02*
X14637801Y-5963984D01*
X14637801Y-5963984D02*
X14618753Y-5973508D01*
X14618753Y-5973508D02*
X14609229Y-5983031D01*
X14609229Y-5983031D02*
X14590182Y-6011603D01*
X14590182Y-6011603D02*
X14580658Y-6049698D01*
X14580658Y-6049698D02*
X14580658Y-6125888D01*
X14580658Y-6125888D02*
X14590182Y-6144936D01*
X14590182Y-6144936D02*
X14599706Y-6154460D01*
X14599706Y-6154460D02*
X14618753Y-6163984D01*
X14618753Y-6163984D02*
X14656848Y-6163984D01*
X14656848Y-6163984D02*
X14675896Y-6154460D01*
X14675896Y-6154460D02*
X14685420Y-6144936D01*
X14685420Y-6144936D02*
X14694944Y-6125888D01*
X14694944Y-6125888D02*
X14694944Y-6078269D01*
X14694944Y-6078269D02*
X14685420Y-6059222D01*
X14685420Y-6059222D02*
X14675896Y-6049698D01*
X14675896Y-6049698D02*
X14656848Y-6040174D01*
X14656848Y-6040174D02*
X14618753Y-6040174D01*
X14618753Y-6040174D02*
X14599706Y-6049698D01*
X14599706Y-6049698D02*
X14590182Y-6059222D01*
X14590182Y-6059222D02*
X14580658Y-6078269D01*
X14771134Y-5963984D02*
X14771134Y-6002079D01*
X14847325Y-5963984D02*
X14847325Y-6002079D01*
X15142563Y-6240174D02*
X15133039Y-6230650D01*
X15133039Y-6230650D02*
X15113991Y-6202079D01*
X15113991Y-6202079D02*
X15104468Y-6183031D01*
X15104468Y-6183031D02*
X15094944Y-6154460D01*
X15094944Y-6154460D02*
X15085420Y-6106841D01*
X15085420Y-6106841D02*
X15085420Y-6068746D01*
X15085420Y-6068746D02*
X15094944Y-6021127D01*
X15094944Y-6021127D02*
X15104468Y-5992555D01*
X15104468Y-5992555D02*
X15113991Y-5973508D01*
X15113991Y-5973508D02*
X15133039Y-5944936D01*
X15133039Y-5944936D02*
X15142563Y-5935412D01*
X15304468Y-6030650D02*
X15304468Y-6163984D01*
X15256848Y-5954460D02*
X15209229Y-6097317D01*
X15209229Y-6097317D02*
X15333039Y-6097317D01*
X15561610Y-6163984D02*
X15561610Y-5963984D01*
X15647325Y-6163984D02*
X15647325Y-6059222D01*
X15647325Y-6059222D02*
X15637801Y-6040174D01*
X15637801Y-6040174D02*
X15618753Y-6030650D01*
X15618753Y-6030650D02*
X15590182Y-6030650D01*
X15590182Y-6030650D02*
X15571134Y-6040174D01*
X15571134Y-6040174D02*
X15561610Y-6049698D01*
X15771134Y-6163984D02*
X15752087Y-6154460D01*
X15752087Y-6154460D02*
X15742563Y-6144936D01*
X15742563Y-6144936D02*
X15733039Y-6125888D01*
X15733039Y-6125888D02*
X15733039Y-6068746D01*
X15733039Y-6068746D02*
X15742563Y-6049698D01*
X15742563Y-6049698D02*
X15752087Y-6040174D01*
X15752087Y-6040174D02*
X15771134Y-6030650D01*
X15771134Y-6030650D02*
X15799706Y-6030650D01*
X15799706Y-6030650D02*
X15818753Y-6040174D01*
X15818753Y-6040174D02*
X15828277Y-6049698D01*
X15828277Y-6049698D02*
X15837801Y-6068746D01*
X15837801Y-6068746D02*
X15837801Y-6125888D01*
X15837801Y-6125888D02*
X15828277Y-6144936D01*
X15828277Y-6144936D02*
X15818753Y-6154460D01*
X15818753Y-6154460D02*
X15799706Y-6163984D01*
X15799706Y-6163984D02*
X15771134Y-6163984D01*
X15952087Y-6163984D02*
X15933039Y-6154460D01*
X15933039Y-6154460D02*
X15923515Y-6135412D01*
X15923515Y-6135412D02*
X15923515Y-5963984D01*
X16104468Y-6154460D02*
X16085420Y-6163984D01*
X16085420Y-6163984D02*
X16047325Y-6163984D01*
X16047325Y-6163984D02*
X16028277Y-6154460D01*
X16028277Y-6154460D02*
X16018753Y-6135412D01*
X16018753Y-6135412D02*
X16018753Y-6059222D01*
X16018753Y-6059222D02*
X16028277Y-6040174D01*
X16028277Y-6040174D02*
X16047325Y-6030650D01*
X16047325Y-6030650D02*
X16085420Y-6030650D01*
X16085420Y-6030650D02*
X16104468Y-6040174D01*
X16104468Y-6040174D02*
X16113991Y-6059222D01*
X16113991Y-6059222D02*
X16113991Y-6078269D01*
X16113991Y-6078269D02*
X16018753Y-6097317D01*
X16190182Y-6154460D02*
X16209230Y-6163984D01*
X16209230Y-6163984D02*
X16247325Y-6163984D01*
X16247325Y-6163984D02*
X16266372Y-6154460D01*
X16266372Y-6154460D02*
X16275896Y-6135412D01*
X16275896Y-6135412D02*
X16275896Y-6125888D01*
X16275896Y-6125888D02*
X16266372Y-6106841D01*
X16266372Y-6106841D02*
X16247325Y-6097317D01*
X16247325Y-6097317D02*
X16218753Y-6097317D01*
X16218753Y-6097317D02*
X16199706Y-6087793D01*
X16199706Y-6087793D02*
X16190182Y-6068746D01*
X16190182Y-6068746D02*
X16190182Y-6059222D01*
X16190182Y-6059222D02*
X16199706Y-6040174D01*
X16199706Y-6040174D02*
X16218753Y-6030650D01*
X16218753Y-6030650D02*
X16247325Y-6030650D01*
X16247325Y-6030650D02*
X16266372Y-6040174D01*
X16342563Y-6240174D02*
X16352087Y-6230650D01*
X16352087Y-6230650D02*
X16371134Y-6202079D01*
X16371134Y-6202079D02*
X16380658Y-6183031D01*
X16380658Y-6183031D02*
X16390182Y-6154460D01*
X16390182Y-6154460D02*
X16399706Y-6106841D01*
X16399706Y-6106841D02*
X16399706Y-6068746D01*
X16399706Y-6068746D02*
X16390182Y-6021127D01*
X16390182Y-6021127D02*
X16380658Y-5992555D01*
X16380658Y-5992555D02*
X16371134Y-5973508D01*
X16371134Y-5973508D02*
X16352087Y-5944936D01*
X16352087Y-5944936D02*
X16342563Y-5935412D01*
X16704468Y-6240174D02*
X16694944Y-6230650D01*
X16694944Y-6230650D02*
X16675896Y-6202079D01*
X16675896Y-6202079D02*
X16666372Y-6183031D01*
X16666372Y-6183031D02*
X16656849Y-6154460D01*
X16656849Y-6154460D02*
X16647325Y-6106841D01*
X16647325Y-6106841D02*
X16647325Y-6068746D01*
X16647325Y-6068746D02*
X16656849Y-6021127D01*
X16656849Y-6021127D02*
X16666372Y-5992555D01*
X16666372Y-5992555D02*
X16675896Y-5973508D01*
X16675896Y-5973508D02*
X16694944Y-5944936D01*
X16694944Y-5944936D02*
X16704468Y-5935412D01*
X16780658Y-6030650D02*
X16780658Y-6163984D01*
X16780658Y-6049698D02*
X16790182Y-6040174D01*
X16790182Y-6040174D02*
X16809230Y-6030650D01*
X16809230Y-6030650D02*
X16837801Y-6030650D01*
X16837801Y-6030650D02*
X16856849Y-6040174D01*
X16856849Y-6040174D02*
X16866373Y-6059222D01*
X16866373Y-6059222D02*
X16866373Y-6163984D01*
X16990182Y-6163984D02*
X16971134Y-6154460D01*
X16971134Y-6154460D02*
X16961611Y-6144936D01*
X16961611Y-6144936D02*
X16952087Y-6125888D01*
X16952087Y-6125888D02*
X16952087Y-6068746D01*
X16952087Y-6068746D02*
X16961611Y-6049698D01*
X16961611Y-6049698D02*
X16971134Y-6040174D01*
X16971134Y-6040174D02*
X16990182Y-6030650D01*
X16990182Y-6030650D02*
X17018754Y-6030650D01*
X17018754Y-6030650D02*
X17037801Y-6040174D01*
X17037801Y-6040174D02*
X17047325Y-6049698D01*
X17047325Y-6049698D02*
X17056849Y-6068746D01*
X17056849Y-6068746D02*
X17056849Y-6125888D01*
X17056849Y-6125888D02*
X17047325Y-6144936D01*
X17047325Y-6144936D02*
X17037801Y-6154460D01*
X17037801Y-6154460D02*
X17018754Y-6163984D01*
X17018754Y-6163984D02*
X16990182Y-6163984D01*
X17113992Y-6030650D02*
X17190182Y-6030650D01*
X17142563Y-5963984D02*
X17142563Y-6135412D01*
X17142563Y-6135412D02*
X17152087Y-6154460D01*
X17152087Y-6154460D02*
X17171134Y-6163984D01*
X17171134Y-6163984D02*
X17190182Y-6163984D01*
X17409230Y-6030650D02*
X17409230Y-6230650D01*
X17409230Y-6040174D02*
X17428277Y-6030650D01*
X17428277Y-6030650D02*
X17466373Y-6030650D01*
X17466373Y-6030650D02*
X17485420Y-6040174D01*
X17485420Y-6040174D02*
X17494944Y-6049698D01*
X17494944Y-6049698D02*
X17504468Y-6068746D01*
X17504468Y-6068746D02*
X17504468Y-6125888D01*
X17504468Y-6125888D02*
X17494944Y-6144936D01*
X17494944Y-6144936D02*
X17485420Y-6154460D01*
X17485420Y-6154460D02*
X17466373Y-6163984D01*
X17466373Y-6163984D02*
X17428277Y-6163984D01*
X17428277Y-6163984D02*
X17409230Y-6154460D01*
X17618754Y-6163984D02*
X17599706Y-6154460D01*
X17599706Y-6154460D02*
X17590182Y-6135412D01*
X17590182Y-6135412D02*
X17590182Y-5963984D01*
X17780658Y-6163984D02*
X17780658Y-6059222D01*
X17780658Y-6059222D02*
X17771135Y-6040174D01*
X17771135Y-6040174D02*
X17752087Y-6030650D01*
X17752087Y-6030650D02*
X17713992Y-6030650D01*
X17713992Y-6030650D02*
X17694944Y-6040174D01*
X17780658Y-6154460D02*
X17761611Y-6163984D01*
X17761611Y-6163984D02*
X17713992Y-6163984D01*
X17713992Y-6163984D02*
X17694944Y-6154460D01*
X17694944Y-6154460D02*
X17685420Y-6135412D01*
X17685420Y-6135412D02*
X17685420Y-6116365D01*
X17685420Y-6116365D02*
X17694944Y-6097317D01*
X17694944Y-6097317D02*
X17713992Y-6087793D01*
X17713992Y-6087793D02*
X17761611Y-6087793D01*
X17761611Y-6087793D02*
X17780658Y-6078269D01*
X17847325Y-6030650D02*
X17923515Y-6030650D01*
X17875896Y-5963984D02*
X17875896Y-6135412D01*
X17875896Y-6135412D02*
X17885420Y-6154460D01*
X17885420Y-6154460D02*
X17904468Y-6163984D01*
X17904468Y-6163984D02*
X17923515Y-6163984D01*
X18066373Y-6154460D02*
X18047325Y-6163984D01*
X18047325Y-6163984D02*
X18009230Y-6163984D01*
X18009230Y-6163984D02*
X17990182Y-6154460D01*
X17990182Y-6154460D02*
X17980658Y-6135412D01*
X17980658Y-6135412D02*
X17980658Y-6059222D01*
X17980658Y-6059222D02*
X17990182Y-6040174D01*
X17990182Y-6040174D02*
X18009230Y-6030650D01*
X18009230Y-6030650D02*
X18047325Y-6030650D01*
X18047325Y-6030650D02*
X18066373Y-6040174D01*
X18066373Y-6040174D02*
X18075896Y-6059222D01*
X18075896Y-6059222D02*
X18075896Y-6078269D01*
X18075896Y-6078269D02*
X17980658Y-6097317D01*
X18247325Y-6163984D02*
X18247325Y-5963984D01*
X18247325Y-6154460D02*
X18228277Y-6163984D01*
X18228277Y-6163984D02*
X18190182Y-6163984D01*
X18190182Y-6163984D02*
X18171135Y-6154460D01*
X18171135Y-6154460D02*
X18161611Y-6144936D01*
X18161611Y-6144936D02*
X18152087Y-6125888D01*
X18152087Y-6125888D02*
X18152087Y-6068746D01*
X18152087Y-6068746D02*
X18161611Y-6049698D01*
X18161611Y-6049698D02*
X18171135Y-6040174D01*
X18171135Y-6040174D02*
X18190182Y-6030650D01*
X18190182Y-6030650D02*
X18228277Y-6030650D01*
X18228277Y-6030650D02*
X18247325Y-6040174D01*
X18323516Y-6240174D02*
X18333039Y-6230650D01*
X18333039Y-6230650D02*
X18352087Y-6202079D01*
X18352087Y-6202079D02*
X18361611Y-6183031D01*
X18361611Y-6183031D02*
X18371135Y-6154460D01*
X18371135Y-6154460D02*
X18380658Y-6106841D01*
X18380658Y-6106841D02*
X18380658Y-6068746D01*
X18380658Y-6068746D02*
X18371135Y-6021127D01*
X18371135Y-6021127D02*
X18361611Y-5992555D01*
X18361611Y-5992555D02*
X18352087Y-5973508D01*
X18352087Y-5973508D02*
X18333039Y-5944936D01*
X18333039Y-5944936D02*
X18323516Y-5935412D01*
M02*
